<?xml version="1.0" encoding="utf-8"?>
<!-- Generator: Adobe Illustrator 23.1.0, SVG Export Plug-In . SVG Version: 6.00 Build 0)  -->
<svg version="1.1" id="Layer_1" xmlns="http://www.w3.org/2000/svg" xmlns:xlink="http://www.w3.org/1999/xlink" x="0px" y="0px"
	 viewBox="0 0 50 50" style="enable-background:new 0 0 50 50;" xml:space="preserve">
<style type="text/css">
	.st0{fill:#C9F3F2;}
	.st1{fill:#1FC9C8;}
</style>
<rect class="st0" width="50" height="50"/>
<g>
	<circle class="st1" cx="25" cy="15" r="3.8"/>
	<path class="st1" d="M25,32L14.8,21.8c-1.1-1.1-2.9-1.1-4,0s-1.1,2.9,0,4l11.9,12c0.1,0.1,0.2,0.2,0.3,0.3c0.6,0.6,1.3,0.8,2,0.8
		s1.5-0.3,2-0.8c0.1-0.1,0.2-0.2,0.3-0.3l11.9-12c1.1-1.1,1.1-2.9,0-4s-2.9-1.1-4,0L25,32z"/>
	<path class="st1" d="M33.6,21H16.4l8.6,8.7L33.6,21z"/>
</g>
</svg>
