<?xml version="1.0" encoding="utf-8"?>
<!-- Generator: Adobe Illustrator 23.1.0, SVG Export Plug-In . SVG Version: 6.00 Build 0)  -->
<svg version="1.1" id="Layer_1" xmlns="http://www.w3.org/2000/svg" xmlns:xlink="http://www.w3.org/1999/xlink" x="0px" y="0px"
	 viewBox="0 0 50 50" style="enable-background:new 0 0 50 50;" xml:space="preserve">
<style type="text/css">
	.st0{fill:#1FC9C8;}
	.st1{fill:#C9F3F2;}
</style>
<g>
	<circle class="st0" cx="25" cy="25" r="25"/>
</g>
<circle class="st1" cx="35" cy="25" r="3.8"/>
<path class="st1" d="M17.9,25l10.3-10.2c1.1-1.1,1.1-2.9,0-4c-1.1-1.1-2.9-1.1-4,0l-12,11.9c-0.1,0.1-0.2,0.2-0.3,0.3
	c-0.6,0.6-0.8,1.3-0.8,2c0,0.7,0.3,1.5,0.8,2c0.1,0.1,0.2,0.2,0.3,0.3l12,11.9c1.1,1.1,2.9,1.1,4,0c1.1-1.1,1.1-2.9,0-4L17.9,25z"/>
<path class="st1" d="M29,33.6V16.4L20.3,25L29,33.6z"/>
</svg>
