<?xml version="1.0" encoding="utf-8"?>
<!-- Generator: Adobe Illustrator 23.1.0, SVG Export Plug-In . SVG Version: 6.00 Build 0)  -->
<svg version="1.1" id="Layer_1" xmlns="http://www.w3.org/2000/svg" xmlns:xlink="http://www.w3.org/1999/xlink" x="0px" y="0px"
	 viewBox="0 0 50 50" style="enable-background:new 0 0 50 50;" xml:space="preserve">
<style type="text/css">
	.st0{fill:#C9F3F2;}
	.st1{fill:#1FC9C8;}
</style>
<rect class="st0" width="50" height="50"/>
<circle class="st1" cx="15" cy="25" r="3.8"/>
<path class="st1" d="M32.1,25L21.8,35.2c-1.1,1.1-1.1,2.9,0,4s2.9,1.1,4,0l12-11.9c0.1-0.1,0.2-0.2,0.3-0.3c0.6-0.6,0.8-1.3,0.8-2
	s-0.3-1.5-0.8-2c-0.1-0.1-0.2-0.2-0.3-0.3l-12-11.9c-1.1-1.1-2.9-1.1-4,0s-1.1,2.9,0,4L32.1,25z"/>
<path class="st1" d="M21,16.4v17.2l8.7-8.6L21,16.4z"/>
</svg>
