<?xml version="1.0" encoding="utf-8"?>
<!-- Generator: Adobe Illustrator 26.0.0, SVG Export Plug-In . SVG Version: 6.00 Build 0)  -->
<svg version="1.1" id="Layer_1" xmlns="http://www.w3.org/2000/svg" xmlns:xlink="http://www.w3.org/1999/xlink" x="0px" y="0px"
	 viewBox="0 0 60 60" style="enable-background:new 0 0 60 60;" xml:space="preserve">
<style type="text/css">
	.st0{fill:#F5F0DD;}
	.st1{fill-rule:evenodd;clip-rule:evenodd;fill:#1FC9C8;}
</style>
<circle class="st0" cx="317" cy="108" r="30"/>
<path class="st1" d="M317,88c0.7,0,1.3,0.3,1.8,0.7c0.5,0.5,0.7,1.1,0.7,1.8V93c0,0.7-0.3,1.3-0.7,1.8c-0.5,0.5-1.1,0.7-1.8,0.7
	s-1.3-0.3-1.8-0.7c-0.5-0.5-0.7-1.1-0.7-1.8v-2.5c0-0.7,0.3-1.3,0.7-1.8C315.7,88.3,316.3,88,317,88z M327,108
	c0,2.7-1.1,5.2-2.9,7.1c-1.9,1.9-4.4,2.9-7.1,2.9s-5.2-1.1-7.1-2.9c-1.9-1.9-2.9-4.4-2.9-7.1s1.1-5.2,2.9-7.1
	c1.9-1.9,4.4-2.9,7.1-2.9s5.2,1.1,7.1,2.9C325.9,102.8,327,105.3,327,108z M325.8,120.4l1.8,1.8c0.5,0.5,1.1,0.7,1.8,0.7
	s1.3-0.3,1.7-0.7c0.5-0.5,0.7-1.1,0.7-1.7s-0.2-1.3-0.7-1.8l-1.8-1.8c-0.5-0.5-1.1-0.7-1.8-0.7c-0.7,0-1.3,0.3-1.7,0.7
	c-0.5,0.5-0.7,1.1-0.7,1.7S325.4,119.9,325.8,120.4z M331.1,93.9c0.5,0.5,0.7,1.1,0.7,1.8s-0.3,1.3-0.7,1.8l-1.8,1.8
	c-0.2,0.2-0.5,0.4-0.8,0.6c-0.3,0.1-0.6,0.2-1,0.2c-0.3,0-0.7-0.1-1-0.2c-0.3-0.1-0.6-0.3-0.8-0.5c-0.2-0.2-0.4-0.5-0.5-0.8
	c-0.1-0.3-0.2-0.6-0.2-1c0-0.3,0.1-0.7,0.2-1c0.1-0.3,0.3-0.6,0.6-0.8l1.8-1.8c0.5-0.5,1.1-0.7,1.8-0.7S330.7,93.4,331.1,93.9
	L331.1,93.9z M334.5,110.5c0.7,0,1.3-0.3,1.8-0.7c0.5-0.5,0.7-1.1,0.7-1.8s-0.3-1.3-0.7-1.8c-0.5-0.5-1.1-0.7-1.8-0.7H332
	c-0.7,0-1.3,0.3-1.8,0.7c-0.5,0.5-0.7,1.1-0.7,1.8s0.3,1.3,0.7,1.8c0.5,0.5,1.1,0.7,1.8,0.7H334.5z M317,120.5
	c0.7,0,1.3,0.3,1.8,0.7c0.5,0.5,0.7,1.1,0.7,1.8v2.5c0,0.7-0.3,1.3-0.7,1.8c-0.5,0.5-1.1,0.7-1.8,0.7s-1.3-0.3-1.8-0.7
	c-0.5-0.5-0.7-1.1-0.7-1.8V123c0-0.7,0.3-1.3,0.7-1.8C315.7,120.8,316.3,120.5,317,120.5z M304.6,99.2c0.2,0.2,0.5,0.4,0.8,0.5
	c0.3,0.1,0.6,0.2,1,0.2c0.3,0,0.7-0.1,1-0.2c0.3-0.1,0.6-0.3,0.8-0.5c0.2-0.2,0.4-0.5,0.5-0.8c0.1-0.3,0.2-0.6,0.2-1
	c0-0.3-0.1-0.7-0.2-1c-0.1-0.3-0.3-0.6-0.5-0.8l-1.8-1.8c-0.5-0.5-1.1-0.7-1.8-0.7s-1.3,0.3-1.7,0.7c-0.5,0.5-0.7,1.1-0.7,1.7
	c0,0.7,0.2,1.3,0.7,1.8L304.6,99.2z M308.2,120.4l-1.8,1.8c-0.5,0.5-1.1,0.7-1.8,0.7s-1.3-0.3-1.7-0.7c-0.5-0.5-0.7-1.1-0.7-1.7
	s0.2-1.3,0.7-1.8l1.8-1.8c0.5-0.5,1.1-0.7,1.8-0.7c0.7,0,1.3,0.3,1.7,0.7c0.5,0.5,0.7,1.1,0.7,1.7S308.6,119.9,308.2,120.4z
	 M302,110.5c0.7,0,1.3-0.3,1.8-0.7c0.5-0.5,0.7-1.1,0.7-1.8s-0.3-1.3-0.7-1.8c-0.5-0.5-1.1-0.7-1.8-0.7h-2.5c-0.7,0-1.3,0.3-1.8,0.7
	c-0.5,0.5-0.7,1.1-0.7,1.8s0.3,1.3,0.7,1.8c0.5,0.5,1.1,0.7,1.8,0.7H302z"/>
<g>
	<circle class="st0" cx="30" cy="30" r="30"/>
	<path class="st1" d="M30,10c0.7,0,1.3,0.3,1.8,0.7c0.5,0.5,0.7,1.1,0.7,1.8V15c0,0.7-0.3,1.3-0.7,1.8c-0.5,0.5-1.1,0.7-1.8,0.7
		s-1.3-0.3-1.8-0.7c-0.5-0.5-0.7-1.1-0.7-1.8v-2.5c0-0.7,0.3-1.3,0.7-1.8C28.7,10.3,29.3,10,30,10z M40,30c0,2.7-1.1,5.2-2.9,7.1
		C35.2,38.9,32.7,40,30,40s-5.2-1.1-7.1-2.9C21.1,35.2,20,32.7,20,30s1.1-5.2,2.9-7.1c1.9-1.9,4.4-2.9,7.1-2.9s5.2,1.1,7.1,2.9
		C38.9,24.8,40,27.3,40,30z M38.8,42.4l1.8,1.8c0.5,0.5,1.1,0.7,1.8,0.7c0.7,0,1.3-0.3,1.7-0.7c0.5-0.5,0.7-1.1,0.7-1.7
		c0-0.7-0.2-1.3-0.7-1.8l-1.8-1.8c-0.5-0.5-1.1-0.7-1.8-0.7c-0.7,0-1.3,0.3-1.7,0.7c-0.5,0.5-0.7,1.1-0.7,1.7
		C38.1,41.3,38.4,41.9,38.8,42.4z M44.1,15.9c0.5,0.5,0.7,1.1,0.7,1.8s-0.3,1.3-0.7,1.8l-1.8,1.8c-0.2,0.2-0.5,0.4-0.8,0.6
		c-0.3,0.1-0.6,0.2-1,0.2c-0.3,0-0.7-0.1-1-0.2c-0.3-0.1-0.6-0.3-0.8-0.5c-0.2-0.2-0.4-0.5-0.5-0.8c-0.1-0.3-0.2-0.6-0.2-1
		c0-0.3,0.1-0.7,0.2-1c0.1-0.3,0.3-0.6,0.6-0.8l1.8-1.8c0.5-0.5,1.1-0.7,1.8-0.7S43.7,15.4,44.1,15.9L44.1,15.9z M47.5,32.5
		c0.7,0,1.3-0.3,1.8-0.7c0.5-0.5,0.7-1.1,0.7-1.8s-0.3-1.3-0.7-1.8c-0.5-0.5-1.1-0.7-1.8-0.7H45c-0.7,0-1.3,0.3-1.8,0.7
		c-0.5,0.5-0.7,1.1-0.7,1.8s0.3,1.3,0.7,1.8c0.5,0.5,1.1,0.7,1.8,0.7H47.5z M30,42.5c0.7,0,1.3,0.3,1.8,0.7c0.5,0.5,0.7,1.1,0.7,1.8
		v2.5c0,0.7-0.3,1.3-0.7,1.8C31.3,49.7,30.7,50,30,50s-1.3-0.3-1.8-0.7c-0.5-0.5-0.7-1.1-0.7-1.8V45c0-0.7,0.3-1.3,0.7-1.8
		C28.7,42.8,29.3,42.5,30,42.5z M17.6,21.2c0.2,0.2,0.5,0.4,0.8,0.5c0.3,0.1,0.6,0.2,1,0.2c0.3,0,0.7-0.1,1-0.2
		c0.3-0.1,0.6-0.3,0.8-0.5c0.2-0.2,0.4-0.5,0.5-0.8c0.1-0.3,0.2-0.6,0.2-1c0-0.3-0.1-0.7-0.2-1c-0.1-0.3-0.3-0.6-0.5-0.8l-1.8-1.8
		c-0.5-0.5-1.1-0.7-1.8-0.7c-0.7,0-1.3,0.3-1.7,0.7c-0.5,0.5-0.7,1.1-0.7,1.7c0,0.7,0.2,1.3,0.7,1.8L17.6,21.2z M21.2,42.4l-1.8,1.8
		c-0.5,0.5-1.1,0.7-1.8,0.7c-0.7,0-1.3-0.3-1.7-0.7c-0.5-0.5-0.7-1.1-0.7-1.7c0-0.7,0.2-1.3,0.7-1.8l1.8-1.8
		c0.5-0.5,1.1-0.7,1.8-0.7c0.7,0,1.3,0.3,1.7,0.7c0.5,0.5,0.7,1.1,0.7,1.7C21.9,41.3,21.6,41.9,21.2,42.4z M15,32.5
		c0.7,0,1.3-0.3,1.8-0.7c0.5-0.5,0.7-1.1,0.7-1.8s-0.3-1.3-0.7-1.8c-0.5-0.5-1.1-0.7-1.8-0.7h-2.5c-0.7,0-1.3,0.3-1.8,0.7
		C10.3,28.7,10,29.3,10,30s0.3,1.3,0.7,1.8c0.5,0.5,1.1,0.7,1.8,0.7H15z"/>
</g>
</svg>
