<?xml version="1.0" encoding="utf-8"?>
<!-- Generator: Adobe Illustrator 23.1.0, SVG Export Plug-In . SVG Version: 6.00 Build 0)  -->
<svg version="1.1" id="Layer_1" xmlns="http://www.w3.org/2000/svg" xmlns:xlink="http://www.w3.org/1999/xlink" x="0px" y="0px"
	 viewBox="0 0 180 334.7" style="enable-background:new 0 0 180 334.7;" xml:space="preserve">
<style type="text/css">
	.st0{fill:#1E2163;}
	.st1{fill:#3E418E;}
	.st2{fill:#7A58C3;}
	.st3{fill:url(#SVGID_1_);}
	.st4{fill:#121828;}
	.st5{fill:#3DDAC9;}
</style>
<g>
	<g>
		<path class="st0" d="M154.9,140.7c-0.2,0-0.4-0.1-0.5-0.3c-0.1-0.3,0-0.5,0.3-0.6c15.4-6.1,23.8-13.9,23.8-22.1
			c0-17.9-39.7-32.5-88.5-32.5c-48.8,0-88.5,14.6-88.5,32.5c0,8.2,8.5,16.1,23.8,22.1c0.3,0.1,0.4,0.4,0.3,0.6
			c-0.1,0.3-0.4,0.4-0.6,0.3c-15.8-6.2-24.5-14.4-24.5-23.1c0-18.5,40.1-33.5,89.5-33.5c49.4,0,89.5,15,89.5,33.5
			c0,8.7-8.7,16.9-24.5,23.1C155,140.7,154.9,140.7,154.9,140.7z"/>
	</g>
	<path class="st1" d="M90,220.4c14.6,0.1,29.1-1.3,43.4-4.2c-5.7-5.8-12.4-10.4-19.9-13.5c-7.5-3.1-15.5-4.8-23.6-4.8
		c-8.1,0-16.1,1.6-23.6,4.8c-7.5,3.1-14.2,7.7-19.9,13.5C60.9,219,75.4,220.4,90,220.4z"/>
	<path class="st2" d="M90,7c-16.1-0.1-32.1,1.6-47.8,5.2c5.7,7.3,12.9,13.1,21.2,17.2c8.3,4,17.4,6.1,26.6,6.1s18.3-2.1,26.6-6.1
		s15.6-9.9,21.2-17.2C122.1,8.6,106.1,6.9,90,7z"/>
	<g>
		<path class="st0" d="M90,226.9c-49.4,0-89.5-15-89.5-33.5s40.1-33.5,89.5-33.5c49.4,0,89.5,15,89.5,33.5S139.4,226.9,90,226.9z
			 M90,160.9c-48.8,0-88.5,14.6-88.5,32.5s39.7,32.5,88.5,32.5c48.8,0,88.5-14.6,88.5-32.5S138.8,160.9,90,160.9z"/>
	</g>
	<g>
		<path class="st0" d="M90,67.5c-49.4,0-89.5-15-89.5-33.5S40.6,0.5,90,0.5c49.4,0,89.5,15,89.5,33.5S139.4,67.5,90,67.5z M90,1.5
			C41.2,1.5,1.5,16.1,1.5,34S41.2,66.5,90,66.5c48.8,0,88.5-14.6,88.5-32.5S138.8,1.5,90,1.5z"/>
	</g>
	
		<linearGradient id="SVGID_1_" gradientUnits="userSpaceOnUse" x1="-449.01" y1="521.5638" x2="-449.01" y2="399.8838" gradientTransform="matrix(1 0 0 -1 539.01 578.3638)">
		<stop  offset="0" style="stop-color:#7A58C3"/>
		<stop  offset="1" style="stop-color:#2E1C56"/>
	</linearGradient>
	<path class="st3" d="M90,178.5c33.6,0,60.8-27.2,60.8-60.8S123.6,56.8,90,56.8S29.2,84,29.2,117.6S56.4,178.5,90,178.5z"/>
	<g>
		<path class="st2" d="M90,151.2c-14.5,0-29.1-1.4-43.5-4.2c-0.3-0.1-0.4-0.3-0.4-0.6c0.1-0.3,0.3-0.4,0.6-0.4
			c28.8,5.6,57.9,5.6,86.7,0c0.3-0.1,0.5,0.1,0.6,0.4c0.1,0.3-0.1,0.5-0.4,0.6C119.1,149.8,104.5,151.2,90,151.2z"/>
	</g>
	<path class="st4" d="M29.2,330.1l0.4,2.1l0.4-2.1l2.6-11.9h2.6l-4,16.3H28l-2.3-10.8l-0.4-2l-0.4,2.1l-2.3,10.8h-3.1l-4-16.4h2.6
		l2.6,11.9l0.4,2.1l0.4-2.1l2.6-11.9h2.6L29.2,330.1z"/>
	<path class="st4" d="M36.7,324.4c0-1,0.1-1.8,0.4-2.7c0.3-0.8,0.9-1.5,1.4-2.1c0.6-0.6,1.4-1,2.3-1.4c0.9-0.3,1.9-0.6,3-0.6
		c1.1,0,2.1,0.1,3,0.6c0.9,0.3,1.7,0.8,2.3,1.4c0.6,0.6,1.1,1.3,1.4,2.1c0.3,0.8,0.6,1.7,0.6,2.7v3.7c0,1-0.1,1.8-0.6,2.7
		c-0.3,0.8-0.9,1.5-1.4,2.1c-0.6,0.6-1.4,1-2.3,1.4c-0.9,0.3-1.9,0.4-3,0.4c-1.1,0-2.1-0.1-3-0.4c-0.9-0.3-1.7-0.8-2.3-1.4
		c-0.6-0.6-1.1-1.3-1.4-2.1c-0.3-0.8-0.4-1.7-0.4-2.7V324.4z M44,319.9c-1.6,0-2.8,0.4-3.6,1.3c-0.9,0.8-1.3,2.1-1.3,3.5v3.2
		c0,1.4,0.4,2.7,1.3,3.5c0.9,0.8,2,1.3,3.7,1.3c1.6,0,2.8-0.4,3.6-1.3c0.9-0.8,1.3-2,1.3-3.5v-3.2c0-1.4-0.4-2.5-1.3-3.5
		C46.7,320.4,45.6,319.9,44,319.9z"/>
	<path class="st4" d="M66.4,334.6h-3.4l-5.8-12.1c-0.1-0.3-0.3-0.6-0.4-0.8c-0.1-0.3-0.3-0.6-0.3-0.8h-0.1c0,0.3,0,0.7,0,1
		c0,0.3,0,0.6,0,1v11.8H54v-16.4h3.6l5.7,11.9c0.1,0.3,0.3,0.6,0.4,0.8c0,0.1,0.1,0.3,0.1,0.4c0,0.1,0.1,0.3,0.1,0.4h0.1
		c0-0.3,0-0.6-0.1-1c0-0.3,0-0.6,0-1v-11.7h2.4V334.6z"/>
	<path class="st4" d="M74.3,334.6h-5v-16.4h5c1.1,0,2.1,0.1,3,0.6c0.9,0.3,1.7,0.8,2.3,1.4c0.6,0.6,1.1,1.3,1.4,2.1
		c0.3,0.8,0.6,1.7,0.6,2.7v3.5c0,1-0.1,1.8-0.6,2.5c-0.3,0.8-0.9,1.4-1.4,2c-0.6,0.6-1.4,1-2.3,1.3
		C76.5,334.4,75.3,334.6,74.3,334.6z M74.3,332.6c1.6,0,2.8-0.4,3.7-1.3s1.3-2,1.3-3.4v-3.1c0-1.4-0.4-2.5-1.3-3.5
		c-0.9-0.8-2-1.4-3.6-1.4h-2.6v12.5h2.4V332.6z"/>
	<path class="st4" d="M93.8,334.6h-9.5v-16.4h9.4v2h-7v5.1h6.4v2h-6.4v5.5h7.1V334.6z"/>
	<path class="st4" d="M107.4,322.9c0,0.8-0.1,1.5-0.4,2.2c-0.3,0.6-0.7,1.1-1.1,1.5c-0.3,0.3-0.6,0.4-0.9,0.6
		c-0.3,0.1-0.7,0.3-1,0.4l4.8,7H106l-4.4-6.7h-2.7v6.7h-2.4v-16.6h5.8c0.7,0,1.4,0.1,2.1,0.3c0.7,0.1,1.3,0.4,1.7,0.8
		c0.4,0.4,0.9,0.8,1.1,1.4C107.5,321.2,107.4,322,107.4,322.9z M101.7,320.1h-3.1v5.8h3.3c0.9,0,1.6-0.3,2.1-0.7
		c0.6-0.4,1-1.3,1-2.2c0-0.6-0.1-1-0.3-1.3c-0.1-0.4-0.4-0.7-0.7-0.8c-0.3-0.3-0.6-0.4-1-0.6C102.7,320.2,102.3,320.1,101.7,320.1z"
		/>
	<path class="st4" d="M120.2,334.6h-10v-16.4h2.4v14.3h7.5V334.6z"/>
	<path class="st4" d="M133.6,334.5l-1.6-4.5h-7l-1.6,4.5h-2.6l6.1-16.3h3.3l6,16.3H133.6z M125.8,328.1h5.6l-2.8-7.7L125.8,328.1z"
		/>
	<path class="st4" d="M150.3,334.6h-3.4l-5.8-12.1c-0.1-0.3-0.3-0.6-0.4-0.8c-0.1-0.3-0.3-0.6-0.3-0.8h-0.1c0,0.3,0,0.7,0,1
		c0,0.3,0,0.6,0,1v11.8h-2.4v-16.4h3.6l5.7,11.9c0.1,0.3,0.3,0.6,0.4,0.8c0,0.1,0.1,0.3,0.1,0.4c0,0.1,0.1,0.3,0.1,0.4h0.3
		c0-0.3,0-0.6-0.1-1c0-0.3,0-0.6,0-1v-11.7h2.4V334.6z"/>
	<path class="st4" d="M158.2,334.6h-5v-16.4h5c1.1,0,2.1,0.1,3,0.6c0.9,0.3,1.7,0.8,2.3,1.4c0.6,0.6,1.1,1.3,1.4,2.1
		c0.3,0.8,0.6,1.7,0.6,2.7v3.5c0,1-0.1,1.8-0.6,2.5c-0.3,0.8-0.9,1.4-1.4,2c-0.6,0.6-1.4,1-2.3,1.3
		C160.4,334.4,159.4,334.6,158.2,334.6z M158.2,332.6c1.6,0,2.8-0.4,3.7-1.3c0.9-0.8,1.3-2,1.3-3.4v-3.1c0-1.4-0.4-2.5-1.3-3.5
		c-0.9-0.8-2-1.4-3.6-1.4h-2.6v12.5h2.4V332.6z"/>
	<path class="st4" d="M54.2,311.1c-0.4,0-0.7-0.3-0.7-0.7v-24.6c0-0.4,0.3-0.7,0.7-0.7h3.7c0.4,0,0.7,0.3,0.7,0.7v24.6
		c0,0.4-0.3,0.7-0.7,0.7H54.2z"/>
	<path class="st4" d="M62.1,311.1c-0.4,0-0.7-0.3-0.7-0.7v-24.6c0-0.4,0.3-0.7,0.7-0.7h7.4c1.7,0,3.4,0.3,4.8,0.8
		c1.4,0.6,2.7,1.3,3.7,2.3c1,1,1.8,2.1,2.3,3.4c0.6,1.3,0.8,2.7,0.8,4.2v5.2c0,1.6-0.3,3-0.8,4.2c-0.6,1.3-1.3,2.4-2.3,3.3
		c-1,0.8-2.3,1.6-3.7,2.1c-1.4,0.4-3,0.7-4.7,0.7h-7.5V311.1z M69.4,306.7c2.1,0,3.8-0.6,4.9-1.6c1.1-1.1,1.7-2.5,1.7-4.7V296
		c0-2-0.6-3.5-1.7-4.8c-1.1-1.1-2.7-1.8-4.9-1.8h-3.1v17.4H69.4z"/>
	<path class="st4" d="M37.2,311.1c-0.4,0-0.7-0.3-0.7-0.7v-24.6c0-0.4,0.3-0.7,0.7-0.7h14.3c0.4,0,0.7,0.3,0.7,0.7v3
		c0,0.4-0.3,0.7-0.7,0.7h-9.9v5.4c0.6-0.3,1.1-0.3,1.7-0.3c0.6,0,1.1,0,1.7,0.1c1.1,0.3,2,0.6,2.7,0.8s1.1,0.4,1.8,0.4
		c0.3,0,0.6,0,1,0c0,0,0,0,0.1,0c0.1,0,0.3,0,0.4,0.1c0.1,0.1,0.3,0.3,0.3,0.6v3.3c0,0.3-0.1,0.6-0.4,0.7c-0.8,0.3-1.4,0.6-2,0.6
		c-0.8,0-1.4-0.3-2.1-0.7c-0.6-0.3-1.3-0.7-2.1-1c-0.4-0.1-0.8-0.3-1.4-0.3c-0.6,0-1.1,0.1-1.7,0.3v11c0,0.4-0.3,0.7-0.7,0.7h-3.7
		V311.1z"/>
	<path class="st4" d="M132.5,311.1c-0.4,0-0.7-0.3-0.7-0.7v-20.5c-0.4,0-0.7-0.1-1.1-0.1c-3.1,0-5.1,1.7-5.1,1.7
		c-0.1,0.1-0.3,0.1-0.4,0.1c-0.1,0-0.1,0-0.3,0c-0.3-0.1-0.4-0.4-0.4-0.7v-3.3c0-0.1,0.1-0.4,0.3-0.6c0.1-0.1,2.4-2,6.1-2
		c0.8,0,1.6,0.1,2.4,0.3c1,0.3,2,0.6,2.8,0.7c1.8,0.6,3.3,0.8,4.8,0.8c0.8,0,1.8-0.1,2.8-0.4h0.1c0.1,0,0.3,0,0.4,0.1
		c0.1,0.1,0.3,0.3,0.3,0.6v3.3c0,0.3-0.1,0.6-0.6,0.7c-1.4,0.4-2.4,0.6-3.4,0.6c-1.3,0-2.4-0.3-3.8-0.6v19.4c0,0.4-0.3,0.7-0.7,0.7
		h-3.5V311.1z"/>
	<path class="st4" d="M94.3,311.5c-1.7,0-3.3-0.3-4.5-0.8c-1.4-0.6-2.5-1.3-3.5-2.3c-1-1-1.7-2.1-2.3-3.4c-0.6-1.3-0.7-2.7-0.7-4.2
		v-5.5c0-1.6,0.3-3,0.7-4.2c0.6-1.3,1.3-2.4,2.1-3.4c1-1,2.1-1.7,3.5-2.3c1.3-0.6,2.8-0.8,4.5-0.8s3.3,0.3,4.5,0.7
		c1.3,0.4,2.5,1,3.4,1.8c1,0.7,1.7,1.7,2.1,2.5c0.7,1.1,0.8,2.1,0.8,3.1v1.3c0,0.4-0.3,0.7-0.7,0.7h-3.5c-0.4,0-0.7-0.3-0.7-0.7
		v-0.8c0-0.4-0.1-1-0.3-1.4c-0.3-0.6-0.6-1-1-1.4c-0.4-0.4-1.1-0.7-1.8-1c-0.7-0.3-1.7-0.4-2.7-0.4c-2,0-3.4,0.6-4.4,1.7
		c-1,1.1-1.6,2.8-1.6,4.8v4.9c0,2,0.6,3.5,1.6,4.8c1,1.1,2.5,1.7,4.5,1.7c2.1,0,3.8-0.4,4.7-1.3c0.8-0.8,1.4-1.8,1.4-3v-2
		c-0.4-0.3-1-0.6-1.8-0.7c-0.4-0.1-0.8-0.3-1.4-0.3c-2.4,0-4.7,1.7-4.7,1.7c-0.1,0.3-0.3,0.3-0.4,0.3c-0.1,0-0.3,0-0.3-0.1
		c-0.3-0.1-0.4-0.4-0.4-0.6v-3.3c0-0.3,0.1-0.4,0.3-0.6c0.1-0.1,2.7-2,5.7-2c0.6,0,1.1,0,1.7,0.1c1.1,0.3,2,0.6,2.7,0.8
		c0.8,0.3,1.3,0.4,2,0.4c0.3,0,0.6,0,1,0c0,0,0,0,0.1,0s0.3,0,0.4,0.1c0.1,0.1,0.3,0.3,0.3,0.6v5.8c0,1.1-0.3,2.3-0.7,3.3
		c-0.4,1-1.3,2-2.1,2.7c-1,0.7-2.1,1.4-3.5,1.8C97.7,311.2,96.2,311.5,94.3,311.5z"/>
	<path class="st4" d="M108.5,311.1c-0.4,0-0.7-0.3-0.7-0.7v-24.6c0-0.4,0.3-0.7,0.7-0.7h14c0.4,0,0.7,0.3,0.7,0.7v3
		c0,0.4-0.3,0.7-0.7,0.7h-9.6v17.4h9.9c0.4,0,0.7,0.3,0.7,0.7v3c0,0.4-0.3,0.7-0.7,0.7h-14.3V311.1z"/>
	<path class="st5" d="M73.5,296.2c-0.6-2.3-2.7-1.1-2.7,0c0-1.1-2.1-2.3-2.7,0c-0.6,2.4,2.7,4.7,2.7,4.7S74.1,298.6,73.5,296.2z"/>
	<path class="st5" d="M115.2,299.6c0.6,2.3,2.7,1.1,2.7,0c0,1.1,2.1,2.3,2.7,0c0.6-2.4-2.7-4.7-2.7-4.7S114.7,297.2,115.2,299.6z"/>
</g>
</svg>
