<?xml version="1.0" encoding="utf-8"?>
<!-- Generator: Adobe Illustrator 23.1.0, SVG Export Plug-In . SVG Version: 6.00 Build 0)  -->
<svg version="1.1" id="Layer_1" xmlns="http://www.w3.org/2000/svg" xmlns:xlink="http://www.w3.org/1999/xlink" x="0px" y="0px"
	 viewBox="0 0 404 656.6" style="enable-background:new 0 0 404 656.6;" xml:space="preserve">
<style type="text/css">
	.st0{opacity:0.3;fill:#D1DDEC;enable-background:new    ;}
</style>
<path class="st0" d="M30.6,635.1c-4.5-0.7-7.5-1.3-9.5-2.6c1.4-2.4,3-4.7,4.8-6.8c-3,2.7-5.1,4.5-6.5,5.2c-1.9-2.5-2.4-6.8-3.1-14.7
	c0-0.2-0.1-0.4-0.2-0.5s-0.3-0.2-0.5-0.3c-0.2,0-0.4,0.1-0.5,0.3c-0.1,0.1-0.2,0.3-0.2,0.5c-0.7,7.9-1.3,12.2-3.1,14.7
	c-1.4-0.7-3.5-2.5-6.5-5.2c1.8,2.1,3.4,4.4,4.8,6.8c-2,1.3-5,1.9-9.4,2.6c-0.2,0.1-0.3,0.2-0.5,0.3C0,635.6,0,635.8,0,636
	s0,0.4,0.1,0.6c0.1,0.2,0.3,0.3,0.5,0.3c4.5,0.7,7.4,1.3,9.4,2.6c-1.4,2.4-2.9,4.7-4.8,6.8c3-2.7,5.1-4.5,6.5-5.2
	c1.9,2.5,2.4,6.8,3.1,14.7c0,0.2,0.1,0.4,0.2,0.5c0.1,0.1,0.3,0.2,0.5,0.3c0.2,0,0.4-0.1,0.5-0.3c0.1-0.1,0.2-0.3,0.2-0.5
	c0.7-7.9,1.2-12.2,3.1-14.7c1.4,0.7,3.5,2.5,6.5,5.2c-1.8-2.1-3.4-4.4-4.8-6.8c2-1.3,4.9-1.9,9.5-2.6c0.2-0.1,0.4-0.2,0.5-0.3
	c0.1-0.2,0.2-0.4,0.1-0.6c0-0.2,0-0.4-0.1-0.5C31,635.3,30.8,635.2,30.6,635.1L30.6,635.1z"/>
<path class="st0" d="M62.6,210.1c-4.5-0.7-7.5-1.3-9.5-2.6c1.4-2.4,3-4.7,4.8-6.8c-3,2.7-5.1,4.5-6.5,5.2c-1.9-2.5-2.4-6.8-3.1-14.7
	c0-0.2-0.1-0.4-0.2-0.5c-0.1-0.1-0.3-0.2-0.5-0.3c-0.2,0-0.4,0.1-0.5,0.3c-0.1,0.1-0.2,0.3-0.2,0.5c-0.7,7.9-1.3,12.2-3.1,14.7
	c-1.4-0.7-3.5-2.5-6.5-5.2c1.8,2.1,3.4,4.4,4.8,6.8c-2,1.3-5,1.9-9.5,2.6c-0.2,0.1-0.3,0.2-0.5,0.3c-0.1,0.2-0.2,0.4-0.1,0.6
	c0,0.2,0,0.4,0.1,0.6c0.1,0.2,0.3,0.3,0.5,0.3c4.5,0.7,7.5,1.3,9.5,2.6c-1.4,2.4-2.9,4.7-4.8,6.8c3-2.7,5.1-4.4,6.5-5.2
	c1.9,2.5,2.4,6.8,3.1,14.7c0,0.2,0.1,0.4,0.2,0.5c0.1,0.1,0.3,0.2,0.5,0.3c0.2,0,0.4-0.1,0.5-0.3c0.1-0.1,0.2-0.3,0.2-0.5
	c0.7-7.9,1.2-12.2,3.1-14.7c1.5,0.7,3.5,2.5,6.5,5.2c-1.8-2.1-3.4-4.4-4.8-6.8c2-1.3,5-1.9,9.5-2.6c0.2-0.1,0.4-0.2,0.5-0.3
	c0.1-0.2,0.2-0.4,0.1-0.6c0-0.2,0-0.4-0.1-0.6C63,210.3,62.8,210.2,62.6,210.1L62.6,210.1z"/>
<path class="st0" d="M395.6,383.1c-4.5-0.7-7.5-1.3-9.5-2.6c1.4-2.4,3-4.7,4.8-6.8c-3,2.7-5.1,4.5-6.5,5.2
	c-1.9-2.5-2.4-6.8-3.1-14.7c0-0.2-0.1-0.4-0.2-0.5s-0.3-0.2-0.5-0.3c-0.2,0-0.4,0.1-0.5,0.3c-0.1,0.1-0.2,0.3-0.2,0.5
	c-0.7,7.9-1.3,12.2-3.1,14.7c-1.5-0.7-3.5-2.5-6.5-5.2c1.8,2.1,3.4,4.4,4.8,6.8c-2,1.3-5,1.9-9.4,2.6c-0.2,0.1-0.3,0.2-0.5,0.3
	c-0.1,0.2-0.2,0.4-0.1,0.6c0,0.2,0,0.4,0.1,0.6s0.3,0.3,0.5,0.3c4.5,0.7,7.4,1.3,9.4,2.6c-1.4,2.4-2.9,4.7-4.8,6.8
	c3-2.7,5.1-4.5,6.5-5.2c1.9,2.5,2.4,6.8,3.1,14.7c0,0.2,0.1,0.4,0.2,0.5s0.3,0.2,0.5,0.3c0.2,0,0.4-0.1,0.5-0.3
	c0.1-0.1,0.2-0.3,0.2-0.5c0.7-7.9,1.2-12.2,3.1-14.7c1.4,0.7,3.5,2.5,6.5,5.2c-1.8-2.1-3.4-4.4-4.8-6.8c2-1.3,5-1.9,9.5-2.6
	c0.2-0.1,0.4-0.2,0.5-0.3c0.1-0.2,0.2-0.4,0.1-0.6c0-0.2,0-0.4-0.1-0.6C396,383.3,395.8,383.2,395.6,383.1L395.6,383.1z"/>
<path class="st0" d="M395.5,374.4c-0.1,0-0.2-0.1-0.3-0.1c-0.1-0.1-0.1-0.2-0.1-0.3c-0.7-8.9-1.3-9.6-7.8-10.6
	c-0.1,0-0.2-0.1-0.3-0.2s-0.1-0.2-0.1-0.3c0-0.1,0-0.2,0.1-0.3c0.1-0.1,0.1-0.2,0.3-0.2c6.5-1,7.1-1.7,7.8-10.5c0-0.1,0-0.2,0.1-0.3
	c0.1-0.1,0.2-0.1,0.3-0.1c0.1,0,0.2,0.1,0.3,0.2c0.1,0.1,0.1,0.2,0.1,0.3c0.7,8.9,1.2,9.6,7.8,10.5c0.1,0,0.2,0.1,0.2,0.2
	c0.1,0.1,0.1,0.2,0.1,0.3c0,0.1,0,0.2-0.1,0.3c-0.1,0.1-0.1,0.2-0.3,0.2c-6.5,1-7.1,1.7-7.8,10.6c0,0.1,0,0.2-0.1,0.3
	C395.7,374.3,395.6,374.3,395.5,374.4L395.5,374.4z"/>
<path class="st0" d="M8.5,178.4c-0.1,0-0.2-0.1-0.3-0.1c-0.1-0.1-0.1-0.2-0.1-0.3c-0.7-8.9-1.3-9.6-7.8-10.6c-0.1,0-0.2-0.1-0.3-0.2
	c0-0.1,0-0.2,0-0.4c0-0.1,0-0.2,0.1-0.3s0.1-0.2,0.2-0.2c6.5-1,7.1-1.7,7.8-10.5c0-0.1,0-0.2,0.1-0.3s0.2-0.1,0.3-0.1
	s0.2,0.1,0.3,0.2c0.1,0.1,0.1,0.2,0.1,0.3c0.7,8.9,1.2,9.6,7.8,10.5c0.1,0,0.2,0.1,0.2,0.2c0.1,0.1,0.1,0.2,0.1,0.3s0,0.2-0.1,0.3
	s-0.1,0.2-0.3,0.2c-6.5,1-7.1,1.7-7.8,10.6c0,0.1,0,0.2-0.1,0.3C8.7,178.3,8.6,178.3,8.5,178.4L8.5,178.4z"/>
<path class="st0" d="M29.9,227.9c1.2,0,2.3,0.4,3.3,1c1,0.7,1.8,1.6,2.2,2.7c0.5,1.1,0.6,2.3,0.3,3.5c-0.2,1.2-0.8,2.2-1.6,3.1
	c-0.8,0.8-1.9,1.4-3.1,1.6c-1.2,0.2-2.4,0.1-3.5-0.3c-1.1-0.5-2-1.2-2.7-2.2s-1-2.1-1-3.3c0-1.6,0.6-3.1,1.8-4.2
	C26.8,228.5,28.3,227.9,29.9,227.9L29.9,227.9z M29.9,227.4c-1.3,0-2.5,0.4-3.6,1.1c-1.1,0.7-1.9,1.7-2.4,2.9s-0.6,2.5-0.4,3.8
	c0.3,1.3,0.9,2.4,1.8,3.3c0.9,0.9,2.1,1.5,3.3,1.8c1.3,0.3,2.6,0.1,3.8-0.4c1.2-0.5,2.2-1.3,2.9-2.4c0.7-1.1,1.1-2.3,1.1-3.6
	c0-1.7-0.7-3.4-1.9-4.6C33.3,228,31.6,227.4,29.9,227.4L29.9,227.4z"/>
<path class="st0" d="M29.9,236.4c1.4,0,2.5-1.1,2.5-2.5s-1.1-2.5-2.5-2.5s-2.5,1.1-2.5,2.5C27.4,235.2,28.5,236.4,29.9,236.4z"/>
<path class="st0" d="M365.6,15.8c1.8,0,3.6,0.5,5.1,1.6c1.5,1,2.7,2.5,3.4,4.1c0.7,1.7,0.9,3.5,0.5,5.3s-1.2,3.4-2.5,4.7
	c-1.3,1.3-2.9,2.2-4.7,2.5c-1.8,0.4-3.6,0.2-5.3-0.5c-1.7-0.7-3.1-1.9-4.1-3.4s-1.5-3.3-1.5-5.1c0-2.4,1-4.8,2.7-6.5
	C360.8,16.8,363.2,15.8,365.6,15.8z M365.6,14.8c-2,0-4,0.6-5.7,1.7c-1.7,1.1-3,2.7-3.8,4.6s-1,3.9-0.6,5.9s1.4,3.8,2.8,5.2
	s3.2,2.4,5.2,2.8c2,0.4,4,0.2,5.9-0.6s3.5-2.1,4.6-3.8s1.7-3.7,1.7-5.7c0-2.7-1.1-5.3-3-7.2C370.9,15.9,368.3,14.8,365.6,14.8
	L365.6,14.8z"/>
<path class="st0" d="M365.6,45.7c-0.2,0-0.4-0.1-0.5-0.3c-0.1-0.1-0.2-0.3-0.2-0.5c-1.4-15.9-2.3-17.2-14.3-19
	c-0.2-0.1-0.4-0.2-0.5-0.3c-0.1-0.2-0.2-0.4-0.1-0.6c0-0.2,0-0.4,0.1-0.6s0.3-0.3,0.5-0.3c12-1.8,13-3,14.3-19
	c0-0.2,0.1-0.4,0.2-0.5s0.3-0.2,0.5-0.3c0.2,0,0.4,0.1,0.5,0.3c0.1,0.1,0.2,0.3,0.2,0.5c1.4,15.9,2.3,17.2,14.3,19
	c0.2,0.1,0.3,0.2,0.5,0.3c0.1,0.2,0.2,0.4,0.1,0.6c0,0.2,0,0.4-0.1,0.6s-0.3,0.3-0.5,0.3c-12,1.8-13,3-14.3,19
	c0,0.2-0.1,0.4-0.2,0.5C366,45.6,365.8,45.7,365.6,45.7L365.6,45.7z"/>
</svg>
