<?xml version="1.0" encoding="utf-8"?>
<!-- Generator: Adobe Illustrator 26.0.0, SVG Export Plug-In . SVG Version: 6.00 Build 0)  -->
<svg version="1.1" id="Layer_1" xmlns="http://www.w3.org/2000/svg" xmlns:xlink="http://www.w3.org/1999/xlink" x="0px" y="0px"
	 viewBox="0 0 40 40" style="enable-background:new 0 0 40 40;" xml:space="preserve">
<style type="text/css">
	.st0{fill:#7A58C3;}
	.st1{fill:#D1DDEC;}
</style>
<g>
	<circle class="st0" cx="20" cy="20" r="20"/>
</g>
<path class="st1" d="M21.8,32h-4.4c-0.3,0-0.5-0.1-0.8-0.3c-0.2-0.2-0.4-0.4-0.4-0.7l-0.5-2.3c-0.7-0.3-1.3-0.6-1.8-1.1l-2.2,0.7
	c-0.3,0.1-0.5,0.1-0.8,0s-0.5-0.3-0.6-0.5L8.1,24C8,23.9,8,23.6,8,23.3c0-0.3,0.2-0.5,0.4-0.7l1.7-1.6c-0.1-0.7-0.1-1.4,0-2.1
	l-1.7-1.6c-0.2-0.2-0.3-0.4-0.4-0.7c0-0.3,0-0.5,0.1-0.8l2.2-3.8c0.1-0.2,0.4-0.4,0.6-0.5c0.3-0.1,0.5-0.1,0.8,0l2.2,0.7
	c0.3-0.2,0.6-0.4,0.9-0.6c0.3-0.2,0.6-0.3,0.9-0.5l0.5-2.3c0.1-0.3,0.2-0.5,0.4-0.7c0.3,0,0.6-0.1,0.9-0.1h4.4
	c0.3,0,0.5,0.1,0.8,0.3c0.2,0.2,0.4,0.4,0.4,0.7l0.5,2.3c0.7,0.3,1.3,0.6,1.8,1.1l2.2-0.7c0.3-0.1,0.5-0.1,0.8,0s0.5,0.3,0.6,0.5
	l2.2,3.8c0.3,0.5,0.2,1.1-0.2,1.5l-1.7,1.6c0.1,0.7,0.1,1.4,0,2.1l1.7,1.6c0.4,0.4,0.5,1,0.2,1.5L29,28.1c-0.1,0.2-0.4,0.4-0.6,0.5
	c-0.3,0.1-0.5,0.1-0.8,0l-2.2-0.7c-0.6,0.4-1.2,0.8-1.8,1.1L23,31.1c-0.1,0.3-0.2,0.5-0.4,0.7C22.4,31.9,22.1,32,21.8,32z
	 M19.6,15.2c-1.3,0-2.5,0.5-3.4,1.4c-0.9,0.9-1.4,2.1-1.4,3.4s0.5,2.5,1.4,3.4s2.1,1.4,3.4,1.4s2.5-0.5,3.4-1.4s1.4-2.1,1.4-3.4
	s-0.5-2.5-1.4-3.4C22.1,15.7,20.9,15.2,19.6,15.2z"/>
</svg>
