<?xml version="1.0" encoding="utf-8"?>
<!-- Generator: Adobe Illustrator 26.0.0, SVG Export Plug-In . SVG Version: 6.00 Build 0)  -->
<svg version="1.1" id="Layer_1" xmlns="http://www.w3.org/2000/svg" xmlns:xlink="http://www.w3.org/1999/xlink" x="0px" y="0px"
	 viewBox="0 0 40 40" style="enable-background:new 0 0 40 40;" xml:space="preserve">
<style type="text/css">
	.st0{fill:#D1DDEC;}
	.st1{fill:#7A58C3;}
</style>
<g>
	<circle class="st0" cx="20" cy="20" r="20"/>
</g>
<g>
	<path class="st1" d="M28.7,28.7L28.7,28.7c-0.8,0.8-2,0.8-2.8,0L11.3,14.1c-0.8-0.8-0.8-2,0-2.8l0,0c0.8-0.8,2-0.8,2.8,0L28.8,26
		C29.5,26.7,29.5,28,28.7,28.7z"/>
	<path class="st1" d="M11.3,28.7L11.3,28.7c-0.8-0.8-0.8-2,0-2.8L26,11.2c0.8-0.8,2-0.8,2.8,0l0,0c0.8,0.8,0.8,2,0,2.8L14.1,28.7
		C13.3,29.5,12,29.5,11.3,28.7z"/>
</g>
</svg>
