<?xml version="1.0" encoding="utf-8"?>
<!-- Generator: Adobe Illustrator 23.1.0, SVG Export Plug-In . SVG Version: 6.00 Build 0)  -->
<svg version="1.1" id="Layer_1" xmlns="http://www.w3.org/2000/svg" xmlns:xlink="http://www.w3.org/1999/xlink" x="0px" y="0px"
	 viewBox="0 0 2291.8 1821.7" style="enable-background:new 0 0 2291.8 1821.7;" xml:space="preserve">
<style type="text/css">
	.st0{fill:#7A58C3;}
</style>
<g>
	<g>
		<path class="st0" d="M509.2,766.6c-3.9,0-7.5,0.8-10.8,2.3c-4.1-2.6-8.9-4.1-14.1-4.1c-4.9,0-9.4,1.3-13.4,3.6
			c-3.9-2.3-8.5-3.6-13.4-3.6s-9.4,1.3-13.4,3.6c-3.9-2.3-8.5-3.6-13.4-3.6s-9.4,1.3-13.4,3.6c-3.9-2.3-8.5-3.6-13.4-3.6
			s-9.4,1.3-13.4,3.6c-3.9-2.3-8.5-3.6-13.3-3.6s-9.4,1.3-13.3,3.6c-3.9-2.3-8.5-3.6-13.3-3.6s-9.4,1.3-13.3,3.6
			c-3.9-2.3-8.5-3.6-13.3-3.6s-9.4,1.3-13.3,3.6c-3.9-2.3-8.5-3.6-13.3-3.6s-9.4,1.3-13.3,3.6c-3.9-2.3-8.5-3.6-13.3-3.6
			c-9,0-17,4.5-21.8,11.3c-12,2.7-20.9,13.3-20.9,26.1c0,4.9,1.3,9.4,3.6,13.3c-2.3,3.9-3.6,8.5-3.6,13.3s1.3,9.4,3.6,13.3
			c-2.3,3.9-3.6,8.5-3.6,13.3s1.3,9.4,3.6,13.3c-2.3,3.9-3.6,8.5-3.6,13.3s1.3,9.4,3.6,13.3c-2.3,3.9-3.6,8.5-3.6,13.3
			s1.3,9.4,3.6,13.3c-2.3,3.9-3.6,8.5-3.6,13.3s1.3,9.4,3.6,13.3c-2.3,3.9-3.6,8.5-3.6,13.3s1.3,9.4,3.6,13.3
			c-2.3,3.9-3.6,8.5-3.6,13.3s1.3,9.4,3.6,13.3c-2.3,3.9-3.6,8.5-3.6,13.3s1.3,9.4,3.6,13.3c-2.3,3.9-3.6,8.5-3.6,13.3
			c0,0.6,0,1.2,0.1,1.8c0,0.6-0.1,1.2-0.1,1.8c0,4.2,1,8.1,2.7,11.6c-1.7,3.5-2.7,7.4-2.7,11.6c0,4.9,1.3,9.4,3.6,13.3
			c-2.3,3.9-3.6,8.5-3.6,13.3s1.3,9.4,3.6,13.3c-2.3,3.9-3.6,8.5-3.6,13.3s1.3,9.4,3.6,13.3c-2.3,3.9-3.6,8.5-3.6,13.3
			s1.3,9.4,3.6,13.3c-2.3,3.9-3.6,8.5-3.6,13.3s1.3,9.4,3.6,13.3c-2.3,3.9-3.6,8.5-3.6,13.3s1.3,9.4,3.6,13.3
			c-2.3,3.9-3.6,8.5-3.6,13.3s1.3,9.4,3.6,13.3c-2.3,3.9-3.6,8.5-3.6,13.3s1.3,9.4,3.6,13.3c-1.1,2-2,4.1-2.6,6.4
			c-3-1.2-6.4-1.9-9.9-1.9c-4.9,0-9.4,1.3-13.3,3.6c-3.9-2.3-8.5-3.6-13.3-3.6s-9.4,1.3-13.3,3.6c-3.9-2.3-8.5-3.6-13.3-3.6
			s-9.4,1.3-13.3,3.6c-3.9-2.3-8.5-3.6-13.3-3.6s-9.4,1.3-13.3,3.6c-3.9-2.3-8.5-3.6-13.3-3.6s-9.4,1.3-13.3,3.6
			c-3.9-2.3-8.5-3.6-13.3-3.6s-9.4,1.3-13.3,3.6c-3.9-2.3-8.5-3.6-13.3-3.6s-9.4,1.3-13.3,3.6c-3.9-2.3-8.5-3.6-13.3-3.6
			s-9.4,1.3-13.3,3.6c-3.9-2.3-8.5-3.6-13.3-3.6c-14.7,0-26.7,12-26.7,26.7s12,26.7,26.7,26.7c4.9,0,9.4-1.3,13.3-3.6
			c3.9,2.3,8.5,3.6,13.3,3.6s9.4-1.3,13.3-3.6c3.9,2.3,8.5,3.6,13.3,3.6s9.4-1.3,13.3-3.6c3.9,2.3,8.5,3.6,13.3,3.6
			s9.4-1.3,13.3-3.6c3.9,2.3,8.5,3.6,13.3,3.6s9.4-1.3,13.3-3.6c3.9,2.3,8.5,3.6,13.3,3.6s9.4-1.3,13.3-3.6
			c3.9,2.3,8.5,3.6,13.3,3.6s9.4-1.3,13.3-3.6c3.9,2.3,8.5,3.6,13.3,3.6s9.4-1.3,13.3-3.6c3.9,2.3,8.5,3.6,13.3,3.6
			s9.4-1.3,13.3-3.6c3.9,2.3,8.5,3.6,13.3,3.6c14,0,25.5-10.8,26.6-24.6c5.5-4.9,9-12,9-20c0-4.9-1.3-9.4-3.6-13.3
			c2.3-3.9,3.6-8.5,3.6-13.3s-1.3-9.4-3.6-13.3c2.3-3.9,3.6-8.5,3.6-13.3s-1.3-9.4-3.6-13.3c2.3-3.9,3.6-8.5,3.6-13.3
			s-1.3-9.4-3.6-13.3c2.3-3.9,3.6-8.5,3.6-13.3s-1.3-9.4-3.6-13.3c2.3-3.9,3.6-8.5,3.6-13.3s-1.3-9.4-3.6-13.3
			c2.3-3.9,3.6-8.5,3.6-13.3s-1.3-9.4-3.6-13.3c2.3-3.9,3.6-8.5,3.6-13.3s-1.3-9.4-3.6-13.3c1.7-3,2.9-6.3,3.3-9.8
			c0.1,0,0.2,0,0.3,0c4.9,0,9.4-1.3,13.3-3.6c3.9,2.3,8.5,3.6,13.3,3.6s9.4-1.3,13.3-3.6c3.9,2.3,8.5,3.6,13.3,3.6s9.4-1.3,13.3-3.6
			c3.9,2.3,8.5,3.6,13.3,3.6s9.4-1.3,13.3-3.6c3.9,2.3,8.5,3.6,13.3,3.6s9.4-1.3,13.4-3.6c3.9,2.3,8.5,3.6,13.4,3.6
			s9.4-1.3,13.4-3.6c3.9,2.3,8.5,3.6,13.4,3.6s9.4-1.3,13.4-3.6c3.9,2.3,8.5,3.6,13.4,3.6s9.4-1.3,13.4-3.6
			c3.9,2.3,8.5,3.6,13.4,3.6c10.2,0,19.1-5.8,23.6-14.2c10.1-3.8,17.4-13.5,17.4-25c0-4.9-1.3-9.4-3.6-13.3
			c2.3-3.9,3.6-8.5,3.6-13.3s-1.3-9.4-3.6-13.3c2.3-3.9,3.6-8.5,3.6-13.3s-1.3-9.4-3.6-13.3c2.3-3.9,3.6-8.5,3.6-13.3
			s-1.3-9.4-3.6-13.3c2.3-3.9,3.6-8.5,3.6-13.3s-1.3-9.4-3.6-13.3c2.3-3.9,3.6-8.5,3.6-13.3s-1.3-9.4-3.6-13.3
			c2.3-3.9,3.6-8.5,3.6-13.3s-1.3-9.4-3.6-13.3c2.3-3.9,3.6-8.5,3.6-13.3s-1.3-9.4-3.6-13.3c2.3-3.9,3.6-8.5,3.6-13.3
			s-1.3-9.4-3.6-13.3c2.3-3.9,3.6-8.5,3.6-13.3C535.9,778.6,524,766.6,509.2,766.6z M468.3,1019.4c-4.9,0-9.4,1.3-13.4,3.6
			c-3.9-2.3-8.5-3.6-13.4-3.6s-9.4,1.3-13.4,3.6c-3.9-2.3-8.5-3.6-13.4-3.6s-9.4,1.3-13.4,3.6c-3.9-2.3-8.5-3.6-13.4-3.6
			s-9.4,1.3-13.3,3.6c-3.9-2.3-8.5-3.6-13.3-3.6s-9.4,1.3-13.3,3.6c-3.9-2.3-8.5-3.6-13.3-3.6s-9.4,1.3-13.3,3.6
			c-3.9-2.3-8.5-3.6-13.3-3.6s-9.4,1.3-13.3,3.6c-3.9-2.3-8.5-3.6-13.3-3.6c-0.1,0-0.2,0-0.3,0c0.2-1.2,0.3-2.4,0.3-3.6
			c0-4.9-1.3-9.4-3.6-13.3c2.3-3.9,3.6-8.5,3.6-13.3s-1.3-9.4-3.6-13.3c2.3-3.9,3.6-8.5,3.6-13.3s-1.3-9.4-3.6-13.3
			c2.3-3.9,3.6-8.5,3.6-13.3s-1.3-9.4-3.6-13.3c2.3-3.9,3.6-8.5,3.6-13.3s-1.3-9.4-3.6-13.3c2.3-3.9,3.6-8.5,3.6-13.3
			s-1.3-9.4-3.6-13.3c2.3-3.9,3.6-8.5,3.6-13.3s-1.3-9.4-3.6-13.3c2.3-3.9,3.6-8.5,3.6-13.3c0-4.3-1-8.3-2.8-11.9
			c1.9-0.6,3.8-1.4,5.5-2.4c3.9,2.3,8.5,3.6,13.3,3.6s9.4-1.3,13.3-3.6c3.9,2.3,8.5,3.6,13.3,3.6s9.4-1.3,13.3-3.6
			c3.9,2.3,8.5,3.6,13.3,3.6s9.4-1.3,13.3-3.6c3.9,2.3,8.5,3.6,13.3,3.6s9.4-1.3,13.4-3.6c3.9,2.3,8.5,3.6,13.4,3.6
			s9.4-1.3,13.4-3.6c3.9,2.3,8.5,3.6,13.4,3.6s9.4-1.3,13.4-3.6c3.9,2.3,8.5,3.6,13.4,3.6s9.4-1.3,13.4-3.6c3.5,2,7.4,3.3,11.7,3.5
			c0,0.6-0.1,1.2-0.1,1.9c0,4.9,1.3,9.4,3.6,13.3c-2.3,3.9-3.6,8.5-3.6,13.3s1.3,9.4,3.6,13.3c-2.3,3.9-3.6,8.5-3.6,13.3
			s1.3,9.4,3.6,13.3c-2.3,3.9-3.6,8.5-3.6,13.3s1.3,9.4,3.6,13.3c-2.3,3.9-3.6,8.5-3.6,13.3s1.3,9.4,3.6,13.3
			c-2.3,3.9-3.6,8.5-3.6,13.3s1.3,9.4,3.6,13.3c-2.3,3.9-3.6,8.5-3.6,13.3s1.3,9.4,3.6,13.4c-2.3,3.9-3.6,8.5-3.6,13.3
			s1.3,9.4,3.6,13.3c-0.2,0.3-0.3,0.5-0.5,0.8c-1.4,0.5-2.7,1.2-4,1.9C477.7,1020.7,473.2,1019.4,468.3,1019.4z"/>
		<path class="st0" d="M1548,811.1c2.3-3.9,3.6-8.5,3.6-13.3c0-14.7-12-26.7-26.7-26.7s-26.7,12-26.7,26.7c0,4.9,1.3,9.4,3.6,13.3
			c-2.3,3.9-3.6,8.5-3.6,13.3s1.3,9.4,3.6,13.3c-2.3,3.9-3.6,8.5-3.6,13.3s1.3,9.4,3.6,13.3c-2.3,3.9-3.6,8.5-3.6,13.3
			s1.3,9.4,3.6,13.3c-2.3,3.9-3.6,8.5-3.6,13.3s1.3,9.4,3.6,13.3c-2.3,3.9-3.6,8.5-3.6,13.3s1.3,9.4,3.6,13.3
			c-2.3,3.9-3.6,8.5-3.6,13.3s1.3,9.4,3.6,13.3c-2.3,3.9-3.6,8.5-3.6,13.3s1.3,9.4,3.6,13.3c-2.3,3.9-3.6,8.5-3.6,13.3
			c0,4.7,1.2,9.1,3.3,12.9c-1.8,0.6-3.5,1.3-5.1,2.3c-3.9-2.3-8.5-3.6-13.3-3.6s-9.4,1.3-13.3,3.6c-3.9-2.3-8.5-3.6-13.3-3.6
			s-9.4,1.3-13.3,3.6c-3.9-2.3-8.5-3.6-13.3-3.6s-9.4,1.3-13.3,3.6c-3.9-2.3-8.5-3.6-13.3-3.6s-9.4,1.3-13.3,3.6
			c-3.9-2.3-8.5-3.6-13.4-3.6s-9.4,1.3-13.3,3.6c-3.9-2.3-8.5-3.6-13.3-3.6s-9.4,1.3-13.3,3.6c-3.9-2.3-8.5-3.6-13.4-3.6
			s-9.4,1.3-13.3,3.6c-3.9-2.3-8.5-3.6-13.3-3.6s-9.4,1.3-13.3,3.6c-3.9-2.3-8.5-3.6-13.4-3.6s-9.4,1.3-13.3,3.6
			c-3.9-2.3-8.5-3.6-13.3-3.6s-9.4,1.3-13.3,3.6c-3.9-2.3-8.5-3.6-13.4-3.6s-9.4,1.3-13.3,3.6c-3.9-2.3-8.5-3.6-13.3-3.6
			s-9.4,1.3-13.3,3.6c-3.9-2.3-8.5-3.6-13.4-3.6s-9.4,1.3-13.3,3.6c-3.9-2.3-8.5-3.6-13.3-3.6s-9.4,1.3-13.3,3.6
			c-3.9-2.3-8.5-3.6-13.4-3.6s-9.4,1.3-13.3,3.6c-3.9-2.3-8.5-3.6-13.3-3.6s-9.4,1.3-13.3,3.6c-3.9-2.3-8.5-3.6-13.4-3.6
			s-9.4,1.3-13.3,3.6c-3.9-2.3-8.5-3.6-13.3-3.6c-14.7,0-26.7,12-26.7,26.7c0,0.5,0,0.9,0.1,1.4c-4.5,4.8-7.2,11.1-7.2,18.2
			c0,4.9,1.3,9.4,3.6,13.3c-2.3,3.9-3.6,8.5-3.6,13.3s1.3,9.4,3.6,13.3c-2.3,3.9-3.6,8.5-3.6,13.3s1.3,9.4,3.6,13.3
			c-2.3,3.9-3.6,8.5-3.6,13.3s1.3,9.4,3.6,13.3c-2.3,3.9-3.6,8.5-3.6,13.3s1.3,9.4,3.6,13.3c-2.3,3.9-3.6,8.5-3.6,13.3
			s1.3,9.4,3.6,13.3c-2.3,3.9-3.6,8.5-3.6,13.3s1.3,9.4,3.6,13.3c-2.3,3.9-3.6,8.5-3.6,13.3s1.3,9.4,3.6,13.3
			c-1.2,2.1-2.2,4.4-2.8,6.9c-2.8-1-5.7-1.5-8.8-1.5c-4.9,0-9.4,1.3-13.4,3.6c-3.9-2.3-8.5-3.6-13.3-3.6s-9.4,1.3-13.3,3.6
			c-3.9-2.3-8.5-3.6-13.4-3.6s-9.4,1.3-13.3,3.6c-3.9-2.3-8.5-3.6-13.3-3.6c-4.9,0-9.4,1.3-13.4,3.6c-3.9-2.3-8.5-3.6-13.3-3.6
			s-9.4,1.3-13.4,3.6c-3.9-2.3-8.5-3.6-13.3-3.6s-9.4,1.3-13.3,3.6c-3.9-2.3-8.5-3.6-13.4-3.6s-9.4,1.3-13.3,3.6
			c-3.9-2.3-8.5-3.6-13.4-3.6c-3.9,0-7.5,0.8-10.9,2.3c-0.6-2.1-1.5-4.1-2.5-5.9c2.3-3.9,3.6-8.5,3.6-13.3s-1.3-9.4-3.6-13.3
			c2.3-3.9,3.6-8.5,3.6-13.3s-1.3-9.4-3.6-13.3c2.3-3.9,3.6-8.5,3.6-13.3s-1.3-9.4-3.6-13.3c2.3-3.9,3.6-8.5,3.6-13.3
			s-1.3-9.4-3.6-13.3c2.3-3.9,3.6-8.5,3.6-13.3s-1.3-9.4-3.6-13.3c2.3-3.9,3.6-8.5,3.6-13.3s-1.3-9.4-3.6-13.3
			c2.3-3.9,3.6-8.5,3.6-13.3s-1.3-9.4-3.6-13.3c2.3-3.9,3.6-8.5,3.6-13.3s-1.3-9.4-3.6-13.3c2.3-3.9,3.6-8.5,3.6-13.3
			s-1.3-9.4-3.6-13.3c2.3-3.9,3.6-8.5,3.6-13.3s-1.3-9.4-3.6-13.3c2.3-3.9,3.6-8.5,3.6-13.3s-1.3-9.4-3.6-13.3
			c2.3-3.9,3.6-8.5,3.6-13.3s-1.3-9.4-3.6-13.3c2.3-3.9,3.6-8.5,3.6-13.3s-1.3-9.4-3.6-13.3c2.3-3.9,3.6-8.5,3.6-13.3
			s-1.3-9.4-3.6-13.3c2.3-3.9,3.6-8.5,3.6-13.3s-1.3-9.4-3.6-13.3c2.3-3.9,3.6-8.5,3.6-13.3s-1.3-9.4-3.6-13.3
			c2.3-3.9,3.6-8.5,3.6-13.3s-1.3-9.4-3.6-13.3c0.2-0.3,0.3-0.5,0.5-0.8c1.4-0.5,2.7-1.2,4-1.9c3.9,2.3,8.5,3.6,13.3,3.6
			c4.9,0,9.4-1.3,13.4-3.6c3.9,2.3,8.5,3.6,13.3,3.6s9.4-1.3,13.4-3.6c3.9,2.3,8.5,3.6,13.3,3.6s9.4-1.3,13.3-3.6
			c3.9,2.3,8.5,3.6,13.4,3.6s9.4-1.3,13.3-3.6c3.9,2.3,8.5,3.6,13.4,3.6s9.4-1.3,13.3-3.6c3.9,2.3,8.5,3.6,13.3,3.6
			s9.4-1.3,13.4-3.6c3.9,2.3,8.5,3.6,13.3,3.6s9.4-1.3,13.4-3.6c3.9,2.3,8.5,3.6,13.3,3.6s9.4-1.3,13.3-3.6
			c3.9,2.3,8.5,3.6,13.4,3.6c14.7,0,26.7-12,26.7-26.7s-12-26.7-26.7-26.7c-4.9,0-9.4,1.3-13.4,3.6c-3.9-2.3-8.5-3.6-13.3-3.6
			s-9.4,1.3-13.3,3.6c-3.9-2.3-8.5-3.6-13.4-3.6s-9.4,1.3-13.3,3.6c-3.9-2.3-8.5-3.6-13.3-3.6c-4.9,0-9.4,1.3-13.4,3.6
			c-3.9-2.3-8.5-3.6-13.3-3.6s-9.4,1.3-13.4,3.6c-3.9-2.3-8.5-3.6-13.3-3.6s-9.4,1.3-13.3,3.6c-3.9-2.3-8.5-3.6-13.4-3.6
			s-9.4,1.3-13.3,3.6c-3.9-2.3-8.5-3.6-13.4-3.6s-9.4,1.3-13.3,3.6c-3.9-2.3-8.5-3.6-13.3-3.6c-4.9,0-9.4,1.3-13.4,3.6
			c-3.9-2.3-8.5-3.6-13.3-3.6c-10.2,0-19.1,5.8-23.6,14.2c-10.1,3.8-17.4,13.5-17.4,25c0,4.9,1.3,9.4,3.6,13.3
			c-2.3,3.9-3.6,8.5-3.6,13.3s1.3,9.4,3.6,13.3c-2.3,3.9-3.6,8.5-3.6,13.3s1.3,9.4,3.6,13.3c-2.3,3.9-3.6,8.5-3.6,13.3
			s1.3,9.4,3.6,13.3c-2.3,3.9-3.6,8.5-3.6,13.3s1.3,9.4,3.6,13.3c-2.3,3.9-3.6,8.5-3.6,13.3s1.3,9.4,3.6,13.3
			c-2.3,3.9-3.6,8.5-3.6,13.3s1.3,9.4,3.6,13.3c-2.3,3.9-3.6,8.5-3.6,13.3s1.3,9.4,3.6,13.3c-2.3,3.9-3.6,8.5-3.6,13.3
			s1.3,9.4,3.6,13.3c-2.3,3.9-3.6,8.5-3.6,13.3s1.3,9.4,3.6,13.3c-2.3,3.9-3.6,8.5-3.6,13.3s1.3,9.4,3.6,13.3
			c-2.3,3.9-3.6,8.5-3.6,13.3s1.3,9.4,3.6,13.3c-2.3,3.9-3.6,8.5-3.6,13.3s1.3,9.4,3.6,13.3c-2.3,3.9-3.6,8.5-3.6,13.3
			s1.3,9.4,3.6,13.3c-2.3,3.9-3.6,8.5-3.6,13.3s1.3,9.4,3.6,13.3c-2.3,3.9-3.6,8.5-3.6,13.3s1.3,9.4,3.6,13.3
			c-2.3,3.9-3.6,8.5-3.6,13.3s1.3,9.4,3.6,13.3c-2.3,3.9-3.6,8.5-3.6,13.3s1.3,9.4,3.6,13.3c-2.3,3.9-3.6,8.5-3.6,13.3
			c0,8.5,4,16,10.1,20.9c1.9,12.8,13,22.7,26.4,22.7c4.9,0,9.4-1.3,13.4-3.6c3.9,2.3,8.5,3.6,13.3,3.6s9.4-1.3,13.3-3.6
			c3.9,2.3,8.5,3.6,13.4,3.6s9.4-1.3,13.3-3.6c3.9,2.3,8.5,3.6,13.3,3.6c4.9,0,9.4-1.3,13.4-3.6c3.9,2.3,8.5,3.6,13.3,3.6
			s9.4-1.3,13.4-3.6c3.9,2.3,8.5,3.6,13.3,3.6s9.4-1.3,13.3-3.6c3.9,2.3,8.5,3.6,13.4,3.6s9.4-1.3,13.3-3.6
			c3.9,2.3,8.5,3.6,13.4,3.6c4.9,0,9.4-1.3,13.3-3.6c3.9,2.3,8.5,3.6,13.3,3.6s9.4-1.3,13.4-3.6c3.9,2.3,8.5,3.6,13.3,3.6
			c14.6,0,26.5-11.8,26.7-26.3c4.9-4.8,8-11.6,8-19.1c0-4.9-1.3-9.4-3.6-13.3c2.3-3.9,3.6-8.5,3.6-13.3s-1.3-9.4-3.6-13.3
			c2.3-3.9,3.6-8.5,3.6-13.3s-1.3-9.4-3.6-13.3c2.3-3.9,3.6-8.5,3.6-13.3s-1.3-9.4-3.6-13.3c2.3-3.9,3.6-8.5,3.6-13.3
			s-1.3-9.4-3.6-13.3c2.3-3.9,3.6-8.5,3.6-13.3s-1.3-9.4-3.6-13.3c2.3-3.9,3.6-8.5,3.6-13.3s-1.3-9.4-3.6-13.3
			c2.3-3.9,3.6-8.5,3.6-13.3s-1.3-9.4-3.6-13.3c1.3-2.3,2.3-4.8,2.9-7.4c2.5,0.8,5.1,1.2,7.8,1.2c4.9,0,9.4-1.3,13.3-3.6
			c3.9,2.3,8.5,3.6,13.4,3.6s9.4-1.3,13.3-3.6c3.9,2.3,8.5,3.6,13.3,3.6s9.4-1.3,13.3-3.6c3.9,2.3,8.5,3.6,13.4,3.6
			s9.4-1.3,13.3-3.6c3.9,2.3,8.5,3.6,13.3,3.6s9.4-1.3,13.3-3.6c3.9,2.3,8.5,3.6,13.4,3.6s9.4-1.3,13.3-3.6
			c3.9,2.3,8.5,3.6,13.3,3.6s9.4-1.3,13.3-3.6c3.9,2.3,8.5,3.6,13.4,3.6s9.4-1.3,13.3-3.6c3.9,2.3,8.5,3.6,13.3,3.6
			s9.4-1.3,13.3-3.6c3.9,2.3,8.5,3.6,13.4,3.6s9.4-1.3,13.3-3.6c3.9,2.3,8.5,3.6,13.3,3.6s9.4-1.3,13.3-3.6
			c3.9,2.3,8.5,3.6,13.4,3.6s9.4-1.3,13.3-3.6c3.9,2.3,8.5,3.6,13.3,3.6s9.4-1.3,13.3-3.6c3.9,2.3,8.5,3.6,13.4,3.6
			s9.4-1.3,13.3-3.6c3.9,2.3,8.5,3.6,13.3,3.6s9.4-1.3,13.3-3.6c3.9,2.3,8.5,3.6,13.3,3.6s9.4-1.3,13.3-3.6
			c3.9,2.3,8.5,3.6,13.3,3.6s9.4-1.3,13.3-3.6c3.9,2.3,8.5,3.6,13.3,3.6c9.6,0,18-5.1,22.7-12.7c11.1-3.3,19.1-13.5,19.1-25.6
			c0-4.9-1.3-9.4-3.6-13.3c2.3-3.9,3.6-8.5,3.6-13.3s-1.3-9.4-3.6-13.3c2.3-3.9,3.6-8.5,3.6-13.3s-1.3-9.4-3.6-13.3
			c2.3-3.9,3.6-8.5,3.6-13.3s-1.3-9.4-3.6-13.3c2.3-3.9,3.6-8.5,3.6-13.3s-1.3-9.4-3.6-13.3c2.3-3.9,3.6-8.5,3.6-13.3
			s-1.3-9.4-3.6-13.3c2.3-3.9,3.6-8.5,3.6-13.3s-1.3-9.4-3.6-13.3c2.3-3.9,3.6-8.5,3.6-13.3s-1.3-9.4-3.6-13.3
			c2.3-3.9,3.6-8.5,3.6-13.3S1550.3,815,1548,811.1z"/>
		<path class="st0" d="M1510.6,1276.7c-4.9,0-9.4,1.3-13.3,3.6c-3.9-2.3-8.5-3.6-13.3-3.6s-9.4,1.3-13.3,3.6
			c-3.9-2.3-8.5-3.6-13.3-3.6s-9.4,1.3-13.3,3.6c-3.9-2.3-8.5-3.6-13.3-3.6s-9.4,1.3-13.3,3.6c-3.9-2.3-8.5-3.6-13.4-3.6
			s-9.4,1.3-13.3,3.6c-3.9-2.3-8.5-3.6-13.3-3.6s-9.4,1.3-13.3,3.6c-3.9-2.3-8.5-3.6-13.4-3.6s-9.4,1.3-13.3,3.6
			c-3.9-2.3-8.5-3.6-13.3-3.6s-9.4,1.3-13.3,3.6c-3.9-2.3-8.5-3.6-13.4-3.6c-5.4,0-10.4,1.6-14.6,4.4c-2.9-1.1-6.1-1.7-9.4-1.7
			c-14.7,0-26.7,12-26.7,26.7c0,4.9,1.3,9.4,3.6,13.3c-2.3,3.9-3.6,8.5-3.6,13.3s1.3,9.4,3.6,13.3c-2.3,3.9-3.6,8.5-3.6,13.3
			s1.3,9.4,3.6,13.3c-2.3,3.9-3.6,8.5-3.6,13.3s1.3,9.4,3.6,13.3c-2.3,3.9-3.6,8.5-3.6,13.3s1.3,9.4,3.6,13.3
			c-2.3,3.9-3.6,8.5-3.6,13.3s1.3,9.4,3.6,13.3c-2.3,3.9-3.6,8.5-3.6,13.3s1.3,9.4,3.6,13.3c-2.3,3.9-3.6,8.5-3.6,13.3
			s1.3,9.4,3.6,13.3c-2.3,3.9-3.6,8.5-3.6,13.3s1.3,9.4,3.6,13.3c-2.3,3.9-3.6,8.5-3.6,13.3s1.3,9.4,3.6,13.3
			c-2.3,3.9-3.6,8.5-3.6,13.3s1.3,9.4,3.6,13.3c-2.3,3.9-3.6,8.5-3.6,13.3s1.3,9.4,3.6,13.3c-2.3,3.9-3.6,8.5-3.6,13.3
			s1.3,9.4,3.6,13.3c-2.3,3.9-3.6,8.5-3.6,13.3s1.3,9.4,3.6,13.3c-2.3,3.9-3.6,8.5-3.6,13.3s1.3,9.4,3.6,13.3
			c-2.3,3.9-3.6,8.5-3.6,13.3s1.3,9.4,3.6,13.3c-2.3,3.9-3.6,8.5-3.6,13.3s1.3,9.4,3.6,13.3c-2.3,3.9-3.6,8.5-3.6,13.3
			s1.3,9.4,3.6,13.3c-2.3,3.9-3.6,8.5-3.6,13.3s1.3,9.4,3.6,13.3c-2.3,3.9-3.6,8.5-3.6,13.3c0,14.7,12,26.7,26.7,26.7
			c14.7,0,26.7-12,26.7-26.7c0-4.9-1.3-9.4-3.6-13.3c2.3-3.9,3.6-8.5,3.6-13.3s-1.3-9.4-3.6-13.3c2.3-3.9,3.6-8.5,3.6-13.3
			s-1.3-9.4-3.6-13.3c2.3-3.9,3.6-8.5,3.6-13.3s-1.3-9.4-3.6-13.3c2.3-3.9,3.6-8.5,3.6-13.3s-1.3-9.4-3.6-13.3
			c2.3-3.9,3.6-8.5,3.6-13.3s-1.3-9.4-3.6-13.3c2.3-3.9,3.6-8.5,3.6-13.3s-1.3-9.4-3.6-13.3c2.3-3.9,3.6-8.5,3.6-13.3
			s-1.3-9.4-3.6-13.3c2.3-3.9,3.6-8.5,3.6-13.3s-1.3-9.4-3.6-13.3c2.3-3.9,3.6-8.5,3.6-13.3s-1.3-9.4-3.6-13.3
			c2.3-3.9,3.6-8.5,3.6-13.3s-1.3-9.4-3.6-13.3c2.3-3.9,3.6-8.5,3.6-13.3s-1.3-9.4-3.6-13.3c2.3-3.9,3.6-8.5,3.6-13.3
			s-1.3-9.4-3.6-13.3c2.3-3.9,3.6-8.5,3.6-13.3s-1.3-9.4-3.6-13.3c2.3-3.9,3.6-8.5,3.6-13.3s-1.3-9.4-3.6-13.3
			c2.3-3.9,3.6-8.5,3.6-13.3s-1.3-9.4-3.6-13.3c2.3-3.9,3.6-8.5,3.6-13.3s-1.3-9.4-3.6-13.3c2.3-3.9,3.6-8.5,3.6-13.3
			s-1.3-9.4-3.6-13.3c2.3-3.9,3.6-8.5,3.6-13.3c0-0.9,0-1.9-0.1-2.8c3.9-0.4,7.6-1.6,10.8-3.5c3.9,2.3,8.5,3.6,13.3,3.6
			s9.4-1.3,13.3-3.6c3.9,2.3,8.5,3.6,13.3,3.6s9.4-1.3,13.4-3.6c3.9,2.3,8.5,3.6,13.3,3.6s9.4-1.3,13.3-3.6
			c3.9,2.3,8.5,3.6,13.3,3.6s9.4-1.3,13.4-3.6c3.9,2.3,8.5,3.6,13.3,3.6s9.4-1.3,13.3-3.6c3.9,2.3,8.5,3.6,13.3,3.6
			s9.4-1.3,13.3-3.6c3.9,2.3,8.5,3.6,13.3,3.6s9.4-1.3,13.3-3.6c3.9,2.3,8.5,3.6,13.3,3.6c14.7,0,26.7-12,26.7-26.7
			S1525.4,1276.7,1510.6,1276.7z"/>
		<path class="st0" d="M725.5,305.5c3.9,2.3,8.5,3.6,13.4,3.6c0.1,0,0.3,0,0.4,0c0.4,0.9,0.9,1.8,1.4,2.7c-2.3,3.9-3.6,8.5-3.6,13.4
			s1.3,9.4,3.6,13.4c-2.3,3.9-3.6,8.5-3.6,13.4s1.3,9.4,3.6,13.4c-2.3,3.9-3.6,8.5-3.6,13.4s1.3,9.4,3.6,13.4
			c-2.3,3.9-3.6,8.5-3.6,13.4s1.3,9.4,3.6,13.4c-2.3,3.9-3.6,8.5-3.6,13.4s1.3,9.4,3.6,13.4c-2.3,3.9-3.6,8.5-3.6,13.4
			s1.3,9.4,3.6,13.4c-2.3,3.9-3.6,8.5-3.6,13.4s1.3,9.4,3.6,13.3c-2.3,3.9-3.6,8.5-3.6,13.3c0,5.2,1.5,10,4.1,14.1
			c-1.5,3.3-2.3,6.9-2.3,10.8c0,14.7,12,26.7,26.7,26.7c4.9,0,9.4-1.3,13.3-3.6c3.9,2.3,8.5,3.6,13.4,3.6s9.4-1.3,13.3-3.6
			c3.9,2.3,8.5,3.6,13.4,3.6c4.9,0,9.4-1.3,13.3-3.6c3.9,2.3,8.5,3.6,13.3,3.6s9.4-1.3,13.4-3.6c3.9,2.3,8.5,3.6,13.3,3.6
			s9.4-1.3,13.4-3.6c3.9,2.3,8.5,3.6,13.3,3.6s9.4-1.3,13.3-3.6c3.9,2.3,8.5,3.6,13.4,3.6s9.4-1.3,13.3-3.6
			c3.9,2.3,8.5,3.6,13.4,3.6s9.4-1.3,13.3-3.6c3.9,2.3,8.5,3.6,13.3,3.6s9.4-1.3,13.4-3.6c3.9,2.3,8.5,3.6,13.3,3.6
			c11.5,0,21.2-7.2,25-17.4c8.4-4.5,14.2-13.3,14.2-23.6c0-4.9-1.3-9.4-3.6-13.3c2.3-3.9,3.6-8.5,3.6-13.3s-1.3-9.4-3.6-13.3
			c2.3-3.9,3.6-8.5,3.6-13.4s-1.3-9.4-3.6-13.4c2.3-3.9,3.6-8.5,3.6-13.4s-1.3-9.4-3.6-13.4c2.3-3.9,3.6-8.5,3.6-13.4
			s-1.3-9.4-3.6-13.4c2.3-3.9,3.6-8.5,3.6-13.4s-1.3-9.4-3.6-13.4c2.3-3.9,3.6-8.5,3.6-13.4s-1.3-9.4-3.6-13.4
			c2.3-3.9,3.6-8.5,3.6-13.4s-1.3-9.4-3.6-13.4c2.3-3.9,3.6-8.5,3.6-13.4s-1.3-9.4-3.6-13.4c2.3-3.9,3.6-8.5,3.6-13.4
			c0-14.7-12-26.7-26.7-26.7s-26.7,12-26.7,26.7c0,4.9,1.3,9.4,3.6,13.4c-2.3,3.9-3.6,8.5-3.6,13.4s1.3,9.4,3.6,13.4
			c-2.3,3.9-3.6,8.5-3.6,13.4s1.3,9.4,3.6,13.4c-2.3,3.9-3.6,8.5-3.6,13.4s1.3,9.4,3.6,13.4c-2.3,3.9-3.6,8.5-3.6,13.4
			s1.3,9.4,3.6,13.4c-2.3,3.9-3.6,8.5-3.6,13.4s1.3,9.4,3.6,13.4c-2.3,3.9-3.6,8.5-3.6,13.4s1.3,9.4,3.6,13.4
			c-2.3,3.9-3.6,8.5-3.6,13.4c0,4.9,1.3,9.4,3.6,13.4c-2.3,3.9-3.6,8.5-3.6,13.3s1.3,9.4,3.6,13.3c-0.8,1.3-1.4,2.6-1.9,4
			c-0.3,0.1-0.6,0.3-0.8,0.5c-3.9-2.3-8.5-3.6-13.4-3.6c-4.9,0-9.4,1.3-13.3,3.6c-3.9-2.3-8.5-3.6-13.3-3.6s-9.4,1.3-13.4,3.6
			c-3.9-2.3-8.5-3.6-13.3-3.6s-9.4,1.3-13.3,3.6c-3.9-2.3-8.5-3.6-13.4-3.6s-9.4,1.3-13.3,3.6c-3.9-2.3-8.5-3.6-13.4-3.6
			s-9.4,1.3-13.3,3.6c-3.9-2.3-8.5-3.6-13.4-3.6c-4.9,0-9.4,1.3-13.3,3.6c-3.9-2.3-8.5-3.6-13.3-3.6s-9.4,1.3-13.4,3.6
			c-3.9-2.3-8.5-3.6-13.3-3.6c-0.6,0-1.3,0-1.9,0.1c-0.3-4.2-1.5-8.2-3.5-11.7c2.3-3.9,3.6-8.5,3.6-13.3s-1.3-9.4-3.6-13.4
			c2.3-3.9,3.6-8.5,3.6-13.4s-1.3-9.4-3.6-13.4c2.3-3.9,3.6-8.5,3.6-13.4s-1.3-9.4-3.6-13.4c2.3-3.9,3.6-8.5,3.6-13.4
			s-1.3-9.4-3.6-13.4c2.3-3.9,3.6-8.5,3.6-13.4s-1.3-9.4-3.6-13.4c2.3-3.9,3.6-8.5,3.6-13.4s-1.3-9.4-3.6-13.4
			c2.3-3.9,3.6-8.5,3.6-13.4s-1.3-9.4-3.6-13.4c2.3-3.9,3.6-8.5,3.6-13.4s-1.3-9.4-3.6-13.4c2.3-3.9,3.6-8.5,3.6-13.4
			s-1.3-9.4-3.6-13.4c2.3-3.9,3.6-8.5,3.6-13.4s-1.3-9.4-3.6-13.4c2.3-3.9,3.6-8.5,3.6-13.4s-1.3-9.4-3.6-13.4
			c2.3-3.9,3.6-8.5,3.6-13.4s-1.3-9.4-3.6-13.4c2.3-3.9,3.6-8.5,3.6-13.4s-1.3-9.4-3.6-13.4c2.3-3.9,3.6-8.5,3.6-13.4
			s-1.3-9.4-3.6-13.3c2.3-3.9,3.6-8.5,3.6-13.4s-1.3-9.4-3.6-13.4c2.3-3.9,3.6-8.5,3.6-13.3s-1.3-9.4-3.6-13.3
			c2.3-3.9,3.6-8.5,3.6-13.3s-1.3-9.4-3.6-13.3c2.3-3.9,3.6-8.5,3.6-13.3c0-14.7-12-26.7-26.7-26.7c-3.3,0-6.5,0.6-9.4,1.7
			c-4.2-2.8-9.2-4.4-14.7-4.4c-4.9,0-9.4,1.3-13.3,3.6C722.5,3.3,717.9,2,713,2s-9.4,1.3-13.4,3.6c-3.9-2.3-8.5-3.6-13.3-3.6
			s-9.4,1.3-13.4,3.6c-3.9-2.3-8.5-3.6-13.3-3.6s-9.4,1.3-13.4,3.6c-3.9-2.3-8.5-3.6-13.3-3.6s-9.4,1.3-13.4,3.6
			c-3.9-2.3-8.5-3.6-13.3-3.6s-9.4,1.3-13.4,3.6C589,3.3,584.4,2,579.5,2s-9.4,1.3-13.4,3.6c-3.9-2.3-8.5-3.6-13.3-3.6
			s-9.4,1.3-13.4,3.6C535.6,3.3,531,2,526.1,2s-9.4,1.3-13.4,3.6c-3.9-2.3-8.5-3.6-13.4-3.6s-9.4,1.3-13.4,3.6
			c-3.9-2.3-8.5-3.6-13.4-3.6s-9.4,1.3-13.4,3.6C455.5,3.3,450.9,2,446,2s-9.4,1.3-13.4,3.6c-3.9-2.3-8.5-3.6-13.4-3.6
			s-9.4,1.3-13.4,3.6c-3.9-2.3-8.5-3.6-13.4-3.6c-4.9,0-9.4,1.3-13.4,3.6c-3.9-2.3-8.5-3.6-13.3-3.6s-9.4,1.3-13.3,3.6
			c-4-2.3-8.5-3.6-13.4-3.6s-9.4,1.3-13.3,3.6c-3.9-2.3-8.5-3.6-13.4-3.6s-9.4,1.3-13.3,3.6c-3.9-2.3-8.5-3.6-13.3-3.6
			s-9.4,1.3-13.3,3.6C268.5,3.3,264,2,259.1,2c-14.7,0-26.7,12-26.7,26.7s12,26.7,26.7,26.7c4.9,0,9.4-1.3,13.3-3.6
			c3.9,2.3,8.5,3.6,13.3,3.6s9.4-1.3,13.3-3.6c3.9,2.3,8.5,3.6,13.3,3.6s9.4-1.3,13.3-3.6c3.9,2.3,8.5,3.6,13.3,3.6
			s9.4-1.3,13.3-3.6c3.9,2.3,8.5,3.6,13.3,3.6s9.4-1.3,13.3-3.6c3.9,2.3,8.5,3.6,13.4,3.6c4.9,0,9.4-1.3,13.4-3.6
			c3.9,2.3,8.5,3.6,13.4,3.6s9.4-1.3,13.4-3.6c3.9,2.3,8.5,3.6,13.4,3.6s9.4-1.3,13.4-3.6c3.9,2.3,8.5,3.6,13.4,3.6
			s9.4-1.3,13.4-3.6c3.9,2.3,8.5,3.6,13.4,3.6s9.4-1.3,13.4-3.6c3.9,2.3,8.5,3.6,13.4,3.6s9.4-1.3,13.3-3.6
			c3.9,2.3,8.5,3.6,13.4,3.6s9.4-1.3,13.3-3.6c3.9,2.3,8.5,3.6,13.4,3.6s9.4-1.3,13.3-3.6c3.9,2.3,8.5,3.6,13.4,3.6
			s9.4-1.3,13.3-3.6c3.9,2.3,8.5,3.6,13.4,3.6s9.4-1.3,13.3-3.6c3.9,2.3,8.5,3.6,13.4,3.6s9.4-1.3,13.3-3.6
			c3.9,2.3,8.5,3.6,13.4,3.6s9.4-1.3,13.3-3.6c3.9,2.3,8.5,3.6,13.4,3.6s9.4-1.3,13.3-3.6c3.2,1.9,6.9,3.1,10.8,3.5
			c-0.1,0.9-0.1,1.8-0.1,2.8c0,4.9,1.3,9.4,3.6,13.3c-2.3,3.9-3.6,8.5-3.6,13.3s1.3,9.4,3.6,13.3c-2.3,3.9-3.6,8.5-3.6,13.4
			s1.3,9.4,3.6,13.4c-2.3,3.9-3.6,8.5-3.6,13.3s1.3,9.4,3.6,13.4c-2.3,3.9-3.6,8.5-3.6,13.4s1.3,9.4,3.6,13.4
			c-2.3,3.9-3.6,8.5-3.6,13.4s1.3,9.4,3.6,13.4c-2.3,3.9-3.6,8.5-3.6,13.3c0,4.9,1.3,9.4,3.6,13.4c-2.3,3.9-3.6,8.5-3.6,13.4
			c0,3.8,0.8,7.4,2.2,10.7c-0.2,0-0.3,0-0.5,0c-4.9,0-9.4,1.3-13.4,3.6c-3.9-2.3-8.5-3.6-13.3-3.6s-9.4,1.3-13.4,3.6
			c-3.9-2.3-8.5-3.6-13.3-3.6s-9.4,1.3-13.4,3.6c-3.9-2.3-8.5-3.6-13.3-3.6s-9.4,1.3-13.4,3.6c-3.9-2.3-8.5-3.6-13.3-3.6
			s-9.4,1.3-13.3,3.6c-3.9-2.3-8.5-3.6-13.4-3.6s-9.4,1.3-13.3,3.6c-3.9-2.3-8.5-3.6-13.4-3.6s-9.4,1.3-13.3,3.6
			c-3.9-2.3-8.5-3.6-13.4-3.6s-9.4,1.3-13.3,3.6c-3.9-2.3-8.5-3.6-13.4-3.6c-9,0-17,4.5-21.8,11.3c-12,2.6-20.9,13.3-20.9,26.1
			c0,4.9,1.3,9.4,3.6,13.4c-2.3,3.9-3.6,8.5-3.6,13.4s1.3,9.4,3.6,13.4c-2.3,3.9-3.6,8.5-3.6,13.4s1.3,9.4,3.6,13.4
			c-2.3,3.9-3.6,8.5-3.6,13.4s1.3,9.4,3.6,13.4c-2.3,3.9-3.6,8.5-3.6,13.4s1.3,9.4,3.6,13.4c-2.3,3.9-3.6,8.5-3.6,13.4
			s1.3,9.4,3.6,13.4c-2.3,3.9-3.6,8.5-3.6,13.4s1.3,9.4,3.6,13.4c-2.3,3.9-3.6,8.5-3.6,13.4s1.3,9.4,3.6,13.3
			c-2.3,3.9-3.6,8.5-3.6,13.3c0,1.3,0.1,2.5,0.3,3.8c-3.6,0.5-7,1.6-10.1,3.4c-3.9-2.3-8.5-3.6-13.4-3.6s-9.4,1.3-13.4,3.6
			c-3.9-2.3-8.5-3.6-13.4-3.6s-9.4,1.3-13.4,3.6c-3.9-2.3-8.5-3.6-13.4-3.6s-9.4,1.3-13.4,3.6c-3.9-2.3-8.5-3.6-13.3-3.6
			s-9.4,1.3-13.3,3.6c-3.9-2.3-8.5-3.6-13.3-3.6s-9.4,1.3-13.3,3.6c-3.9-2.3-8.5-3.6-13.3-3.6s-9.4,1.3-13.3,3.6
			c-3.9-2.3-8.5-3.6-13.3-3.6s-9.4,1.3-13.3,3.6c-3.9-2.3-8.5-3.6-13.3-3.6s-9.4,1.3-13.3,3.6c-3.9-2.3-8.5-3.6-13.3-3.6
			s-9.4,1.3-13.3,3.6c-3.9-2.3-8.5-3.6-13.3-3.6s-9.4,1.3-13.3,3.6c-3.9-2.3-8.5-3.6-13.3-3.6s-9.4,1.3-13.3,3.6
			c-3.9-2.3-8.5-3.6-13.3-3.6s-9.4,1.3-13.3,3.6c-3.9-2.3-8.5-3.6-13.3-3.6s-9.4,1.3-13.3,3.6c-3.9-2.3-8.5-3.6-13.3-3.6
			s-9.4,1.3-13.3,3.6c-3.9-2.3-8.5-3.6-13.3-3.6s-9.4,1.3-13.3,3.6c-3.9-2.3-8.5-3.6-13.3-3.6s-9.4,1.3-13.3,3.6
			c-3.9-2.3-8.5-3.6-13.3-3.6s-9.4,1.3-13.3,3.6c-3.9-2.3-8.5-3.6-13.3-3.6c-14.7,0-26.7,12-26.7,26.7s12,26.7,26.7,26.7
			c4.9,0,9.4-1.3,13.3-3.6c3.9,2.3,8.5,3.6,13.3,3.6s9.4-1.3,13.3-3.6c3.9,2.3,8.5,3.6,13.3,3.6s9.4-1.3,13.3-3.6
			c3.9,2.3,8.5,3.6,13.3,3.6s9.4-1.3,13.3-3.6c3.9,2.3,8.5,3.6,13.3,3.6s9.4-1.3,13.3-3.6c3.9,2.3,8.5,3.6,13.3,3.6
			s9.4-1.3,13.3-3.6c3.9,2.3,8.5,3.6,13.3,3.6s9.4-1.3,13.3-3.6c3.9,2.3,8.5,3.6,13.3,3.6s9.4-1.3,13.3-3.6
			c3.9,2.3,8.5,3.6,13.3,3.6s9.4-1.3,13.3-3.6c3.9,2.3,8.5,3.6,13.3,3.6s9.4-1.3,13.3-3.6c3.9,2.3,8.5,3.6,13.3,3.6
			s9.4-1.3,13.3-3.6c3.9,2.3,8.5,3.6,13.3,3.6s9.4-1.3,13.3-3.6c3.9,2.3,8.5,3.6,13.3,3.6s9.4-1.3,13.3-3.6
			c3.9,2.3,8.5,3.6,13.3,3.6s9.4-1.3,13.3-3.6c3.9,2.3,8.5,3.6,13.3,3.6s9.4-1.3,13.4-3.6c3.9,2.3,8.5,3.6,13.4,3.6
			s9.4-1.3,13.4-3.6c3.9,2.3,8.5,3.6,13.4,3.6s9.4-1.3,13.4-3.6c3.9,2.3,8.5,3.6,13.4,3.6s9.4-1.3,13.4-3.6
			c3.9,2.3,8.5,3.6,13.4,3.6c5.6,0,10.9-1.8,15.2-4.8c2.5,0.8,5.2,1.2,7.9,1.2c14.7,0,26.7-12,26.7-26.7c0-4.9-1.3-9.4-3.6-13.3
			c2.3-3.9,3.6-8.5,3.6-13.3s-1.3-9.4-3.6-13.3c2.3-3.9,3.6-8.5,3.6-13.3s-1.3-9.4-3.6-13.4c2.3-3.9,3.6-8.5,3.6-13.4
			s-1.3-9.4-3.6-13.4c2.3-3.9,3.6-8.5,3.6-13.4s-1.3-9.4-3.6-13.4c2.3-3.9,3.6-8.5,3.6-13.4s-1.3-9.4-3.6-13.4
			c2.3-3.9,3.6-8.5,3.6-13.4s-1.3-9.4-3.6-13.4c2.3-3.9,3.6-8.5,3.6-13.4s-1.3-9.4-3.6-13.4c2.3-3.9,3.6-8.5,3.6-13.4
			c0-4.3-1-8.3-2.8-11.9c1.9-0.6,3.8-1.4,5.5-2.4c3.9,2.3,8.5,3.6,13.3,3.6s9.4-1.3,13.4-3.6c3.9,2.3,8.5,3.6,13.3,3.6
			s9.4-1.3,13.4-3.6c3.9,2.3,8.5,3.6,13.3,3.6s9.4-1.3,13.4-3.6c3.9,2.3,8.5,3.6,13.3,3.6s9.4-1.3,13.4-3.6
			c3.9,2.3,8.5,3.6,13.3,3.6s9.4-1.3,13.4-3.6c3.9,2.3,8.5,3.6,13.3,3.6s9.4-1.3,13.4-3.6c3.9,2.3,8.5,3.6,13.3,3.6
			S721.6,307.8,725.5,305.5z"/>
		<path class="st0" d="M508.3,1287.3c-14.7,0-26.7,12-26.7,26.7c0,4.9,1.3,9.4,3.6,13.3c-2.3,3.9-3.6,8.5-3.6,13.3s1.3,9.4,3.6,13.3
			c-2.3,3.9-3.6,8.5-3.6,13.3s1.3,9.4,3.6,13.3c-2.3,3.9-3.6,8.5-3.6,13.3s1.3,9.4,3.6,13.3c-2.3,3.9-3.6,8.5-3.6,13.3
			s1.3,9.4,3.6,13.3c-2.3,3.9-3.6,8.5-3.6,13.3s1.3,9.4,3.6,13.3c-2.3,3.9-3.6,8.5-3.6,13.3s1.3,9.4,3.6,13.3
			c-2.3,3.9-3.6,8.5-3.6,13.3s1.3,9.4,3.6,13.3c-2.3,3.9-3.6,8.5-3.6,13.3c0,1.6,0.2,3.2,0.5,4.8c-3.4,0.5-6.5,1.6-9.4,3.3
			c-3.9-2.3-8.5-3.6-13.4-3.6s-9.4,1.3-13.4,3.6c-3.9-2.3-8.5-3.6-13.4-3.6s-9.4,1.3-13.4,3.6c-3.9-2.3-8.5-3.6-13.4-3.6
			s-9.4,1.3-13.4,3.6c-3.9-2.3-8.5-3.6-13.4-3.6s-9.4,1.3-13.3,3.6c-3.9-2.3-8.5-3.6-13.3-3.6s-9.4,1.3-13.3,3.6
			c-3.9-2.3-8.5-3.6-13.3-3.6s-9.4,1.3-13.3,3.6c-3.9-2.3-8.5-3.6-13.3-3.6s-9.4,1.3-13.3,3.6c-3.9-2.3-8.5-3.6-13.3-3.6
			s-9.4,1.3-13.3,3.6c-3.9-2.3-8.5-3.6-13.3-3.6s-9.4,1.3-13.3,3.6c-3.9-2.3-8.5-3.6-13.3-3.6s-9.4,1.3-13.3,3.6
			c-3.9-2.3-8.5-3.6-13.3-3.6s-9.4,1.3-13.3,3.6c-3.9-2.3-8.5-3.6-13.3-3.6s-9.4,1.3-13.3,3.6c-3.9-2.3-8.5-3.6-13.3-3.6
			s-9.4,1.3-13.3,3.6c-3.9-2.3-8.5-3.6-13.3-3.6s-9.4,1.3-13.3,3.6c-3.9-2.3-8.5-3.6-13.3-3.6s-9.4,1.3-13.3,3.6
			c-3.9-2.3-8.5-3.6-13.3-3.6s-9.4,1.3-13.3,3.6c-3.9-2.3-8.5-3.6-13.3-3.6s-9.4,1.3-13.3,3.6c-3.9-2.3-8.5-3.6-13.3-3.6
			c-14.7,0-26.7,12-26.7,26.7s12,26.7,26.7,26.7c4.9,0,9.4-1.3,13.3-3.6c3.9,2.3,8.5,3.6,13.3,3.6s9.4-1.3,13.3-3.6
			c3.9,2.3,8.5,3.6,13.3,3.6s9.4-1.3,13.3-3.6c3.9,2.3,8.5,3.6,13.3,3.6s9.4-1.3,13.3-3.6c3.9,2.3,8.5,3.6,13.3,3.6
			s9.4-1.3,13.3-3.6c3.9,2.3,8.5,3.6,13.3,3.6s9.4-1.3,13.3-3.6c3.9,2.3,8.5,3.6,13.3,3.6s9.4-1.3,13.3-3.6
			c3.9,2.3,8.5,3.6,13.3,3.6s9.4-1.3,13.3-3.6c3.9,2.3,8.5,3.6,13.3,3.6s9.4-1.3,13.3-3.6c3.9,2.3,8.5,3.6,13.3,3.6
			s9.4-1.3,13.3-3.6c3.9,2.3,8.5,3.6,13.3,3.6s9.4-1.3,13.3-3.6c3.9,2.3,8.5,3.6,13.3,3.6s9.4-1.3,13.3-3.6
			c3.9,2.3,8.5,3.6,13.3,3.6s9.4-1.3,13.3-3.6c3.9,2.3,8.5,3.6,13.3,3.6s9.4-1.3,13.3-3.6c3.9,2.3,8.5,3.6,13.3,3.6
			s9.4-1.3,13.4-3.6c3.9,2.3,8.5,3.6,13.4,3.6s9.4-1.3,13.4-3.6c3.9,2.3,8.5,3.6,13.4,3.6s9.4-1.3,13.4-3.6
			c3.9,2.3,8.5,3.6,13.4,3.6s9.4-1.3,13.4-3.6c3.9,2.3,8.5,3.6,13.4,3.6c6,0,11.4-2,15.9-5.3c2,0.5,4.2,0.8,6.4,0.8
			c14.7,0,26.7-12,26.7-26.7c0-4.9-1.3-9.4-3.6-13.3c2.3-3.9,3.6-8.5,3.6-13.3s-1.3-9.4-3.6-13.3c2.3-3.9,3.6-8.5,3.6-13.3
			s-1.3-9.4-3.6-13.3c2.3-3.9,3.6-8.5,3.6-13.3s-1.3-9.4-3.6-13.3c2.3-3.9,3.6-8.5,3.6-13.3s-1.3-9.4-3.6-13.3
			c2.3-3.9,3.6-8.5,3.6-13.3s-1.3-9.4-3.6-13.3c2.3-3.9,3.6-8.5,3.6-13.3s-1.3-9.4-3.6-13.3c2.3-3.9,3.6-8.5,3.6-13.3
			s-1.3-9.4-3.6-13.3c2.3-3.9,3.6-8.5,3.6-13.3s-1.3-9.4-3.6-13.3c2.3-3.9,3.6-8.5,3.6-13.3C535,1299.3,523.1,1287.3,508.3,1287.3z"
			/>
		<path class="st0" d="M1027.7,1546.3c-4.5-8.4-13.3-14.2-23.6-14.2c-4.9,0-9.4,1.3-13.3,3.6c-3.9-2.3-8.5-3.6-13.4-3.6
			c-4.9,0-9.4,1.3-13.3,3.6c-3.9-2.3-8.5-3.6-13.3-3.6s-9.4,1.3-13.4,3.6c-3.9-2.3-8.5-3.6-13.3-3.6s-9.4,1.3-13.3,3.6
			c-3.9-2.3-8.5-3.6-13.4-3.6s-9.4,1.3-13.3,3.6c-3.9-2.3-8.5-3.6-13.4-3.6s-9.4,1.3-13.3,3.6c-3.9-2.3-8.5-3.6-13.4-3.6
			c-4.9,0-9.4,1.3-13.3,3.6c-3.9-2.3-8.5-3.6-13.3-3.6s-9.4,1.3-13.4,3.6c-3.9-2.3-8.5-3.6-13.3-3.6s-9.4,1.3-13.3,3.6
			c-3.9-2.3-8.5-3.6-13.4-3.6c-14.7,0-26.7,12-26.7,26.7s12,26.7,26.7,26.7c4.9,0,9.4-1.3,13.3-3.6c3.9,2.3,8.5,3.6,13.4,3.6
			s9.4-1.3,13.3-3.6c3.9,2.3,8.5,3.6,13.4,3.6c4.9,0,9.4-1.3,13.3-3.6c3.9,2.3,8.5,3.6,13.3,3.6s9.4-1.3,13.4-3.6
			c3.9,2.3,8.5,3.6,13.3,3.6s9.4-1.3,13.4-3.6c3.9,2.3,8.5,3.6,13.3,3.6s9.4-1.3,13.3-3.6c3.9,2.3,8.5,3.6,13.4,3.6
			s9.4-1.3,13.3-3.6c3.9,2.3,8.5,3.6,13.4,3.6s9.4-1.3,13.3-3.6c3.9,2.3,8.5,3.6,13.3,3.6s9.4-1.3,13.4-3.6c1.3,0.8,2.6,1.4,4,1.9
			c0.1,0.3,0.3,0.6,0.5,0.8c-2.3,3.9-3.6,8.5-3.6,13.3s1.3,9.4,3.6,13.3c-2.3,3.9-3.6,8.5-3.6,13.3s1.3,9.4,3.6,13.3
			c-2.3,3.9-3.6,8.5-3.6,13.3s1.3,9.4,3.6,13.3c-2.3,3.9-3.6,8.5-3.6,13.3s1.3,9.4,3.6,13.3c-2.3,3.9-3.6,8.5-3.6,13.3
			s1.3,9.4,3.6,13.3c-2.3,3.9-3.6,8.5-3.6,13.3s1.3,9.4,3.6,13.3c-2.3,3.9-3.6,8.5-3.6,13.3s1.3,9.4,3.6,13.3
			c-2.3,3.9-3.6,8.5-3.6,13.3s1.3,9.4,3.6,13.3c-2.3,3.9-3.6,8.5-3.6,13.3c0,14.7,12,26.7,26.7,26.7c14.7,0,26.7-12,26.7-26.7
			c0-4.9-1.3-9.4-3.6-13.3c2.3-3.9,3.6-8.5,3.6-13.3s-1.3-9.4-3.6-13.3c2.3-3.9,3.6-8.5,3.6-13.3s-1.3-9.4-3.6-13.3
			c2.3-3.9,3.6-8.5,3.6-13.3s-1.3-9.4-3.6-13.3c2.3-3.9,3.6-8.5,3.6-13.3s-1.3-9.4-3.6-13.3c2.3-3.9,3.6-8.5,3.6-13.3
			s-1.3-9.4-3.6-13.3c2.3-3.9,3.6-8.5,3.6-13.3s-1.3-9.4-3.6-13.3c2.3-3.9,3.6-8.5,3.6-13.3s-1.3-9.4-3.6-13.3
			c2.3-3.9,3.6-8.5,3.6-13.3s-1.3-9.4-3.6-13.3c2.3-3.9,3.6-8.5,3.6-13.3C1045.1,1559.8,1037.9,1550.1,1027.7,1546.3z"/>
	</g>
	<g>
		<path class="st0" d="M1755.9,791.3c0,4.9,1.3,9.4,3.6,13.3c-2.3,3.9-3.6,8.5-3.6,13.3s1.3,9.4,3.6,13.3c-2.3,3.9-3.6,8.5-3.6,13.3
			s1.3,9.4,3.6,13.3c-2.3,3.9-3.6,8.5-3.6,13.3s1.3,9.4,3.6,13.3c-2.3,3.9-3.6,8.5-3.6,13.3s1.3,9.4,3.6,13.3
			c-2.3,3.9-3.6,8.5-3.6,13.3s1.3,9.4,3.6,13.3c-2.3,3.9-3.6,8.5-3.6,13.3s1.3,9.4,3.6,13.3c-2.3,3.9-3.6,8.5-3.6,13.3
			s1.3,9.4,3.6,13.3c-2.3,3.9-3.6,8.5-3.6,13.3s1.3,9.4,3.6,13.3c-2.3,3.9-3.6,8.5-3.6,13.3c0,11.5,7.3,21.2,17.4,25
			c4.5,8.4,13.3,14.2,23.6,14.2c4.9,0,9.4-1.3,13.3-3.6c3.9,2.3,8.5,3.6,13.4,3.6s9.4-1.3,13.3-3.6c3.9,2.3,8.5,3.6,13.3,3.6
			s9.4-1.3,13.3-3.6c3.9,2.3,8.5,3.6,13.4,3.6s9.4-1.3,13.3-3.6c3.9,2.3,8.5,3.6,13.3,3.6s9.4-1.3,13.3-3.6
			c3.9,2.3,8.5,3.6,13.3,3.6s9.4-1.3,13.3-3.6c3.9,2.3,8.5,3.6,13.3,3.6s9.4-1.3,13.3-3.6c3.9,2.3,8.5,3.6,13.3,3.6
			s9.4-1.3,13.3-3.6c3.9,2.3,8.5,3.6,13.3,3.6c0.1,0,0.2,0,0.3,0c0.5,3.5,1.6,6.9,3.3,9.8c-2.3,3.9-3.6,8.5-3.6,13.3
			s1.3,9.4,3.6,13.3c-2.3,3.9-3.6,8.5-3.6,13.3s1.3,9.4,3.6,13.3c-2.3,3.9-3.6,8.5-3.6,13.3s1.3,9.4,3.6,13.3
			c-2.3,3.9-3.6,8.5-3.6,13.3s1.3,9.4,3.6,13.3c-2.3,3.9-3.6,8.5-3.6,13.3s1.3,9.4,3.6,13.3c-2.3,3.9-3.6,8.5-3.6,13.3
			s1.3,9.4,3.6,13.3c-2.3,3.9-3.6,8.5-3.6,13.3s1.3,9.4,3.6,13.3c-2.3,3.9-3.6,8.5-3.6,13.3c0,7.9,3.5,15.1,9,20
			c1.1,13.7,12.6,24.6,26.6,24.6c4.9,0,9.4-1.3,13.4-3.6c3.9,2.3,8.5,3.6,13.3,3.6c4.9,0,9.4-1.3,13.4-3.6c3.9,2.3,8.5,3.6,13.3,3.6
			c4.9,0,9.4-1.3,13.4-3.6c3.9,2.3,8.5,3.6,13.3,3.6c4.9,0,9.4-1.3,13.4-3.6c3.9,2.3,8.5,3.6,13.3,3.6c4.9,0,9.4-1.3,13.4-3.6
			c3.9,2.3,8.5,3.6,13.3,3.6c4.9,0,9.4-1.3,13.4-3.6c3.9,2.3,8.5,3.6,13.3,3.6c4.9,0,9.4-1.3,13.4-3.6c3.9,2.3,8.5,3.6,13.3,3.6
			c4.9,0,9.4-1.3,13.4-3.6c3.9,2.3,8.5,3.6,13.3,3.6c4.9,0,9.4-1.3,13.4-3.6c3.9,2.3,8.5,3.6,13.3,3.6c14.7,0,26.7-12,26.7-26.7
			s-12-26.7-26.7-26.7c-4.9,0-9.4,1.3-13.3,3.6c-3.9-2.3-8.5-3.6-13.4-3.6c-4.9,0-9.4,1.3-13.3,3.6c-3.9-2.3-8.5-3.6-13.4-3.6
			c-4.9,0-9.4,1.3-13.3,3.6c-3.9-2.3-8.5-3.6-13.4-3.6c-4.9,0-9.4,1.3-13.3,3.6c-3.9-2.3-8.5-3.6-13.4-3.6c-4.9,0-9.4,1.3-13.3,3.6
			c-3.9-2.3-8.5-3.6-13.4-3.6c-4.9,0-9.4,1.3-13.3,3.6c-3.9-2.3-8.5-3.6-13.4-3.6c-4.9,0-9.4,1.3-13.3,3.6
			c-3.9-2.3-8.5-3.6-13.4-3.6c-4.9,0-9.4,1.3-13.3,3.6c-3.9-2.3-8.5-3.6-13.4-3.6c-3.5,0-6.8,0.7-9.9,1.9c-0.6-2.3-1.5-4.4-2.6-6.4
			c2.3-3.9,3.6-8.5,3.6-13.3s-1.3-9.4-3.6-13.3c2.3-3.9,3.6-8.5,3.6-13.3s-1.3-9.4-3.6-13.3c2.3-3.9,3.6-8.5,3.6-13.3
			s-1.3-9.4-3.6-13.3c2.3-3.9,3.6-8.5,3.6-13.3s-1.3-9.4-3.6-13.3c2.3-3.9,3.6-8.5,3.6-13.3s-1.3-9.4-3.6-13.3
			c2.3-3.9,3.6-8.5,3.6-13.3s-1.3-9.4-3.6-13.3c2.3-3.9,3.6-8.5,3.6-13.3s-1.3-9.4-3.6-13.3c2.3-3.9,3.6-8.5,3.6-13.3
			c0-4.1-1-8.1-2.7-11.6c1.7-3.5,2.7-7.4,2.7-11.6c0-0.6-0.1-1.2-0.1-1.8c0-0.6,0.1-1.2,0.1-1.8c0-4.9-1.3-9.4-3.6-13.3
			c2.3-3.9,3.6-8.5,3.6-13.3s-1.3-9.4-3.6-13.3c2.3-3.9,3.6-8.5,3.6-13.3s-1.3-9.4-3.6-13.3c2.3-3.9,3.6-8.5,3.6-13.3
			s-1.3-9.4-3.6-13.3c2.3-3.9,3.6-8.5,3.6-13.3s-1.3-9.4-3.6-13.3c2.3-3.9,3.6-8.5,3.6-13.3s-1.3-9.4-3.6-13.3
			c2.3-3.9,3.6-8.5,3.6-13.3s-1.3-9.4-3.6-13.3c2.3-3.9,3.6-8.5,3.6-13.3s-1.3-9.4-3.6-13.3c2.3-3.9,3.6-8.5,3.6-13.3
			s-1.3-9.4-3.6-13.3c2.3-3.9,3.6-8.5,3.6-13.3c0-12.8-9-23.4-20.9-26.1c-4.8-6.8-12.8-11.3-21.8-11.3c-4.9,0-9.4,1.3-13.3,3.6
			c-3.9-2.3-8.5-3.6-13.3-3.6s-9.4,1.3-13.3,3.6c-3.9-2.3-8.5-3.6-13.3-3.6s-9.4,1.3-13.3,3.6c-3.9-2.3-8.5-3.6-13.3-3.6
			s-9.4,1.3-13.3,3.6c-3.9-2.3-8.5-3.6-13.3-3.6s-9.4,1.3-13.3,3.6c-3.9-2.3-8.5-3.6-13.3-3.6s-9.4,1.3-13.3,3.6
			c-3.9-2.3-8.5-3.6-13.4-3.6s-9.4,1.3-13.3,3.6c-3.9-2.3-8.5-3.6-13.3-3.6s-9.4,1.3-13.3,3.6c-3.9-2.3-8.5-3.6-13.4-3.6
			c-5.2,0-10,1.5-14.1,4.1c-3.3-1.5-6.9-2.3-10.8-2.3C1767.9,764.6,1755.9,776.6,1755.9,791.3z M1810.2,1021c-1.3-0.7-2.6-1.4-4-1.9
			c-0.2-0.3-0.3-0.5-0.5-0.8c2.3-3.9,3.6-8.5,3.6-13.3s-1.3-9.4-3.6-13.3c2.3-3.9,3.6-8.5,3.6-13.4s-1.3-9.4-3.6-13.3
			c2.3-3.9,3.6-8.5,3.6-13.3s-1.3-9.4-3.6-13.3c2.3-3.9,3.6-8.5,3.6-13.3s-1.3-9.4-3.6-13.3c2.3-3.9,3.6-8.5,3.6-13.3
			s-1.3-9.4-3.6-13.3c2.3-3.9,3.6-8.5,3.6-13.3s-1.3-9.4-3.6-13.3c2.3-3.9,3.6-8.5,3.6-13.3s-1.3-9.4-3.6-13.3
			c2.3-3.9,3.6-8.5,3.6-13.3c0-0.6-0.1-1.3-0.1-1.9c4.2-0.3,8.2-1.5,11.7-3.5c3.9,2.3,8.5,3.6,13.4,3.6s9.4-1.3,13.3-3.6
			c3.9,2.3,8.5,3.6,13.3,3.6s9.4-1.3,13.3-3.6c3.9,2.3,8.5,3.6,13.4,3.6s9.4-1.3,13.3-3.6c3.9,2.3,8.5,3.6,13.3,3.6
			s9.4-1.3,13.3-3.6c3.9,2.3,8.5,3.6,13.3,3.6s9.4-1.3,13.3-3.6c3.9,2.3,8.5,3.6,13.3,3.6s9.4-1.3,13.3-3.6
			c3.9,2.3,8.5,3.6,13.3,3.6s9.4-1.3,13.3-3.6c1.7,1,3.5,1.8,5.5,2.4c-1.8,3.6-2.8,7.6-2.8,11.9c0,4.9,1.3,9.4,3.6,13.3
			c-2.3,3.9-3.6,8.5-3.6,13.3s1.3,9.4,3.6,13.3c-2.3,3.9-3.6,8.5-3.6,13.3s1.3,9.4,3.6,13.3c-2.3,3.9-3.6,8.5-3.6,13.3
			s1.3,9.4,3.6,13.3c-2.3,3.9-3.6,8.5-3.6,13.3s1.3,9.4,3.6,13.3c-2.3,3.9-3.6,8.5-3.6,13.3s1.3,9.4,3.6,13.3
			c-2.3,3.9-3.6,8.5-3.6,13.3s1.3,9.4,3.6,13.3c-2.3,3.9-3.6,8.5-3.6,13.3c0,1.2,0.1,2.4,0.3,3.6c-0.1,0-0.2,0-0.3,0
			c-4.9,0-9.4,1.3-13.3,3.6c-3.9-2.3-8.5-3.6-13.3-3.6s-9.4,1.3-13.3,3.6c-3.9-2.3-8.5-3.6-13.3-3.6s-9.4,1.3-13.3,3.6
			c-3.9-2.3-8.5-3.6-13.3-3.6s-9.4,1.3-13.3,3.6c-3.9-2.3-8.5-3.6-13.3-3.6s-9.4,1.3-13.4,3.6c-3.9-2.3-8.5-3.6-13.3-3.6
			s-9.4,1.3-13.3,3.6c-3.9-2.3-8.5-3.6-13.3-3.6s-9.4,1.3-13.4,3.6c-3.9-2.3-8.5-3.6-13.3-3.6S1814.1,1018.7,1810.2,1021z"/>
		<path class="st0" d="M1579.7,307c4.9,0,9.4-1.3,13.3-3.6c3.9,2.3,8.5,3.6,13.3,3.6s9.4-1.3,13.3-3.6c3.9,2.3,8.5,3.6,13.4,3.6
			s9.4-1.3,13.3-3.6c3.9,2.3,8.5,3.6,13.3,3.6s9.4-1.3,13.3-3.6c3.9,2.3,8.5,3.6,13.4,3.6s9.4-1.3,13.3-3.6
			c3.9,2.3,8.5,3.6,13.3,3.6s9.4-1.3,13.3-3.6c3.9,2.3,8.5,3.6,13.4,3.6s9.4-1.3,13.3-3.6c1.7,1,3.5,1.8,5.5,2.4
			c-1.8,3.6-2.8,7.6-2.8,11.9c0,4.9,1.3,9.4,3.6,13.4c-2.3,3.9-3.6,8.5-3.6,13.4s1.3,9.4,3.6,13.4c-2.3,3.9-3.6,8.5-3.6,13.4
			s1.3,9.4,3.6,13.4c-2.3,3.9-3.6,8.5-3.6,13.4s1.3,9.4,3.6,13.4c-2.3,3.9-3.6,8.5-3.6,13.4s1.3,9.4,3.6,13.4
			c-2.3,3.9-3.6,8.5-3.6,13.4s1.3,9.4,3.6,13.4c-2.3,3.9-3.6,8.5-3.6,13.4s1.3,9.4,3.6,13.3c-2.3,3.9-3.6,8.5-3.6,13.3
			s1.3,9.4,3.6,13.3c-2.3,3.9-3.6,8.5-3.6,13.3c0,14.7,12,26.7,26.7,26.7c2.8,0,5.4-0.4,7.9-1.2c4.3,3,9.6,4.8,15.2,4.8
			c4.9,0,9.4-1.3,13.3-3.6c3.9,2.3,8.5,3.6,13.4,3.6s9.4-1.3,13.3-3.6c3.9,2.3,8.5,3.6,13.3,3.6s9.4-1.3,13.3-3.6
			c3.9,2.3,8.5,3.6,13.4,3.6s9.4-1.3,13.3-3.6c3.9,2.3,8.5,3.6,13.3,3.6s9.4-1.3,13.3-3.6c3.9,2.3,8.5,3.6,13.3,3.6
			s9.4-1.3,13.3-3.6c3.9,2.3,8.5,3.6,13.3,3.6s9.4-1.3,13.3-3.6c3.9,2.3,8.5,3.6,13.3,3.6s9.4-1.3,13.3-3.6
			c3.9,2.3,8.5,3.6,13.3,3.6s9.4-1.3,13.3-3.6c3.9,2.3,8.5,3.6,13.3,3.6c4.9,0,9.4-1.3,13.4-3.6c3.9,2.3,8.5,3.6,13.3,3.6
			c4.9,0,9.4-1.3,13.4-3.6c3.9,2.3,8.5,3.6,13.3,3.6c4.9,0,9.4-1.3,13.4-3.6c3.9,2.3,8.5,3.6,13.3,3.6c4.9,0,9.4-1.3,13.4-3.6
			c3.9,2.3,8.5,3.6,13.3,3.6c4.9,0,9.4-1.3,13.4-3.6c3.9,2.3,8.5,3.6,13.3,3.6c4.9,0,9.4-1.3,13.4-3.6c3.9,2.3,8.5,3.6,13.3,3.6
			c4.9,0,9.4-1.3,13.4-3.6c3.9,2.3,8.5,3.6,13.3,3.6c4.9,0,9.4-1.3,13.4-3.6c3.9,2.3,8.5,3.6,13.3,3.6c4.9,0,9.4-1.3,13.4-3.6
			c3.9,2.3,8.5,3.6,13.3,3.6c14.7,0,26.7-12,26.7-26.7s-12-26.7-26.7-26.7c-4.9,0-9.4,1.3-13.3,3.6c-3.9-2.3-8.5-3.6-13.4-3.6
			c-4.9,0-9.4,1.3-13.3,3.6c-3.9-2.3-8.5-3.6-13.4-3.6c-4.9,0-9.4,1.3-13.3,3.6c-3.9-2.3-8.5-3.6-13.4-3.6c-4.9,0-9.4,1.3-13.3,3.6
			c-3.9-2.3-8.5-3.6-13.4-3.6c-4.9,0-9.4,1.3-13.3,3.6c-3.9-2.3-8.5-3.6-13.4-3.6c-4.9,0-9.4,1.3-13.3,3.6
			c-3.9-2.3-8.5-3.6-13.4-3.6c-4.9,0-9.4,1.3-13.3,3.6c-3.9-2.3-8.5-3.6-13.4-3.6c-4.9,0-9.4,1.3-13.3,3.6
			c-3.9-2.3-8.5-3.6-13.4-3.6c-4.9,0-9.4,1.3-13.3,3.6c-3.9-2.3-8.5-3.6-13.4-3.6c-4.9,0-9.4,1.3-13.3,3.6
			c-3.9-2.3-8.5-3.6-13.3-3.6s-9.4,1.3-13.3,3.6c-3.9-2.3-8.5-3.6-13.3-3.6s-9.4,1.3-13.3,3.6c-3.9-2.3-8.5-3.6-13.3-3.6
			s-9.4,1.3-13.3,3.6c-3.9-2.3-8.5-3.6-13.3-3.6s-9.4,1.3-13.3,3.6c-3.9-2.3-8.5-3.6-13.3-3.6s-9.4,1.3-13.3,3.6
			c-3.9-2.3-8.5-3.6-13.3-3.6s-9.4,1.3-13.3,3.6c-3.9-2.3-8.5-3.6-13.4-3.6s-9.4,1.3-13.3,3.6c-3.9-2.3-8.5-3.6-13.3-3.6
			s-9.4,1.3-13.3,3.6c-3-1.8-6.4-2.9-10.1-3.4c0.2-1.2,0.3-2.5,0.3-3.8c0-4.9-1.3-9.4-3.6-13.3c2.3-3.9,3.6-8.5,3.6-13.3
			s-1.3-9.4-3.6-13.4c2.3-3.9,3.6-8.5,3.6-13.4s-1.3-9.4-3.6-13.4c2.3-3.9,3.6-8.5,3.6-13.4s-1.3-9.4-3.6-13.4
			c2.3-3.9,3.6-8.5,3.6-13.4s-1.3-9.4-3.6-13.4c2.3-3.9,3.6-8.5,3.6-13.4s-1.3-9.4-3.6-13.4c2.3-3.9,3.6-8.5,3.6-13.4
			s-1.3-9.4-3.6-13.4c2.3-3.9,3.6-8.5,3.6-13.4s-1.3-9.4-3.6-13.4c2.3-3.9,3.6-8.5,3.6-13.4c0-12.8-9-23.4-20.9-26.1
			c-4.8-6.8-12.8-11.3-21.8-11.3c-4.9,0-9.4,1.3-13.4,3.6c-3.9-2.3-8.5-3.6-13.3-3.6s-9.4,1.3-13.3,3.6c-3.9-2.3-8.5-3.6-13.3-3.6
			s-9.4,1.3-13.4,3.6c-3.9-2.3-8.5-3.6-13.3-3.6s-9.4,1.3-13.3,3.6c-3.9-2.3-8.5-3.6-13.3-3.6s-9.4,1.3-13.4,3.6
			c-3.9-2.3-8.5-3.6-13.3-3.6s-9.4,1.3-13.3,3.6c-3.9-2.3-8.5-3.6-13.3-3.6s-9.4,1.3-13.4,3.6c-3.9-2.3-8.5-3.6-13.3-3.6
			c-4.9,0-9.4,1.3-13.3,3.6c-3.9-2.3-8.5-3.6-13.3-3.6c-0.2,0-0.3,0-0.5,0c1.4-3.3,2.2-6.9,2.2-10.7c0-4.9-1.3-9.4-3.6-13.4
			c2.3-3.9,3.6-8.5,3.6-13.4c0-4.9-1.3-9.4-3.6-13.3c2.3-3.9,3.6-8.5,3.6-13.4s-1.3-9.4-3.6-13.4c2.3-3.9,3.6-8.5,3.6-13.4
			s-1.3-9.4-3.6-13.4c2.3-3.9,3.6-8.5,3.6-13.4s-1.3-9.4-3.6-13.3c2.3-3.9,3.6-8.5,3.6-13.4s-1.3-9.4-3.6-13.4
			c2.3-3.9,3.6-8.5,3.6-13.3s-1.3-9.4-3.6-13.3c2.3-3.9,3.6-8.5,3.6-13.3c0-1,0-1.9-0.1-2.8c3.9-0.4,7.6-1.6,10.8-3.5
			c3.9,2.3,8.5,3.6,13.3,3.6s9.4-1.3,13.4-3.6c3.9,2.3,8.5,3.6,13.3,3.6s9.4-1.3,13.3-3.6c3.9,2.3,8.5,3.6,13.3,3.6
			s9.4-1.3,13.4-3.6c3.9,2.3,8.5,3.6,13.3,3.6s9.4-1.3,13.3-3.6c3.9,2.3,8.5,3.6,13.3,3.6s9.4-1.3,13.4-3.6
			c3.9,2.3,8.5,3.6,13.3,3.6s9.4-1.3,13.3-3.6c3.9,2.3,8.5,3.6,13.3,3.6s9.4-1.3,13.4-3.6c3.9,2.3,8.5,3.6,13.3,3.6
			s9.4-1.3,13.3-3.6c3.9,2.3,8.5,3.6,13.3,3.6s9.4-1.3,13.4-3.6c3.9,2.3,8.5,3.6,13.3,3.6s9.4-1.3,13.3-3.6
			c3.9,2.3,8.5,3.6,13.3,3.6s9.4-1.3,13.4-3.6c3.9,2.3,8.5,3.6,13.3,3.6s9.4-1.3,13.3-3.6c3.9,2.3,8.5,3.6,13.3,3.6
			c4.9,0,9.4-1.3,13.4-3.6c3.9,2.3,8.5,3.6,13.3,3.6s9.4-1.3,13.3-3.6c3.9,2.3,8.5,3.6,13.3,3.6s9.4-1.3,13.3-3.6
			c3.9,2.3,8.5,3.6,13.3,3.6s9.4-1.3,13.3-3.6c3.9,2.3,8.5,3.6,13.3,3.6s9.4-1.3,13.3-3.6c3.9,2.3,8.5,3.6,13.3,3.6
			c14.7,0,26.7-12,26.7-26.7S2047.5,0,2032.7,0c-4.9,0-9.4,1.3-13.3,3.6c-3.9-2.3-8.5-3.6-13.3-3.6s-9.4,1.3-13.3,3.6
			c-3.9-2.3-8.5-3.6-13.3-3.6s-9.4,1.3-13.4,3.6c-3.9-2.3-8.5-3.6-13.3-3.6c-4.9,0-9.4,1.3-13.4,3.6c-3.9-2.3-8.5-3.6-13.3-3.6
			s-9.4,1.3-13.3,3.6c-3.9-2.3-8.5-3.6-13.4-3.6s-9.4,1.3-13.3,3.6c-3.9-2.3-8.5-3.6-13.3-3.6s-9.4,1.3-13.3,3.6
			c-3.9-2.3-8.5-3.6-13.4-3.6s-9.4,1.3-13.3,3.6c-3.9-2.3-8.5-3.6-13.3-3.6s-9.4,1.3-13.3,3.6c-3.9-2.3-8.5-3.6-13.4-3.6
			s-9.4,1.3-13.3,3.6c-3.9-2.3-8.5-3.6-13.3-3.6s-9.4,1.3-13.3,3.6c-3.9-2.3-8.5-3.6-13.4-3.6s-9.4,1.3-13.3,3.6
			c-3.9-2.3-8.5-3.6-13.3-3.6s-9.4,1.3-13.3,3.6c-3.9-2.3-8.5-3.6-13.4-3.6s-9.4,1.3-13.3,3.6c-3.9-2.3-8.5-3.6-13.3-3.6
			s-9.4,1.3-13.3,3.6c-3.9-2.3-8.5-3.6-13.4-3.6s-9.4,1.3-13.3,3.6c-3.9-2.3-8.5-3.6-13.3-3.6s-9.4,1.3-13.3,3.6
			c-3.9-2.3-8.5-3.6-13.4-3.6s-9.4,1.3-13.4,3.6c-3.9-2.3-8.5-3.6-13.3-3.6c-5.4,0-10.4,1.6-14.7,4.4c-2.9-1.1-6.1-1.7-9.4-1.7
			c-14.7,0-26.7,12-26.7,26.7c0,4.9,1.3,9.4,3.6,13.3c-2.3,3.9-3.6,8.5-3.6,13.3s1.3,9.4,3.6,13.3c-2.3,3.9-3.6,8.5-3.6,13.3
			s1.3,9.4,3.6,13.3c-2.3,3.9-3.6,8.5-3.6,13.4s1.3,9.4,3.6,13.4c-2.3,3.9-3.6,8.5-3.6,13.3s1.3,9.4,3.6,13.4
			c-2.3,3.9-3.6,8.5-3.6,13.4s1.3,9.4,3.6,13.4c-2.3,3.9-3.6,8.5-3.6,13.4s1.3,9.4,3.6,13.4c-2.3,3.9-3.6,8.5-3.6,13.4
			s1.3,9.4,3.6,13.4c-2.3,3.9-3.6,8.5-3.6,13.4s1.3,9.4,3.6,13.4c-2.3,3.9-3.6,8.5-3.6,13.4s1.3,9.4,3.6,13.4
			c-2.3,3.9-3.6,8.5-3.6,13.4s1.3,9.4,3.6,13.4c-2.3,3.9-3.6,8.5-3.6,13.4s1.3,9.4,3.6,13.4c-2.3,3.9-3.6,8.5-3.6,13.4
			s1.3,9.4,3.6,13.4c-2.3,3.9-3.6,8.5-3.6,13.4s1.3,9.4,3.6,13.4c-2.3,3.9-3.6,8.5-3.6,13.4s1.3,9.4,3.6,13.4
			c-2.3,3.9-3.6,8.5-3.6,13.4s1.3,9.4,3.6,13.4c-2.3,3.9-3.6,8.5-3.6,13.4s1.3,9.4,3.6,13.4c-2.3,3.9-3.6,8.5-3.6,13.4
			s1.3,9.4,3.6,13.3c-2,3.5-3.3,7.4-3.5,11.7c-0.6,0-1.3-0.1-1.9-0.1c-4.9,0-9.4,1.3-13.3,3.6c-3.9-2.3-8.5-3.6-13.3-3.6
			s-9.4,1.3-13.3,3.6c-3.9-2.3-8.5-3.6-13.4-3.6s-9.4,1.3-13.3,3.6c-3.9-2.3-8.5-3.6-13.3-3.6s-9.4,1.3-13.3,3.6
			c-3.9-2.3-8.5-3.6-13.3-3.6c-4.9,0-9.4,1.3-13.4,3.6c-3.9-2.3-8.5-3.6-13.3-3.6s-9.4,1.3-13.3,3.6c-3.9-2.3-8.5-3.6-13.3-3.6
			s-9.4,1.3-13.3,3.6c-3.9-2.3-8.5-3.6-13.4-3.6s-9.4,1.3-13.3,3.6c-0.3-0.2-0.5-0.3-0.8-0.5c-0.5-1.4-1.1-2.7-1.9-4
			c2.3-3.9,3.6-8.5,3.6-13.3s-1.3-9.4-3.6-13.3c2.3-3.9,3.6-8.5,3.6-13.4c0-4.9-1.3-9.4-3.6-13.4c2.3-3.9,3.6-8.5,3.6-13.4
			s-1.3-9.4-3.6-13.4c2.3-3.9,3.6-8.5,3.6-13.4s-1.3-9.4-3.6-13.4c2.3-3.9,3.6-8.5,3.6-13.4s-1.3-9.4-3.6-13.4
			c2.3-3.9,3.6-8.5,3.6-13.4s-1.3-9.4-3.6-13.4c2.3-3.9,3.6-8.5,3.6-13.4s-1.3-9.4-3.6-13.4c2.3-3.9,3.6-8.5,3.6-13.4
			s-1.3-9.4-3.6-13.4c2.3-3.9,3.6-8.5,3.6-13.4c0-14.7-12-26.7-26.7-26.7s-26.7,12-26.7,26.7c0,4.9,1.3,9.4,3.6,13.4
			c-2.3,3.9-3.6,8.5-3.6,13.4s1.3,9.4,3.6,13.4c-2.3,3.9-3.6,8.5-3.6,13.4s1.3,9.4,3.6,13.4c-2.3,3.9-3.6,8.5-3.6,13.4
			s1.3,9.4,3.6,13.4c-2.3,3.9-3.6,8.5-3.6,13.4s1.3,9.4,3.6,13.4c-2.3,3.9-3.6,8.5-3.6,13.4s1.3,9.4,3.6,13.4
			c-2.3,3.9-3.6,8.5-3.6,13.4s1.3,9.4,3.6,13.4c-2.3,3.9-3.6,8.5-3.6,13.4s1.3,9.4,3.6,13.4c-2.3,3.9-3.6,8.5-3.6,13.3
			s1.3,9.4,3.6,13.3c-2.3,3.9-3.6,8.5-3.6,13.3c0,10.2,5.8,19.1,14.2,23.6c3.8,10.2,13.5,17.4,25,17.4c4.9,0,9.4-1.3,13.3-3.6
			c3.9,2.3,8.5,3.6,13.3,3.6s9.4-1.3,13.4-3.6c3.9,2.3,8.5,3.6,13.3,3.6s9.4-1.3,13.3-3.6c3.9,2.3,8.5,3.6,13.3,3.6
			s9.4-1.3,13.3-3.6c3.9,2.3,8.5,3.6,13.4,3.6s9.4-1.3,13.3-3.6c3.9,2.3,8.5,3.6,13.3,3.6s9.4-1.3,13.3-3.6
			c3.9,2.3,8.5,3.6,13.3,3.6s9.4-1.3,13.4-3.6c3.9,2.3,8.5,3.6,13.3,3.6s9.4-1.3,13.3-3.6c3.9,2.3,8.5,3.6,13.3,3.6
			s9.4-1.3,13.3-3.6c3.9,2.3,8.5,3.6,13.4,3.6c14.7,0,26.7-12,26.7-26.7c0-3.8-0.8-7.5-2.3-10.8c2.6-4.1,4.1-8.9,4.1-14.1
			c0-4.9-1.3-9.4-3.6-13.3c2.3-3.9,3.6-8.5,3.6-13.3s-1.3-9.4-3.6-13.4c2.3-3.9,3.6-8.5,3.6-13.4s-1.3-9.4-3.6-13.4
			c2.3-3.9,3.6-8.5,3.6-13.4s-1.3-9.4-3.6-13.4c2.3-3.9,3.6-8.5,3.6-13.4s-1.3-9.4-3.6-13.4c2.3-3.9,3.6-8.5,3.6-13.4
			s-1.3-9.4-3.6-13.4c2.3-3.9,3.6-8.5,3.6-13.4s-1.3-9.4-3.6-13.4c2.3-3.9,3.6-8.5,3.6-13.4s-1.3-9.4-3.6-13.4
			c0.5-0.9,1-1.8,1.4-2.7c0.2,0,0.3,0,0.5,0c4.9,0,9.4-1.3,13.3-3.6C1570.2,305.8,1574.9,307,1579.7,307z"/>
		<path class="st0" d="M1756.8,1312.1c0,4.9,1.3,9.4,3.6,13.3c-2.3,3.9-3.6,8.5-3.6,13.3s1.3,9.4,3.6,13.3
			c-2.3,3.9-3.6,8.5-3.6,13.3s1.3,9.4,3.6,13.3c-2.3,3.9-3.6,8.5-3.6,13.3s1.3,9.4,3.6,13.3c-2.3,3.9-3.6,8.5-3.6,13.3
			s1.3,9.4,3.6,13.3c-2.3,3.9-3.6,8.5-3.6,13.3s1.3,9.4,3.6,13.3c-2.3,3.9-3.6,8.5-3.6,13.3s1.3,9.4,3.6,13.3
			c-2.3,3.9-3.6,8.5-3.6,13.3s1.3,9.4,3.6,13.3c-2.3,3.9-3.6,8.5-3.6,13.3s1.3,9.4,3.6,13.3c-2.3,3.9-3.6,8.5-3.6,13.3
			c0,14.7,12,26.7,26.7,26.7c2.2,0,4.3-0.3,6.4-0.8c4.4,3.3,9.9,5.3,15.9,5.3c4.9,0,9.4-1.3,13.3-3.6c3.9,2.3,8.5,3.6,13.3,3.6
			s9.4-1.3,13.3-3.6c3.9,2.3,8.5,3.6,13.4,3.6s9.4-1.3,13.3-3.6c3.9,2.3,8.5,3.6,13.3,3.6s9.4-1.3,13.3-3.6
			c3.9,2.3,8.5,3.6,13.4,3.6s9.4-1.3,13.3-3.6c3.9,2.3,8.5,3.6,13.3,3.6s9.4-1.3,13.3-3.6c3.9,2.3,8.5,3.6,13.3,3.6
			s9.4-1.3,13.3-3.6c3.9,2.3,8.5,3.6,13.3,3.6s9.4-1.3,13.3-3.6c3.9,2.3,8.5,3.6,13.3,3.6s9.4-1.3,13.3-3.6
			c3.9,2.3,8.5,3.6,13.3,3.6c4.9,0,9.4-1.3,13.3-3.6c3.9,2.3,8.5,3.6,13.4,3.6c4.9,0,9.4-1.3,13.3-3.6c3.9,2.3,8.5,3.6,13.4,3.6
			c4.9,0,9.4-1.3,13.3-3.6c3.9,2.3,8.5,3.6,13.4,3.6c4.9,0,9.4-1.3,13.3-3.6c3.9,2.3,8.5,3.6,13.4,3.6c4.9,0,9.4-1.3,13.3-3.6
			c3.9,2.3,8.5,3.6,13.4,3.6c4.9,0,9.4-1.3,13.3-3.6c3.9,2.3,8.5,3.6,13.4,3.6c4.9,0,9.4-1.3,13.3-3.6c3.9,2.3,8.5,3.6,13.4,3.6
			c4.9,0,9.4-1.3,13.3-3.6c3.9,2.3,8.5,3.6,13.4,3.6c4.9,0,9.4-1.3,13.3-3.6c3.9,2.3,8.5,3.6,13.4,3.6c14.7,0,26.7-12,26.7-26.7
			s-12-26.7-26.7-26.7c-4.9,0-9.4,1.3-13.4,3.6c-3.9-2.3-8.5-3.6-13.3-3.6c-4.9,0-9.4,1.3-13.4,3.6c-3.9-2.3-8.5-3.6-13.3-3.6
			c-4.9,0-9.4,1.3-13.4,3.6c-3.9-2.3-8.5-3.6-13.3-3.6c-4.9,0-9.4,1.3-13.4,3.6c-3.9-2.3-8.5-3.6-13.3-3.6c-4.9,0-9.4,1.3-13.4,3.6
			c-3.9-2.3-8.5-3.6-13.3-3.6c-4.9,0-9.4,1.3-13.4,3.6c-3.9-2.3-8.5-3.6-13.3-3.6c-4.9,0-9.4,1.3-13.4,3.6
			c-3.9-2.3-8.5-3.6-13.3-3.6c-4.9,0-9.4,1.3-13.4,3.6c-3.9-2.3-8.5-3.6-13.3-3.6c-4.9,0-9.4,1.3-13.4,3.6
			c-3.9-2.3-8.5-3.6-13.3-3.6c-4.9,0-9.4,1.3-13.3,3.6c-3.9-2.3-8.5-3.6-13.3-3.6s-9.4,1.3-13.3,3.6c-3.9-2.3-8.5-3.6-13.3-3.6
			s-9.4,1.3-13.3,3.6c-3.9-2.3-8.5-3.6-13.3-3.6s-9.4,1.3-13.3,3.6c-3.9-2.3-8.5-3.6-13.3-3.6s-9.4,1.3-13.3,3.6
			c-3.9-2.3-8.5-3.6-13.3-3.6s-9.4,1.3-13.4,3.6c-3.9-2.3-8.5-3.6-13.3-3.6s-9.4,1.3-13.3,3.6c-3.9-2.3-8.5-3.6-13.3-3.6
			s-9.4,1.3-13.4,3.6c-3.9-2.3-8.5-3.6-13.3-3.6s-9.4,1.3-13.3,3.6c-2.8-1.6-6-2.8-9.3-3.3c0.3-1.6,0.4-3.2,0.4-4.8
			c0-4.9-1.3-9.4-3.6-13.3c2.3-3.9,3.6-8.5,3.6-13.3s-1.3-9.4-3.6-13.3c2.3-3.9,3.6-8.5,3.6-13.3s-1.3-9.4-3.6-13.3
			c2.3-3.9,3.6-8.5,3.6-13.3s-1.3-9.4-3.6-13.3c2.3-3.9,3.6-8.5,3.6-13.3s-1.3-9.4-3.6-13.3c2.3-3.9,3.6-8.5,3.6-13.3
			s-1.3-9.4-3.6-13.3c2.3-3.9,3.6-8.5,3.6-13.3s-1.3-9.4-3.6-13.3c2.3-3.9,3.6-8.5,3.6-13.3s-1.3-9.4-3.6-13.3
			c2.3-3.9,3.6-8.5,3.6-13.3c0-14.7-12-26.7-26.7-26.7S1756.8,1297.3,1756.8,1312.1z"/>
	</g>
</g>
</svg>
