<?xml version="1.0" encoding="utf-8"?>
<!-- Generator: Adobe Illustrator 26.0.0, SVG Export Plug-In . SVG Version: 6.00 Build 0)  -->
<svg version="1.1" id="Layer_1" xmlns="http://www.w3.org/2000/svg" xmlns:xlink="http://www.w3.org/1999/xlink" x="0px" y="0px"
	 viewBox="0 0 480 1838.12" style="enable-background:new 0 0 480 1838.12;" xml:space="preserve">
<style type="text/css">
	.st0{fill:#7A58C3;}
</style>
<g>
	<path class="st0" d="M-391.05,804.61c-3.85,0-7.49,0.84-10.79,2.3c-4.09-2.56-8.94-4.08-14.14-4.08c-4.88,0-9.42,1.32-13.35,3.6
		c-3.93-2.28-8.47-3.6-13.35-3.6s-9.42,1.32-13.35,3.6c-3.93-2.28-8.47-3.6-13.35-3.6s-9.42,1.32-13.35,3.6
		c-3.93-2.28-8.47-3.6-13.35-3.6s-9.42,1.32-13.35,3.6c-3.93-2.28-8.47-3.6-13.35-3.6s-9.42,1.32-13.35,3.6
		c-3.93-2.28-8.47-3.6-13.35-3.6s-9.42,1.32-13.35,3.6c-3.93-2.28-8.47-3.6-13.35-3.6s-9.42,1.32-13.35,3.6
		c-3.93-2.28-8.47-3.6-13.35-3.6s-9.42,1.32-13.35,3.6c-3.93-2.28-8.47-3.6-13.35-3.6c-9.03,0-16.98,4.49-21.81,11.32
		c-11.96,2.65-20.92,13.3-20.92,26.06c0,4.88,1.32,9.42,3.6,13.35c-2.28,3.93-3.6,8.47-3.6,13.35s1.32,9.42,3.6,13.35
		c-2.28,3.93-3.6,8.47-3.6,13.35s1.32,9.42,3.6,13.35c-2.28,3.93-3.6,8.47-3.6,13.35s1.32,9.42,3.6,13.35
		c-2.28,3.93-3.6,8.47-3.6,13.35s1.32,9.42,3.6,13.35c-2.28,3.93-3.6,8.47-3.6,13.35s1.32,9.42,3.6,13.35
		c-2.28,3.93-3.6,8.47-3.6,13.35s1.32,9.42,3.6,13.35c-2.28,3.93-3.6,8.47-3.6,13.35s1.32,9.42,3.6,13.35
		c-2.28,3.93-3.6,8.47-3.6,13.35s1.32,9.42,3.6,13.35c-2.28,3.93-3.6,8.47-3.6,13.35c0,0.61,0.05,1.19,0.09,1.78
		c-0.04,0.59-0.09,1.17-0.09,1.78c0,4.15,0.98,8.06,2.67,11.57c-1.69,3.51-2.67,7.42-2.67,11.57c0,4.88,1.32,9.42,3.6,13.35
		c-2.28,3.93-3.6,8.47-3.6,13.35s1.32,9.42,3.6,13.35c-2.28,3.93-3.6,8.47-3.6,13.35s1.32,9.42,3.6,13.35
		c-2.28,3.93-3.6,8.47-3.6,13.35s1.32,9.42,3.6,13.35c-2.28,3.93-3.6,8.47-3.6,13.35s1.32,9.42,3.6,13.35
		c-2.28,3.93-3.6,8.47-3.6,13.35s1.32,9.42,3.6,13.35c-2.28,3.93-3.6,8.47-3.6,13.35s1.32,9.42,3.6,13.35
		c-2.28,3.93-3.6,8.47-3.6,13.35s1.32,9.42,3.6,13.35c-1.14,1.98-2.03,4.09-2.63,6.36c-3.04-1.21-6.37-1.9-9.86-1.9
		c-4.88,0-9.42,1.32-13.35,3.6c-3.93-2.28-8.47-3.6-13.35-3.6s-9.42,1.32-13.35,3.6c-3.93-2.28-8.47-3.6-13.35-3.6
		s-9.42,1.32-13.35,3.6c-3.93-2.28-8.47-3.6-13.35-3.6s-9.42,1.32-13.35,3.6c-3.93-2.28-8.47-3.6-13.35-3.6s-9.42,1.32-13.35,3.6
		c-3.93-2.28-8.47-3.6-13.35-3.6s-9.42,1.32-13.35,3.6c-3.93-2.28-8.47-3.6-13.35-3.6c-4.88,0-9.42,1.32-13.35,3.6
		c-3.93-2.28-8.47-3.6-13.35-3.6s-9.42,1.32-13.35,3.6c-3.93-2.28-8.47-3.6-13.35-3.6c-14.74,0-26.7,11.96-26.7,26.7
		s11.96,26.7,26.7,26.7c4.88,0,9.42-1.32,13.35-3.6c3.93,2.28,8.47,3.6,13.35,3.6s9.42-1.32,13.35-3.6c3.93,2.28,8.47,3.6,13.35,3.6
		c4.88,0,9.42-1.32,13.35-3.6c3.93,2.28,8.47,3.6,13.35,3.6s9.42-1.32,13.35-3.6c3.93,2.28,8.47,3.6,13.35,3.6s9.42-1.32,13.35-3.6
		c3.93,2.28,8.47,3.6,13.35,3.6s9.42-1.32,13.35-3.6c3.93,2.28,8.47,3.6,13.35,3.6s9.42-1.32,13.35-3.6
		c3.93,2.28,8.47,3.6,13.35,3.6s9.42-1.32,13.35-3.6c3.93,2.28,8.47,3.6,13.35,3.6s9.42-1.32,13.35-3.6
		c3.93,2.28,8.47,3.6,13.35,3.6c14.01,0,25.49-10.81,26.6-24.55c5.52-4.9,9.01-12.02,9.01-19.96c0-4.88-1.32-9.42-3.6-13.35
		c2.28-3.93,3.6-8.47,3.6-13.35s-1.32-9.42-3.6-13.35c2.28-3.93,3.6-8.47,3.6-13.35s-1.32-9.42-3.6-13.35
		c2.28-3.93,3.6-8.47,3.6-13.35s-1.32-9.42-3.6-13.35c2.28-3.93,3.6-8.47,3.6-13.35s-1.32-9.42-3.6-13.35
		c2.28-3.93,3.6-8.47,3.6-13.35s-1.32-9.42-3.6-13.35c2.28-3.93,3.6-8.47,3.6-13.35s-1.32-9.42-3.6-13.35
		c2.28-3.93,3.6-8.47,3.6-13.35s-1.32-9.42-3.6-13.35c1.71-2.96,2.87-6.27,3.35-9.81c0.09,0,0.18,0.02,0.27,0.02
		c4.88,0,9.42-1.32,13.35-3.6c3.93,2.28,8.47,3.6,13.35,3.6s9.42-1.32,13.35-3.6c3.93,2.28,8.47,3.6,13.35,3.6s9.42-1.32,13.35-3.6
		c3.93,2.28,8.47,3.6,13.35,3.6s9.42-1.32,13.35-3.6c3.93,2.28,8.47,3.6,13.35,3.6s9.42-1.32,13.35-3.6
		c3.93,2.28,8.47,3.6,13.35,3.6s9.42-1.32,13.35-3.6c3.93,2.28,8.47,3.6,13.35,3.6s9.42-1.32,13.35-3.6
		c3.93,2.28,8.47,3.6,13.35,3.6s9.42-1.32,13.35-3.6c3.93,2.28,8.47,3.6,13.35,3.6c10.22,0,19.08-5.75,23.57-14.17
		c10.13-3.79,17.38-13.53,17.38-24.99c0-4.88-1.32-9.42-3.6-13.35c2.28-3.93,3.6-8.47,3.6-13.35s-1.32-9.42-3.6-13.35
		c2.28-3.93,3.6-8.47,3.6-13.35s-1.32-9.42-3.6-13.35c2.28-3.93,3.6-8.47,3.6-13.35s-1.32-9.42-3.6-13.35
		c2.28-3.93,3.6-8.47,3.6-13.35s-1.32-9.42-3.6-13.35c2.28-3.93,3.6-8.47,3.6-13.35s-1.32-9.42-3.6-13.35
		c2.28-3.93,3.6-8.47,3.6-13.35s-1.32-9.42-3.6-13.35c2.28-3.93,3.6-8.47,3.6-13.35s-1.32-9.42-3.6-13.35
		c2.28-3.93,3.6-8.47,3.6-13.35s-1.32-9.42-3.6-13.35c2.28-3.93,3.6-8.47,3.6-13.35C-364.35,816.57-376.31,804.61-391.05,804.61z
		 M-432,1057.41c-4.88,0-9.42,1.32-13.35,3.6c-3.93-2.28-8.47-3.6-13.35-3.6s-9.42,1.32-13.35,3.6c-3.93-2.28-8.47-3.6-13.35-3.6
		s-9.42,1.32-13.35,3.6c-3.93-2.28-8.47-3.6-13.35-3.6c-4.88,0-9.42,1.32-13.35,3.6c-3.93-2.28-8.47-3.6-13.35-3.6
		s-9.42,1.32-13.35,3.6c-3.93-2.28-8.47-3.6-13.35-3.6s-9.42,1.32-13.35,3.6c-3.93-2.28-8.47-3.6-13.35-3.6s-9.42,1.32-13.35,3.6
		c-3.93-2.28-8.47-3.6-13.35-3.6c-0.09,0-0.18,0.02-0.27,0.02c0.16-1.17,0.27-2.37,0.27-3.58c0-4.88-1.32-9.42-3.6-13.35
		c2.28-3.93,3.6-8.47,3.6-13.35s-1.32-9.42-3.6-13.35c2.28-3.93,3.6-8.47,3.6-13.35s-1.32-9.42-3.6-13.35
		c2.28-3.93,3.6-8.47,3.6-13.35s-1.32-9.42-3.6-13.35c2.28-3.93,3.6-8.47,3.6-13.35s-1.32-9.42-3.6-13.35
		c2.28-3.93,3.6-8.47,3.6-13.35s-1.32-9.42-3.6-13.35c2.28-3.93,3.6-8.47,3.6-13.35s-1.32-9.42-3.6-13.35
		c2.28-3.93,3.6-8.47,3.6-13.35c0-4.27-1.03-8.28-2.81-11.86c1.94-0.59,3.76-1.42,5.48-2.42c3.93,2.28,8.47,3.6,13.35,3.6
		s9.42-1.32,13.35-3.6c3.93,2.28,8.47,3.6,13.35,3.6s9.42-1.32,13.35-3.6c3.93,2.28,8.47,3.6,13.35,3.6s9.42-1.32,13.35-3.6
		c3.93,2.28,8.47,3.6,13.35,3.6s9.42-1.32,13.35-3.6c3.93,2.28,8.47,3.6,13.35,3.6s9.42-1.32,13.35-3.6
		c3.93,2.28,8.47,3.6,13.35,3.6s9.42-1.32,13.35-3.6c3.93,2.28,8.47,3.6,13.35,3.6s9.42-1.32,13.35-3.6
		c3.47,2.01,7.42,3.26,11.66,3.52c-0.04,0.62-0.09,1.23-0.09,1.87c0,4.88,1.32,9.42,3.6,13.35c-2.28,3.93-3.6,8.47-3.6,13.35
		s1.32,9.42,3.6,13.35c-2.28,3.93-3.6,8.47-3.6,13.35s1.32,9.42,3.6,13.35c-2.28,3.93-3.6,8.47-3.6,13.35s1.32,9.42,3.6,13.35
		c-2.28,3.93-3.6,8.47-3.6,13.35s1.32,9.42,3.6,13.35c-2.28,3.93-3.6,8.47-3.6,13.35s1.32,9.42,3.6,13.35
		c-2.28,3.93-3.6,8.47-3.6,13.35s1.32,9.42,3.6,13.35c-2.28,3.93-3.6,8.47-3.6,13.35c0,4.88,1.32,9.42,3.6,13.35
		c-0.16,0.27-0.32,0.53-0.48,0.82c-1.41,0.52-2.74,1.16-4.02,1.89C-422.58,1058.73-427.12,1057.41-432,1057.41z"/>
	<path class="st0" d="M647.71,849.12c2.28-3.93,3.6-8.47,3.6-13.35c0-14.74-11.96-26.7-26.7-26.7s-26.7,11.96-26.7,26.7
		c0,4.88,1.32,9.42,3.6,13.35c-2.28,3.93-3.6,8.47-3.6,13.35s1.32,9.42,3.6,13.35c-2.28,3.93-3.6,8.47-3.6,13.35
		s1.32,9.42,3.6,13.35c-2.28,3.93-3.6,8.47-3.6,13.35s1.32,9.42,3.6,13.35c-2.28,3.93-3.6,8.47-3.6,13.35s1.32,9.42,3.6,13.35
		c-2.28,3.93-3.6,8.47-3.6,13.35s1.32,9.42,3.6,13.35c-2.28,3.93-3.6,8.47-3.6,13.35s1.32,9.42,3.6,13.35
		c-2.28,3.93-3.6,8.47-3.6,13.35s1.32,9.42,3.6,13.35c-2.28,3.93-3.6,8.47-3.6,13.35c0,4.68,1.21,9.06,3.31,12.89
		c-1.8,0.59-3.49,1.35-5.09,2.28c-3.93-2.28-8.47-3.6-13.35-3.6s-9.42,1.32-13.35,3.6c-3.93-2.28-8.47-3.6-13.35-3.6
		s-9.42,1.32-13.35,3.6c-3.93-2.28-8.47-3.6-13.35-3.6s-9.42,1.32-13.35,3.6c-3.93-2.28-8.47-3.6-13.35-3.6s-9.42,1.32-13.35,3.6
		c-3.93-2.28-8.47-3.6-13.35-3.6s-9.42,1.32-13.35,3.6c-3.93-2.28-8.47-3.6-13.35-3.6s-9.42,1.32-13.35,3.6
		c-3.93-2.28-8.47-3.6-13.35-3.6s-9.42,1.32-13.35,3.6c-3.93-2.28-8.47-3.6-13.35-3.6s-9.42,1.32-13.35,3.6
		c-3.93-2.28-8.47-3.6-13.35-3.6s-9.42,1.32-13.35,3.6c-3.93-2.28-8.47-3.6-13.35-3.6s-9.42,1.32-13.35,3.6
		c-3.93-2.28-8.47-3.6-13.35-3.6s-9.42,1.32-13.35,3.6c-3.93-2.28-8.47-3.6-13.35-3.6s-9.42,1.32-13.35,3.6
		c-3.93-2.28-8.47-3.6-13.35-3.6s-9.42,1.32-13.35,3.6c-3.93-2.28-8.47-3.6-13.35-3.6s-9.42,1.32-13.35,3.6
		c-3.93-2.28-8.47-3.6-13.35-3.6s-9.42,1.32-13.35,3.6c-3.93-2.28-8.47-3.6-13.35-3.6s-9.42,1.32-13.35,3.6
		c-3.93-2.28-8.47-3.6-13.35-3.6s-9.42,1.32-13.35,3.6c-3.93-2.28-8.47-3.6-13.35-3.6c-14.74,0-26.7,11.96-26.7,26.7
		c0,0.46,0.05,0.93,0.07,1.39c-4.45,4.77-7.19,11.14-7.19,18.19c0,4.88,1.32,9.42,3.6,13.35c-2.28,3.93-3.6,8.47-3.6,13.35
		s1.32,9.42,3.6,13.35c-2.28,3.93-3.6,8.47-3.6,13.35s1.32,9.42,3.6,13.35c-2.28,3.93-3.6,8.47-3.6,13.35s1.32,9.42,3.6,13.35
		c-2.28,3.93-3.6,8.47-3.6,13.35s1.32,9.42,3.6,13.35c-2.28,3.93-3.6,8.47-3.6,13.35s1.32,9.42,3.6,13.35
		c-2.28,3.93-3.6,8.47-3.6,13.35s1.32,9.42,3.6,13.35c-2.28,3.93-3.6,8.47-3.6,13.35s1.32,9.42,3.6,13.35
		c-1.23,2.12-2.17,4.43-2.78,6.87c-2.78-0.98-5.73-1.53-8.83-1.53c-4.88,0-9.42,1.32-13.35,3.6c-3.93-2.28-8.47-3.6-13.35-3.6
		s-9.42,1.32-13.35,3.6c-3.93-2.28-8.47-3.6-13.35-3.6s-9.42,1.32-13.35,3.6c-3.93-2.28-8.47-3.6-13.35-3.6s-9.42,1.32-13.35,3.6
		c-3.93-2.28-8.47-3.6-13.35-3.6s-9.42,1.32-13.35,3.6c-3.93-2.28-8.47-3.6-13.35-3.6s-9.42,1.32-13.35,3.6
		c-3.93-2.28-8.47-3.6-13.35-3.6s-9.42,1.32-13.35,3.6c-3.93-2.28-8.47-3.6-13.35-3.6c-3.88,0-7.55,0.84-10.88,2.33
		c-0.61-2.08-1.46-4.06-2.53-5.89c2.28-3.93,3.6-8.47,3.6-13.35s-1.32-9.42-3.6-13.35c2.28-3.93,3.6-8.47,3.6-13.35
		s-1.32-9.42-3.6-13.35c2.28-3.93,3.6-8.47,3.6-13.35s-1.32-9.42-3.6-13.35c2.28-3.93,3.6-8.47,3.6-13.35s-1.32-9.42-3.6-13.35
		c2.28-3.93,3.6-8.47,3.6-13.35s-1.32-9.42-3.6-13.35c2.28-3.93,3.6-8.47,3.6-13.35s-1.32-9.42-3.6-13.35
		c2.28-3.93,3.6-8.47,3.6-13.35s-1.32-9.42-3.6-13.35c2.28-3.93,3.6-8.47,3.6-13.35s-1.32-9.42-3.6-13.35
		c2.28-3.93,3.6-8.47,3.6-13.35s-1.32-9.42-3.6-13.35c2.28-3.93,3.6-8.47,3.6-13.35s-1.32-9.42-3.6-13.35
		c2.28-3.93,3.6-8.47,3.6-13.35s-1.32-9.42-3.6-13.35c2.28-3.93,3.6-8.47,3.6-13.35s-1.32-9.42-3.6-13.35
		c2.28-3.93,3.6-8.47,3.6-13.35s-1.32-9.42-3.6-13.35c2.28-3.93,3.6-8.47,3.6-13.35s-1.32-9.42-3.6-13.35
		c2.28-3.93,3.6-8.47,3.6-13.35s-1.32-9.42-3.6-13.35c2.28-3.93,3.6-8.47,3.6-13.35s-1.32-9.42-3.6-13.35
		c2.28-3.93,3.6-8.47,3.6-13.35s-1.32-9.42-3.6-13.35c0.16-0.27,0.32-0.53,0.48-0.82c1.41-0.52,2.74-1.16,4.02-1.89
		c3.93,2.28,8.47,3.6,13.35,3.6s9.42-1.32,13.35-3.6c3.93,2.28,8.47,3.6,13.35,3.6s9.42-1.32,13.35-3.6
		c3.93,2.28,8.47,3.6,13.35,3.6s9.42-1.32,13.35-3.6c3.93,2.28,8.47,3.6,13.35,3.6s9.42-1.32,13.35-3.6
		c3.93,2.28,8.47,3.6,13.35,3.6s9.42-1.32,13.35-3.6c3.93,2.28,8.47,3.6,13.35,3.6s9.42-1.32,13.35-3.6
		c3.93,2.28,8.47,3.6,13.35,3.6s9.42-1.32,13.35-3.6c3.93,2.28,8.47,3.6,13.35,3.6s9.42-1.32,13.35-3.6
		c3.93,2.28,8.47,3.6,13.35,3.6c14.74,0,26.7-11.96,26.7-26.7s-11.96-26.7-26.7-26.7c-4.88,0-9.42,1.32-13.35,3.6
		c-3.93-2.28-8.47-3.6-13.35-3.6s-9.42,1.32-13.35,3.6c-3.93-2.28-8.47-3.6-13.35-3.6s-9.42,1.32-13.35,3.6
		c-3.93-2.28-8.47-3.6-13.35-3.6s-9.42,1.32-13.35,3.6c-3.93-2.28-8.47-3.6-13.35-3.6s-9.42,1.32-13.35,3.6
		c-3.93-2.28-8.47-3.6-13.35-3.6s-9.42,1.32-13.35,3.6c-3.93-2.28-8.47-3.6-13.35-3.6s-9.42,1.32-13.35,3.6
		c-3.93-2.28-8.47-3.6-13.35-3.6s-9.42,1.32-13.35,3.6c-3.93-2.28-8.47-3.6-13.35-3.6s-9.42,1.32-13.35,3.6
		c-3.93-2.28-8.47-3.6-13.35-3.6c-10.22,0-19.08,5.75-23.57,14.17c-10.13,3.79-17.38,13.53-17.38,25c0,4.88,1.32,9.42,3.6,13.35
		c-2.28,3.93-3.6,8.47-3.6,13.35s1.32,9.42,3.6,13.35c-2.28,3.93-3.6,8.47-3.6,13.35s1.32,9.42,3.6,13.35
		c-2.28,3.93-3.6,8.47-3.6,13.35s1.32,9.42,3.6,13.35c-2.28,3.93-3.6,8.47-3.6,13.35s1.32,9.42,3.6,13.35
		c-2.28,3.93-3.6,8.47-3.6,13.35s1.32,9.42,3.6,13.35c-2.28,3.93-3.6,8.47-3.6,13.35s1.32,9.42,3.6,13.35
		c-2.28,3.93-3.6,8.47-3.6,13.35s1.32,9.42,3.6,13.35c-2.28,3.93-3.6,8.47-3.6,13.35s1.32,9.42,3.6,13.35
		c-2.28,3.93-3.6,8.47-3.6,13.35s1.32,9.42,3.6,13.35c-2.28,3.93-3.6,8.47-3.6,13.35s1.32,9.42,3.6,13.35
		c-2.28,3.93-3.6,8.47-3.6,13.35s1.32,9.42,3.6,13.35c-2.28,3.93-3.6,8.47-3.6,13.35s1.32,9.42,3.6,13.35
		c-2.28,3.93-3.6,8.47-3.6,13.35s1.32,9.42,3.6,13.35c-2.28,3.93-3.6,8.47-3.6,13.35s1.32,9.42,3.6,13.35
		c-2.28,3.93-3.6,8.47-3.6,13.35s1.32,9.42,3.6,13.35c-2.28,3.93-3.6,8.47-3.6,13.35s1.32,9.42,3.6,13.35
		c-2.28,3.93-3.6,8.47-3.6,13.35s1.32,9.42,3.6,13.35c-2.28,3.93-3.6,8.47-3.6,13.35c0,8.47,3.97,16.02,10.13,20.9
		c1.94,12.85,12.98,22.72,26.37,22.72c4.88,0,9.42-1.32,13.35-3.6c3.93,2.28,8.47,3.6,13.35,3.6s9.42-1.32,13.35-3.6
		c3.93,2.28,8.47,3.6,13.35,3.6s9.42-1.32,13.35-3.6c3.93,2.28,8.47,3.6,13.35,3.6s9.42-1.32,13.35-3.6
		c3.93,2.28,8.47,3.6,13.35,3.6s9.42-1.32,13.35-3.6c3.93,2.28,8.47,3.6,13.35,3.6s9.42-1.32,13.35-3.6
		c3.93,2.28,8.47,3.6,13.35,3.6s9.42-1.32,13.35-3.6c3.93,2.28,8.47,3.6,13.35,3.6s9.42-1.32,13.35-3.6
		c3.93,2.28,8.47,3.6,13.35,3.6s9.42-1.32,13.35-3.6c3.93,2.28,8.47,3.6,13.35,3.6c14.62,0,26.47-11.75,26.69-26.33
		c4.95-4.84,8.03-11.59,8.03-19.07c0-4.88-1.32-9.42-3.6-13.35c2.28-3.93,3.6-8.47,3.6-13.35s-1.32-9.42-3.6-13.35
		c2.28-3.93,3.6-8.47,3.6-13.35s-1.32-9.42-3.6-13.35c2.28-3.93,3.6-8.47,3.6-13.35s-1.32-9.42-3.6-13.35
		c2.28-3.93,3.6-8.47,3.6-13.35s-1.32-9.42-3.6-13.35c2.28-3.93,3.6-8.47,3.6-13.35s-1.32-9.42-3.6-13.35
		c2.28-3.93,3.6-8.47,3.6-13.35s-1.32-9.42-3.6-13.35c2.28-3.93,3.6-8.47,3.6-13.35s-1.32-9.42-3.6-13.35
		c1.32-2.28,2.31-4.75,2.92-7.41c2.47,0.75,5.09,1.18,7.82,1.18c4.88,0,9.42-1.32,13.35-3.6c3.93,2.28,8.47,3.6,13.35,3.6
		s9.42-1.32,13.35-3.6c3.93,2.28,8.47,3.6,13.35,3.6s9.42-1.32,13.35-3.6c3.93,2.28,8.47,3.6,13.35,3.6s9.42-1.32,13.35-3.6
		c3.93,2.28,8.47,3.6,13.35,3.6s9.42-1.32,13.35-3.6c3.93,2.28,8.47,3.6,13.35,3.6s9.42-1.32,13.35-3.6
		c3.93,2.28,8.47,3.6,13.35,3.6s9.42-1.32,13.35-3.6c3.93,2.28,8.47,3.6,13.35,3.6s9.42-1.32,13.35-3.6
		c3.93,2.28,8.47,3.6,13.35,3.6s9.42-1.32,13.35-3.6c3.93,2.28,8.47,3.6,13.35,3.6s9.42-1.32,13.35-3.6
		c3.93,2.28,8.47,3.6,13.35,3.6s9.42-1.32,13.35-3.6c3.93,2.28,8.47,3.6,13.35,3.6s9.42-1.32,13.35-3.6
		c3.93,2.28,8.47,3.6,13.35,3.6s9.42-1.32,13.35-3.6c3.93,2.28,8.47,3.6,13.35,3.6s9.42-1.32,13.35-3.6
		c3.93,2.28,8.47,3.6,13.35,3.6s9.42-1.32,13.35-3.6c3.93,2.28,8.47,3.6,13.35,3.6s9.42-1.32,13.35-3.6
		c3.93,2.28,8.47,3.6,13.35,3.6s9.42-1.32,13.35-3.6c3.93,2.28,8.47,3.6,13.35,3.6c9.6,0,17.98-5.07,22.7-12.68
		c11.06-3.26,19.14-13.48,19.14-25.6c0-4.88-1.32-9.42-3.6-13.35c2.28-3.93,3.6-8.47,3.6-13.35s-1.32-9.42-3.6-13.35
		c2.28-3.93,3.6-8.47,3.6-13.35s-1.32-9.42-3.6-13.35c2.28-3.93,3.6-8.47,3.6-13.35s-1.32-9.42-3.6-13.35
		c2.28-3.93,3.6-8.47,3.6-13.35s-1.32-9.42-3.6-13.35c2.28-3.93,3.6-8.47,3.6-13.35s-1.32-9.42-3.6-13.35
		c2.28-3.93,3.6-8.47,3.6-13.35s-1.32-9.42-3.6-13.35c2.28-3.93,3.6-8.47,3.6-13.35s-1.32-9.42-3.6-13.35
		c2.28-3.93,3.6-8.47,3.6-13.35S649.98,853.05,647.71,849.12z"/>
	<path class="st0" d="M610.36,1314.66c-4.88,0-9.42,1.32-13.35,3.6c-3.93-2.28-8.47-3.6-13.35-3.6s-9.42,1.32-13.35,3.6
		c-3.93-2.28-8.47-3.6-13.35-3.6s-9.42,1.32-13.35,3.6c-3.93-2.28-8.47-3.6-13.35-3.6s-9.42,1.32-13.35,3.6
		c-3.93-2.28-8.47-3.6-13.35-3.6s-9.42,1.32-13.35,3.6c-3.93-2.28-8.47-3.6-13.35-3.6s-9.42,1.32-13.35,3.6
		c-3.93-2.28-8.47-3.6-13.35-3.6s-9.42,1.32-13.35,3.6c-3.93-2.28-8.47-3.6-13.35-3.6s-9.42,1.32-13.35,3.6
		c-3.93-2.28-8.47-3.6-13.35-3.6c-5.41,0-10.45,1.62-14.65,4.4c-2.92-1.1-6.07-1.73-9.38-1.73c-14.74,0-26.7,11.96-26.7,26.7
		c0,4.88,1.32,9.42,3.6,13.35c-2.28,3.93-3.6,8.47-3.6,13.35s1.32,9.42,3.6,13.35c-2.28,3.93-3.6,8.47-3.6,13.35
		s1.32,9.42,3.6,13.35c-2.28,3.93-3.6,8.47-3.6,13.35s1.32,9.42,3.6,13.35c-2.28,3.93-3.6,8.47-3.6,13.35s1.32,9.42,3.6,13.35
		c-2.28,3.93-3.6,8.47-3.6,13.35s1.32,9.42,3.6,13.35c-2.28,3.93-3.6,8.47-3.6,13.35s1.32,9.42,3.6,13.35
		c-2.28,3.93-3.6,8.47-3.6,13.35s1.32,9.42,3.6,13.35c-2.28,3.93-3.6,8.47-3.6,13.35s1.32,9.42,3.6,13.35
		c-2.28,3.93-3.6,8.47-3.6,13.35s1.32,9.42,3.6,13.35c-2.28,3.93-3.6,8.47-3.6,13.35s1.32,9.42,3.6,13.35
		c-2.28,3.93-3.6,8.47-3.6,13.35s1.32,9.42,3.6,13.35c-2.28,3.93-3.6,8.47-3.6,13.35s1.32,9.42,3.6,13.35
		c-2.28,3.93-3.6,8.47-3.6,13.35s1.32,9.42,3.6,13.35c-2.28,3.93-3.6,8.47-3.6,13.35s1.32,9.42,3.6,13.35
		c-2.28,3.93-3.6,8.47-3.6,13.35s1.32,9.42,3.6,13.35c-2.28,3.93-3.6,8.47-3.6,13.35s1.32,9.42,3.6,13.35
		c-2.28,3.93-3.6,8.47-3.6,13.35s1.32,9.42,3.6,13.35c-2.28,3.93-3.6,8.47-3.6,13.35s1.32,9.42,3.6,13.35
		c-2.28,3.93-3.6,8.47-3.6,13.35c0,14.74,11.96,26.7,26.7,26.7s26.7-11.96,26.7-26.7c0-4.88-1.32-9.42-3.6-13.35
		c2.28-3.93,3.6-8.47,3.6-13.35s-1.32-9.42-3.6-13.35c2.28-3.93,3.6-8.47,3.6-13.35s-1.32-9.42-3.6-13.35
		c2.28-3.93,3.6-8.47,3.6-13.35s-1.32-9.42-3.6-13.35c2.28-3.93,3.6-8.47,3.6-13.35s-1.32-9.42-3.6-13.35
		c2.28-3.93,3.6-8.47,3.6-13.35s-1.32-9.42-3.6-13.35c2.28-3.93,3.6-8.47,3.6-13.35s-1.32-9.42-3.6-13.35
		c2.28-3.93,3.6-8.47,3.6-13.35s-1.32-9.42-3.6-13.35c2.28-3.93,3.6-8.47,3.6-13.35s-1.32-9.42-3.6-13.35
		c2.28-3.93,3.6-8.47,3.6-13.35s-1.32-9.42-3.6-13.35c2.28-3.93,3.6-8.47,3.6-13.35s-1.32-9.42-3.6-13.35
		c2.28-3.93,3.6-8.47,3.6-13.35s-1.32-9.42-3.6-13.35c2.28-3.93,3.6-8.47,3.6-13.35s-1.32-9.42-3.6-13.35
		c2.28-3.93,3.6-8.47,3.6-13.35s-1.32-9.42-3.6-13.35c2.28-3.93,3.6-8.47,3.6-13.35s-1.32-9.42-3.6-13.35
		c2.28-3.93,3.6-8.47,3.6-13.35s-1.32-9.42-3.6-13.35c2.28-3.93,3.6-8.47,3.6-13.35s-1.32-9.42-3.6-13.35
		c2.28-3.93,3.6-8.47,3.6-13.35s-1.32-9.42-3.6-13.35c2.28-3.93,3.6-8.47,3.6-13.35c0-0.94-0.05-1.87-0.14-2.8
		c3.92-0.37,7.58-1.6,10.82-3.47c3.93,2.28,8.47,3.6,13.35,3.6s9.42-1.32,13.35-3.6c3.93,2.28,8.47,3.6,13.35,3.6
		s9.42-1.32,13.35-3.6c3.93,2.28,8.47,3.6,13.35,3.6s9.42-1.32,13.35-3.6c3.93,2.28,8.47,3.6,13.35,3.6s9.42-1.32,13.35-3.6
		c3.93,2.28,8.47,3.6,13.35,3.6s9.42-1.32,13.35-3.6c3.93,2.28,8.47,3.6,13.35,3.6s9.42-1.32,13.35-3.6
		c3.93,2.28,8.47,3.6,13.35,3.6s9.42-1.32,13.35-3.6c3.93,2.28,8.47,3.6,13.35,3.6c14.74,0,26.7-11.96,26.7-26.7
		S625.1,1314.66,610.36,1314.66z"/>
	<path class="st0" d="M-174.75,343.48c3.93,2.28,8.47,3.6,13.35,3.6c0.14,0,0.3-0.02,0.45-0.02c0.41,0.93,0.87,1.82,1.37,2.69
		c-2.28,3.93-3.6,8.47-3.6,13.35s1.32,9.42,3.6,13.35c-2.28,3.93-3.6,8.47-3.6,13.35s1.32,9.42,3.6,13.35
		c-2.28,3.93-3.6,8.47-3.6,13.35s1.32,9.42,3.6,13.35c-2.28,3.93-3.6,8.47-3.6,13.35s1.32,9.42,3.6,13.35
		c-2.28,3.93-3.6,8.47-3.6,13.35s1.32,9.42,3.6,13.35c-2.28,3.93-3.6,8.47-3.6,13.35s1.32,9.42,3.6,13.35
		c-2.28,3.93-3.6,8.47-3.6,13.35s1.32,9.42,3.6,13.35c-2.28,3.93-3.6,8.47-3.6,13.35c0,5.2,1.51,10.02,4.08,14.14
		c-1.46,3.31-2.3,6.94-2.3,10.79c0,14.74,11.96,26.7,26.7,26.7c4.88,0,9.42-1.32,13.35-3.6c3.93,2.28,8.47,3.6,13.35,3.6
		s9.42-1.32,13.35-3.6c3.93,2.28,8.47,3.6,13.35,3.6s9.42-1.32,13.35-3.6c3.93,2.28,8.47,3.6,13.35,3.6s9.42-1.32,13.35-3.6
		c3.93,2.28,8.47,3.6,13.35,3.6s9.42-1.32,13.35-3.6c3.93,2.28,8.47,3.6,13.35,3.6s9.42-1.32,13.35-3.6
		c3.93,2.28,8.47,3.6,13.35,3.6s9.42-1.32,13.35-3.6c3.93,2.28,8.47,3.6,13.35,3.6s9.42-1.32,13.35-3.6
		c3.93,2.28,8.47,3.6,13.35,3.6s9.42-1.32,13.35-3.6c3.93,2.28,8.47,3.6,13.35,3.6c11.46,0,21.2-7.23,24.99-17.38
		c8.42-4.49,14.17-13.35,14.17-23.57c0-4.88-1.32-9.42-3.6-13.35c2.28-3.93,3.6-8.47,3.6-13.35s-1.32-9.42-3.6-13.35
		c2.28-3.93,3.6-8.47,3.6-13.35s-1.32-9.42-3.6-13.35c2.28-3.93,3.6-8.47,3.6-13.35s-1.32-9.42-3.6-13.35
		c2.28-3.93,3.6-8.47,3.6-13.35s-1.32-9.42-3.6-13.35c2.28-3.93,3.6-8.47,3.6-13.35s-1.32-9.42-3.6-13.35
		c2.28-3.93,3.6-8.47,3.6-13.35s-1.32-9.42-3.6-13.35c2.28-3.93,3.6-8.47,3.6-13.35s-1.32-9.42-3.6-13.35
		c2.28-3.93,3.6-8.47,3.6-13.35s-1.32-9.42-3.6-13.35c2.28-3.93,3.6-8.47,3.6-13.35c0-14.74-11.96-26.7-26.7-26.7
		s-26.7,11.96-26.7,26.7c0,4.88,1.32,9.42,3.6,13.35c-2.28,3.93-3.6,8.47-3.6,13.35s1.32,9.42,3.6,13.35
		c-2.28,3.93-3.6,8.47-3.6,13.35s1.32,9.42,3.6,13.35c-2.28,3.93-3.6,8.47-3.6,13.35s1.32,9.42,3.6,13.35
		c-2.28,3.93-3.6,8.47-3.6,13.35s1.32,9.42,3.6,13.35c-2.28,3.93-3.6,8.47-3.6,13.35s1.32,9.42,3.6,13.35
		c-2.28,3.93-3.6,8.47-3.6,13.35s1.32,9.42,3.6,13.35c-2.28,3.93-3.6,8.47-3.6,13.35s1.32,9.42,3.6,13.35
		c-2.28,3.93-3.6,8.47-3.6,13.35s1.32,9.42,3.6,13.35c-0.75,1.28-1.37,2.62-1.89,4.02c-0.28,0.14-0.55,0.32-0.82,0.48
		c-3.93-2.28-8.47-3.6-13.35-3.6s-9.42,1.32-13.35,3.6c-3.93-2.28-8.47-3.6-13.35-3.6s-9.42,1.32-13.35,3.6
		c-3.93-2.28-8.47-3.6-13.35-3.6s-9.42,1.32-13.35,3.6c-3.93-2.28-8.47-3.6-13.35-3.6s-9.42,1.32-13.35,3.6
		c-3.93-2.28-8.47-3.6-13.35-3.6s-9.42,1.32-13.35,3.6c-3.93-2.28-8.47-3.6-13.35-3.6s-9.42,1.32-13.35,3.6
		c-3.93-2.28-8.47-3.6-13.35-3.6s-9.42,1.32-13.35,3.6c-3.93-2.28-8.47-3.6-13.35-3.6c-0.62,0-1.25,0.05-1.87,0.09
		c-0.27-4.24-1.51-8.19-3.52-11.66c2.28-3.93,3.6-8.47,3.6-13.35s-1.32-9.42-3.6-13.35c2.28-3.93,3.6-8.47,3.6-13.35
		s-1.32-9.42-3.6-13.35c2.28-3.93,3.6-8.47,3.6-13.35s-1.32-9.42-3.6-13.35c2.28-3.93,3.6-8.47,3.6-13.35s-1.32-9.42-3.6-13.35
		c2.28-3.93,3.6-8.47,3.6-13.35s-1.32-9.42-3.6-13.35c2.28-3.93,3.6-8.47,3.6-13.35s-1.32-9.42-3.6-13.35
		c2.28-3.93,3.6-8.47,3.6-13.35s-1.32-9.42-3.6-13.35c2.28-3.93,3.6-8.47,3.6-13.35s-1.32-9.42-3.6-13.35
		c2.28-3.93,3.6-8.47,3.6-13.35s-1.32-9.42-3.6-13.35c2.28-3.93,3.6-8.47,3.6-13.35s-1.32-9.42-3.6-13.35
		c2.28-3.93,3.6-8.47,3.6-13.35s-1.32-9.42-3.6-13.35c2.28-3.93,3.6-8.47,3.6-13.35s-1.32-9.42-3.6-13.35
		c2.28-3.93,3.6-8.47,3.6-13.35s-1.32-9.42-3.6-13.35c2.28-3.93,3.6-8.47,3.6-13.35s-1.32-9.42-3.6-13.35
		c2.28-3.93,3.6-8.47,3.6-13.35s-1.32-9.42-3.6-13.35c2.28-3.93,3.6-8.47,3.6-13.35s-1.32-9.42-3.6-13.35
		c2.28-3.93,3.6-8.47,3.6-13.35s-1.32-9.42-3.6-13.35c2.28-3.93,3.6-8.47,3.6-13.35c0-14.74-11.96-26.7-26.7-26.7
		c-3.31,0-6.46,0.62-9.38,1.73c-4.2-2.78-9.24-4.4-14.65-4.4c-4.88,0-9.42,1.32-13.35,3.6c-3.94-2.32-8.48-3.64-13.36-3.64
		s-9.42,1.32-13.35,3.6c-3.93-2.28-8.47-3.6-13.35-3.6c-4.88,0-9.42,1.32-13.35,3.6c-3.93-2.28-8.47-3.6-13.35-3.6
		s-9.42,1.32-13.35,3.6c-3.93-2.28-8.47-3.6-13.35-3.6s-9.42,1.32-13.35,3.6c-3.93-2.28-8.47-3.6-13.35-3.6s-9.42,1.32-13.35,3.6
		c-3.93-2.28-8.47-3.6-13.35-3.6s-9.42,1.32-13.35,3.6c-3.93-2.28-8.47-3.6-13.35-3.6s-9.42,1.32-13.35,3.6
		c-3.93-2.28-8.47-3.6-13.35-3.6s-9.42,1.32-13.35,3.6c-3.93-2.28-8.47-3.6-13.35-3.6s-9.42,1.32-13.35,3.6
		c-3.93-2.28-8.47-3.6-13.35-3.6s-9.42,1.32-13.35,3.6c-3.93-2.28-8.47-3.6-13.35-3.6s-9.42,1.32-13.35,3.6
		c-3.93-2.28-8.47-3.6-13.35-3.6s-9.42,1.32-13.35,3.6c-3.93-2.28-8.47-3.6-13.35-3.6s-9.42,1.32-13.35,3.6
		c-3.93-2.28-8.47-3.6-13.35-3.6s-9.42,1.32-13.35,3.6c-3.99-2.28-8.53-3.6-13.4-3.6s-9.42,1.32-13.35,3.6
		c-3.94-2.28-8.48-3.6-13.36-3.6s-9.42,1.32-13.35,3.6c-3.93-2.28-8.47-3.6-13.35-3.6s-9.42,1.32-13.35,3.6
		c-3.93-2.28-8.47-3.6-13.35-3.6c-14.74,0-26.7,11.96-26.7,26.7s11.96,26.7,26.7,26.7c4.88,0,9.42-1.32,13.35-3.6
		c3.93,2.28,8.47,3.6,13.35,3.6s9.42-1.32,13.35-3.6c3.93,2.28,8.47,3.6,13.35,3.6s9.42-1.32,13.35-3.6
		c3.93,2.28,8.47,3.6,13.35,3.6s9.42-1.32,13.35-3.6c3.93,2.28,8.47,3.6,13.35,3.6s9.42-1.32,13.35-3.6
		c3.93,2.28,8.47,3.6,13.35,3.6c4.88,0,9.42-1.32,13.35-3.6c3.93,2.28,8.47,3.6,13.35,3.6s9.42-1.32,13.35-3.6
		c3.93,2.28,8.47,3.6,13.35,3.6s9.42-1.32,13.35-3.6c3.93,2.28,8.47,3.6,13.35,3.6s9.42-1.32,13.35-3.6
		c3.93,2.28,8.47,3.6,13.35,3.6s9.42-1.32,13.35-3.6c3.93,2.28,8.47,3.6,13.35,3.6s9.42-1.32,13.35-3.6
		c3.93,2.28,8.47,3.6,13.35,3.6s9.42-1.32,13.35-3.6c3.93,2.28,8.47,3.6,13.35,3.6s9.42-1.32,13.35-3.6
		c3.93,2.28,8.47,3.6,13.35,3.6s9.42-1.32,13.35-3.6c3.93,2.28,8.47,3.6,13.35,3.6s9.42-1.32,13.35-3.6
		c3.93,2.28,8.47,3.6,13.35,3.6s9.42-1.32,13.35-3.6c3.93,2.28,8.47,3.6,13.35,3.6s9.42-1.32,13.35-3.6
		c3.93,2.28,8.47,3.6,13.35,3.6s9.42-1.32,13.35-3.6c3.24,1.89,6.91,3.1,10.82,3.47c-0.09,0.93-0.14,1.85-0.14,2.8
		c0,4.88,1.32,9.42,3.6,13.35c-2.28,3.93-3.6,8.47-3.6,13.35s1.32,9.42,3.6,13.35c-2.28,3.93-3.6,8.47-3.6,13.35
		s1.32,9.42,3.6,13.35c-2.28,3.93-3.6,8.47-3.6,13.35s1.32,9.42,3.6,13.35c-2.28,3.93-3.6,8.47-3.6,13.35s1.32,9.42,3.6,13.35
		c-2.28,3.93-3.6,8.47-3.6,13.35s1.32,9.42,3.6,13.35c-2.28,3.93-3.6,8.47-3.6,13.35c0,4.88,1.32,9.42,3.6,13.35
		c-2.28,3.93-3.6,8.47-3.6,13.35c0,3.81,0.82,7.42,2.24,10.7c-0.16,0-0.3-0.02-0.46-0.02c-4.88,0-9.42,1.32-13.35,3.6
		c-3.93-2.28-8.47-3.6-13.35-3.6s-9.42,1.32-13.35,3.6c-3.93-2.28-8.47-3.6-13.35-3.6s-9.42,1.32-13.35,3.6
		c-3.93-2.28-8.47-3.6-13.35-3.6s-9.42,1.32-13.35,3.6c-3.93-2.28-8.47-3.6-13.35-3.6s-9.42,1.32-13.35,3.6
		c-3.93-2.28-8.47-3.6-13.35-3.6s-9.42,1.32-13.35,3.6c-3.93-2.28-8.47-3.6-13.35-3.6s-9.42,1.32-13.35,3.6
		c-3.93-2.28-8.47-3.6-13.35-3.6s-9.42,1.32-13.35,3.6c-3.93-2.28-8.47-3.6-13.35-3.6c-9.03,0-16.98,4.49-21.81,11.32
		c-11.96,2.65-20.92,13.3-20.92,26.06c0,4.88,1.32,9.42,3.6,13.35c-2.28,3.93-3.6,8.47-3.6,13.35s1.32,9.42,3.6,13.35
		c-2.28,3.93-3.6,8.47-3.6,13.35s1.32,9.42,3.6,13.35c-2.28,3.93-3.6,8.47-3.6,13.35s1.32,9.42,3.6,13.35
		c-2.28,3.93-3.6,8.47-3.6,13.35s1.32,9.42,3.6,13.35c-2.28,3.93-3.6,8.47-3.6,13.35s1.32,9.42,3.6,13.35
		c-2.28,3.93-3.6,8.47-3.6,13.35s1.32,9.42,3.6,13.35c-2.28,3.93-3.6,8.47-3.6,13.35s1.32,9.42,3.6,13.35
		c-2.28,3.93-3.6,8.47-3.6,13.35c0,1.28,0.12,2.55,0.3,3.77c-3.65,0.45-7.05,1.62-10.09,3.38c-3.93-2.28-8.47-3.6-13.35-3.6
		s-9.42,1.32-13.35,3.6c-3.93-2.28-8.47-3.6-13.35-3.6s-9.42,1.32-13.35,3.6c-3.93-2.28-8.47-3.6-13.35-3.6s-9.42,1.32-13.35,3.6
		c-3.93-2.28-8.47-3.6-13.35-3.6s-9.42,1.32-13.35,3.6c-3.93-2.28-8.47-3.6-13.35-3.6s-9.42,1.32-13.35,3.6
		c-3.93-2.28-8.47-3.6-13.35-3.6s-9.42,1.32-13.35,3.6c-3.93-2.28-8.47-3.6-13.35-3.6s-9.42,1.32-13.35,3.6
		c-3.93-2.28-8.47-3.6-13.35-3.6s-9.42,1.32-13.35,3.6c-3.93-2.28-8.47-3.6-13.35-3.6s-9.42,1.32-13.35,3.6
		c-3.93-2.28-8.47-3.6-13.35-3.6s-9.42,1.32-13.35,3.6c-3.93-2.28-8.47-3.6-13.35-3.6s-9.42,1.32-13.35,3.6
		c-3.93-2.28-8.47-3.6-13.35-3.6s-9.42,1.32-13.35,3.6c-3.93-2.28-8.47-3.6-13.35-3.6s-9.42,1.32-13.35,3.6
		c-3.93-2.28-8.47-3.6-13.35-3.6s-9.42,1.32-13.35,3.6c-3.93-2.28-8.47-3.6-13.35-3.6s-9.42,1.32-13.35,3.6
		c-3.93-2.28-8.47-3.6-13.35-3.6s-9.42,1.32-13.35,3.6c-3.93-2.28-8.47-3.6-13.35-3.6s-9.42,1.32-13.35,3.6
		c-3.93-2.28-8.47-3.6-13.35-3.6c-14.74,0-26.7,11.96-26.7,26.7s11.96,26.7,26.7,26.7c4.88,0,9.42-1.32,13.35-3.6
		c3.93,2.28,8.47,3.6,13.35,3.6s9.42-1.32,13.35-3.6c3.93,2.28,8.47,3.6,13.35,3.6s9.42-1.32,13.35-3.6
		c3.93,2.28,8.47,3.6,13.35,3.6s9.42-1.32,13.35-3.6c3.93,2.28,8.47,3.6,13.35,3.6s9.42-1.32,13.35-3.6
		c3.93,2.28,8.47,3.6,13.35,3.6s9.42-1.32,13.35-3.6c3.93,2.28,8.47,3.6,13.35,3.6s9.42-1.32,13.35-3.6
		c3.93,2.28,8.47,3.6,13.35,3.6s9.42-1.32,13.35-3.6c3.93,2.28,8.47,3.6,13.35,3.6s9.42-1.32,13.35-3.6
		c3.93,2.28,8.47,3.6,13.35,3.6s9.42-1.32,13.35-3.6c3.93,2.28,8.47,3.6,13.35,3.6s9.42-1.32,13.35-3.6
		c3.93,2.28,8.47,3.6,13.35,3.6s9.42-1.32,13.35-3.6c3.93,2.28,8.47,3.6,13.35,3.6s9.42-1.32,13.35-3.6
		c3.93,2.28,8.47,3.6,13.35,3.6s9.42-1.32,13.35-3.6c3.93,2.28,8.47,3.6,13.35,3.6s9.42-1.32,13.35-3.6
		c3.93,2.28,8.47,3.6,13.35,3.6s9.42-1.32,13.35-3.6c3.93,2.28,8.47,3.6,13.35,3.6s9.42-1.32,13.35-3.6
		c3.93,2.28,8.47,3.6,13.35,3.6s9.42-1.32,13.35-3.6c3.93,2.28,8.47,3.6,13.35,3.6c5.64,0,10.88-1.76,15.2-4.75
		c2.51,0.78,5.18,1.19,7.94,1.19c14.74,0,26.7-11.96,26.7-26.7c0-4.88-1.32-9.42-3.6-13.35c2.28-3.93,3.6-8.47,3.6-13.35
		s-1.32-9.42-3.6-13.35c2.28-3.93,3.6-8.47,3.6-13.35s-1.32-9.42-3.6-13.35c2.28-3.93,3.6-8.47,3.6-13.35s-1.32-9.42-3.6-13.35
		c2.28-3.93,3.6-8.47,3.6-13.35s-1.32-9.42-3.6-13.35c2.28-3.93,3.6-8.47,3.6-13.35s-1.32-9.42-3.6-13.35
		c2.28-3.93,3.6-8.47,3.6-13.35s-1.32-9.42-3.6-13.35c2.28-3.93,3.6-8.47,3.6-13.35s-1.32-9.42-3.6-13.35
		c2.28-3.93,3.6-8.47,3.6-13.35c0-4.27-1.03-8.28-2.81-11.86c1.94-0.59,3.76-1.42,5.48-2.42c3.93,2.28,8.47,3.6,13.35,3.6
		s9.42-1.32,13.35-3.6c3.93,2.28,8.47,3.6,13.35,3.6s9.42-1.32,13.35-3.6c3.93,2.28,8.47,3.6,13.35,3.6s9.42-1.32,13.35-3.6
		c3.93,2.28,8.47,3.6,13.35,3.6s9.42-1.32,13.35-3.6c3.93,2.28,8.47,3.6,13.35,3.6s9.42-1.32,13.35-3.6
		c3.93,2.28,8.47,3.6,13.35,3.6s9.42-1.32,13.35-3.6c3.93,2.28,8.47,3.6,13.35,3.6S-178.68,345.76-174.75,343.48z"/>
	<path class="st0" d="M-391.94,1325.34c-14.74,0-26.7,11.96-26.7,26.7c0,4.88,1.32,9.42,3.6,13.35c-2.28,3.93-3.6,8.47-3.6,13.35
		s1.32,9.42,3.6,13.35c-2.28,3.93-3.6,8.47-3.6,13.35s1.32,9.42,3.6,13.35c-2.28,3.93-3.6,8.47-3.6,13.35s1.32,9.42,3.6,13.35
		c-2.28,3.93-3.6,8.47-3.6,13.35s1.32,9.42,3.6,13.35c-2.28,3.93-3.6,8.47-3.6,13.35s1.32,9.42,3.6,13.35
		c-2.28,3.93-3.6,8.47-3.6,13.35s1.32,9.42,3.6,13.35c-2.28,3.93-3.6,8.47-3.6,13.35s1.32,9.42,3.6,13.35
		c-2.28,3.93-3.6,8.47-3.6,13.35c0,1.64,0.18,3.22,0.45,4.79c-3.36,0.5-6.52,1.64-9.35,3.28c-3.93-2.28-8.47-3.6-13.35-3.6
		s-9.42,1.32-13.35,3.6c-3.93-2.28-8.47-3.6-13.35-3.6s-9.42,1.32-13.35,3.6c-3.93-2.28-8.47-3.6-13.35-3.6s-9.42,1.32-13.35,3.6
		c-3.93-2.28-8.47-3.6-13.35-3.6s-9.42,1.32-13.35,3.6c-3.93-2.28-8.47-3.6-13.35-3.6s-9.42,1.32-13.35,3.6
		c-3.93-2.28-8.47-3.6-13.35-3.6s-9.42,1.32-13.35,3.6c-3.93-2.28-8.47-3.6-13.35-3.6s-9.42,1.32-13.35,3.6
		c-3.93-2.28-8.47-3.6-13.35-3.6s-9.42,1.32-13.35,3.6c-3.93-2.28-8.47-3.6-13.35-3.6s-9.42,1.32-13.35,3.6
		c-3.93-2.28-8.47-3.6-13.35-3.6s-9.42,1.32-13.35,3.6c-3.93-2.28-8.47-3.6-13.35-3.6s-9.42,1.32-13.35,3.6
		c-3.93-2.28-8.47-3.6-13.35-3.6s-9.42,1.32-13.35,3.6c-3.93-2.28-8.47-3.6-13.35-3.6s-9.42,1.32-13.35,3.6
		c-3.93-2.28-8.47-3.6-13.35-3.6s-9.42,1.32-13.35,3.6c-3.93-2.28-8.47-3.6-13.35-3.6s-9.42,1.32-13.35,3.6
		c-3.93-2.28-8.47-3.6-13.35-3.6c-4.88,0-9.42,1.32-13.35,3.6c-3.93-2.28-8.47-3.6-13.35-3.6s-9.42,1.32-13.35,3.6
		c-3.93-2.28-8.47-3.6-13.35-3.6c-14.74,0-26.7,11.96-26.7,26.7s11.96,26.7,26.7,26.7c4.88,0,9.42-1.32,13.35-3.6
		c3.93,2.28,8.47,3.6,13.35,3.6s9.42-1.32,13.35-3.6c3.93,2.28,8.47,3.6,13.35,3.6c4.88,0,9.42-1.32,13.35-3.6
		c3.93,2.28,8.47,3.6,13.35,3.6s9.42-1.32,13.35-3.6c3.93,2.28,8.47,3.6,13.35,3.6s9.42-1.32,13.35-3.6
		c3.93,2.28,8.47,3.6,13.35,3.6s9.42-1.32,13.35-3.6c3.93,2.28,8.47,3.6,13.35,3.6s9.42-1.32,13.35-3.6
		c3.93,2.28,8.47,3.6,13.35,3.6s9.42-1.32,13.35-3.6c3.93,2.28,8.47,3.6,13.35,3.6s9.42-1.32,13.35-3.6
		c3.93,2.28,8.47,3.6,13.35,3.6s9.42-1.32,13.35-3.6c3.93,2.28,8.47,3.6,13.35,3.6s9.42-1.32,13.35-3.6
		c3.93,2.28,8.47,3.6,13.35,3.6s9.42-1.32,13.35-3.6c3.93,2.28,8.47,3.6,13.35,3.6s9.42-1.32,13.35-3.6
		c3.93,2.28,8.47,3.6,13.35,3.6s9.42-1.32,13.35-3.6c3.93,2.28,8.47,3.6,13.35,3.6s9.42-1.32,13.35-3.6
		c3.93,2.28,8.47,3.6,13.35,3.6s9.42-1.32,13.35-3.6c3.93,2.28,8.47,3.6,13.35,3.6s9.42-1.32,13.35-3.6
		c3.93,2.28,8.47,3.6,13.35,3.6s9.42-1.32,13.35-3.6c3.93,2.28,8.47,3.6,13.35,3.6c5.95,0,11.41-1.98,15.86-5.25
		c2.05,0.5,4.18,0.8,6.39,0.8c14.74,0,26.7-11.96,26.7-26.7c0-4.88-1.32-9.42-3.6-13.35c2.28-3.93,3.6-8.47,3.6-13.35
		s-1.32-9.42-3.6-13.35c2.28-3.93,3.6-8.47,3.6-13.35s-1.32-9.42-3.6-13.35c2.28-3.93,3.6-8.47,3.6-13.35s-1.32-9.42-3.6-13.35
		c2.28-3.93,3.6-8.47,3.6-13.35s-1.32-9.42-3.6-13.35c2.28-3.93,3.6-8.47,3.6-13.35s-1.32-9.42-3.6-13.35
		c2.28-3.93,3.6-8.47,3.6-13.35s-1.32-9.42-3.6-13.35c2.28-3.93,3.6-8.47,3.6-13.35s-1.32-9.42-3.6-13.35
		c2.28-3.93,3.6-8.47,3.6-13.35s-1.32-9.42-3.6-13.35c2.28-3.93,3.6-8.47,3.6-13.35C-365.24,1337.31-377.2,1325.34-391.94,1325.34z"
		/>
	<path class="st0" d="M127.44,1584.3c-4.49-8.42-13.35-14.17-23.57-14.17c-4.88,0-9.42,1.32-13.35,3.6
		c-3.93-2.28-8.47-3.6-13.35-3.6s-9.42,1.32-13.35,3.6c-3.93-2.28-8.47-3.6-13.35-3.6s-9.42,1.32-13.35,3.6
		c-3.93-2.28-8.47-3.6-13.35-3.6s-9.42,1.32-13.35,3.6c-3.93-2.28-8.47-3.6-13.35-3.6s-9.42,1.32-13.35,3.6
		c-3.93-2.28-8.47-3.6-13.35-3.6s-9.42,1.32-13.35,3.6c-3.93-2.28-8.47-3.6-13.35-3.6s-9.42,1.32-13.35,3.6
		c-3.93-2.28-8.47-3.6-13.35-3.6s-9.42,1.32-13.35,3.6c-3.93-2.28-8.47-3.6-13.35-3.6s-9.42,1.32-13.35,3.6
		c-3.93-2.28-8.47-3.6-13.35-3.6c-14.74,0-26.7,11.96-26.7,26.7s11.96,26.7,26.7,26.7c4.88,0,9.42-1.32,13.35-3.6
		c3.93,2.28,8.47,3.6,13.35,3.6s9.42-1.32,13.35-3.6c3.93,2.28,8.47,3.6,13.35,3.6s9.42-1.32,13.35-3.6
		c3.93,2.28,8.47,3.6,13.35,3.6s9.42-1.32,13.35-3.6c3.93,2.28,8.47,3.6,13.35,3.6s9.42-1.32,13.35-3.6
		c3.93,2.28,8.47,3.6,13.35,3.6s9.42-1.32,13.35-3.6c3.93,2.28,8.47,3.6,13.35,3.6s9.42-1.32,13.35-3.6
		c3.93,2.28,8.47,3.6,13.35,3.6s9.42-1.32,13.35-3.6c3.93,2.28,8.47,3.6,13.35,3.6s9.42-1.32,13.35-3.6
		c1.28,0.75,2.62,1.37,4.02,1.89c0.14,0.28,0.32,0.55,0.48,0.82c-2.28,3.93-3.6,8.47-3.6,13.35s1.32,9.42,3.6,13.35
		c-2.28,3.93-3.6,8.47-3.6,13.35s1.32,9.42,3.6,13.35c-2.28,3.93-3.6,8.47-3.6,13.35s1.32,9.42,3.6,13.35
		c-2.28,3.93-3.6,8.47-3.6,13.35s1.32,9.42,3.6,13.35c-2.28,3.93-3.6,8.47-3.6,13.35s1.32,9.42,3.6,13.35
		c-2.28,3.93-3.6,8.47-3.6,13.35s1.32,9.42,3.6,13.35c-2.28,3.93-3.6,8.47-3.6,13.35s1.32,9.42,3.6,13.35
		c-2.28,3.93-3.6,8.47-3.6,13.35s1.32,9.42,3.6,13.35c-2.28,3.93-3.6,8.47-3.6,13.35c0,14.74,11.96,26.7,26.7,26.7
		s26.7-11.96,26.7-26.7c0-4.88-1.32-9.42-3.6-13.35c2.28-3.93,3.6-8.47,3.6-13.35s-1.32-9.42-3.6-13.35
		c2.28-3.93,3.6-8.47,3.6-13.35s-1.32-9.42-3.6-13.35c2.28-3.93,3.6-8.47,3.6-13.35s-1.32-9.42-3.6-13.35
		c2.28-3.93,3.6-8.47,3.6-13.35s-1.32-9.42-3.6-13.35c2.28-3.93,3.6-8.47,3.6-13.35s-1.32-9.42-3.6-13.35
		c2.28-3.93,3.6-8.47,3.6-13.35s-1.32-9.42-3.6-13.35c2.28-3.93,3.6-8.47,3.6-13.35s-1.32-9.42-3.6-13.35
		c2.28-3.93,3.6-8.47,3.6-13.35s-1.32-9.42-3.6-13.35c2.28-3.93,3.6-8.47,3.6-13.35C144.81,1597.83,137.59,1588.09,127.44,1584.3z"
		/>
</g>
</svg>
