<?xml version="1.0" encoding="utf-8"?>
<!-- Generator: Adobe Illustrator 23.1.0, SVG Export Plug-In . SVG Version: 6.00 Build 0)  -->
<svg version="1.1" id="Layer_1" xmlns="http://www.w3.org/2000/svg" xmlns:xlink="http://www.w3.org/1999/xlink" x="0px" y="0px"
	 viewBox="0 0 2291.8 1821.7" style="enable-background:new 0 0 2291.8 1821.7;" xml:space="preserve">
<style type="text/css">
	.st0{fill:#7A58C3;}
	.st1{fill:#CF8EEA;}
	.st2{fill:#F1A7CA;}
	.st3{fill:#DB458D;}
	.st4{fill:#FFDD66;}
	.st5{fill:#B52695;}
	.st6{fill:#851C5F;}
	.st7{fill:#C677EB;}
	.st8{fill:#BF86E0;}
	.st9{fill:#FFCC3E;}
	.st10{fill:#FFFFFF;}
	.st11{fill:#A78FDC;}
	.st12{fill:#9677DB;}
	.st13{fill:#E8C4F4;}
	.st14{fill:#F09EC5;}
	.st15{fill:#DF5F9C;}
	.st16{fill:none;stroke:#7A58C3;stroke-width:3;stroke-linecap:round;stroke-linejoin:round;}
	.st17{fill:#BFB0DF;}
	.st18{fill:#A93DA5;}
	.st19{fill:#8F76C5;}
	.st20{fill:none;stroke:#7A58C3;stroke-miterlimit:10;}
	.st21{clip-path:url(#SVGID_2_);}
	.st22{clip-path:url(#SVGID_4_);fill:#7A58C3;}
	.st23{clip-path:url(#SVGID_6_);}
	.st24{clip-path:url(#SVGID_8_);fill:#7A58C3;}
</style>
<path class="st0" d="M2059.7,813.5c2.3-3.9,3.6-8.5,3.6-13.3c0-12.8-9-23.4-20.9-26.1c-4.8-6.8-12.8-11.3-21.8-11.3
	c-4.9,0-9.4,1.3-13.3,3.6c-3.9-2.3-8.5-3.6-13.3-3.6s-9.4,1.3-13.3,3.6c-3.9-2.3-8.5-3.6-13.3-3.6s-9.4,1.3-13.3,3.6
	c-3.9-2.3-8.5-3.6-13.3-3.6s-9.4,1.3-13.3,3.6c-3.9-2.3-8.5-3.6-13.3-3.6s-9.4,1.3-13.3,3.6c-3.9-2.3-8.5-3.6-13.3-3.6
	s-9.4,1.3-13.3,3.6c-3.9-2.3-8.5-3.6-13.4-3.6s-9.4,1.3-13.3,3.6c-3.9-2.3-8.5-3.6-13.3-3.6s-9.4,1.3-13.3,3.6
	c-3.9-2.3-8.5-3.6-13.4-3.6c-5.2,0-10,1.5-14.1,4.1c-3.3-1.5-6.9-2.3-10.8-2.3c-14.8,0-26.8,12-26.8,26.7c0,4.9,1.3,9.4,3.6,13.3
	c-2.3,3.9-3.6,8.5-3.6,13.3s1.3,9.4,3.6,13.3c-2.3,3.9-3.6,8.5-3.6,13.3s1.3,9.4,3.6,13.3c-2.3,3.9-3.6,8.5-3.6,13.3
	s1.3,9.4,3.6,13.3c-2.3,3.9-3.6,8.5-3.6,13.3s1.3,9.4,3.6,13.3c-2.3,3.9-3.6,8.5-3.6,13.3s1.3,9.4,3.6,13.3
	c-2.3,3.9-3.6,8.5-3.6,13.3s1.3,9.4,3.6,13.3c-2.3,3.9-3.6,8.5-3.6,13.3s1.3,9.4,3.6,13.3c-2.3,3.9-3.6,8.5-3.6,13.3
	s1.3,9.4,3.6,13.3c-2.3,3.9-3.6,8.5-3.6,13.3c0,11.5,7.3,21.2,17.4,25c4.5,8.4,13.3,14.2,23.6,14.2c4.9,0,9.4-1.3,13.3-3.6
	c3.9,2.3,8.5,3.6,13.4,3.6s9.4-1.3,13.3-3.6c3.9,2.3,8.5,3.6,13.3,3.6s9.4-1.3,13.3-3.6c3.9,2.3,8.5,3.6,13.4,3.6s9.4-1.3,13.3-3.6
	c3.9,2.3,8.5,3.6,13.3,3.6s9.4-1.3,13.3-3.6c3.9,2.3,8.5,3.6,13.3,3.6s9.4-1.3,13.3-3.6c3.9,2.3,8.5,3.6,13.3,3.6s9.4-1.3,13.3-3.6
	c3.9,2.3,8.5,3.6,13.3,3.6c0.1,0,0.2,0,0.3,0c0.1,0,0.2,0,0.4,0c4.7,0,9.1-1.3,13-3.4l0,0l0,0c0,0,0.1,0,0.1-0.1
	c3.9,2.2,8.3,3.5,13.1,3.5c4.8,0,9.3-1.3,13.1-3.5c3.9,2.2,8.3,3.5,13.1,3.5c14.5,0,26.2-11.7,26.2-26.2c0-5.9-1.9-11.3-5.2-15.6
	c3.2-4.4,5.2-9.8,5.2-15.6c0-4.5-1.2-8.8-3.2-12.5h0.4c0-0.1-0.1-0.1-0.1-0.2c2.3-3.9,3.6-8.5,3.6-13.3s-1.3-9.4-3.6-13.3
	c2.3-3.9,3.6-8.5,3.6-13.3s-1.3-9.4-3.6-13.3c2.3-3.9,3.6-8.5,3.6-13.3s-1.3-9.4-3.6-13.3c2.3-3.9,3.6-8.5,3.6-13.3
	s-1.3-9.4-3.6-13.3c2.3-3.9,3.6-8.5,3.6-13.3s-1.3-9.4-3.6-13.3c2.3-3.9,3.6-8.5,3.6-13.3s-1.3-9.4-3.6-13.3
	c2.3-3.9,3.6-8.5,3.6-13.3S2062,817.4,2059.7,813.5z M2013.6,867.5c-2.3,3.9-3.6,8.5-3.6,13.3s1.3,9.4,3.6,13.3
	c-2.3,3.9-3.6,8.5-3.6,13.3s1.3,9.4,3.6,13.3c-2.3,3.9-3.6,8.5-3.6,13.3s1.3,9.4,3.6,13.3c-2.3,3.9-3.6,8.5-3.6,13.3
	s1.3,9.4,3.6,13.3c-2.3,3.9-3.6,8.5-3.6,13.3c0,4.6,1.2,8.9,3.3,12.7h0.1c-2,3.7-3.2,8-3.2,12.5c0,1.7,0.2,3.4,0.5,5
	c-0.2,0-0.3,0-0.5,0c-4.8,0-9.3,1.3-13.1,3.5c0,0-0.1,0-0.1-0.1l0,0l0,0c-3.4-1.9-7.3-3.1-11.4-3.4c-0.7-0.1-1.4-0.1-2.1-0.1
	c-4.8,0-9.4,1.3-13.3,3.6c-3.9-2.3-8.5-3.6-13.3-3.6s-9.4,1.3-13.3,3.6c-3.9-2.3-8.5-3.6-13.3-3.6s-9.4,1.3-13.3,3.6
	c-3.9-2.3-8.5-3.6-13.3-3.6s-9.4,1.3-13.4,3.6c-3.9-2.3-8.5-3.6-13.3-3.6s-9.4,1.3-13.3,3.6c-3.9-2.3-8.5-3.6-13.3-3.6
	s-9.4,1.3-13.4,3.6c-3.9-2.3-8.5-3.6-13.3-3.6s-9.5,1.3-13.4,3.6c-1.3-0.7-2.6-1.4-4-1.9c-0.2-0.3-0.3-0.5-0.5-0.8
	c2.3-3.9,3.6-8.5,3.6-13.3s-1.3-9.4-3.6-13.3c2.3-3.9,3.6-8.5,3.6-13.4s-1.3-9.4-3.6-13.3c2.3-3.9,3.6-8.5,3.6-13.3
	s-1.3-9.4-3.6-13.3c2.3-3.9,3.6-8.5,3.6-13.3s-1.3-9.4-3.6-13.3c2.3-3.9,3.6-8.5,3.6-13.3s-1.3-9.4-3.6-13.3
	c2.3-3.9,3.6-8.5,3.6-13.3s-1.3-9.4-3.6-13.3c2.3-3.9,3.6-8.5,3.6-13.3s-1.3-9.4-3.6-13.3c2.3-3.9,3.6-8.5,3.6-13.3
	c0-0.6-0.1-1.3-0.1-1.9c4.2-0.3,8.2-1.5,11.7-3.5c3.9,2.3,8.5,3.6,13.4,3.6s9.4-1.3,13.3-3.6c3.9,2.3,8.5,3.6,13.3,3.6
	s9.4-1.3,13.3-3.6c3.9,2.3,8.5,3.6,13.4,3.6s9.4-1.3,13.3-3.6c3.9,2.3,8.5,3.6,13.3,3.6s9.4-1.3,13.3-3.6c3.9,2.3,8.5,3.6,13.3,3.6
	s9.4-1.3,13.3-3.6c3.9,2.3,8.5,3.6,13.3,3.6s9.4-1.3,13.3-3.6c3.9,2.3,8.5,3.6,13.3,3.6s9.4-1.3,13.3-3.6c1.7,1,3.5,1.8,5.5,2.4
	c-1.8,3.6-2.8,7.6-2.8,11.9c0,4.9,1.3,9.4,3.6,13.3c-2.3,3.9-3.6,8.5-3.6,13.3S2011.3,863.6,2013.6,867.5z"/>
<g>
	<path class="st0" d="M1258,255.8c-4.8,0-9.4,1.3-13.3,3.6c-3.2-1.9-6.8-3.1-10.6-3.4c-0.1,0-0.1,0-0.2,0c-0.4,0-0.8-0.1-1.1-0.1
		c-0.3,0-0.7,0-1,0c-0.1,0-0.3,0-0.4,0l0,0c0,0,0,0-0.1,0c-4.9,0-9.4,1.3-13.3,3.6c-3.9-2.3-8.5-3.6-13.3-3.6l0,0l0,0
		c-4.8,0-9.4,1.3-13.3,3.6c-3.9-2.3-8.5-3.6-13.3-3.6l0,0l0,0c-4.8,0-9.4,1.3-13.3,3.6c-3.9-2.3-8.5-3.6-13.3-3.6l0,0l0,0
		c-4.8,0-9.4,1.3-13.3,3.6c-3.9-2.3-8.5-3.6-13.3-3.6l0,0l0,0c-4.8,0-9.4,1.3-13.3,3.6c-3.9-2.3-8.5-3.6-13.3-3.6l0,0l0,0
		c-4.8,0-9.4,1.3-13.3,3.6c-3.9-2.3-8.5-3.6-13.3-3.6l0,0l0,0c-4.8,0-9.4,1.3-13.3,3.6c-3.9-2.3-8.4-3.6-13.3-3.6c0,0,0,0-0.1,0l0,0
		c-0.1,0-0.3,0-0.4,0c-0.3,0-0.7,0-1,0c-0.4,0-0.8,0.1-1.1,0.1c-0.1,0-0.1,0-0.2,0c-3.8,0.4-7.4,1.6-10.6,3.4
		c-3.9-2.3-8.5-3.6-13.3-3.6c-14.7,0-26.7,12-26.7,26.7s12,26.7,26.7,26.7c4.9,0,9.4-1.3,13.3-3.6c3.2,1.9,6.8,3,10.6,3.4
		c0.1,0,0.2,0,0.2,0c0.4,0,0.7,0.1,1.1,0.1s0.7,0,1.1,0c0.1,0,0.2,0,0.3,0l0,0c0,0,0,0,0.1,0c4.8,0,9.4-1.3,13.3-3.6
		c3.9,2.3,8.5,3.6,13.3,3.6l0,0l0,0c4.8,0,9.4-1.3,13.3-3.6c3.9,2.3,8.5,3.6,13.3,3.6l0,0l0,0c4.8,0,9.4-1.3,13.3-3.6
		c3.9,2.3,8.5,3.6,13.3,3.6l0,0l0,0c4.8,0,9.4-1.3,13.3-3.6c3.9,2.3,8.5,3.6,13.3,3.6l0,0l0,0c4.8,0,9.4-1.3,13.3-3.6
		c3.9,2.3,8.5,3.6,13.3,3.6l0,0l0,0c4.8,0,9.4-1.3,13.3-3.6c3.9,2.3,8.5,3.6,13.3,3.6l0,0l0,0c4.8,0,9.4-1.3,13.3-3.6
		c3.9,2.3,8.5,3.6,13.3,3.6c0,0,0,0,0.1,0l0,0c0.1,0,0.2,0,0.3,0c0.4,0,0.7,0,1.1,0s0.7-0.1,1.1-0.1c0.1,0,0.2,0,0.2,0
		c3.8-0.4,7.4-1.6,10.6-3.4c3.9,2.3,8.4,3.6,13.3,3.6c14.7,0,26.7-12,26.7-26.7S1272.7,255.8,1258,255.8z"/>
	<g>
		<path class="st0" d="M489.2,766.6c-3.9,0-7.5,0.8-10.8,2.3c-4.1-2.6-8.9-4.1-14.1-4.1c-4.9,0-9.4,1.3-13.4,3.6
			c-3.9-2.3-8.5-3.6-13.4-3.6s-9.4,1.3-13.4,3.6c-3.9-2.3-8.5-3.6-13.4-3.6s-9.4,1.3-13.4,3.6c-3.9-2.3-8.5-3.6-13.4-3.6
			s-9.4,1.3-13.4,3.6c-3.9-2.3-8.5-3.6-13.3-3.6s-9.4,1.3-13.3,3.6c-3.9-2.3-8.5-3.6-13.3-3.6s-9.4,1.3-13.3,3.6
			c-3.9-2.3-8.5-3.6-13.3-3.6s-9.4,1.3-13.3,3.6c-3.9-2.3-8.5-3.6-13.3-3.6s-9.4,1.3-13.3,3.6c-3.9-2.3-8.5-3.6-13.3-3.6
			c-9,0-17,4.5-21.8,11.3c-12,2.7-20.9,13.3-20.9,26.1c0,4.9,1.3,9.4,3.6,13.3c-2.3,3.9-3.6,8.5-3.6,13.3s1.3,9.4,3.6,13.3
			c-2.3,3.9-3.6,8.5-3.6,13.3s1.3,9.4,3.6,13.3c-2.3,3.9-3.6,8.5-3.6,13.3s1.3,9.4,3.6,13.3c-2.3,3.9-3.6,8.5-3.6,13.3
			s1.3,9.4,3.6,13.3c-2.3,3.9-3.6,8.5-3.6,13.3s1.3,9.4,3.6,13.3c-2.3,3.9-3.6,8.5-3.6,13.3s1.3,9.4,3.6,13.3
			c-2.3,3.9-3.6,8.5-3.6,13.3s1.3,9.4,3.6,13.3c-2.3,3.9-3.6,8.5-3.6,13.3s1.3,9.4,3.6,13.3c-2.3,3.9-3.6,8.5-3.6,13.3
			c0,0.6,0,1.2,0.1,1.8c0,0.6-0.1,1.2-0.1,1.8c0,4.2,1,8.1,2.7,11.6c-1.7,3.5-2.7,7.4-2.7,11.6c0,4.9,1.3,9.4,3.6,13.3
			c-2.3,3.9-3.6,8.5-3.6,13.3s1.3,9.4,3.6,13.3c-2.3,3.9-3.6,8.5-3.6,13.3s1.3,9.4,3.6,13.3c-2.3,3.9-3.6,8.5-3.6,13.3
			s1.3,9.4,3.6,13.3c-2.3,3.9-3.6,8.5-3.6,13.3s1.3,9.4,3.6,13.3c-2.3,3.9-3.6,8.5-3.6,13.3s1.3,9.4,3.6,13.3
			c-2.3,3.9-3.6,8.5-3.6,13.3s1.3,9.4,3.6,13.3c-2.3,3.9-3.6,8.5-3.6,13.3s1.3,9.4,3.6,13.3c-1.1,2-2,4.1-2.6,6.4
			c-3-1.2-6.4-1.9-9.9-1.9c-4.9,0-9.4,1.3-13.3,3.6c-3.9-2.3-8.5-3.6-13.3-3.6s-9.4,1.3-13.3,3.6c-3.9-2.3-8.5-3.6-13.3-3.6
			s-9.4,1.3-13.3,3.6c-3.9-2.3-8.5-3.6-13.3-3.6s-9.4,1.3-13.3,3.6c-3.9-2.3-8.5-3.6-13.3-3.6s-9.4,1.3-13.3,3.6
			c-3.9-2.3-8.5-3.6-13.3-3.6s-9.4,1.3-13.3,3.6c-3.9-2.3-8.5-3.6-13.3-3.6s-9.4,1.3-13.3,3.6c-3.9-2.3-8.5-3.6-13.3-3.6
			s-9.4,1.3-13.3,3.6c-3.9-2.3-8.5-3.6-13.3-3.6c-14.7,0-26.7,12-26.7,26.7s12,26.7,26.7,26.7c4.9,0,9.4-1.3,13.3-3.6
			c3.9,2.3,8.5,3.6,13.3,3.6s9.4-1.3,13.3-3.6c3.9,2.3,8.5,3.6,13.3,3.6s9.4-1.3,13.3-3.6c3.9,2.3,8.5,3.6,13.3,3.6
			s9.4-1.3,13.3-3.6c3.9,2.3,8.5,3.6,13.3,3.6s9.4-1.3,13.3-3.6c3.9,2.3,8.5,3.6,13.3,3.6s9.4-1.3,13.3-3.6
			c3.9,2.3,8.5,3.6,13.3,3.6s9.4-1.3,13.3-3.6c3.9,2.3,8.5,3.6,13.3,3.6s9.4-1.3,13.3-3.6c3.9,2.3,8.5,3.6,13.3,3.6
			s9.4-1.3,13.3-3.6c3.9,2.3,8.5,3.6,13.3,3.6c14,0,25.5-10.8,26.6-24.6c5.5-4.9,9-12,9-20c0-4.9-1.3-9.4-3.6-13.3
			c2.3-3.9,3.6-8.5,3.6-13.3s-1.3-9.4-3.6-13.3c2.3-3.9,3.6-8.5,3.6-13.3s-1.3-9.4-3.6-13.3c2.3-3.9,3.6-8.5,3.6-13.3
			s-1.3-9.4-3.6-13.3c2.3-3.9,3.6-8.5,3.6-13.3s-1.3-9.4-3.6-13.3c2.3-3.9,3.6-8.5,3.6-13.3s-1.3-9.4-3.6-13.3
			c2.3-3.9,3.6-8.5,3.6-13.3s-1.3-9.4-3.6-13.3c2.3-3.9,3.6-8.5,3.6-13.3s-1.3-9.4-3.6-13.3c1.7-3,2.9-6.3,3.3-9.8
			c0.1,0,0.2,0,0.3,0c4.9,0,9.4-1.3,13.3-3.6c3.9,2.3,8.5,3.6,13.3,3.6s9.4-1.3,13.3-3.6c3.9,2.3,8.5,3.6,13.3,3.6s9.4-1.3,13.3-3.6
			c3.9,2.3,8.5,3.6,13.3,3.6s9.4-1.3,13.3-3.6c3.9,2.3,8.5,3.6,13.3,3.6s9.4-1.3,13.4-3.6c3.9,2.3,8.5,3.6,13.4,3.6
			s9.4-1.3,13.4-3.6c3.9,2.3,8.5,3.6,13.4,3.6s9.4-1.3,13.4-3.6c3.9,2.3,8.5,3.6,13.4,3.6s9.4-1.3,13.4-3.6
			c3.9,2.3,8.5,3.6,13.4,3.6c10.2,0,19.1-5.8,23.6-14.2c10.1-3.8,17.4-13.5,17.4-25c0-4.9-1.3-9.4-3.6-13.3
			c2.3-3.9,3.6-8.5,3.6-13.3s-1.3-9.4-3.6-13.3c2.3-3.9,3.6-8.5,3.6-13.3s-1.3-9.4-3.6-13.3c2.3-3.9,3.6-8.5,3.6-13.3
			s-1.3-9.4-3.6-13.3c2.3-3.9,3.6-8.5,3.6-13.3s-1.3-9.4-3.6-13.3c2.3-3.9,3.6-8.5,3.6-13.3s-1.3-9.4-3.6-13.3
			c2.3-3.9,3.6-8.5,3.6-13.3s-1.3-9.4-3.6-13.3c2.3-3.9,3.6-8.5,3.6-13.3s-1.3-9.4-3.6-13.3c2.3-3.9,3.6-8.5,3.6-13.3
			s-1.3-9.4-3.6-13.3c2.3-3.9,3.6-8.5,3.6-13.3C515.9,778.6,504,766.6,489.2,766.6z M466.3,860.6c-2.3,3.9-3.6,8.5-3.6,13.3
			s1.3,9.4,3.6,13.3c-2.3,3.9-3.6,8.5-3.6,13.3s1.3,9.4,3.6,13.3c-2.3,3.9-3.6,8.5-3.6,13.3s1.3,9.4,3.6,13.3
			c-2.3,3.9-3.6,8.5-3.6,13.3s1.3,9.4,3.6,13.3c-2.3,3.9-3.6,8.5-3.6,13.3s1.3,9.4,3.6,13.4c-2.3,3.9-3.6,8.5-3.6,13.3
			s1.3,9.4,3.6,13.3c-0.2,0.3-0.3,0.5-0.5,0.8c-1.4,0.5-2.7,1.2-4,1.9c-4.1-2.3-8.6-3.6-13.5-3.6s-9.4,1.3-13.4,3.6
			c-3.9-2.3-8.5-3.6-13.4-3.6s-9.4,1.3-13.4,3.6c-3.9-2.3-8.5-3.6-13.4-3.6s-9.4,1.3-13.4,3.6c-3.9-2.3-8.5-3.6-13.4-3.6
			s-9.4,1.3-13.3,3.6c-3.9-2.3-8.5-3.6-13.3-3.6s-9.4,1.3-13.3,3.6c-3.9-2.3-8.5-3.6-13.3-3.6s-9.4,1.3-13.3,3.6
			c-3.9-2.3-8.5-3.6-13.3-3.6s-9.4,1.3-13.3,3.6c-3.9-2.3-8.5-3.6-13.3-3.6c-0.1,0-0.2,0-0.3,0c0.2-1.2,0.3-2.4,0.3-3.6
			c0-4.9-1.3-9.4-3.6-13.3c2.3-3.9,3.6-8.5,3.6-13.3s-1.3-9.4-3.6-13.3c2.3-3.9,3.6-8.5,3.6-13.3s-1.3-9.4-3.6-13.3
			c2.3-3.9,3.6-8.5,3.6-13.3s-1.3-9.4-3.6-13.3c2.3-3.9,3.6-8.5,3.6-13.3s-1.3-9.4-3.6-13.3c2.3-3.9,3.6-8.5,3.6-13.3
			s-1.3-9.4-3.6-13.3c2.3-3.9,3.6-8.5,3.6-13.3s-1.3-9.4-3.6-13.3c2.3-3.9,3.6-8.5,3.6-13.3c0-4.3-1-8.3-2.8-11.9
			c1.9-0.6,3.8-1.4,5.5-2.4c3.9,2.3,8.5,3.6,13.3,3.6s9.4-1.3,13.3-3.6c3.9,2.3,8.5,3.6,13.3,3.6s9.4-1.3,13.3-3.6
			c3.9,2.3,8.5,3.6,13.3,3.6s9.4-1.3,13.3-3.6c3.9,2.3,8.5,3.6,13.3,3.6s9.4-1.3,13.4-3.6c3.9,2.3,8.5,3.6,13.4,3.6
			s9.4-1.3,13.4-3.6c3.9,2.3,8.5,3.6,13.4,3.6s9.4-1.3,13.4-3.6c3.9,2.3,8.5,3.6,13.4,3.6s9.4-1.3,13.4-3.6c3.5,2,7.4,3.3,11.7,3.5
			c0,0.6-0.1,1.2-0.1,1.9c0,4.9,1.3,9.4,3.6,13.3c-2.3,3.9-3.6,8.5-3.6,13.3S464,856.7,466.3,860.6z"/>
		<path class="st0" d="M741.2,526.7c-1.5,3.3-2.3,6.9-2.3,10.8c0,14.7,12,26.7,26.7,26.7c4.9,0,9.4-1.3,13.3-3.6
			c3.9,2.3,8.5,3.6,13.4,3.6s9.4-1.3,13.3-3.6c3.9,2.3,8.5,3.6,13.4,3.6s9.4-1.3,13.3-3.6c3.9,2.3,8.5,3.6,13.3,3.6
			s9.4-1.3,13.4-3.6c3.9,2.3,8.5,3.6,13.3,3.6s9.4-1.3,13.4-3.6c3.9,2.3,8.5,3.6,13.3,3.6s9.4-1.3,13.3-3.6
			c3.9,2.3,8.5,3.6,13.4,3.6s9.4-1.3,13.3-3.6c3.9,2.3,8.5,3.6,13.4,3.6s9.4-1.3,13.3-3.6c3.9,2.3,8.5,3.6,13.3,3.6
			s9.4-1.3,13.4-3.6c3.9,2.3,8.5,3.6,13.3,3.6c11.5,0,21.2-7.2,25-17.4c8.4-4.5,14.2-13.3,14.2-23.6c0-4.9-1.3-9.4-3.6-13.3
			c2.3-3.9,3.6-8.5,3.6-13.3s-1.3-9.4-3.6-13.3c2.3-3.9,3.6-8.5,3.6-13.4s-1.3-9.4-3.6-13.4c2.3-3.9,3.6-8.5,3.6-13.4
			s-1.3-9.4-3.6-13.4c2.3-3.9,3.6-8.5,3.6-13.4s-1.3-9.4-3.6-13.4c2.3-3.9,3.6-8.5,3.6-13.4s-1.3-9.4-3.6-13.4
			c2.3-3.9,3.6-8.5,3.6-13.4s-1.3-9.4-3.6-13.4c2.3-3.9,3.6-8.5,3.6-13.4s-1.3-9.4-3.6-13.4c2.3-3.9,3.6-8.5,3.6-13.4
			s-1.3-9.4-3.6-13.4c2.3-3.9,3.6-8.5,3.6-13.4c0-14.7-12-26.7-26.7-26.7s-26.7,12-26.7,26.7c0,4.9,1.3,9.4,3.6,13.4
			c-2.3,3.9-3.6,8.5-3.6,13.4s1.3,9.4,3.6,13.4c-2.3,3.9-3.6,8.5-3.6,13.4s1.3,9.4,3.6,13.4c-2.3,3.9-3.6,8.5-3.6,13.4
			s1.3,9.4,3.6,13.4c-2.3,3.9-3.6,8.5-3.6,13.4s1.3,9.4,3.6,13.4c-2.3,3.9-3.6,8.5-3.6,13.4s1.3,9.4,3.6,13.4
			c-2.3,3.9-3.6,8.5-3.6,13.4s1.3,9.4,3.6,13.4c-2.3,3.9-3.6,8.5-3.6,13.4s1.3,9.4,3.6,13.4c-2.3,3.9-3.6,8.5-3.6,13.3
			s1.3,9.4,3.6,13.3c-0.8,1.3-1.4,2.6-1.9,4c-0.3,0.1-0.6,0.3-0.8,0.5c-3.9-2.3-8.5-3.6-13.4-3.6s-9.4,1.3-13.3,3.6
			c-3.9-2.3-8.5-3.6-13.3-3.6s-9.4,1.3-13.4,3.6c-3.9-2.3-8.5-3.6-13.3-3.6s-9.4,1.3-13.3,3.6c-3.9-2.3-8.5-3.6-13.4-3.6
			s-9.4,1.3-13.3,3.6c-3.9-2.3-8.5-3.6-13.4-3.6s-9.4,1.3-13.3,3.6c-3.9-2.3-8.5-3.6-13.4-3.6s-9.4,1.3-13.3,3.6
			c-3.9-2.3-8.5-3.6-13.3-3.6s-9.4,1.3-13.4,3.6c-3.9-2.3-8.5-3.6-13.3-3.6c-0.6,0-1.3,0-1.9,0.1c-0.3-4.2-1.5-8.2-3.5-11.7
			c2.3-3.9,3.6-8.5,3.6-13.3s-1.3-9.4-3.6-13.4c2.3-3.9,3.6-8.5,3.6-13.4s-1.3-9.4-3.6-13.4c2.3-3.9,3.6-8.5,3.6-13.4
			s-1.3-9.4-3.6-13.4c2.3-3.9,3.6-8.5,3.6-13.4s-1.3-9.4-3.6-13.4c2.3-3.9,3.6-8.5,3.6-13.4s-1.3-9.4-3.6-13.4
			c2.3-3.9,3.6-8.5,3.6-13.4s-1.3-9.4-3.6-13.4c2.3-3.9,3.6-8.5,3.6-13.4s-1.3-9.4-3.6-13.4c2.3-3.9,3.6-8.5,3.6-13.4
			s-1.3-9.4-3.6-13.4c2.3-3.9,3.6-8.5,3.6-13.4s-1.3-9.4-3.6-13.4c2.3-3.9,3.6-8.5,3.6-13.4s-1.3-9.4-3.6-13.4
			c2.3-3.9,3.6-8.5,3.6-13.4s-1.3-9.4-3.6-13.4c2.3-3.9,3.6-8.5,3.6-13.4s-1.3-9.4-3.6-13.4c2.3-3.9,3.6-8.5,3.6-13.4
			s-1.3-9.4-3.6-13.4c2.3-3.9,3.6-8.5,3.6-13.4s-1.3-9.4-3.6-13.3c2.3-3.9,3.6-8.5,3.6-13.4s-1.3-9.4-3.6-13.4
			c2.3-3.9,3.6-8.5,3.6-13.3s-1.3-9.4-3.6-13.3c2.3-3.9,3.6-8.5,3.6-13.3s-1.3-9.4-3.6-13.3c2.3-3.9,3.6-8.5,3.6-13.3
			c0-14.7-12-26.7-26.7-26.7c-3.3,0-6.5,0.6-9.4,1.7c-4.2-2.8-9.2-4.4-14.7-4.4c-4.9,0-9.4,1.3-13.3,3.6C722.5,3.3,717.9,2,713,2
			s-9.4,1.3-13.4,3.6c-3.9-2.3-8.5-3.6-13.3-3.6s-9.4,1.3-13.4,3.6C669,3.3,664.4,2,659.6,2s-9.4,1.3-13.4,3.6
			c-3.9-2.3-8.5-3.6-13.3-3.6s-9.4,1.3-13.4,3.6C615.6,3.3,611,2,606.2,2s-9.4,1.3-13.4,3.6C589,3.3,584.4,2,579.5,2
			s-9.4,1.3-13.4,3.6c-3.9-2.3-8.5-3.6-13.3-3.6s-9.4,1.3-13.4,3.6C535.6,3.3,531,2,526.1,2s-9.4,1.3-13.4,3.6
			c-3.9-2.3-8.5-3.6-13.4-3.6s-9.4,1.3-13.4,3.6C482,3.3,477.4,2,472.5,2s-9.4,1.3-13.4,3.6C455.5,3.3,450.9,2,446,2
			s-9.4,1.3-13.4,3.6c-3.9-2.3-8.5-3.6-13.4-3.6s-9.4,1.3-13.4,3.6c-3.9-2.3-8.5-3.6-13.4-3.6S383,3.3,379,5.6
			c-3.9-2.3-8.5-3.6-13.3-3.6s-9.4,1.3-13.3,3.6c-4-2.3-8.5-3.6-13.4-3.6s-9.4,1.3-13.3,3.6c-3.9-2.3-8.5-3.6-13.4-3.6
			s-9.4,1.3-13.3,3.6c-3.9-2.3-8.5-3.6-13.3-3.6s-9.4,1.3-13.3,3.6C268.5,3.3,264,2,259.1,2c-14.7,0-26.7,12-26.7,26.7
			s12,26.7,26.7,26.7c4.9,0,9.4-1.3,13.3-3.6c3.9,2.3,8.5,3.6,13.3,3.6s9.4-1.3,13.3-3.6c3.9,2.3,8.5,3.6,13.3,3.6s9.4-1.3,13.3-3.6
			c3.9,2.3,8.5,3.6,13.3,3.6s9.4-1.3,13.3-3.6c3.9,2.3,8.5,3.6,13.3,3.6s9.4-1.3,13.3-3.6c3.9,2.3,8.5,3.6,13.4,3.6
			s9.4-1.3,13.4-3.6c3.9,2.3,8.5,3.6,13.4,3.6s9.4-1.3,13.4-3.6c3.9,2.3,8.5,3.6,13.4,3.6s9.4-1.3,13.4-3.6
			c3.9,2.3,8.5,3.6,13.4,3.6s9.4-1.3,13.4-3.6c3.9,2.3,8.5,3.6,13.4,3.6s9.4-1.3,13.4-3.6c3.9,2.3,8.5,3.6,13.4,3.6
			s9.4-1.3,13.3-3.6c3.9,2.3,8.5,3.6,13.4,3.6s9.4-1.3,13.3-3.6c3.9,2.3,8.5,3.6,13.4,3.6s9.4-1.3,13.3-3.6
			c3.9,2.3,8.5,3.6,13.4,3.6s9.4-1.3,13.3-3.6c3.9,2.3,8.5,3.6,13.4,3.6s9.4-1.3,13.3-3.6c3.9,2.3,8.5,3.6,13.4,3.6
			s9.4-1.3,13.3-3.6c3.9,2.3,8.5,3.6,13.4,3.6s9.4-1.3,13.3-3.6c3.9,2.3,8.5,3.6,13.4,3.6s9.4-1.3,13.3-3.6
			c3.2,1.9,6.9,3.1,10.8,3.5c-0.1,0.9-0.1,1.8-0.1,2.8c0,4.9,1.3,9.4,3.6,13.3c-2.3,3.9-3.6,8.5-3.6,13.3s1.3,9.4,3.6,13.3
			c-2.3,3.9-3.6,8.5-3.6,13.4s1.3,9.4,3.6,13.4c-2.3,3.9-3.6,8.5-3.6,13.3s1.3,9.4,3.6,13.4c-2.3,3.9-3.6,8.5-3.6,13.4
			s1.3,9.4,3.6,13.4c-2.3,3.9-3.6,8.5-3.6,13.4s1.3,9.4,3.6,13.4c-2.3,3.9-3.6,8.5-3.6,13.3c0,4.9,1.3,9.4,3.6,13.4
			c-2.3,3.9-3.6,8.5-3.6,13.4c0,3.8,0.8,7.4,2.2,10.7c-0.2,0-0.3,0-0.5,0c-4.9,0-9.4,1.3-13.4,3.6c-3.9-2.3-8.5-3.6-13.3-3.6
			s-9.4,1.3-13.4,3.6c-3.9-2.3-8.5-3.6-13.3-3.6s-9.4,1.3-13.4,3.6c-3.9-2.3-8.5-3.6-13.3-3.6s-9.4,1.3-13.4,3.6
			c-3.9-2.3-8.5-3.6-13.3-3.6s-9.4,1.3-13.3,3.6c-3.9-2.3-8.5-3.6-13.4-3.6s-9.4,1.3-13.3,3.6c-3.9-2.3-8.5-3.6-13.4-3.6
			s-9.4,1.3-13.3,3.6c-3.9-2.3-8.5-3.6-13.4-3.6s-9.4,1.3-13.3,3.6c-3.9-2.3-8.5-3.6-13.4-3.6c-9,0-17,4.5-21.8,11.3
			c-12,2.6-20.9,13.3-20.9,26.1c0,4.9,1.3,9.4,3.6,13.4c-2.3,3.9-3.6,8.5-3.6,13.4s1.3,9.4,3.6,13.4c-2.3,3.9-3.6,8.5-3.6,13.4
			s1.3,9.4,3.6,13.4c-2.3,3.9-3.6,8.5-3.6,13.4s1.3,9.4,3.6,13.4c-2.3,3.9-3.6,8.5-3.6,13.4s1.3,9.4,3.6,13.4
			c-2.3,3.9-3.6,8.5-3.6,13.4s1.3,9.4,3.6,13.4c-2.3,3.9-3.6,8.5-3.6,13.4s1.3,9.4,3.6,13.4c-2.3,3.9-3.6,8.5-3.6,13.4
			s1.3,9.4,3.6,13.3c-2.3,3.9-3.6,8.5-3.6,13.3c0,1.3,0.1,2.5,0.3,3.8c-3.6,0.5-7,1.6-10.1,3.4c-3.9-2.3-8.5-3.6-13.4-3.6
			s-9.4,1.3-13.4,3.6c-3.9-2.3-8.5-3.6-13.4-3.6s-9.4,1.3-13.4,3.6c-3.9-2.3-8.5-3.6-13.4-3.6s-9.4,1.3-13.4,3.6
			c-3.9-2.3-8.5-3.6-13.3-3.6s-9.4,1.3-13.3,3.6c-3.9-2.3-8.5-3.6-13.3-3.6s-9.4,1.3-13.3,3.6c-3.9-2.3-8.5-3.6-13.3-3.6
			s-9.4,1.3-13.3,3.6c-3.9-2.3-8.5-3.6-13.3-3.6s-9.4,1.3-13.3,3.6c-3.9-2.3-8.5-3.6-13.3-3.6s-9.4,1.3-13.3,3.6
			c-3.9-2.3-8.5-3.6-13.3-3.6s-9.4,1.3-13.3,3.6c-3.9-2.3-8.5-3.6-13.3-3.6s-9.4,1.3-13.3,3.6c-3.9-2.3-8.5-3.6-13.3-3.6
			s-9.4,1.3-13.3,3.6c-3.9-2.3-8.5-3.6-13.3-3.6s-9.4,1.3-13.3,3.6c-3.9-2.3-8.5-3.6-13.3-3.6s-9.4,1.3-13.3,3.6
			c-3.9-2.3-8.5-3.6-13.3-3.6s-9.4,1.3-13.3,3.6c-3.9-2.3-8.5-3.6-13.3-3.6s-9.4,1.3-13.3,3.6c-3.9-2.3-8.5-3.6-13.3-3.6
			s-9.4,1.3-13.3,3.6c-3.9-2.3-8.5-3.6-13.3-3.6s-9.4,1.3-13.3,3.6c-3.9-2.3-8.5-3.6-13.3-3.6c-14.7,0-26.7,12-26.7,26.7
			s12,26.7,26.7,26.7c4.9,0,9.4-1.3,13.3-3.6c3.9,2.3,8.5,3.6,13.3,3.6s9.4-1.3,13.3-3.6c3.9,2.3,8.5,3.6,13.3,3.6s9.4-1.3,13.3-3.6
			c3.9,2.3,8.5,3.6,13.3,3.6s9.4-1.3,13.3-3.6c3.9,2.3,8.5,3.6,13.3,3.6s9.4-1.3,13.3-3.6c3.9,2.3,8.5,3.6,13.3,3.6
			s9.4-1.3,13.3-3.6c3.9,2.3,8.5,3.6,13.3,3.6s9.4-1.3,13.3-3.6c3.9,2.3,8.5,3.6,13.3,3.6s9.4-1.3,13.3-3.6
			c3.9,2.3,8.5,3.6,13.3,3.6s9.4-1.3,13.3-3.6c3.9,2.3,8.5,3.6,13.3,3.6s9.4-1.3,13.3-3.6c3.9,2.3,8.5,3.6,13.3,3.6
			s9.4-1.3,13.3-3.6c3.9,2.3,8.5,3.6,13.3,3.6s9.4-1.3,13.3-3.6c3.9,2.3,8.5,3.6,13.3,3.6s9.4-1.3,13.3-3.6
			c3.9,2.3,8.5,3.6,13.3,3.6s9.4-1.3,13.3-3.6c3.9,2.3,8.5,3.6,13.3,3.6s9.4-1.3,13.4-3.6c3.9,2.3,8.5,3.6,13.4,3.6
			s9.4-1.3,13.4-3.6c3.9,2.3,8.5,3.6,13.4,3.6s9.4-1.3,13.4-3.6c3.9,2.3,8.5,3.6,13.4,3.6s9.4-1.3,13.4-3.6
			c3.9,2.3,8.5,3.6,13.4,3.6c5.6,0,10.9-1.8,15.2-4.8c2.5,0.8,5.2,1.2,7.9,1.2c14.7,0,26.7-12,26.7-26.7c0-4.9-1.3-9.4-3.6-13.3
			c2.3-3.9,3.6-8.5,3.6-13.3s-1.3-9.4-3.6-13.3c2.3-3.9,3.6-8.5,3.6-13.3s-1.3-9.4-3.6-13.4c2.3-3.9,3.6-8.5,3.6-13.4
			s-1.3-9.4-3.6-13.4c2.3-3.9,3.6-8.5,3.6-13.4s-1.3-9.4-3.6-13.4c2.3-3.9,3.6-8.5,3.6-13.4s-1.3-9.4-3.6-13.4
			c2.3-3.9,3.6-8.5,3.6-13.4s-1.3-9.4-3.6-13.4c2.3-3.9,3.6-8.5,3.6-13.4s-1.3-9.4-3.6-13.4c2.3-3.9,3.6-8.5,3.6-13.4
			c0-4.3-1-8.3-2.8-11.9c1.9-0.6,3.8-1.4,5.5-2.4c3.9,2.3,8.5,3.6,13.3,3.6s9.4-1.3,13.4-3.6c3.9,2.3,8.5,3.6,13.3,3.6
			s9.4-1.3,13.4-3.6c3.9,2.3,8.5,3.6,13.3,3.6s9.4-1.3,13.4-3.6c3.9,2.3,8.5,3.6,13.3,3.6s9.4-1.3,13.4-3.6
			c3.9,2.3,8.5,3.6,13.3,3.6s9.4-1.3,13.4-3.6c3.9,2.3,8.5,3.6,13.3,3.6s9.4-1.3,13.4-3.6c3.9,2.3,8.5,3.6,13.3,3.6s9.4-1.7,13.3-4
			c3.9,2.3,8.5,3.6,13.4,3.6c0.1,0,0.3,0,0.4,0c0.4,0.9,0.9,1.8,1.4,2.7c-2.3,3.9-3.6,8.5-3.6,13.4s1.3,9.4,3.6,13.4
			c-2.3,3.9-3.6,8.5-3.6,13.4s1.3,9.4,3.6,13.4c-2.3,3.9-3.6,8.5-3.6,13.4s1.3,9.4,3.6,13.4c-2.3,3.9-3.6,8.5-3.6,13.4
			s1.3,9.4,3.6,13.4c-2.3,3.9-3.6,8.5-3.6,13.4s1.3,9.4,3.6,13.4c-2.3,3.9-3.6,8.5-3.6,13.4s1.3,9.4,3.6,13.4
			c-2.3,3.9-3.6,8.5-3.6,13.4s1.3,9.4,3.6,13.3c-2.3,3.9-3.6,8.5-3.6,13.3C737.1,517.8,738.6,522.6,741.2,526.7z"/>
		<path class="st0" d="M488.3,1287.3c-14.7,0-26.7,12-26.7,26.7c0,4.9,1.3,9.4,3.6,13.3c-2.3,3.9-3.6,8.5-3.6,13.3s1.3,9.4,3.6,13.3
			c-2.3,3.9-3.6,8.5-3.6,13.3s1.3,9.4,3.6,13.3c-2.3,3.9-3.6,8.5-3.6,13.3s1.3,9.4,3.6,13.3c-2.3,3.9-3.6,8.5-3.6,13.3
			s1.3,9.4,3.6,13.3c-2.3,3.9-3.6,8.5-3.6,13.3s1.3,9.4,3.6,13.3c-2.3,3.9-3.6,8.5-3.6,13.3s1.3,9.4,3.6,13.3
			c-2.3,3.9-3.6,8.5-3.6,13.3s1.3,9.4,3.6,13.3c-2.3,3.9-3.6,8.5-3.6,13.3c0,1.6,0.2,3.2,0.5,4.8c-3.4,0.5-6.5,1.6-9.4,3.3
			c-3.9-2.3-8.5-3.6-13.4-3.6s-9.4,1.3-13.4,3.6c-3.9-2.3-8.5-3.6-13.4-3.6s-9.4,1.3-13.4,3.6c-3.9-2.3-8.5-3.6-13.4-3.6
			s-9.4,1.3-13.4,3.6c-3.9-2.3-8.5-3.6-13.4-3.6s-9.4,1.3-13.3,3.6c-3.9-2.3-8.5-3.6-13.3-3.6s-9.4,1.3-13.3,3.6
			c-3.9-2.3-8.5-3.6-13.3-3.6s-9.4,1.3-13.3,3.6c-3.9-2.3-8.5-3.6-13.3-3.6s-9.4,1.3-13.3,3.6c-3.9-2.3-8.5-3.6-13.3-3.6
			s-9.4,1.3-13.3,3.6c-3.9-2.3-8.5-3.6-13.3-3.6s-9.4,1.3-13.3,3.6c-3.9-2.3-8.5-3.6-13.3-3.6s-9.4,1.3-13.3,3.6
			c-3.9-2.3-8.5-3.6-13.3-3.6s-9.4,1.3-13.3,3.6c-3.9-2.3-8.5-3.6-13.3-3.6s-9.4,1.3-13.3,3.6c-3.9-2.3-8.5-3.6-13.3-3.6
			s-9.4,1.3-13.3,3.6c-3.9-2.3-8.5-3.6-13.3-3.6s-9.4,1.3-13.3,3.6c-3.9-2.3-8.5-3.6-13.3-3.6s-9.4,1.3-13.3,3.6
			c-3.9-2.3-8.5-3.6-13.3-3.6s-9.4,1.3-13.3,3.6c-3.9-2.3-8.5-3.6-13.3-3.6s-9.4,1.3-13.3,3.6c-3.9-2.3-8.5-3.6-13.3-3.6
			c-14.7,0-26.7,12-26.7,26.7s12,26.7,26.7,26.7c4.9,0,9.4-1.3,13.3-3.6c3.9,2.3,8.5,3.6,13.3,3.6s9.4-1.3,13.3-3.6
			c3.9,2.3,8.5,3.6,13.3,3.6s9.4-1.3,13.3-3.6c3.9,2.3,8.5,3.6,13.3,3.6s9.4-1.3,13.3-3.6c3.9,2.3,8.5,3.6,13.3,3.6
			s9.4-1.3,13.3-3.6c3.9,2.3,8.5,3.6,13.3,3.6s9.4-1.3,13.3-3.6c3.9,2.3,8.5,3.6,13.3,3.6s9.4-1.3,13.3-3.6
			c3.9,2.3,8.5,3.6,13.3,3.6s9.4-1.3,13.3-3.6c3.9,2.3,8.5,3.6,13.3,3.6s9.4-1.3,13.3-3.6c3.9,2.3,8.5,3.6,13.3,3.6
			s9.4-1.3,13.3-3.6c3.9,2.3,8.5,3.6,13.3,3.6s9.4-1.3,13.3-3.6c3.9,2.3,8.5,3.6,13.3,3.6s9.4-1.3,13.3-3.6
			c3.9,2.3,8.5,3.6,13.3,3.6s9.4-1.3,13.3-3.6c3.9,2.3,8.5,3.6,13.3,3.6s9.4-1.3,13.3-3.6c3.9,2.3,8.5,3.6,13.3,3.6
			s9.4-1.3,13.4-3.6c3.9,2.3,8.5,3.6,13.4,3.6s9.4-1.3,13.4-3.6c3.9,2.3,8.5,3.6,13.4,3.6s9.4-1.3,13.4-3.6
			c3.9,2.3,8.5,3.6,13.4,3.6s9.4-1.3,13.4-3.6c3.9,2.3,8.5,3.6,13.4,3.6c6,0,11.4-2,15.9-5.3c2,0.5,4.2,0.8,6.4,0.8
			c14.7,0,26.7-12,26.7-26.7c0-4.9-1.3-9.4-3.6-13.3c2.3-3.9,3.6-8.5,3.6-13.3s-1.3-9.4-3.6-13.3c2.3-3.9,3.6-8.5,3.6-13.3
			s-1.3-9.4-3.6-13.3c2.3-3.9,3.6-8.5,3.6-13.3s-1.3-9.4-3.6-13.3c2.3-3.9,3.6-8.5,3.6-13.3s-1.3-9.4-3.6-13.3
			c2.3-3.9,3.6-8.5,3.6-13.3s-1.3-9.4-3.6-13.3c2.3-3.9,3.6-8.5,3.6-13.3s-1.3-9.4-3.6-13.3c2.3-3.9,3.6-8.5,3.6-13.3
			s-1.3-9.4-3.6-13.3c2.3-3.9,3.6-8.5,3.6-13.3s-1.3-9.4-3.6-13.3c2.3-3.9,3.6-8.5,3.6-13.3C515,1299.3,503.1,1287.3,488.3,1287.3z"
			/>
		<path class="st0" d="M1027.7,1546.3c-4.5-8.4-13.3-14.2-23.6-14.2c-4.9,0-9.4,1.3-13.3,3.6c-3.9-2.3-8.5-3.6-13.4-3.6
			s-9.4,1.3-13.3,3.6c-3.9-2.3-8.5-3.6-13.3-3.6s-9.4,1.3-13.4,3.6c-3.9-2.3-8.5-3.6-13.3-3.6s-9.4,1.3-13.3,3.6
			c-3.9-2.3-8.5-3.6-13.4-3.6s-9.4,1.3-13.3,3.6c-3.9-2.3-8.5-3.6-13.4-3.6s-9.4,1.3-13.3,3.6c-3.9-2.3-8.5-3.6-13.4-3.6
			s-9.4,1.3-13.3,3.6c-3.9-2.3-8.5-3.6-13.3-3.6s-9.4,1.3-13.4,3.6c-3.9-2.3-8.5-3.6-13.3-3.6s-9.4,1.3-13.3,3.6
			c-3.9-2.3-8.5-3.6-13.4-3.6c-14.7,0-26.7,12-26.7,26.7s12,26.7,26.7,26.7c4.9,0,9.4-1.3,13.3-3.6c3.9,2.3,8.5,3.6,13.4,3.6
			s9.4-1.3,13.3-3.6c3.9,2.3,8.5,3.6,13.4,3.6s9.4-1.3,13.3-3.6c3.9,2.3,8.5,3.6,13.3,3.6s9.4-1.3,13.4-3.6
			c3.9,2.3,8.5,3.6,13.3,3.6s9.4-1.3,13.4-3.6c3.9,2.3,8.5,3.6,13.3,3.6s9.4-1.3,13.3-3.6c3.9,2.3,8.5,3.6,13.4,3.6
			s9.4-1.3,13.3-3.6c3.9,2.3,8.5,3.6,13.4,3.6s9.4-1.3,13.3-3.6c3.9,2.3,8.5,3.6,13.3,3.6s9.4-1.3,13.4-3.6c1.3,0.8,2.6,1.4,4,1.9
			c0.1,0.3,0.3,0.6,0.5,0.8c-2.3,3.9-3.6,8.5-3.6,13.3s1.3,9.4,3.6,13.3c-2.3,3.9-3.6,8.5-3.6,13.3s1.3,9.4,3.6,13.3
			c-2.3,3.9-3.6,8.5-3.6,13.3s1.3,9.4,3.6,13.3c-2.3,3.9-3.6,8.5-3.6,13.3s1.3,9.4,3.6,13.3c-2.3,3.9-3.6,8.5-3.6,13.3
			s1.3,9.4,3.6,13.3c-2.3,3.9-3.6,8.5-3.6,13.3s1.3,9.4,3.6,13.3c-2.3,3.9-3.6,8.5-3.6,13.3s1.3,9.4,3.6,13.3
			c-2.3,3.9-3.6,8.5-3.6,13.3s1.3,9.4,3.6,13.3c-2.3,3.9-3.6,8.5-3.6,13.3c0,14.7,12,26.7,26.7,26.7c14.7,0,26.7-12,26.7-26.7
			c0-4.9-1.3-9.4-3.6-13.3c2.3-3.9,3.6-8.5,3.6-13.3s-1.3-9.4-3.6-13.3c2.3-3.9,3.6-8.5,3.6-13.3s-1.3-9.4-3.6-13.3
			c2.3-3.9,3.6-8.5,3.6-13.3s-1.3-9.4-3.6-13.3c2.3-3.9,3.6-8.5,3.6-13.3s-1.3-9.4-3.6-13.3c2.3-3.9,3.6-8.5,3.6-13.3
			s-1.3-9.4-3.6-13.3c2.3-3.9,3.6-8.5,3.6-13.3s-1.3-9.4-3.6-13.3c2.3-3.9,3.6-8.5,3.6-13.3s-1.3-9.4-3.6-13.3
			c2.3-3.9,3.6-8.5,3.6-13.3s-1.3-9.4-3.6-13.3c2.3-3.9,3.6-8.5,3.6-13.3C1045.1,1559.8,1037.9,1550.1,1027.7,1546.3z"/>
		<path class="st0" d="M1549,1048.6c1.6-3.4,2.5-7.2,2.5-11.3c0-4.9-1.3-9.4-3.6-13.3c2.3-3.9,3.6-8.5,3.6-13.3s-1.3-9.4-3.6-13.3
			c2.3-3.9,3.6-8.5,3.6-13.3s-1.3-9.4-3.6-13.3c2.3-3.9,3.6-8.5,3.6-13.3s-1.3-9.4-3.6-13.3c2.3-3.9,3.6-8.5,3.6-13.3
			s-1.3-9.4-3.6-13.3c2.3-3.9,3.6-8.5,3.6-13.3s-1.3-9.4-3.6-13.3c2.3-3.9,3.6-8.5,3.6-13.3s-1.3-9.4-3.6-13.3
			c2.3-3.9,3.6-8.5,3.6-13.3s-1.3-9.4-3.6-13.3c2.3-3.9,3.6-8.5,3.6-13.3s-1.2-9.5-3.5-13.4c2.3-3.9,3.6-8.5,3.6-13.3
			c0-14.7-12-26.7-26.7-26.7s-26.7,12-26.7,26.7c0,4.9,1.3,9.4,3.6,13.3c-2.3,3.9-3.6,8.5-3.6,13.3s1.3,9.4,3.6,13.3
			c-2.3,3.9-3.6,8.5-3.6,13.3s1.3,9.4,3.6,13.3c-2.3,3.9-3.6,8.5-3.6,13.3s1.3,9.4,3.6,13.3c-2.3,3.9-3.6,8.5-3.6,13.3
			s1.3,9.4,3.6,13.3c-2.3,3.9-3.6,8.5-3.6,13.3s1.3,9.4,3.6,13.3c-2.3,3.9-3.6,8.5-3.6,13.3s1.3,9.4,3.6,13.3
			c-2.3,3.9-3.6,8.5-3.6,13.3s1.3,9.4,3.6,13.3c-2.3,3.9-3.6,8.5-3.6,13.3c0,4.7,1.2,9.1,3.3,12.9c-1.8,0.6-3.5,1.3-5.1,2.3
			c-3.9-2.3-8.5-3.6-13.3-3.6s-9.4,1.3-13.3,3.6c-3.9-2.3-8.5-3.6-13.3-3.6s-9.4,1.3-13.3,3.6c-3.9-2.3-8.5-3.6-13.3-3.6
			s-9.4,1.3-13.3,3.6c-3.9-2.3-8.5-3.6-13.3-3.6s-9.4,1.3-13.3,3.6c-3.9-2.3-8.5-3.6-13.4-3.6s-9.4,1.3-13.3,3.6
			c-3.9-2.3-8.5-3.6-13.3-3.6s-9.4,1.3-13.3,3.6c-3.9-2.3-8.5-3.6-13.4-3.6s-9.4,1.3-13.3,3.6c-3.9-2.3-8.5-3.6-13.3-3.6
			s-9.4,1.3-13.3,3.6c-3.9-2.3-8.5-3.6-13.4-3.6s-9.4,1.3-13.3,3.6c-3.9-2.3-8.5-3.6-13.3-3.6s-9.4,1.3-13.3,3.6
			c-3.9-2.3-8.5-3.6-13.4-3.6s-9.4,1.3-13.3,3.6c-3.9-2.3-8.5-3.6-13.3-3.6s-9.4,1.3-13.3,3.6c-3.9-2.3-8.5-3.6-13.4-3.6
			s-9.4,1.3-13.3,3.6c-3.9-2.3-8.5-3.6-13.3-3.6s-9.4,1.3-13.3,3.6c-3.9-2.3-8.5-3.6-13.4-3.6s-9.4,1.3-13.3,3.6
			c-3.9-2.3-8.5-3.6-13.3-3.6s-9.4,1.3-13.3,3.6c-3.9-2.3-8.5-3.6-13.4-3.6s-9.4,1.3-13.3,3.6c-3.9-2.3-8.5-3.6-13.3-3.6
			c-14.7,0-26.7,12-26.7,26.7c0,0.5,0,0.9,0.1,1.4c-4.5,4.8-7.2,11.1-7.2,18.2c0,4.9,1.3,9.4,3.6,13.3c-2.3,3.9-3.6,8.5-3.6,13.3
			s1.3,9.4,3.6,13.3c-2.3,3.9-3.6,8.5-3.6,13.3s1.3,9.4,3.6,13.3c-2.3,3.9-3.6,8.5-3.6,13.3s1.3,9.4,3.6,13.3
			c-2.3,3.9-3.6,8.5-3.6,13.3s1.3,9.4,3.6,13.3c-2.3,3.9-3.6,8.5-3.6,13.3s1.3,9.4,3.6,13.3c-2.3,3.9-3.6,8.5-3.6,13.3
			s1.3,9.4,3.6,13.3c-2.3,3.9-3.6,8.5-3.6,13.3s1.3,9.4,3.6,13.3c-1.2,2.1-2.2,4.4-2.8,6.9c-2.8-1-5.7-1.5-8.8-1.5
			c-4.9,0-9.4,1.3-13.4,3.6c-3.9-2.3-8.5-3.6-13.3-3.6s-9.4,1.3-13.3,3.6c-3.9-2.3-8.5-3.6-13.4-3.6s-9.4,1.3-13.3,3.6
			c-3.9-2.3-8.5-3.6-13.3-3.6c-4.9,0-9.4,1.3-13.4,3.6c-3.9-2.3-8.5-3.6-13.3-3.6s-9.4,1.3-13.4,3.6c-3.9-2.3-8.5-3.6-13.3-3.6
			s-9.4,1.3-13.3,3.6c-3.9-2.3-8.5-3.6-13.4-3.6s-9.4,1.3-13.3,3.6c-3.9-2.3-8.5-3.6-13.4-3.6c-3.9,0-7.5,0.8-10.9,2.3
			c-0.6-2.1-1.5-4.1-2.5-5.9c2.3-3.9,3.6-8.5,3.6-13.3s-1.3-9.4-3.6-13.3c2.3-3.9,3.6-8.5,3.6-13.3s-1.3-9.4-3.6-13.3
			c2.3-3.9,3.6-8.5,3.6-13.3s-1.3-9.4-3.6-13.3c2.3-3.9,3.6-8.5,3.6-13.3s-1.3-9.4-3.6-13.3c2.3-3.9,3.6-8.5,3.6-13.3
			s-1.3-9.4-3.6-13.3c2.3-3.9,3.6-8.5,3.6-13.3s-1.3-9.4-3.6-13.3c2.3-3.9,3.6-8.5,3.6-13.3s-1.3-9.4-3.6-13.3
			c2.3-3.9,3.6-8.5,3.6-13.3s-1.3-9.4-3.6-13.3c2.3-3.9,3.6-8.5,3.6-13.3s-1.3-9.4-3.6-13.3c2.3-3.9,3.6-8.5,3.6-13.3
			s-1.3-9.4-3.6-13.3c2.3-3.9,3.6-8.5,3.6-13.3s-1.3-9.4-3.6-13.3c2.3-3.9,3.6-8.5,3.6-13.3s-1.3-9.4-3.6-13.3
			c2.3-3.9,3.6-8.5,3.6-13.3s-1.3-9.4-3.6-13.3c2.3-3.9,3.6-8.5,3.6-13.3s-1.3-9.4-3.6-13.3c2.3-3.9,3.6-8.5,3.6-13.3
			s-1.3-9.4-3.6-13.3c2.3-3.9,3.6-8.5,3.6-13.3s-1.3-9.4-3.6-13.3c2.3-3.9,3.6-8.5,3.6-13.3s-1.3-9.4-3.6-13.3
			c0.2-0.3,0.3-0.5,0.5-0.8c1.4-0.5,2.7-1.2,4-1.9c3.9,2.3,8.5,3.6,13.3,3.6c4.9,0,9.4-1.3,13.4-3.6c3.9,2.3,8.5,3.6,13.3,3.6
			s9.4-1.3,13.4-3.6c3.9,2.3,8.5,3.6,13.3,3.6s9.4-1.3,13.3-3.6c3.9,2.3,8.5,3.6,13.4,3.6s9.4-1.3,13.3-3.6
			c3.9,2.3,8.5,3.6,13.4,3.6s9.4-1.3,13.3-3.6c3.9,2.3,8.5,3.6,13.3,3.6s9.4-1.3,13.4-3.6c3.9,2.3,8.5,3.6,13.3,3.6
			s9.4-1.3,13.4-3.6c3.9,2.3,8.5,3.6,13.3,3.6s9.4-1.3,13.3-3.6c3.9,2.3,8.5,3.6,13.4,3.6c14.7,0,26.7-12,26.7-26.7
			s-12-26.7-26.7-26.7c-4.9,0-9.4,1.3-13.4,3.6c-3.9-2.3-8.5-3.6-13.3-3.6s-9.4,1.3-13.3,3.6c-3.9-2.3-8.5-3.6-13.4-3.6
			s-9.4,1.3-13.3,3.6c-3.9-2.3-8.5-3.6-13.3-3.6c-4.9,0-9.4,1.3-13.4,3.6c-3.9-2.3-8.5-3.6-13.3-3.6s-9.4,1.3-13.4,3.6
			c-3.9-2.3-8.5-3.6-13.3-3.6s-9.4,1.3-13.3,3.6c-3.9-2.3-8.5-3.6-13.4-3.6s-9.4,1.3-13.3,3.6c-3.9-2.3-8.5-3.6-13.4-3.6
			s-9.4,1.3-13.3,3.6c-3.9-2.3-8.5-3.6-13.3-3.6c-4.9,0-9.4,1.3-13.4,3.6c-3.9-2.3-8.5-3.6-13.3-3.6c-10.2,0-19.1,5.8-23.6,14.2
			c-10.1,3.8-17.4,13.5-17.4,25c0,4.9,1.3,9.4,3.6,13.3c-2.3,3.9-3.6,8.5-3.6,13.3s1.3,9.4,3.6,13.3c-2.3,3.9-3.6,8.5-3.6,13.3
			s1.3,9.4,3.6,13.3c-2.3,3.9-3.6,8.5-3.6,13.3s1.3,9.4,3.6,13.3c-2.3,3.9-3.6,8.5-3.6,13.3s1.3,9.4,3.6,13.3
			c-2.3,3.9-3.6,8.5-3.6,13.3s1.3,9.4,3.6,13.3c-2.3,3.9-3.6,8.5-3.6,13.3s1.3,9.4,3.6,13.3c-2.3,3.9-3.6,8.5-3.6,13.3
			s1.3,9.4,3.6,13.3c-2.3,3.9-3.6,8.5-3.6,13.3s1.3,9.4,3.6,13.3c-2.3,3.9-3.6,8.5-3.6,13.3s1.3,9.4,3.6,13.3
			c-2.3,3.9-3.6,8.5-3.6,13.3s1.3,9.4,3.6,13.3c-2.3,3.9-3.6,8.5-3.6,13.3s1.3,9.4,3.6,13.3c-2.3,3.9-3.6,8.5-3.6,13.3
			s1.3,9.4,3.6,13.3c-2.3,3.9-3.6,8.5-3.6,13.3s1.3,9.4,3.6,13.3c-2.3,3.9-3.6,8.5-3.6,13.3s1.3,9.4,3.6,13.3
			c-2.3,3.9-3.6,8.5-3.6,13.3s1.3,9.4,3.6,13.3c-2.3,3.9-3.6,8.5-3.6,13.3s1.3,9.4,3.6,13.3c-2.3,3.9-3.6,8.5-3.6,13.3
			s1.3,9.4,3.6,13.3c-2.3,3.9-3.6,8.5-3.6,13.3c0,8.5,4,16,10.1,20.9c1.9,12.8,13,22.7,26.4,22.7c4.9,0,9.4-1.3,13.4-3.6
			c3.9,2.3,8.5,3.6,13.3,3.6s9.4-1.3,13.3-3.6c3.9,2.3,8.5,3.6,13.4,3.6s9.4-1.3,13.3-3.6c3.9,2.3,8.5,3.6,13.3,3.6
			c4.9,0,9.4-1.3,13.4-3.6c3.9,2.3,8.5,3.6,13.3,3.6s9.4-1.3,13.4-3.6c3.9,2.3,8.5,3.6,13.3,3.6s9.4-1.3,13.3-3.6
			c3.9,2.3,8.5,3.6,13.4,3.6s9.4-1.3,13.3-3.6c3.9,2.3,8.5,3.6,13.4,3.6s9.4-1.3,13.3-3.6c3.9,2.3,8.5,3.6,13.3,3.6
			s9.4-1.3,13.4-3.6c3.9,2.3,8.5,3.6,13.3,3.6c14.6,0,26.5-11.8,26.7-26.3c4.9-4.8,8-11.6,8-19.1c0-4.9-1.3-9.4-3.6-13.3
			c2.3-3.9,3.6-8.5,3.6-13.3s-1.3-9.4-3.6-13.3c2.3-3.9,3.6-8.5,3.6-13.3s-1.3-9.4-3.6-13.3c2.3-3.9,3.6-8.5,3.6-13.3
			s-1.3-9.4-3.6-13.3c2.3-3.9,3.6-8.5,3.6-13.3s-1.3-9.4-3.6-13.3c2.3-3.9,3.6-8.5,3.6-13.3s-1.3-9.4-3.6-13.3
			c2.3-3.9,3.6-8.5,3.6-13.3s-1.3-9.4-3.6-13.3c2.3-3.9,3.6-8.5,3.6-13.3s-1.3-9.4-3.6-13.3c1.3-2.3,2.3-4.8,2.9-7.4
			c2.5,0.8,5.1,1.2,7.8,1.2c4.9,0,9.4-1.3,13.3-3.6c3.9,2.3,8.5,3.6,13.4,3.6s9.4-1.3,13.3-3.6c3.9,2.3,8.5,3.6,13.3,3.6
			s9.4-1.3,13.3-3.6c3.9,2.3,8.5,3.6,13.4,3.6s9.4-1.3,13.3-3.6c3.9,2.3,8.5,3.6,13.3,3.6s9.4-1.3,13.3-3.6
			c3.9,2.3,8.5,3.6,13.4,3.6s9.4-1.3,13.3-3.6c3.9,2.3,8.5,3.6,13.3,3.6s9.4-1.3,13.3-3.6c3.9,2.3,8.5,3.6,13.4,3.6
			s9.4-1.3,13.3-3.6c3.9,2.3,8.5,3.6,13.3,3.6s9.4-1.3,13.3-3.6c3.9,2.3,8.5,3.6,13.4,3.6s9.4-1.3,13.3-3.6
			c3.9,2.3,8.5,3.6,13.3,3.6s9.4-1.3,13.3-3.6c3.9,2.3,8.5,3.6,13.4,3.6s9.4-1.3,13.3-3.6c3.9,2.3,8.5,3.6,13.3,3.6
			s9.4-1.3,13.3-3.6c3.9,2.3,8.5,3.6,13.4,3.6s9.4-1.3,13.3-3.6c3.9,2.3,8.5,3.6,13.3,3.6s9.4-1.3,13.3-3.6
			c3.9,2.3,8.5,3.6,13.3,3.6s9.4-1.3,13.3-3.6c3.9,2.3,8.5,3.6,13.3,3.6s9.4-1.3,13.3-3.6c1.5,0.9,3.1,1.6,4.8,2.2
			c-2,3.7-3.1,7.9-3.1,12.3c0,4.8,1.3,9.4,3.6,13.3c-2.3,3.9-3.6,8.5-3.6,13.3s1.3,9.4,3.6,13.3c-2.3,3.9-3.6,8.5-3.6,13.3
			s1.3,9.4,3.6,13.3c-2.3,3.9-3.6,8.5-3.6,13.3s1.3,9.4,3.6,13.3c-2.3,3.9-3.6,8.5-3.6,13.3s1.3,9.4,3.6,13.3
			c-2.3,3.9-3.6,8.5-3.6,13.3s1.3,9.4,3.6,13.3c-2.3,3.9-3.6,8.5-3.6,13.3s1.3,9.4,3.6,13.3c-2.3,3.9-3.6,8.5-3.6,13.3
			c0,1.2,0.1,2.4,0.3,3.6l0.8,2.9c-0.7,0.3-1.3,0.7-1.9,1c-3.9-2.3-8.5-3.6-13.3-3.6s-9.4,1.3-13.3,3.6c-3.9-2.3-8.5-3.6-13.3-3.6
			s-9.4,1.3-13.3,3.6c-3.9-2.3-8.5-3.6-13.3-3.6s-9.4,1.3-13.3,3.6c-3.9-2.3-8.5-3.6-13.4-3.6s-9.4,1.3-13.3,3.6
			c-3.9-2.3-8.5-3.6-13.3-3.6s-9.4,1.3-13.3,3.6c-3.9-2.3-8.5-3.6-13.4-3.6s-9.4,1.3-13.3,3.6c-3.9-2.3-8.5-3.6-13.3-3.6
			s-9.4,1.3-13.3,3.6c-3.9-2.3-8.5-3.6-13.4-3.6c-5.4,0-10.4,1.6-14.6,4.4c-2.9-1.1-6.1-1.7-9.4-1.7c-14.7,0-26.7,12-26.7,26.7
			c0,4.9,1.3,9.4,3.6,13.3c-2.3,3.9-3.6,8.5-3.6,13.3s1.3,9.4,3.6,13.3c-2.3,3.9-3.6,8.5-3.6,13.3s1.3,9.4,3.6,13.3
			c-2.3,3.9-3.6,8.5-3.6,13.3s1.3,9.4,3.6,13.3c-2.3,3.9-3.6,8.5-3.6,13.3s1.3,9.4,3.6,13.3c-2.3,3.9-3.6,8.5-3.6,13.3
			s1.3,9.4,3.6,13.3c-2.3,3.9-3.6,8.5-3.6,13.3s1.3,9.4,3.6,13.3c-2.3,3.9-3.6,8.5-3.6,13.3s1.3,9.4,3.6,13.3
			c-2.3,3.9-3.6,8.5-3.6,13.3s1.3,9.4,3.6,13.3c-2.3,3.9-3.6,8.5-3.6,13.3s1.3,9.4,3.6,13.3c-2.3,3.9-3.6,8.5-3.6,13.3
			s1.3,9.4,3.6,13.3c-2.3,3.9-3.6,8.5-3.6,13.3s1.3,9.4,3.6,13.3c-2.3,3.9-3.6,8.5-3.6,13.3s1.3,9.4,3.6,13.3
			c-2.3,3.9-3.6,8.5-3.6,13.3s1.3,9.4,3.6,13.3c-2.3,3.9-3.6,8.5-3.6,13.3s1.3,9.4,3.6,13.3c-2.3,3.9-3.6,8.5-3.6,13.3
			s1.3,9.4,3.6,13.3c-2.3,3.9-3.6,8.5-3.6,13.3s1.3,9.4,3.6,13.3c-2.3,3.9-3.6,8.5-3.6,13.3s1.3,9.4,3.6,13.3
			c-2.3,3.9-3.6,8.5-3.6,13.3s1.3,9.4,3.6,13.3c-2.3,3.9-3.6,8.5-3.6,13.3c0,14.7,12,26.7,26.7,26.7s26.7-12,26.7-26.7
			c0-4.9-1.3-9.4-3.6-13.3c2.3-3.9,3.6-8.5,3.6-13.3s-1.3-9.4-3.6-13.3c2.3-3.9,3.6-8.5,3.6-13.3s-1.3-9.4-3.6-13.3
			c2.3-3.9,3.6-8.5,3.6-13.3s-1.3-9.4-3.6-13.3c2.3-3.9,3.6-8.5,3.6-13.3s-1.3-9.4-3.6-13.3c2.3-3.9,3.6-8.5,3.6-13.3
			s-1.3-9.4-3.6-13.3c2.3-3.9,3.6-8.5,3.6-13.3s-1.3-9.4-3.6-13.3c2.3-3.9,3.6-8.5,3.6-13.3s-1.3-9.4-3.6-13.3
			c2.3-3.9,3.6-8.5,3.6-13.3s-1.3-9.4-3.6-13.3c2.3-3.9,3.6-8.5,3.6-13.3s-1.3-9.4-3.6-13.3c2.3-3.9,3.6-8.5,3.6-13.3
			s-1.3-9.4-3.6-13.3c2.3-3.9,3.6-8.5,3.6-13.3s-1.3-9.4-3.6-13.3c2.3-3.9,3.6-8.5,3.6-13.3s-1.3-9.4-3.6-13.3
			c2.3-3.9,3.6-8.5,3.6-13.3s-1.3-9.4-3.6-13.3c2.3-3.9,3.6-8.5,3.6-13.3s-1.3-9.4-3.6-13.3c2.3-3.9,3.6-8.5,3.6-13.3
			s-1.3-9.4-3.6-13.3c2.3-3.9,3.6-8.5,3.6-13.3s-1.3-9.4-3.6-13.3c2.3-3.9,3.6-8.5,3.6-13.3s-1.3-9.4-3.6-13.3
			c2.3-3.9,3.6-8.5,3.6-13.3c0-0.9,0-1.9-0.1-2.8c3.9-0.4,7.6-1.6,10.8-3.5c3.9,2.3,8.5,3.6,13.3,3.6s9.4-1.3,13.3-3.6
			c3.9,2.3,8.5,3.6,13.3,3.6s9.4-1.3,13.4-3.6c3.9,2.3,8.5,3.6,13.3,3.6s9.4-1.3,13.3-3.6c3.9,2.3,8.5,3.6,13.3,3.6
			s9.4-1.3,13.4-3.6c3.9,2.3,8.5,3.6,13.3,3.6s9.4-1.3,13.3-3.6c3.9,2.3,8.5,3.6,13.3,3.6s9.4-1.3,13.3-3.6
			c3.9,2.3,8.5,3.6,13.3,3.6s9.4-1.3,13.3-3.6c3.9,2.3,8.5,3.6,13.3,3.6c5.1,0,9.8-1.4,13.9-3.9l0,0c0.1,0,0.3,0,0.4,0
			c14.7,0,26.7-12,26.7-26.7c0-4.9-1.3-9.4-3.6-13.3c2.3-3.9,3.6-8.5,3.6-13.3s-1.3-9.4-3.6-13.3c2.3-3.9,3.6-8.5,3.6-13.3
			s-1.3-9.4-3.6-13.3c2.3-3.9,3.6-8.5,3.6-13.3s-1.3-9.4-3.6-13.3c2.3-3.9,3.6-8.5,3.6-13.3s-1.3-9.4-3.6-13.3
			c2.3-3.9,3.6-8.5,3.6-13.3s-1.3-9.4-3.6-13.3c2.3-3.9,3.6-8.5,3.6-13.3s-1.3-9.4-3.6-13.3c2.3-3.9,3.6-8.5,3.6-13.3
			s-1.3-9.4-3.6-13.3c2.3-3.9,3.6-8.5,3.6-13.3s-1.3-9.4-3.6-13.3c2.3-3.9,3.6-8.5,3.6-13.3
			C1551.6,1055.9,1550.6,1052.1,1549,1048.6z"/>
	</g>
	<path class="st0" d="M1808.9,266.3c0-4.8-1.3-9.4-3.6-13.3c1.9-3.2,3.1-6.8,3.4-10.6c0-0.1,0-0.1,0-0.2c0-0.4,0.1-0.8,0.1-1.1
		s0-0.7,0-1c0-0.1,0-0.3,0-0.4l0,0c0,0,0,0,0-0.1c0-4.9-1.3-9.4-3.6-13.3c2.3-3.9,3.6-8.5,3.6-13.3l0,0l0,0c0-4.8-1.3-9.4-3.6-13.3
		c2.3-3.9,3.6-8.5,3.6-13.3l0,0l0,0c0-4.8-1.3-9.4-3.6-13.3c2.3-3.9,3.6-8.5,3.6-13.3l0,0l0,0c0-4.8-1.3-9.4-3.6-13.3
		c2.3-3.9,3.6-8.5,3.6-13.3l0,0l0,0c0-4.8-1.3-9.4-3.6-13.3c2.3-3.9,3.6-8.5,3.6-13.3l0,0l0,0c0-4.8-1.3-9.4-3.6-13.3
		c2.3-3.9,3.6-8.5,3.6-13.3l0,0l0,0c0-4.8-1.3-9.4-3.6-13.3c2.3-3.9,3.6-8.4,3.6-13.3c0,0,0,0,0-0.1l0,0c0-0.1,0-0.3,0-0.4
		c0-0.3,0-0.7,0-1c0-0.4-0.1-0.8-0.1-1.1c0-0.1,0-0.1,0-0.2c-0.4-3.8-1.6-7.4-3.4-10.6c2.3-3.9,3.6-8.5,3.6-13.3
		c0-14.7-12-26.7-26.7-26.7s-26.7,12-26.7,26.7c0,4.9,1.3,9.4,3.6,13.3c-1.9,3.2-3,6.8-3.4,10.6c0,0.1,0,0.2,0,0.2
		c0,0.4-0.1,0.7-0.1,1.1s0,0.7,0,1.1c0,0.1,0,0.2,0,0.3l0,0c0,0,0,0,0,0.1c0,4.8,1.3,9.4,3.6,13.3c-2.3,3.9-3.6,8.5-3.6,13.3l0,0
		l0,0c0,4.8,1.3,9.4,3.6,13.3c-2.3,3.9-3.6,8.5-3.6,13.3l0,0l0,0c0,4.8,1.3,9.4,3.6,13.3c-2.3,3.9-3.6,8.5-3.6,13.3l0,0l0,0
		c0,4.8,1.3,9.4,3.6,13.3c-2.3,3.9-3.6,8.5-3.6,13.3l0,0l0,0c0,4.8,1.3,9.4,3.6,13.3c-2.3,3.9-3.6,8.5-3.6,13.3l0,0l0,0
		c0,4.8,1.3,9.4,3.6,13.3c-2.3,3.9-3.6,8.5-3.6,13.3l0,0l0,0c0,4.8,1.3,9.4,3.6,13.3c-2.3,3.9-3.6,8.5-3.6,13.3c0,0,0,0,0,0.1l0,0
		c0,0.1,0,0.2,0,0.3c0,0.4,0,0.7,0,1.1s0.1,0.7,0.1,1.1c0,0.1,0,0.2,0,0.2c0.4,3.8,1.6,7.4,3.4,10.6c-2.3,3.9-3.6,8.4-3.6,13.3
		c0,14.7,12,26.7,26.7,26.7S1808.9,281,1808.9,266.3z"/>
	<g>
		<path class="st0" d="M2285.7,1529.3c-4.9,0-9.4,1.3-13.4,3.6c-3.9-2.3-8.5-3.6-13.3-3.6c-4.9,0-9.4,1.3-13.4,3.6
			c-3.9-2.3-8.5-3.6-13.3-3.6c-4.9,0-9.4,1.3-13.4,3.6c-3.9-2.3-8.5-3.6-13.3-3.6c-4.9,0-9.4,1.3-13.4,3.6
			c-3.9-2.3-8.5-3.6-13.3-3.6c-4.9,0-9.4,1.3-13.4,3.6c-3.9-2.3-8.5-3.6-13.3-3.6c-4.9,0-9.4,1.3-13.4,3.6
			c-3.9-2.3-8.5-3.6-13.3-3.6c-4.9,0-9.4,1.3-13.4,3.6c-3.9-2.3-8.5-3.6-13.3-3.6c-4.9,0-9.4,1.3-13.4,3.6
			c-3.9-2.3-8.5-3.6-13.3-3.6c-4.9,0-9.4,1.3-13.4,3.6c-3.9-2.3-8.5-3.6-13.3-3.6c-4.9,0-9.4,1.3-13.3,3.6
			c-3.9-2.3-8.5-3.6-13.3-3.6s-9.4,1.3-13.3,3.6c-3.9-2.3-8.5-3.6-13.3-3.6s-9.4,1.3-13.3,3.6c-3.9-2.3-8.5-3.6-13.3-3.6
			s-9.4,1.3-13.3,3.6c-3.9-2.3-8.5-3.6-13.3-3.6s-9.4,1.3-13.3,3.6c-3.9-2.3-8.5-3.6-13.3-3.6s-9.4,1.3-13.4,3.6
			c-3.9-2.3-8.5-3.6-13.3-3.6s-9.4,1.3-13.3,3.6c-3.9-2.3-8.5-3.6-13.3-3.6s-9.4,1.3-13.4,3.6c-3.9-2.3-8.5-3.6-13.3-3.6
			s-9.4,1.3-13.3,3.6c-2.8-1.6-6-2.8-9.3-3.3c0.3-1.6,0.4-3.2,0.4-4.8c0-4.9-1.3-9.4-3.6-13.3c2.3-3.9,3.6-8.5,3.6-13.3
			s-1.3-9.4-3.6-13.3c2.3-3.9,3.6-8.5,3.6-13.3s-1.3-9.4-3.6-13.3c2.3-3.9,3.6-8.5,3.6-13.3s-1.3-9.4-3.6-13.3
			c2.3-3.9,3.6-8.5,3.6-13.3s-1.3-9.4-3.6-13.3c2.3-3.9,3.6-8.5,3.6-13.3s-1.3-9.4-3.6-13.3c2.3-3.9,3.6-8.5,3.6-13.3
			s-1.3-9.4-3.6-13.3c2.3-3.9,3.6-8.5,3.6-13.3s-1.3-9.4-3.6-13.3c2.3-3.9,3.6-8.5,3.6-13.3c0-14.7-12-26.7-26.7-26.7
			s-26.7,12-26.7,26.8c0,4.9,1.3,9.4,3.6,13.3c-2.3,3.9-3.6,8.5-3.6,13.3s1.3,9.4,3.6,13.3c-2.3,3.9-3.6,8.5-3.6,13.3
			s1.3,9.4,3.6,13.3c-2.3,3.9-3.6,8.5-3.6,13.3s1.3,9.4,3.6,13.3c-2.3,3.9-3.6,8.5-3.6,13.3s1.3,9.4,3.6,13.3
			c-2.3,3.9-3.6,8.5-3.6,13.3s1.3,9.4,3.6,13.3c-2.3,3.9-3.6,8.5-3.6,13.3s1.3,9.4,3.6,13.3c-2.3,3.9-3.6,8.5-3.6,13.3
			s1.3,9.4,3.6,13.3c-2.3,3.9-3.6,8.5-3.6,13.3s1.3,9.4,3.6,13.3c-2.3,3.9-3.6,8.5-3.6,13.3c0,14.7,12,26.7,26.7,26.7
			c2.2,0,4.3-0.3,6.4-0.8c4.4,3.3,9.9,5.3,15.9,5.3c4.9,0,9.4-1.3,13.3-3.6c3.9,2.3,8.5,3.6,13.3,3.6s9.4-1.3,13.3-3.6
			c3.9,2.3,8.5,3.6,13.4,3.6s9.4-1.3,13.3-3.6c3.9,2.3,8.5,3.6,13.3,3.6s9.4-1.3,13.3-3.6c3.9,2.3,8.5,3.6,13.4,3.6
			s9.4-1.3,13.3-3.6c3.9,2.3,8.5,3.6,13.3,3.6s9.4-1.3,13.3-3.6c3.9,2.3,8.5,3.6,13.3,3.6s9.4-1.3,13.3-3.6
			c3.9,2.3,8.5,3.6,13.3,3.6s9.4-1.3,13.3-3.6c3.9,2.3,8.5,3.6,13.3,3.6s9.4-1.3,13.3-3.6c3.9,2.3,8.5,3.6,13.3,3.6
			c4.9,0,9.4-1.3,13.3-3.6c3.9,2.3,8.5,3.6,13.4,3.6s9.4-1.3,13.3-3.6c3.9,2.3,8.5,3.6,13.4,3.6s9.4-1.3,13.3-3.6
			c3.9,2.3,8.5,3.6,13.4,3.6s9.4-1.3,13.3-3.6c3.9,2.3,8.5,3.6,13.4,3.6s9.4-1.3,13.3-3.6c3.9,2.3,8.5,3.6,13.4,3.6
			s9.4-1.3,13.3-3.6c3.9,2.3,8.5,3.6,13.4,3.6s9.4-1.3,13.3-3.6c3.9,2.3,8.5,3.6,13.4,3.6s9.4-1.3,13.3-3.6
			c3.9,2.3,8.5,3.6,13.4,3.6s9.4-1.3,13.3-3.6c3.9,2.3,8.5,3.6,13.4,3.6c14.7,0,26.7-12,26.7-26.7S2300.4,1529.3,2285.7,1529.3z"/>
		<path class="st0" d="M1782.3,558.4c2.8,0,5.4-0.4,7.9-1.2c4.3,3,9.6,4.8,15.2,4.8c4.9,0,9.4-1.3,13.3-3.6
			c3.9,2.3,8.5,3.6,13.4,3.6s9.4-1.3,13.3-3.6c3.9,2.3,8.5,3.6,13.3,3.6s9.4-1.3,13.3-3.6c3.9,2.3,8.5,3.6,13.4,3.6
			s9.4-1.3,13.3-3.6c3.9,2.3,8.5,3.6,13.3,3.6s9.4-1.3,13.3-3.6c3.9,2.3,8.5,3.6,13.3,3.6s9.4-1.3,13.3-3.6
			c3.9,2.3,8.5,3.6,13.3,3.6s9.4-1.3,13.3-3.6c3.9,2.3,8.5,3.6,13.3,3.6s9.4-1.3,13.3-3.6c3.9,2.3,8.5,3.6,13.3,3.6
			s9.4-1.3,13.3-3.6c3.9,2.3,8.5,3.6,13.3,3.6c4.9,0,9.4-1.3,13.4-3.6c3.9,2.3,8.5,3.6,13.3,3.6c4.9,0,9.4-1.3,13.4-3.6
			c3.9,2.3,8.5,3.6,13.3,3.6c4.9,0,9.4-1.3,13.4-3.6c3.9,2.3,8.5,3.6,13.3,3.6c4.9,0,9.4-1.3,13.4-3.6c3.9,2.3,8.5,3.6,13.3,3.6
			c4.9,0,9.4-1.3,13.4-3.6c3.9,2.3,8.5,3.6,13.3,3.6c4.9,0,9.4-1.3,13.4-3.6c3.9,2.3,8.5,3.6,13.3,3.6c4.9,0,9.4-1.3,13.4-3.6
			c3.9,2.3,8.5,3.6,13.3,3.6c4.9,0,9.4-1.3,13.4-3.6c3.9,2.3,8.5,3.6,13.3,3.6c4.9,0,9.4-1.3,13.4-3.6c3.9,2.3,8.5,3.6,13.3,3.6
			c14.7,0,26.7-12,26.7-26.7s-12-26.7-26.7-26.7c-4.9,0-9.4,1.3-13.3,3.6c-3.9-2.3-8.5-3.6-13.4-3.6s-9.4,1.3-13.3,3.6
			c-3.9-2.3-8.5-3.6-13.4-3.6s-9.4,1.3-13.3,3.6c-3.9-2.3-8.5-3.6-13.4-3.6s-9.4,1.3-13.3,3.6c-3.9-2.3-8.5-3.6-13.4-3.6
			s-9.4,1.3-13.3,3.6c-3.9-2.3-8.5-3.6-13.4-3.6s-9.4,1.3-13.3,3.6c-3.9-2.3-8.5-3.6-13.4-3.6s-9.4,1.3-13.3,3.6
			c-3.9-2.3-8.5-3.6-13.4-3.6s-9.4,1.3-13.3,3.6c-3.9-2.3-8.5-3.6-13.4-3.6s-9.4,1.3-13.3,3.6c-3.9-2.3-8.5-3.6-13.4-3.6
			s-9.4,1.3-13.3,3.6c-3.9-2.3-8.5-3.6-13.3-3.6s-9.4,1.3-13.3,3.6c-3.9-2.3-8.5-3.6-13.3-3.6s-9.4,1.3-13.3,3.6
			c-3.9-2.3-8.5-3.6-13.3-3.6s-9.4,1.3-13.3,3.6c-3.9-2.3-8.5-3.6-13.3-3.6s-9.4,1.3-13.3,3.6c-3.9-2.3-8.5-3.6-13.3-3.6
			s-9.4,1.3-13.3,3.6c-3.9-2.3-8.5-3.6-13.3-3.6s-9.4,1.3-13.3,3.6c-3.9-2.3-8.5-3.6-13.4-3.6s-9.4,1.3-13.3,3.6
			c-3.9-2.3-8.5-3.6-13.3-3.6s-9.4,1.3-13.3,3.6c-3-1.8-6.4-2.9-10.1-3.4c0.2-1.2,0.3-2.5,0.3-3.8c0-4.9-1.3-9.4-3.6-13.3
			c2.3-3.9,3.6-8.5,3.6-13.3s-1.3-9.4-3.6-13.4c2.3-3.9,3.6-8.5,3.6-13.4s-1.3-9.4-3.6-13.4c2.3-3.9,3.6-8.5,3.6-13.4
			s-1.3-9.4-3.6-13.4c2.3-3.9,3.6-8.5,3.6-13.4s-1.3-9.4-3.6-13.4c2.3-3.9,3.6-8.5,3.6-13.4s-1.3-9.4-3.6-13.4
			c2.3-3.9,3.6-8.5,3.6-13.4s-1.3-9.4-3.6-13.4c2.3-3.9,3.6-8.5,3.6-13.4s-1.3-9.4-3.6-13.4c2.3-3.9,3.6-8.5,3.6-13.4
			c0-12.8-9-23.4-20.9-26.1c-4.8-6.8-12.8-11.3-21.8-11.3c-4.9,0-9.4,1.3-13.4,3.6c-3.9-2.3-8.5-3.6-13.3-3.6s-9.4,1.3-13.3,3.6
			c-3.9-2.3-8.5-3.6-13.3-3.6s-9.4,1.3-13.4,3.6c-3.9-2.3-8.5-3.6-13.3-3.6s-9.4,1.3-13.3,3.6c-3.9-2.3-8.5-3.6-13.3-3.6
			s-9.4,1.3-13.4,3.6c-3.9-2.3-8.5-3.6-13.3-3.6s-9.4,1.3-13.3,3.6c-3.9-2.3-8.5-3.6-13.3-3.6s-9.4,1.3-13.4,3.6
			c-3.9-2.3-8.5-3.6-13.3-3.6s-9.3,1.3-13.1,3.5c-3.9-2.2-8.4-3.5-13.2-3.5c-4.9,0-9.4,1.3-13.3,3.6c-3.9-2.3-8.5-3.6-13.3-3.6
			c-14.7,0-26.7,11.9-26.7,26.7c0,4.1,0.9,7.9,2.5,11.3c-0.1,0.8-0.3,1.7-0.3,2.5c-0.1,0.9-0.2,1.9-0.2,2.9c0,4.8,1.2,9.2,3.4,13.1
			c-1.9,3.4-3,7.1-3.3,11.2c-0.1,0.8-0.1,1.7-0.1,2.5c0,4.9,1.3,9.4,3.6,13.4c-2.3,3.9-3.6,8.5-3.6,13.4s1.3,9.4,3.6,13.4
			c-2.3,3.9-3.6,8.5-3.6,13.4s1.3,9.4,3.6,13.4c-2.3,3.9-3.6,8.5-3.6,13.4s1.3,9.4,3.6,13.4c-2.3,3.9-3.6,8.5-3.6,13.4
			s1.3,9.4,3.6,13.4c-2.3,3.9-3.6,8.5-3.6,13.4s1.3,9.4,3.6,13.4c-2.3,3.9-3.6,8.5-3.6,13.4s1.3,9.4,3.6,13.3
			c-2,3.5-3.3,7.4-3.5,11.7c-0.6,0-1.3-0.1-1.9-0.1c-4.9,0-9.4,1.3-13.3,3.6c-3.9-2.3-8.5-3.6-13.3-3.6s-9.4,1.3-13.3,3.6
			c-3.9-2.3-8.5-3.6-13.4-3.6s-9.4,1.3-13.3,3.6c-3.9-2.3-8.5-3.6-13.3-3.6s-9.4,1.3-13.3,3.6c-3.9-2.3-8.5-3.6-13.3-3.6
			c-4.9,0-9.4,1.3-13.4,3.6c-3.9-2.3-8.5-3.6-13.3-3.6s-9.4,1.3-13.3,3.6c-3.9-2.3-8.5-3.6-13.3-3.6s-9.4,1.3-13.3,3.6
			c-3.9-2.3-8.5-3.6-13.4-3.6s-9.4,1.3-13.3,3.6c-0.3-0.2-0.5-0.3-0.8-0.5c-0.5-1.4-1.1-2.7-1.9-4c2.3-3.9,3.6-8.5,3.6-13.3
			s-1.3-9.4-3.6-13.3c2.3-3.9,3.6-8.5,3.6-13.4s-1.3-9.4-3.6-13.4c2.3-3.9,3.6-8.5,3.6-13.4s-1.3-9.4-3.6-13.4
			c2.3-3.9,3.6-8.5,3.6-13.4s-1.3-9.4-3.6-13.4c2.3-3.9,3.6-8.5,3.6-13.4s-1.3-9.4-3.6-13.4c2.3-3.9,3.6-8.5,3.6-13.4
			s-1.3-9.4-3.6-13.4c2.3-3.9,3.6-8.5,3.6-13.4s-1.3-9.4-3.6-13.4c2.3-3.9,3.6-8.5,3.6-13.4s-1.3-9.4-3.6-13.4
			c2.3-3.9,3.6-8.5,3.6-13.4c0-14.7-12-26.7-26.7-26.7s-26.7,12-26.7,26.7c0,4.9,1.3,9.4,3.6,13.4c-2.3,3.9-3.6,8.5-3.6,13.4
			s1.3,9.4,3.6,13.4c-2.3,3.9-3.6,8.5-3.6,13.4s1.3,9.4,3.6,13.4c-2.3,3.9-3.6,8.5-3.6,13.4s1.3,9.4,3.6,13.4
			c-2.3,3.9-3.6,8.5-3.6,13.4s1.3,9.4,3.6,13.4c-2.3,3.9-3.6,8.5-3.6,13.4s1.3,9.4,3.6,13.4c-2.3,3.9-3.6,8.5-3.6,13.4
			s1.3,9.4,3.6,13.4c-2.3,3.9-3.6,8.5-3.6,13.4s1.3,9.4,3.6,13.4c-2.3,3.9-3.6,8.5-3.6,13.3s1.3,9.4,3.6,13.3
			c-2.3,3.9-3.6,8.5-3.6,13.3c0,10.2,5.8,19.1,14.2,23.6c3.8,10.2,13.5,17.4,25,17.4c4.9,0,9.4-1.3,13.3-3.6
			c3.9,2.3,8.5,3.6,13.3,3.6s9.4-1.3,13.4-3.6c3.9,2.3,8.5,3.6,13.3,3.6s9.4-1.3,13.3-3.6c3.9,2.3,8.5,3.6,13.3,3.6
			s9.4-1.3,13.3-3.6c3.9,2.3,8.5,3.6,13.4,3.6s9.4-1.3,13.3-3.6c3.9,2.3,8.5,3.6,13.3,3.6s9.4-1.3,13.3-3.6
			c3.9,2.3,8.5,3.6,13.3,3.6s9.4-1.3,13.4-3.6c3.9,2.3,8.5,3.6,13.3,3.6s9.4-1.3,13.3-3.6c3.9,2.3,8.5,3.6,13.3,3.6
			s9.4-1.3,13.3-3.6c3.9,2.3,8.5,3.6,13.4,3.6c14.7,0,26.7-12,26.7-26.7c0-3.8-0.8-7.5-2.3-10.8c2.6-4.1,4.1-8.9,4.1-14.1
			c0-4.9-1.3-9.4-3.6-13.3c2.3-3.9,3.6-8.5,3.6-13.3s-1.3-9.4-3.6-13.4c2.3-3.9,3.6-8.5,3.6-13.4s-1.3-9.4-3.6-13.4
			c2.3-3.9,3.6-8.5,3.6-13.4s-1.3-9.4-3.6-13.4c2.3-3.9,3.6-8.5,3.6-13.4s-1.3-9.4-3.6-13.4c2.3-3.9,3.6-8.5,3.6-13.4
			s-1.3-9.4-3.6-13.4c2.3-3.9,3.6-8.5,3.6-13.4s-1.3-9.4-3.6-13.4c2.3-3.9,3.6-8.5,3.6-13.4c0-0.1,0-0.2,0-0.3c0-0.2,0-0.3,0-0.5
			c0-4.7-1.2-9.1-3.4-13c0.4-0.8,0.8-1.5,1.2-2.3c0.2,0,0.3,0,0.5,0c4.9,0,9.4-1.3,13.3-3.6c3.1,1.8,7.8,3,12.6,3
			c4.9,0,9.4-1.3,13.3-3.6c3.9,2.3,8.5,3.6,13.3,3.6s9.4-1.3,13.3-3.6c3.9,2.3,8.5,3.6,13.4,3.6s9.4-1.3,13.3-3.6
			c3.9,2.3,8.5,3.6,13.3,3.6s9.4-1.3,13.3-3.6c3.9,2.3,8.5,3.6,13.4,3.6s9.4-1.3,13.3-3.6c3.9,2.3,8.5,3.6,13.3,3.6
			s9.4-1.3,13.3-3.6c3.9,2.3,8.5,3.6,13.4,3.6s9.4-1.3,13.3-3.6c1.7,1,3.5,1.8,5.5,2.4c-1.8,3.6-2.8,7.6-2.8,11.9
			c0,4.9,1.3,9.4,3.6,13.4c-2.3,3.9-3.6,8.5-3.6,13.4s1.3,9.4,3.6,13.4c-2.3,3.9-3.6,8.5-3.6,13.4s1.3,9.4,3.6,13.4
			c-2.3,3.9-3.6,8.5-3.6,13.4s1.3,9.4,3.6,13.4c-2.3,3.9-3.6,8.5-3.6,13.4s1.3,9.4,3.6,13.4c-2.3,3.9-3.6,8.5-3.6,13.4
			s1.3,9.4,3.6,13.4c-2.3,3.9-3.6,8.5-3.6,13.4s1.3,9.4,3.6,13.3c-2.3,3.9-3.6,8.5-3.6,13.3s1.3,9.4,3.6,13.3
			c-2.3,3.9-3.6,8.5-3.6,13.3C1755.6,546.4,1767.6,558.4,1782.3,558.4z"/>
	</g>
	<path class="st0" d="M1524.8,771.5c-4.8,0-9.4,1.3-13.3,3.6c-3.2-1.9-6.8-3.1-10.6-3.4c-0.1,0-0.1,0-0.2,0c-0.4,0-0.8-0.1-1.1-0.1
		c-0.3,0-0.7,0-1,0c-0.1,0-0.3,0-0.4,0l0,0c0,0,0,0-0.1,0c-4.9,0-9.4,1.3-13.3,3.6c-3.9-2.3-8.5-3.6-13.3-3.6l0,0l0,0
		c-4.8,0-9.4,1.3-13.3,3.6c-3.9-2.3-8.5-3.6-13.3-3.6l0,0l0,0c-4.8,0-9.4,1.3-13.3,3.6c-3.9-2.3-8.5-3.6-13.3-3.6l0,0l0,0
		c-4.8,0-9.4,1.3-13.3,3.6c-3.9-2.3-8.5-3.6-13.3-3.6l0,0l0,0c-4.8,0-9.4,1.3-13.3,3.6c-3.9-2.3-8.5-3.6-13.3-3.6l0,0l0,0
		c-4.8,0-9.4,1.3-13.3,3.6c-3.9-2.3-8.5-3.6-13.3-3.6l0,0l0,0c-4.8,0-9.4,1.3-13.3,3.6c-3.9-2.3-8.4-3.6-13.3-3.6c0,0,0,0-0.1,0l0,0
		c-0.1,0-0.3,0-0.4,0c-0.3,0-0.7,0-1,0c-0.4,0-0.8,0.1-1.1,0.1c-0.1,0-0.1,0-0.2,0c-3.8,0.4-7.4,1.6-10.6,3.4
		c-3.9-2.3-8.5-3.6-13.3-3.6c-14.7,0-26.7,12-26.7,26.7s12,26.7,26.7,26.7c4.9,0,9.4-1.3,13.3-3.6c3.2,1.9,6.8,3,10.6,3.4
		c0.1,0,0.2,0,0.2,0c0.4,0,0.7,0.1,1.1,0.1s0.7,0,1.1,0c0.1,0,0.2,0,0.3,0l0,0c0,0,0,0,0.1,0c4.8,0,9.4-1.3,13.3-3.6
		c3.9,2.3,8.5,3.6,13.3,3.6l0,0l0,0c4.8,0,9.4-1.3,13.3-3.6c3.9,2.3,8.5,3.6,13.3,3.6l0,0l0,0c4.8,0,9.4-1.3,13.3-3.6
		c3.9,2.3,8.5,3.6,13.3,3.6l0,0l0,0c4.8,0,9.4-1.3,13.3-3.6c3.9,2.3,8.5,3.6,13.3,3.6l0,0l0,0c4.8,0,9.4-1.3,13.3-3.6
		c3.9,2.3,8.5,3.6,13.3,3.6l0,0l0,0c4.8,0,9.4-1.3,13.3-3.6c3.9,2.3,8.5,3.6,13.3,3.6l0,0l0,0c4.8,0,9.4-1.3,13.3-3.6
		c3.9,2.3,8.5,3.6,13.3,3.6c0,0,0,0,0.1,0l0,0c0.1,0,0.2,0,0.3,0c0.4,0,0.7,0,1.1,0s0.7-0.1,1.1-0.1c0.1,0,0.2,0,0.2,0
		c3.8-0.4,7.4-1.6,10.6-3.4c3.9,2.3,8.4,3.6,13.3,3.6c14.7,0,26.7-12,26.7-26.7S1539.5,771.5,1524.8,771.5z"/>
</g>
<path class="st1" d="M888.5,424.3h-96c-7.2,0-13,5.8-13,13s5.8,13,13,13h-30c-7.2,0-13,5.8-13,13s5.8,13,13,13h96
	c7.2,0,13-5.8,13-13s-5.8-13-13-13h30c7.2,0,13-5.8,13-13C901.5,430.1,895.7,424.3,888.5,424.3z"/>
<path class="st1" d="M761.9,376.3h-25c7.2,0,13-5.8,13-13s-5.8-13-13-13h-111c-7.2,0-13,5.8-13,13s5.8,13,13,13h40
	c-7.2,0-13,5.8-13,13s5.8,13,13,13h-40c-7.2,0-13,5.8-13,13s5.8,13,13,13h111c7.2,0,13-5.8,13-13s-5.8-13-13-13h25
	c7.2,0,13-5.8,13-13C774.9,382.1,769.1,376.3,761.9,376.3z"/>
<path class="st1" d="M1877.5,435.3h-96c-7.2,0-13,5.8-13,13s5.8,13,13,13h-30c-7.2,0-13,5.8-13,13s5.8,13,13,13h96
	c7.2,0,13-5.8,13-13s-5.8-13-13-13h30c7.2,0,13-5.8,13-13C1890.5,441.1,1884.7,435.3,1877.5,435.3z"/>
<path class="st1" d="M1743.8,395.3h-25c7.2,0,13-5.8,13-13s-5.8-13-13-13h-111c-7.2,0-13,5.8-13,13s5.8,13,13,13h40
	c-7.2,0-13,5.8-13,13s5.8,13,13,13h-40c-7.2,0-13,5.8-13,13s5.8,13,13,13h111c7.2,0,13-5.8,13-13s-5.8-13-13-13h25
	c7.2,0,13-5.8,13-13C1756.8,401.1,1751,395.3,1743.8,395.3z"/>
<g>
	<path class="st2" d="M684.3,534.7c-1.2,0-2.5-0.6-3.3-1.7l-64.6-90.1c-1.3-1.8-0.9-4.3,0.9-5.6c1.8-1.3,4.3-0.9,5.6,0.9l64.7,90.2
		c1.3,1.8,0.9,4.3-0.9,5.6C685.9,534.5,685.1,534.7,684.3,534.7z"/>
	<path class="st2" d="M771.6,563.8c-1.2,0-2.5-0.6-3.3-1.7l-64.6-90.2c-1.3-1.8-0.9-4.3,0.9-5.6c1.8-1.3,4.3-0.9,5.6,0.9l64.7,90.2
		c1.3,1.8,0.9,4.3-0.9,5.6C773.3,563.5,772.4,563.8,771.6,563.8z"/>
	<path class="st2" d="M771.2,655.8c-1.2,0-2.5-0.6-3.3-1.7l-64.7-90.2c-1.3-1.8-0.9-4.3,0.9-5.6c1.8-1.3,4.3-0.9,5.6,0.9l64.7,90.2
		c1.3,1.8,0.9,4.3-0.9,5.6C772.8,655.5,772,655.8,771.2,655.8z"/>
	<path class="st2" d="M777.1,617.7c-1.2,0-2.5-0.6-3.3-1.7L654.3,449.5c-1.3-1.8-0.9-4.3,0.9-5.6s4.3-0.9,5.6,0.9l119.5,166.5
		c1.3,1.8,0.9,4.3-0.9,5.6C778.7,617.4,777.9,617.7,777.1,617.7z"/>
	<path class="st2" d="M837,608.5c-1.2,0-2.5-0.6-3.3-1.7L682.2,395.6c-1.3-1.8-0.9-4.3,0.9-5.6c1.8-1.3,4.3-0.9,5.6,0.9l151.6,211.2
		c1.3,1.8,0.9,4.3-0.9,5.6C838.6,608.3,837.8,608.5,837,608.5z"/>
	<path class="st2" d="M733.2,649.2c-1.2,0-2.5-0.6-3.3-1.7L610.5,480.9c-1.3-1.8-0.9-4.3,0.9-5.6c1.8-1.2,4.3-0.8,5.6,1l119.5,166.6
		c1.3,1.8,0.9,4.3-0.9,5.6C734.8,648.9,734,649.2,733.2,649.2z"/>
</g>
<g>
	<path class="st3" d="M1413.8,674c-7.1,0-13.8-3.8-17.3-10c-3.6-6.2-3.6-13.8,0-20l33.7-58.5c3.6-6.2,10.2-10,17.4-10
		c7.2,0,13.8,3.8,17.3,10l33.8,58.5c3.6,6.2,3.6,13.8,0,20s-10.2,10-17.3,10H1413.8z"/>
	<path class="st4" d="M1413.8,664c-3.6,0-6.9-1.9-8.7-5c-1.8-3.1-1.8-6.9,0-10l33.8-58.5c1.8-3.1,5.1-5,8.7-5s6.9,1.9,8.7,5
		l33.8,58.5c1.8,3.1,1.8,6.9,0,10s-5.1,5-8.7,5H1413.8z"/>
	<path class="st0" d="M1447.8,651.3c2.6,0,4.7-2.1,4.7-4.7c0-2.6-2.1-4.7-4.7-4.7s-4.7,2.1-4.7,4.7
		C1443.1,649.2,1445.2,651.3,1447.8,651.3z"/>
	<path class="st0" d="M1447.8,640.5c-2,0-3.6-1.5-3.8-3.5c-0.6-6.6-1.9-22.2-1.9-23.5c0-3.3,2.6-6.1,5.7-6.1s5.7,2.7,5.7,6.1
		c0,1.3-1.3,16.9-1.9,23.5C1451.4,639,1449.8,640.5,1447.8,640.5z"/>
	<path class="st3" d="M1433.8,694c-7.1,0-13.8-3.8-17.3-10c-3.6-6.2-3.6-13.8,0-20l33.7-58.5c3.6-6.2,10.2-10,17.4-10
		c7.2,0,13.8,3.8,17.3,10l33.8,58.5c3.6,6.2,3.6,13.8,0,20s-10.2,10-17.3,10H1433.8z"/>
	<path class="st4" d="M1433.8,684c-3.6,0-6.9-1.9-8.7-5c-1.8-3.1-1.8-6.9,0-10l33.8-58.5c1.8-3.1,5.1-5,8.7-5s6.9,1.9,8.7,5
		l33.8,58.5c1.8,3.1,1.8,6.9,0,10s-5.1,5-8.7,5H1433.8z"/>
	<path class="st0" d="M1467.8,671.3c2.6,0,4.7-2.1,4.7-4.7c0-2.6-2.1-4.7-4.7-4.7s-4.7,2.1-4.7,4.7
		C1463.1,669.2,1465.2,671.3,1467.8,671.3z"/>
	<path class="st0" d="M1467.8,660.5c-2,0-3.6-1.5-3.8-3.5c-0.6-6.6-1.9-22.2-1.9-23.5c0-3.3,2.6-6.1,5.7-6.1s5.7,2.7,5.7,6.1
		c0,1.3-1.3,16.9-1.9,23.5C1471.4,659,1469.8,660.5,1467.8,660.5z"/>
	<path class="st3" d="M1453.8,714c-7.1,0-13.8-3.8-17.3-10c-3.6-6.2-3.6-13.8,0-20l33.7-58.5c3.6-6.2,10.2-10,17.4-10
		c7.2,0,13.8,3.8,17.3,10l33.8,58.5c3.6,6.2,3.6,13.8,0,20s-10.2,10-17.3,10H1453.8z"/>
	<path class="st4" d="M1453.8,704c-3.6,0-6.9-1.9-8.7-5c-1.8-3.1-1.8-6.9,0-10l33.8-58.5c1.8-3.1,5.1-5,8.7-5s6.9,1.9,8.7,5
		l33.8,58.5c1.8,3.1,1.8,6.9,0,10s-5.1,5-8.7,5H1453.8z"/>
	<path class="st0" d="M1487.8,691.3c2.6,0,4.7-2.1,4.7-4.7c0-2.6-2.1-4.7-4.7-4.7s-4.7,2.1-4.7,4.7
		C1483.1,689.2,1485.2,691.3,1487.8,691.3z"/>
	<path class="st0" d="M1487.8,680.5c-2,0-3.6-1.5-3.8-3.5c-0.6-6.6-1.9-22.2-1.9-23.5c0-3.3,2.6-6.1,5.7-6.1s5.7,2.7,5.7,6.1
		c0,1.3-1.3,16.9-1.9,23.5C1491.4,679,1489.8,680.5,1487.8,680.5z"/>
	<path class="st3" d="M1473.8,734c-7.1,0-13.8-3.8-17.3-10c-3.6-6.2-3.6-13.8,0-20l33.7-58.5c3.6-6.2,10.2-10,17.4-10
		c7.2,0,13.8,3.8,17.3,10l33.8,58.5c3.6,6.2,3.6,13.8,0,20s-10.2,10-17.3,10H1473.8z"/>
	<path class="st4" d="M1473.8,724c-3.6,0-6.9-1.9-8.7-5c-1.8-3.1-1.8-6.9,0-10l33.8-58.5c1.8-3.1,5.1-5,8.7-5s6.9,1.9,8.7,5
		l33.8,58.5c1.8,3.1,1.8,6.9,0,10s-5.1,5-8.7,5H1473.8z"/>
	<path class="st0" d="M1507.8,711.3c2.6,0,4.7-2.1,4.7-4.7c0-2.6-2.1-4.7-4.7-4.7s-4.7,2.1-4.7,4.7
		C1503.1,709.2,1505.2,711.3,1507.8,711.3z"/>
	<path class="st0" d="M1507.8,700.5c-2,0-3.6-1.5-3.8-3.5c-0.6-6.6-1.9-22.2-1.9-23.5c0-3.3,2.6-6.1,5.7-6.1s5.7,2.7,5.7,6.1
		c0,1.3-1.3,16.9-1.9,23.5C1511.4,699,1509.8,700.5,1507.8,700.5z"/>
	<path class="st3" d="M1493.8,754c-7.1,0-13.8-3.8-17.3-10c-3.6-6.2-3.6-13.8,0-20l33.7-58.5c3.6-6.2,10.2-10,17.4-10
		c7.2,0,13.8,3.8,17.3,10l33.8,58.5c3.6,6.2,3.6,13.8,0,20s-10.2,10-17.3,10H1493.8z"/>
	<path class="st4" d="M1493.8,744c-3.6,0-6.9-1.9-8.7-5c-1.8-3.1-1.8-6.9,0-10l33.8-58.5c1.8-3.1,5.1-5,8.7-5s6.9,1.9,8.7,5
		l33.8,58.5c1.8,3.1,1.8,6.9,0,10s-5.1,5-8.7,5H1493.8z"/>
	<path class="st0" d="M1527.8,731.3c2.6,0,4.7-2.1,4.7-4.7c0-2.6-2.1-4.7-4.7-4.7s-4.7,2.1-4.7,4.7
		C1523.1,729.2,1525.2,731.3,1527.8,731.3z"/>
	<path class="st0" d="M1527.8,720.5c-2,0-3.6-1.5-3.8-3.5c-0.6-6.6-1.9-22.2-1.9-23.5c0-3.3,2.6-6.1,5.7-6.1s5.7,2.7,5.7,6.1
		c0,1.3-1.3,16.9-1.9,23.5C1531.4,719,1529.8,720.5,1527.8,720.5z"/>
</g>
<path class="st4" d="M1756.8,366.1c-33.4,0-61.7-21.1-72.5-50.8c-2.9,8.1-4.5,16.9-4.5,26.1c0,42.4,34.5,76.9,77,76.9
	s77-34.5,77-76.9c0-9.2-1.7-18-4.5-26.1C1818.5,344.9,1790.2,366.1,1756.8,366.1z"/>
<g>
	<path class="st2" d="M1569.8,1064.2h96c7.2,0,13,5.8,13,13s-5.8,13-13,13h30c7.2,0,13,5.8,13,13s-5.8,13-13,13h-96
		c-7.2,0-13-5.8-13-13s5.8-13,13-13h-30c-7.2,0-13-5.8-13-13S1562.6,1064.2,1569.8,1064.2z"/>
	<path class="st1" d="M1744.8,1038.2h-25c7.2,0,13-5.8,13-13c0-7.2-5.8-13-13-13h-111c-7.2,0-13,5.8-13,13c0,7.2,5.8,13,13,13h40
		c-7.2,0-13,5.8-13,13s5.8,13,13,13h-40c-7.2,0-13,5.8-13,13s5.8,13,13,13h111c7.2,0,13-5.8,13-13s-5.8-13-13-13h25
		c7.2,0,13-5.8,13-13S1752,1038.2,1744.8,1038.2z"/>
	<path class="st1" d="M1851.8,921.2h-96c-7.2,0-13,5.8-13,13s5.8,13,13,13h-30c-7.2,0-13,5.8-13,13s5.8,13,13,13h96
		c7.2,0,13-5.8,13-13s-5.8-13-13-13h30c7.2,0,13-5.8,13-13S1859,921.2,1851.8,921.2z"/>
	<path class="st2" d="M1595.8,960.2h-25c7.2,0,13-5.8,13-13s-5.8-13-13-13h-111c-7.2,0-13,5.8-13,13s5.8,13,13,13h40
		c-7.2,0-13,5.8-13,13s5.8,13,13,13h-40c-7.2,0-13,5.8-13,13s5.8,13,13,13h111c7.2,0,13-5.8,13-13s-5.8-13-13-13h25
		c7.2,0,13-5.8,13-13S1602.9,960.2,1595.8,960.2z"/>
</g>
<g>
	<g>
		<path class="st5" d="M533.4,1198.6c-7.1-4.9-17-9.1-30.6-9.8c3.3-8.9,4.2-18.1,4.3-24C519.4,1174.5,528.3,1186,533.4,1198.6z"/>
		<g>
			<path class="st6" d="M406.7,1255.4c13.5,10.7,32.5,29,39.7,51.9c9,0.1,19.3-1.3,30.2-4.8l0,0c4.4-1.5,8.8-3.2,13.1-5.3
				c-15-31-47.4-51.3-64.7-60.4C418.4,1241.6,412.2,1247.6,406.7,1255.4z"/>
			<path class="st7" d="M392.4,1285.9c5.2,0.2,13.4,2.1,19.9,10.7c3.9,5.1,16.7,10.5,34.1,10.7c-7.3-22.9-26.2-41.2-39.7-51.9
				C401,1263.5,396.1,1273.5,392.4,1285.9z"/>
			<path class="st7" d="M470.2,1216.8c-0.3,0.1-0.5,0.2-0.8,0.3c-1.3,0.4-2.7,0.9-4.1,1.3c-1.4,0.5-2.9,0.9-4.4,1.4
				c-12,3.9-24.5,8.7-35.8,17c17.3,9.1,49.7,29.3,64.7,60.4c4-1.9,7.8-4.1,11.6-6.5c5.4-3.5,10.4-7.7,14.7-12.3
				C510.8,1242.1,487.1,1224.7,470.2,1216.8z"/>
			<path class="st7" d="M500,1195.2c-2.6,5-6,9.1-10,12.3c10.6,4.5,29.4,14.2,46.8,31.3c1.9-9.4,2-19.1,0-28.5
				C530.8,1203.4,519.5,1195.5,500,1195.2z"/>
			<path class="st6" d="M490,1207.5c-1,0.8-2.1,1.6-3.1,2.3c-4.3,2.7-9.6,4.7-16.7,7.1c16.9,7.9,40.6,25.3,46,61.5
				c10.6-11.1,17.8-25,20.7-39.6C519.4,1221.6,500.7,1212,490,1207.5z"/>
		</g>
	</g>
	<g>
		<path class="st6" d="M441.3,1249.9c-8.9-26.1-36.3-45.1-68.8-45.1C372.4,1204.9,419.2,1214.4,441.3,1249.9z"/>
		<g>
			<path class="st6" d="M342.5,1234.3c-21.4,2.9-34.6,16.9-41.6,27.4c-0.2,2.1-0.4,4.2-0.4,6.3c0,34.9,32.2,63.2,71.9,63.2
				c30.4,0,56.4-16.6,66.9-40C434.9,1283,402.1,1226.3,342.5,1234.3z"/>
			<path class="st7" d="M441.3,1249.9c-22.1-35.5-68.8-45.1-68.8-45.1c-8,0-15.7,1.2-22.9,3.3c-26.3,7.8-45.7,28.5-48.6,53.6
				c7.1-10.6,20.2-24.5,41.6-27.4c59.5-8,92.3,48.7,96.8,57c3.2-7.2,5-15,5-23.2C444.3,1261.8,443.2,1255.7,441.3,1249.9z"/>
		</g>
	</g>
	<path class="st8" d="M394,1256.8c-2.2-20-21.1-35.6-44-35.6s-41.8,15.6-44,35.6c-4.8,5.5-7.6,11.9-7.6,18.8c0,19.9,23.1,36,51.6,36
		s51.6-16.1,51.6-36C401.6,1268.7,398.8,1262.3,394,1256.8z"/>
	<circle class="st9" cx="337.3" cy="1251.6" r="7.2"/>
	<path class="st6" d="M337.3,1238.4c2.6,0,4.8,1.6,5.2,3.7c0-0.2,0-0.4,0-0.5c0-2.3-2.3-4.3-5.2-4.3s-5.2,1.9-5.2,4.3
		c0,0.2,0,0.4,0,0.5C332.5,1240,334.7,1238.4,337.3,1238.4z"/>
	<circle class="st9" cx="362.7" cy="1251.6" r="7.2"/>
	<path class="st6" d="M362.7,1238.4c-2.6,0-4.8,1.6-5.2,3.7c0-0.2,0-0.4,0-0.5c0-2.3,2.3-4.3,5.2-4.3c2.9,0,5.2,1.9,5.2,4.3
		c0,0.2,0,0.4,0,0.5C367.5,1240,365.4,1238.4,362.7,1238.4z"/>
	<circle class="st6" cx="340.4" cy="1255.2" r="2.2"/>
	<circle class="st6" cx="359.7" cy="1255.2" r="2.2"/>
	<path class="st6" d="M350.5,1260.5c-0.2,0-0.2,0.3-0.2,0.3s-0.1-0.3-0.2-0.3c0,0-4.7-0.7-4.3,1.2c0.4,1.9,2.1,3.3,4.3,3.3
		c0,0,0.2,0,0.2-0.2c0.1,0.2,0.2,0.2,0.2,0.2c2.1,0,3.8-1.4,4.3-3.3C355.2,1259.8,350.5,1260.5,350.5,1260.5z"/>
	<path class="st6" d="M320.6,1260.3c0,0,14-1.9,21.5,1.7C342.1,1262.1,330.2,1259.9,320.6,1260.3z"/>
	<path class="st6" d="M327.7,1266.9c0,0,7.1-3.7,14.4-2.8C342.1,1264,335.2,1261.7,327.7,1266.9z"/>
	<path class="st6" d="M380,1260.3c0,0-14-1.9-21.5,1.7C358.5,1262.1,370.5,1259.9,380,1260.3z"/>
	<path class="st6" d="M372.9,1266.9c0,0-7.1-3.7-14.4-2.8C358.5,1264,365.4,1261.7,372.9,1266.9z"/>
	<path class="st8" d="M340.4,1225.3c0,0,5.4-15.4-11.9-18.9c0,0-1.2,0.8-0.8,2.2c0.5,1.3-7.1,12.6-2.1,21.6L340.4,1225.3z"/>
	<path class="st8" d="M359.7,1225.3c0,0-5.4-15.4,11.9-18.9c0,0,1.2,0.8,0.8,2.2c-0.5,1.3,7.1,12.6,2.1,21.6L359.7,1225.3z"/>
	<g>
		<path class="st6" d="M330.2,1309.2c-2.3-2.1-4.9-4.2-8.1-6.5c-14.1-4-24.3,12.5-24.3,12.6c0.2,0.6,0.4,1.2,0.6,1.9
			c1.9,5.1,6.4,8.6,11.8,11.1C310.2,1328.2,308.5,1306.8,330.2,1309.2z"/>
		<path class="st6" d="M320.5,1331.6c10.9,2.5,21.6,2.3,21.6,2.3s2.4-7-5.3-17.4C324.1,1318.6,320.5,1331.6,320.5,1331.6z"/>
		<path class="st7" d="M336.8,1316.4c-1.7-2.3-3.8-4.7-6.6-7.2c-21.7-2.4-19.9,19-19.9,19.1c3.2,1.4,6.7,2.5,10.2,3.3
			C320.5,1331.6,324.1,1318.6,336.8,1316.4z"/>
		<path class="st7" d="M322.1,1302.7c-3.4-2.4-7.3-4.9-11.9-7.4c-6.9-2.6-10,0.9-10.5,1.6l-0.1,0.1c-2.4,3.7-4.4,9.7-1.8,18.2
			C297.9,1315.3,308,1298.7,322.1,1302.7z"/>
		<path class="st6" d="M310.2,1295.4c-1.9-1-3.8-2.1-5.9-3.1c0,0-2.5,1.5-4.6,4.7C300.2,1296.3,303.3,1292.7,310.2,1295.4z"/>
		<path class="st6" d="M299.6,1297.1l0.1-0.1C299.6,1297.1,299.6,1297.1,299.6,1297.1z"/>
		<path class="st6" d="M356.4,1319.5c-3,8.3-4.3,14.4-4.3,14.4c10.4,1.5,19.7,2,27.9,1.7C370.8,1319.3,356.4,1319.5,356.4,1319.5z"
			/>
		<path class="st6" d="M431.5,1294.4c-2.3-10.3-11.1-18.8-24.8-20.1c-6.1-0.6-11.7,0.3-16.6,2.3
			C390.5,1276.6,422,1272.7,431.5,1294.4z"/>
		<path class="st7" d="M431.5,1294.4c-9.5-21.7-41-17.8-41.4-17.8c-8.5,3.4-15.4,10-20.8,17.6c0,0,21.8-2.9,32.3,4.6
			c10.6,7.5,17.8,24.5,17.8,24.6C430.1,1315.2,433.6,1304,431.5,1294.4z"/>
		<path class="st6" d="M401.6,1298.9c-10.6-7.5-32.3-4.6-32.3-4.6c-2.6,3.6-4.9,7.5-6.8,11.3c0.3,0,31.2,2.1,37.7,27
			c8-2.2,14.4-5.4,19.3-9.2C419.4,1323.4,412.2,1306.3,401.6,1298.9z"/>
		<path class="st7" d="M362.4,1305.6c-2.5,4.8-4.5,9.6-6,13.9c0,0,14.4-0.2,23.6,16.1c7.6-0.3,14.3-1.3,20.1-2.9
			C393.7,1307.7,362.8,1305.6,362.4,1305.6z"/>
	</g>
	<path class="st10" d="M350,1269.1c0,0-29.4-0.4-34.4-5.6c0,0,3.8,20.7,34.4,20.7s34.4-20.7,34.4-20.7
		C379.5,1268.7,350,1269.1,350,1269.1z"/>
</g>
<g>
	<path class="st11" d="M2040.8,1467.8c0,0-15.3,38.6-14.1,57.4c1.2,18.8,52,20.3,65,10.2s-5.7-47.3,4.7-54.8
		C2106.9,1473.1,2040.8,1467.8,2040.8,1467.8z"/>
	<path class="st12" d="M2024,1442.6c0,0,1.6,25.4,28.2,33.7c26.6,8.2,51.6,15.3,72.4-2.3C2145.3,1456.3,2025.2,1426.9,2024,1442.6z"
		/>
	<path class="st0" d="M1987.1,1405.8c0,0,6.4,12.6,13.8,16.5s7,13.7,23.1,20.4c16.1,6.6,15.3,0.2,34,8.7s82.6,46.6,106.8,15.8
		C2189.1,1436.3,1998.4,1362.7,1987.1,1405.8z"/>
	<path class="st0" d="M2231.7,1416.6c-26.6-38.5-105-30.3-131.6-50.5c-26.6-20.3-79.1-30.6-79.1-30.6s-26.6-8.6-46,4.9
		s-26.6,25.6-17,50.6c6.4,16.5,31.6,15.4,53,14.9c7.3,0.1,24.5,1.5,44.7,11.5l11.4,6.4c3.3,2.1,6.7,4.1,10.3,5.7
		c30.4,16.8,69.7,37.1,93,38.1C2207.5,1469.3,2258.4,1455.1,2231.7,1416.6z"/>
	<path class="st13" d="M2187.3,1388.3c-7.6-5.3-35.2-15.1-35.2-15.1c-23.8-7.7-56.9-18.4-63-20.8c-9.7-3.8-49.3-20.4-85.6-12.1
		c-15.6,3.6-22.5,10-25.1,16.2c-6.8,14,1.2,19.7,1.2,19.7c2.6,2.8,10,5.9,31.2,5c33.4-1.5,116.1,55.4,140.4,64.1
		c0.7,0.2,1.3,0.4,1.8,0.6c2.3,0.7,6.6,1.9,11.9,3c0,0,34.4,8.7,46.9-7.1c2.3-2.7,3.7-6.1,4-9.7
		C2218.1,1411.7,2200.8,1397.7,2187.3,1388.3z"/>
	<path class="st3" d="M1985.8,1339.1l-0.3-0.1h-0.1c-13.4-3.1-15.5-12.3-15.5-12.7c0-0.2,0-0.3,0-0.5c0.1-0.2,0.2-0.3,0.3-0.4
		c0.1-0.1,0.3-0.2,0.4-0.2s0.3,0,0.5,0.1c0.5,0.2,1,0.4,1.6,0.5c3.3,0.6,7.1-0.8,7.6-1c0.9-1.6,2.2-3,3.9-3.8
		c1.7-0.8,3.5-1.1,5.4-0.7l10.7,2.1c2.2,0.4,4.2,1.7,5.4,3.6c1.3,1.9,1.7,4.2,1.3,6.4l-0.4,2c-0.4,2.2-1.7,4.2-3.6,5.4
		c-1.9,1.3-4.2,1.7-6.4,1.3L1985.8,1339.1z"/>
	<path class="st3" d="M2143.9,1353.2c0.7-3,2.5-5.3,4.4-5.3c12,0,19.4,17,19.7,17.8c1,2.4,0.4,6.2-1.4,8.6c-1.8,2.3-4,2.3-5-0.1
		c-0.1-0.1-6.2-14.2-15.2-14.1c-2,0-3.1-2.7-2.6-6.1C2143.8,1353.7,2143.8,1353.4,2143.9,1353.2z"/>
	<path class="st14" d="M2194.2,1378.2c15.5,0,28.2-12.6,28.2-28.2c0-15.5-12.6-28.2-28.2-28.2c-15.5,0-28.1,12.6-28.1,28.2
		C2166,1365.6,2178.6,1378.2,2194.2,1378.2z"/>
	<path class="st14" d="M2154.3,1400.8c13.7,0,24.9-11.1,24.9-24.9s-11.1-24.9-24.9-24.9c-13.7,0-24.9,11.1-24.9,24.9
		S2140.6,1400.8,2154.3,1400.8z"/>
	<path class="st14" d="M2123.9,1400.8c13.7,0,24.9-11.1,24.9-24.9s-11.1-24.9-24.9-24.9c-13.7,0-24.9,11.1-24.9,24.9
		S2110.2,1400.8,2123.9,1400.8z"/>
	<path class="st14" d="M2094.9,1387.8c13.7,0,24.9-11.1,24.9-24.9c0-13.7-11.1-24.9-24.9-24.9c-13.7,0-24.9,11.1-24.9,24.9
		C2070,1376.6,2081.2,1387.8,2094.9,1387.8z"/>
	<path class="st14" d="M2066.4,1372.9c13.7,0,24.9-11.1,24.9-24.9s-11.1-24.9-24.9-24.9c-13.7,0-24.9,11.1-24.9,24.9
		S2052.7,1372.9,2066.4,1372.9z"/>
	<path class="st14" d="M2040.2,1365.7c13.7,0,24.9-11.1,24.9-24.9s-11.1-24.9-24.9-24.9c-13.7,0-24.9,11.1-24.9,24.9
		S2026.4,1365.7,2040.2,1365.7z"/>
	<path class="st14" d="M2007.4,1365.7c13.7,0,24.9-11.1,24.9-24.9s-11.1-24.9-24.9-24.9s-24.9,11.1-24.9,24.9
		S1993.6,1365.7,2007.4,1365.7z"/>
	<path class="st3" d="M2220.8,1318.1c6.4-8.3,10-16.6-2.8-15.2s-26.7,9.5-21.9,18.9s7.6,2.9,8.6,9.4c1,6.6,13.5,29.2-25.6,41.7
		c0,0-17.6,30.1-40.1,22.7c0,0-30.7,1.9-33.5-12.8c0,0-28.3-4.5-29.4-17.2c0,0-25.6,0.4-25.6-7.2c0,0-25.2-1-25.6-7.4
		c0,0-33.4,16.2-40.4,0c0,0,0.7,11.8,8,14.6c7.3,2.8,13.5,4.1,34.2,0c18.6-3.7,69.4,32.9,92.9,40.2c0,0,35.6,18.1,74.4-12.3
		c19.2-9.4,33.1-25.5,26.6-52.8C2220.8,1340.8,2214.4,1326.3,2220.8,1318.1z"/>
	<path class="st14" d="M1971.6,1377.1c-1,0-1.9-0.2-2.8-0.7s-1.6-1.1-2.2-1.9s-1-1.7-1.1-2.7s-0.1-1.9,0.2-2.9
		c9.2-28.7,40.1-30.1,41.4-30.2c1.6-0.1,3.2,0.5,4.4,1.6c1.2,1.1,1.9,2.7,2,4.3s-0.5,3.2-1.6,4.4s-2.7,1.9-4.3,2
		c-1,0-23.7,1.3-30.1,21.6c-0.4,1.2-1.2,2.3-2.2,3.1S1972.9,1377.1,1971.6,1377.1z"/>
	<path class="st14" d="M2001.3,1384.3c-0.7,0-1.4-0.1-2.1-0.4c-0.8-0.3-1.5-0.7-2.1-1.2s-1.1-1.2-1.4-1.9c-0.3-0.7-0.5-1.5-0.6-2.3
		c0-0.8,0.1-1.6,0.4-2.4c2.9-8.4,7.9-16,14.5-22s14.7-10.1,23.4-12.1c1.6-0.3,3.3,0.1,4.6,1c1.3,0.9,2.3,2.4,2.6,4
		c0.3,1.6-0.1,3.3-1,4.6c-0.9,1.3-2.4,2.3-4,2.6c-0.9,0.2-20.5,4.1-28.4,26.1c-0.4,1.2-1.2,2.2-2.3,3S2002.6,1384.3,2001.3,1384.3z"
		/>
	<path class="st14" d="M2037.2,1389c-0.4,0-0.7,0-1.1-0.1c-0.8-0.1-1.6-0.4-2.3-0.9c-0.7-0.4-1.3-1-1.7-1.7c-0.5-0.7-0.8-1.4-1-2.2
		c-0.2-0.8-0.2-1.6,0-2.4c4.1-22.7,31.1-30.4,32.3-30.7c1.6-0.4,3.2-0.2,4.6,0.7c1.4,0.8,2.4,2.1,2.8,3.7c0.4,1.6,0.2,3.2-0.5,4.6
		c-0.8,1.4-2.1,2.5-3.6,2.9c-0.2,0.1-20.7,6-23.4,21c-0.3,1.4-1,2.7-2.1,3.6C2040.1,1388.5,2038.7,1389,2037.2,1389z"/>
	<path class="st14" d="M2079.7,1413.3c-1.5,0-2.9-0.6-4.1-1.5c-1.1-1-1.9-2.3-2.1-3.8c-2.7-20.6,12.2-40.1,12.8-40.9
		c1-1.2,2.5-2,4.1-2.2s3.2,0.3,4.5,1.3s2.1,2.4,2.3,4s-0.2,3.2-1.2,4.5c-0.1,0.2-12.4,16.2-10.3,31.7c0.1,0.8,0.1,1.6-0.2,2.4
		c-0.2,0.8-0.6,1.5-1.1,2.2c-0.5,0.6-1.1,1.2-1.8,1.6s-1.5,0.7-2.3,0.8C2080.2,1413.3,2080,1413.3,2079.7,1413.3z"/>
	<path class="st14" d="M2126,1427.4c-1.2,0-2.4-0.3-3.4-1s-1.8-1.6-2.3-2.7c-7-15.8-0.6-39.3-0.3-40.3c0.2-0.8,0.6-1.5,1.1-2.2
		s1.1-1.2,1.8-1.6s1.5-0.7,2.3-0.8c0.8-0.1,1.6,0,2.4,0.2c0.8,0.2,1.5,0.6,2.2,1.1c0.6,0.5,1.2,1.1,1.6,1.9s0.6,1.5,0.7,2.3
		c0.1,0.8,0,1.6-0.2,2.4c-1.6,5.6-4.6,22.2-0.3,32c0.4,0.9,0.6,2,0.5,3s-0.4,2-1,2.9s-1.3,1.6-2.2,2.1
		C2128,1427.2,2127,1427.4,2126,1427.4L2126,1427.4z"/>
	<path class="st14" d="M2192,1402c-6.6-0.1-13.1-1.7-18.9-4.7c-5.8-3.1-10.9-7.5-14.7-12.9c-0.9-1.4-1.2-3-0.9-4.6s1.3-3,2.6-3.9
		c1.4-0.9,3-1.2,4.6-0.9c1.6,0.3,3,1.3,3.9,2.6c0.5,0.8,11.8,17,32.8,10.6c0.8-0.3,1.6-0.4,2.4-0.3c0.8,0.1,1.6,0.3,2.4,0.7
		c0.7,0.4,1.4,0.9,1.9,1.5s0.9,1.4,1.2,2.2c0.2,0.8,0.3,1.6,0.2,2.5c-0.1,0.8-0.3,1.6-0.7,2.4c-0.4,0.7-0.9,1.4-1.6,1.9
		s-1.4,0.9-2.2,1.1C2200.9,1401.3,2196.5,1402,2192,1402z"/>
	<path class="st3" d="M2146.8,1351c2.3,0,4.2-1.9,4.2-4.2s-1.9-4.2-4.2-4.2s-4.2,1.9-4.2,4.2S2144.5,1351,2146.8,1351z"/>
	<path class="st15" d="M2141,1357.6c5-0.5,8.6-4.4,8.2-8.6c-0.5-4.2-4.8-7.2-9.8-6.7s-8.6,4.4-8.2,8.6
		C2131.7,1355.2,2136.1,1358.1,2141,1357.6z"/>
	<path class="st3" d="M2200.8,1397.2c2.9,0,5.2-3,5.2-6.8s-2.3-6.8-5.2-6.8s-5.2,3-5.2,6.8S2197.9,1397.2,2200.8,1397.2z"/>
	<path class="st15" d="M2208.1,1405.6c4.8,0,8.7-5.1,8.7-11.4s-3.9-11.4-8.7-11.4s-8.7,5.1-8.7,11.4
		C2199.5,1400.5,2203.3,1405.6,2208.1,1405.6z"/>
	<path class="st3" d="M1971.2,1387.4l-0.3,0.1h-0.1c-12.8,5-19.7-1.5-20-1.8c-0.1-0.1-0.2-0.3-0.2-0.4c0-0.2,0-0.3,0-0.5
		c0-0.1,0.1-0.2,0.2-0.3c0.1-0.1,0.2-0.2,0.3-0.2l0.2-0.1c0.5-0.1,1.1-0.2,1.6-0.5c3.1-1.3,5.4-4.7,5.7-5.1
		c-0.2-1.8,0.2-3.7,1.1-5.3c0.9-1.6,2.3-2.9,4-3.6l10.1-4.3c1-0.4,2.1-0.7,3.3-0.7c1.1,0,2.2,0.2,3.3,0.6c1,0.4,2,1,2.8,1.8
		s1.4,1.7,1.9,2.8l0.8,1.9c0.4,1,0.7,2.1,0.7,3.3s-0.2,2.2-0.6,3.3c-0.4,1-1,2-1.8,2.8s-1.7,1.4-2.8,1.9L1971.2,1387.4z"/>
	<path class="st3" d="M1995,1397.6h-0.4c-13.7,0.4-18.1-8.1-18.2-8.4c-0.1-0.1-0.1-0.3-0.1-0.5s0.1-0.3,0.2-0.5
		c0.1-0.1,0.2-0.2,0.3-0.2c0.1-0.1,0.2-0.1,0.4-0.1c0.1,0,0.2,0,0.2,0c0.5,0.1,1.1,0.1,1.6,0.1c3.4-0.2,6.7-2.6,7.1-2.9
		c0.4-1.8,1.4-3.4,2.8-4.6s3.2-1.9,5-2l10.9-0.7c2.3-0.1,4.5,0.6,6.2,2.1s2.7,3.6,2.9,5.9l0.1,2c0.1,2.3-0.6,4.5-2.1,6.2
		s-3.6,2.7-5.9,2.9L1995,1397.6z"/>
	<path class="st3" d="M2033.3,1400.7h-0.3h-0.1c-13.6,2.1-18.9-5.8-19.1-6.1c-0.1-0.1-0.1-0.3-0.1-0.5s0-0.3,0.1-0.5
		c0.1-0.1,0.1-0.2,0.3-0.3c0.1-0.1,0.2-0.1,0.3-0.1c0.1,0,0.1,0,0.2,0c0.5,0,1.1,0,1.6-0.1c3.3-0.6,6.3-3.3,6.7-3.7
		c0.2-1.8,1-3.6,2.2-4.9c1.3-1.4,2.9-2.3,4.8-2.6l10.8-2c1.1-0.2,2.2-0.2,3.3,0c1.1,0.2,2.1,0.7,3.1,1.3c0.9,0.6,1.7,1.5,2.3,2.4
		s1,2,1.2,3.1l0.4,2c0.2,1.1,0.2,2.2,0,3.3s-0.7,2.1-1.3,3.1s-1.5,1.7-2.4,2.3c-0.9,0.6-2,1-3.1,1.2L2033.3,1400.7z"/>
	<path class="st3" d="M2086.6,1409.7c2.5,0,4.5-2,4.5-4.5s-2-4.5-4.5-4.5s-4.5,2-4.5,4.5S2084.2,1409.7,2086.6,1409.7z"/>
	<path class="st3" d="M2132.1,1421.3c2.5,0,4.5-2,4.5-4.5s-2-4.5-4.5-4.5s-4.5,2-4.5,4.5C2127.7,1419.3,2129.7,1421.3,2132.1,1421.3
		z"/>
	<path class="st15" d="M2080.4,1416.8c5,0,9-4,9-9s-4-9-9-9s-9,4-9,9S2075.4,1416.8,2080.4,1416.8z"/>
	<path class="st15" d="M2128.7,1432.8c5,0,9-4,9-9s-4-9-9-9s-9,4-9,9C2119.8,1428.8,2123.8,1432.8,2128.7,1432.8z"/>
	<path class="st16" d="M2167.4,1332.2c0,0,1.4,6,10,4.9"/>
	<path class="st16" d="M2186,1340.3c0,0,7,6.5,13.6,1.8"/>
	<path class="st12" d="M2167.4,1496.9c0,0-0.4,0-1.1,0c-1.5-5.5-15.3-0.7-22,2.1c-10.2,2-21.4,6-27.5,13.8c0,0,11.2,1.8,20.3-1.5
		c2.4-0.9,5.2-2.3,8.2-3.9c1.5,0,21.1-9.8,21.1-9.8c0-0.1-0.1-0.3-0.1-0.4C2166.7,1497,2167.1,1496.9,2167.4,1496.9z"/>
	<path class="st17" d="M2146,1541.7h-12.2c-2.5,0-4.5-2-4.5-4.5c1.8-12.9,9.1-19.6,6.2-34.2c0-2.5,2-4.5,4.5-4.5h6
		c2.5,0,4.5,2,4.5,4.5c-0.1,12.7-1.7,24.1,0,34.2C2150.5,1539.7,2148.5,1541.7,2146,1541.7z"/>
	<path class="st18" d="M2166.9,1497.2c1-0.6,3.5-2.3,4-4.4c0.6-3-2.4-6-6.3-6.5c-3.5-0.5-4.9-1.9-5.2-2.4c-2.7-3.6-4.4-7.5-8.8-11
		c-6.8-5.4-13.5-5.2-13.5-5.2c-2.4-0.1-5.3,0.5-8.1,2.6c-4.8,3.5-7.7,13.3-10.2,20c-1.1,3-3.4,5.9-4.8,7.3c-0.3,0.3-0.7,0.6-1,1.1
		c-3.4,4.4-5.4,16.2,10.6,13.9c17.4-2.5,22.2-11.3,36.1-14.2c0,0,5.1-1.2,6.9-1C2166.6,1497.4,2166.7,1497.3,2166.9,1497.2z"/>
	<path class="st12" d="M2123.2,1488c1-1.5-0.6-2.2-2.7-2.5c-0.6,1.7-1.1,3.4-1.7,4.8c-1.1,3-3.4,5.9-4.8,7.3c-0.3,0.3-0.7,0.6-1,1.1
		c-0.1,0.2-0.3,0.5-0.5,0.7c0,0-1.1,3.4,0.5,4.3c1.7,0.9,5,5,10.2-1C2128.3,1496.8,2120.9,1491.7,2123.2,1488z"/>
	<path class="st12" d="M2133.2,1486.6c-0.7,1.2-2.4,2.4-3.4,3.4c-1.3,1.3-3.4-1.5-3.4-3.4s1.5-3.4,3.4-3.4
		C2131.7,1483.3,2134,1485,2133.2,1486.6z"/>
	<path class="st12" d="M2158.8,1488.2c0,3.6-2.8,6.6-6.1,6.6c-2.2,0-4.8-3-6.1-6.6c-1.3-3.4,3-5.2,6.1-6.6
		C2156.1,1480,2158.8,1483.8,2158.8,1488.2z"/>
	<path class="st12" d="M2144.7,1476.6c1,0,1.9-0.8,1.9-1.9c0-1-0.8-1.9-1.9-1.9c-1,0-1.9,0.8-1.9,1.9
		C2142.8,1475.8,2143.6,1476.6,2144.7,1476.6z"/>
	<path class="st18" d="M2099.8,1541.7c-0.5,0-1-0.3-1.2-0.8c-3.4-7.8-7.7-14.2-7.8-14.3c-0.4-0.6-0.3-1.4,0.3-1.8s1.4-0.3,1.8,0.3
		c0.2,0.3,4.5,6.7,8,14.7c0.3,0.7,0,1.4-0.6,1.7C2100.2,1541.7,2100,1541.7,2099.8,1541.7z"/>
	<path class="st12" d="M2104.2,1541.7c-0.7,0-1.3-0.6-1.3-1.3c0.1-12.1-5.3-30.9-5.3-31.1c-0.2-0.7,0.2-1.4,0.9-1.6s1.4,0.2,1.6,0.9
		c0.2,0.8,5.5,19.4,5.4,31.8C2105.5,1541.1,2104.9,1541.7,2104.2,1541.7z"/>
	<path class="st12" d="M2106.4,1541.7c-0.6,0-1.2-0.5-1.3-1.1c-1.9-12.4,1.4-27.8,1.5-28.5s0.8-1.2,1.6-1c0.7,0.1,1.2,0.9,1,1.6
		c-0.1,0.1-3.3,15.6-1.4,27.5c0.1,0.7-0.4,1.4-1.1,1.5C2106.5,1541.7,2106.5,1541.7,2106.4,1541.7z"/>
	<path class="st12" d="M2108.8,1541.7c-0.6,0-1.2-0.5-1.3-1.1c-1.2-9.4,4.3-23.5,4.5-24.1c0.3-0.7,1-1,1.7-0.7c0.6,0.3,1,1,0.7,1.7
		c-0.1,0.1-5.5,14.1-4.4,22.8C2110.1,1541,2109.6,1541.7,2108.8,1541.7C2108.9,1541.7,2108.8,1541.7,2108.8,1541.7z"/>
	<path class="st12" d="M2110.9,1541.7c-0.6,0-1.2-0.5-1.3-1.2c-0.5-4.5,4.4-8.1,9.2-11.6l0.3-0.3c4-2.9,4.7-10.6,4.8-10.7
		c0.1-0.7,0.7-1.2,1.4-1.2c0.7,0.1,1.2,0.7,1.2,1.4c-0.1,0.4-0.9,8.9-5.8,12.5l-0.3,0.3c-4,2.9-8.4,6.2-8.1,9.2
		c0.1,0.7-0.5,1.4-1.2,1.4C2111,1541.7,2111,1541.7,2110.9,1541.7z"/>
	<path class="st18" d="M2110.1,1541.7c-0.7,0-1.3-0.6-1.3-1.3c0-8.2,2.4-11.9,7.4-16.6c3.4-3.2,2.9-13,2.3-16.4
		c-0.1-0.7,0.4-1.4,1.1-1.5c0.7-0.1,1.4,0.4,1.5,1.1c0.1,0.6,1.9,13.9-3.2,18.7c-4.6,4.4-6.6,7.4-6.6,14.7
		C2111.4,1541.1,2110.8,1541.7,2110.1,1541.7z"/>
	<path class="st18" d="M2107.9,1515.8c3,0,5.4-1.5,5.4-3.4s-2.4-3.4-5.4-3.4s-5.4,1.5-5.4,3.4S2104.9,1515.8,2107.9,1515.8z"/>
	<path class="st18" d="M2113.2,1520.4c3,0,5.4-1.5,5.4-3.4s-2.4-3.4-5.4-3.4s-5.4,1.5-5.4,3.4
		C2107.8,1518.8,2110.3,1520.4,2113.2,1520.4z"/>
	<path class="st18" d="M2098.8,1512.4c3,0,5.4-1.5,5.4-3.4s-2.4-3.4-5.4-3.4s-5.4,1.5-5.4,3.4
		C2093.4,1510.8,2095.8,1512.4,2098.8,1512.4z"/>
	<path class="st12" d="M2119.9,1510.5c3,0,5.4-1.5,5.4-3.4s-2.4-3.4-5.4-3.4s-5.4,1.5-5.4,3.4S2116.9,1510.5,2119.9,1510.5z"/>
	<path class="st18" d="M2125.2,1521.5c3,0,5.4-1.5,5.4-3.4s-2.4-3.4-5.4-3.4s-5.4,1.5-5.4,3.4S2122.2,1521.5,2125.2,1521.5z"/>
	<path class="st12" d="M2091.9,1527.4c3,0,5.4-1.5,5.4-3.4s-2.4-3.4-5.4-3.4s-5.4,1.5-5.4,3.4
		C2086.6,1525.8,2089,1527.4,2091.9,1527.4z"/>
	<path class="st18" d="M2102.5,1541.7c-0.7,0-1.3-0.6-1.3-1.3c0-8.9-3.6-25.6-3.7-25.7c-0.1-0.7,0.3-1.4,1-1.6
		c0.7-0.1,1.4,0.3,1.6,1c0.1,0.7,3.7,17.1,3.7,26.3C2103.8,1541.1,2103.2,1541.7,2102.5,1541.7z"/>
	<path class="st12" d="M2098.8,1517.8c3,0,5.4-1.5,5.4-3.4s-2.4-3.4-5.4-3.4s-5.4,1.5-5.4,3.4
		C2093.4,1516.3,2095.8,1517.8,2098.8,1517.8z"/>
	<path class="st18" d="M2105.2,1541.7L2105.2,1541.7c-0.8-0.1-1.3-0.7-1.3-1.4c0.4-6.5-1.8-23.1-1.8-23.3c-0.1-0.7,0.4-1.4,1.1-1.4
		c0.7-0.1,1.4,0.4,1.4,1.1c0.1,0.7,2.3,17,1.9,23.7C2106.5,1541.1,2106,1541.7,2105.2,1541.7z"/>
	<path class="st12" d="M2103.4,1520.4c3,0,5.4-1.5,5.4-3.4s-2.4-3.4-5.4-3.4s-5.4,1.5-5.4,3.4
		C2098,1518.8,2100.5,1520.4,2103.4,1520.4z"/>
	<path class="st18" d="M1970.8,1541.7c-0.5,0-1-0.3-1.2-0.8c-3.4-7.8-7.7-14.2-7.8-14.3c-0.4-0.6-0.3-1.4,0.3-1.8
		c0.6-0.4,1.4-0.3,1.8,0.3c0.2,0.3,4.5,6.7,8,14.7c0.3,0.7,0,1.4-0.6,1.7C1971.2,1541.7,1971,1541.7,1970.8,1541.7z"/>
	<path class="st12" d="M1975.2,1541.7c-0.7,0-1.3-0.6-1.3-1.3c0.1-12.1-5.3-30.9-5.3-31.1c-0.2-0.7,0.2-1.4,0.9-1.6
		c0.7-0.2,1.4,0.2,1.6,0.9c0.2,0.8,5.5,19.4,5.4,31.8C1976.5,1541.1,1975.9,1541.7,1975.2,1541.7z"/>
	<path class="st12" d="M1977.4,1541.7c-0.6,0-1.2-0.5-1.3-1.1c-1.9-12.4,1.4-27.8,1.5-28.5s0.8-1.2,1.6-1c0.7,0.1,1.2,0.9,1,1.6
		c-0.1,0.1-3.3,15.6-1.4,27.5c0.1,0.7-0.4,1.4-1.1,1.5C1977.5,1541.7,1977.5,1541.7,1977.4,1541.7z"/>
	<path class="st12" d="M1979.7,1541.7c-0.6,0-1.2-0.5-1.3-1.1c-1.2-9.4,4.3-23.5,4.5-24.1c0.3-0.7,1-1,1.7-0.7c0.6,0.3,1,1,0.7,1.7
		c-0.1,0.1-5.5,14.1-4.4,22.8C1981,1541,1980.5,1541.7,1979.7,1541.7C1979.9,1541.7,1979.8,1541.7,1979.7,1541.7z"/>
	<path class="st12" d="M1981.9,1541.7c-0.6,0-1.2-0.5-1.3-1.2c-0.5-4.5,4.4-8.1,9.2-11.6l0.3-0.3c4-2.9,4.7-10.6,4.8-10.7
		c0.1-0.7,0.7-1.2,1.4-1.2c0.7,0.1,1.2,0.7,1.2,1.4c-0.1,0.4-0.9,8.9-5.8,12.5l-0.3,0.3c-4,2.9-8.4,6.2-8.1,9.2
		c0.1,0.7-0.5,1.4-1.2,1.4C1982,1541.7,1982,1541.7,1981.9,1541.7z"/>
	<path class="st18" d="M1981.1,1541.7c-0.7,0-1.3-0.6-1.3-1.3c0-8.2,2.4-11.9,7.4-16.6c3.4-3.2,2.9-13,2.3-16.4
		c-0.1-0.7,0.4-1.4,1.1-1.5s1.4,0.4,1.5,1.1c0.1,0.6,1.9,13.9-3.2,18.7c-4.6,4.4-6.6,7.4-6.6,14.7
		C1982.4,1541.1,1981.8,1541.7,1981.1,1541.7z"/>
	<path class="st18" d="M1978.9,1515.8c3,0,5.4-1.5,5.4-3.4s-2.4-3.4-5.4-3.4s-5.4,1.5-5.4,3.4S1975.9,1515.8,1978.9,1515.8z"/>
	<path class="st18" d="M1984.2,1520.4c3,0,5.4-1.5,5.4-3.4s-2.4-3.4-5.4-3.4s-5.4,1.5-5.4,3.4
		C1978.8,1518.8,1981.3,1520.4,1984.2,1520.4z"/>
	<path class="st18" d="M1969.8,1512.4c3,0,5.4-1.5,5.4-3.4s-2.4-3.4-5.4-3.4s-5.4,1.5-5.4,3.4
		C1964.4,1510.8,1966.8,1512.4,1969.8,1512.4z"/>
	<path class="st12" d="M1990.9,1510.5c3,0,5.4-1.5,5.4-3.4s-2.4-3.4-5.4-3.4s-5.4,1.5-5.4,3.4S1987.9,1510.5,1990.9,1510.5z"/>
	<path class="st18" d="M1996.2,1521.5c3,0,5.4-1.5,5.4-3.4s-2.4-3.4-5.4-3.4s-5.4,1.5-5.4,3.4
		C1990.8,1520,1993.2,1521.5,1996.2,1521.5z"/>
	<path class="st12" d="M1962.9,1527.4c3,0,5.4-1.5,5.4-3.4s-2.4-3.4-5.4-3.4s-5.4,1.5-5.4,3.4
		C1957.6,1525.8,1960,1527.4,1962.9,1527.4z"/>
	<path class="st18" d="M1973.5,1541.7c-0.7,0-1.3-0.6-1.3-1.3c0-8.9-3.6-25.6-3.7-25.7c-0.1-0.7,0.3-1.4,1-1.6
		c0.7-0.1,1.4,0.3,1.6,1c0.1,0.7,3.7,17.1,3.7,26.3C1974.8,1541.1,1974.2,1541.7,1973.5,1541.7z"/>
	<path class="st12" d="M1969.8,1517.8c3,0,5.4-1.5,5.4-3.4s-2.4-3.4-5.4-3.4s-5.4,1.5-5.4,3.4S1966.8,1517.8,1969.8,1517.8z"/>
	<path class="st18" d="M1976.2,1541.7L1976.2,1541.7c-0.8-0.1-1.3-0.7-1.3-1.4c0.4-6.5-1.8-23.1-1.8-23.3c-0.1-0.7,0.4-1.4,1.1-1.4
		c0.7-0.1,1.4,0.4,1.4,1.1c0.1,0.7,2.3,17,1.9,23.7C1977.5,1541.1,1977,1541.7,1976.2,1541.7z"/>
	<path class="st12" d="M1974.4,1520.4c3,0,5.4-1.5,5.4-3.4s-2.4-3.4-5.4-3.4s-5.4,1.5-5.4,3.4
		C1969,1518.8,1971.5,1520.4,1974.4,1520.4z"/>
	<path class="st18" d="M2167.1,1541.7c0.3,0,0.6-0.2,0.7-0.5c2.2-5.1,4.9-9.4,5-9.4c0.2-0.4,0.2-0.9-0.2-1.2
		c-0.4-0.3-0.9-0.2-1.2,0.2c-0.1,0.2-2.9,4.4-5.1,9.7c-0.2,0.4,0,0.9,0.4,1.1C2166.9,1541.7,2167,1541.7,2167.1,1541.7z"/>
	<path class="st12" d="M2164.3,1541.7c0.5,0,0.8-0.4,0.8-0.9c0-7.9,3.3-20.3,3.4-20.4c0.1-0.5-0.1-0.9-0.6-1.1
		c-0.5-0.1-0.9,0.1-1,0.6s-3.5,12.8-3.4,20.9C2163.5,1541.3,2163.9,1541.7,2164.3,1541.7z"/>
	<path class="st12" d="M2162.9,1541.7c0.4,0,0.7-0.3,0.8-0.7c1.2-8.2-0.9-18.3-1-18.8s-0.5-0.8-1-0.6c-0.5,0.1-0.7,0.6-0.6,1
		c0,0.1,2.1,10.3,0.9,18.1c-0.1,0.5,0.2,0.9,0.7,1C2162.8,1541.7,2162.9,1541.7,2162.9,1541.7z"/>
	<path class="st12" d="M2161.4,1541.7c0.4,0,0.8-0.3,0.8-0.7c0.8-6.2-2.8-15.5-2.9-15.9c-0.2-0.4-0.7-0.6-1.1-0.5
		c-0.4,0.2-0.6,0.7-0.5,1.1c0,0.1,3.5,9.3,2.8,15C2160.6,1541.2,2160.9,1541.7,2161.4,1541.7
		C2161.3,1541.7,2161.4,1541.7,2161.4,1541.7z"/>
	<path class="st12" d="M2160.1,1541.7c0.4,0,0.8-0.3,0.8-0.8c0.3-3-2.8-5.3-5.8-7.6l-0.2-0.2c-2.6-1.9-3-7-3.1-7
		c0-0.5-0.5-0.8-0.9-0.8c-0.5,0-0.8,0.5-0.7,0.9c0,0.3,0.6,5.9,3.7,8.2l0.2,0.2c2.5,1.9,5.3,4.1,5.2,6.1
		C2159.2,1541.2,2159.5,1541.7,2160.1,1541.7C2160,1541.7,2160,1541.7,2160.1,1541.7z"/>
	<path class="st18" d="M2160.6,1541.7c0.5,0,0.8-0.4,0.8-0.9c0-5.4-1.5-7.8-4.7-10.9c-2.2-2.1-1.8-8.5-1.5-10.8
		c0.1-0.5-0.2-0.9-0.7-1s-0.9,0.3-1,0.7c0,0.4-1.2,9.1,2,12.3c2.9,2.9,4.2,4.9,4.2,9.7C2159.7,1541.3,2160.1,1541.7,2160.6,1541.7z"
		/>
	<path class="st18" d="M2162,1524.7c-1.9,0-3.4-1-3.4-2.2s1.5-2.2,3.4-2.2s3.4,1,3.4,2.2C2165.4,1523.6,2163.9,1524.7,2162,1524.7z"
		/>
	<path class="st18" d="M2158.6,1527.7c-1.9,0-3.4-1-3.4-2.2s1.5-2.2,3.4-2.2s3.4,1,3.4,2.2S2160.5,1527.7,2158.6,1527.7z"/>
	<path class="st18" d="M2167.8,1522.4c-1.9,0-3.4-1-3.4-2.2s1.5-2.2,3.4-2.2s3.4,1,3.4,2.2S2169.6,1522.4,2167.8,1522.4z"/>
	<path class="st12" d="M2154.3,1521.2c-1.9,0-3.4-1-3.4-2.2s1.5-2.2,3.4-2.2s3.4,1,3.4,2.2S2156.2,1521.2,2154.3,1521.2z"/>
	<path class="st18" d="M2151,1528.4c-1.9,0-3.4-1-3.4-2.2s1.5-2.2,3.4-2.2s3.4,1,3.4,2.2S2152.9,1528.4,2151,1528.4z"/>
	<path class="st12" d="M2172.1,1532.3c-1.9,0-3.4-1-3.4-2.2s1.5-2.2,3.4-2.2s3.4,1,3.4,2.2S2174,1532.3,2172.1,1532.3z"/>
	<path class="st18" d="M2165.4,1541.7c0.5,0,0.8-0.4,0.8-0.9c0-5.9,2.3-16.8,2.4-16.9c0.1-0.5-0.2-0.9-0.6-1c-0.5-0.1-0.9,0.2-1,0.6
		c-0.1,0.5-2.4,11.3-2.4,17.3C2164.6,1541.3,2164.9,1541.7,2165.4,1541.7z"/>
	<path class="st12" d="M2167.8,1526c-1.9,0-3.4-1-3.4-2.2s1.5-2.2,3.4-2.2s3.4,1,3.4,2.2S2169.6,1526,2167.8,1526z"/>
	<path class="st18" d="M2163.7,1541.7L2163.7,1541.7c0.5,0,0.8-0.4,0.8-0.9c-0.2-4.3,1.2-15.2,1.2-15.3c0-0.5-0.2-0.9-0.7-0.9
		s-0.9,0.3-0.9,0.7c0,0.5-1.4,11.2-1.2,15.6C2162.8,1541.3,2163.2,1541.7,2163.7,1541.7z"/>
	<path class="st12" d="M2164.8,1527.7c-1.9,0-3.4-1-3.4-2.2s1.5-2.2,3.4-2.2s3.4,1,3.4,2.2S2166.7,1527.7,2164.8,1527.7z"/>
	<path class="st18" d="M1994.7,1541.2c-0.8,0-1.4-0.7-1.4-1.4c0-17.8,7.2-43,7.5-44.1c0.2-0.8,1-1.2,1.8-1s1.2,1,1,1.8
		c-0.1,0.3-7.5,26-7.5,43.3C1996.1,1540.6,1995.5,1541.2,1994.7,1541.2z"/>
	<path class="st18" d="M1988.6,1541.2c-0.8,0-1.4-0.7-1.4-1.4c0-9.7-6.9-22.7-10.5-28.1s3.6-19.7,5.1-22.5c0.4-0.7,1.2-1,2-0.6
		c0.7,0.4,1,1.2,0.6,2c-3.3,6.4-7.2,16.7-5.3,19.6c0.4,0.7,11,16.7,11,29.7C1990,1540.6,1989.4,1541.2,1988.6,1541.2z"/>
	<path class="st12" d="M1983.1,1494.5c4.2,0,7.5-2.1,7.5-4.7s-3.4-4.7-7.5-4.7c-4.2,0-7.5,2.1-7.5,4.7S1978.9,1494.5,1983.1,1494.5z
		"/>
	<path class="st12" d="M2002.2,1500.8c4.2,0,7.5-2.1,7.5-4.7s-3.4-4.7-7.5-4.7s-7.5,2.1-7.5,4.7
		C1994.7,1498.7,1998.1,1500.8,2002.2,1500.8z"/>
	<path class="st12" d="M1990.6,1541.2c-0.7,0-1.4-0.5-1.4-1.3c-0.1-1.2-3.4-28.9,2-40.6c0.4-0.7,1.2-1,2-0.7c0.7,0.4,1,1.2,0.7,2
		c-5.1,11-1.8,38.8-1.7,39.1c0.1,0.8-0.5,1.5-1.2,1.6C1990.7,1541.2,1990.6,1541.2,1990.6,1541.2z"/>
	<path class="st18" d="M1992.4,1504.6c4.2,0,7.5-2.1,7.5-4.7s-3.4-4.7-7.5-4.7c-4.2,0-7.5,2.1-7.5,4.7S1988.3,1504.6,1992.4,1504.6z
		"/>
	<path class="st18" d="M2170.6,1541.2c0.8,0,1.4-0.7,1.4-1.4c0-17.8-7.2-43-7.5-44.1c-0.2-0.8-1-1.2-1.8-1s-1.2,1-1,1.8
		c0.1,0.3,7.5,26,7.5,43.3C2169.2,1540.6,2169.8,1541.2,2170.6,1541.2z"/>
	<path class="st18" d="M2176.7,1541.2c0.8,0,1.4-0.7,1.4-1.4c0-9.7,6.9-22.7,10.5-28.1s-3.6-19.7-5.1-22.5c-0.4-0.7-1.2-1-2-0.6
		c-0.7,0.4-1,1.2-0.6,2c3.3,6.4,7.2,16.7,5.3,19.6c-0.4,0.7-11,16.7-11,29.7C2175.3,1540.6,2175.9,1541.2,2176.7,1541.2z"/>
	<path class="st12" d="M2182.2,1494.5c-4.2,0-7.5-2.1-7.5-4.7s3.4-4.7,7.5-4.7c4.2,0,7.5,2.1,7.5,4.7
		C2189.8,1492.4,2186.4,1494.5,2182.2,1494.5z"/>
	<path class="st12" d="M2163.1,1500.8c-4.2,0-7.5-2.1-7.5-4.7s3.4-4.7,7.5-4.7c4.2,0,7.5,2.1,7.5,4.7
		C2170.6,1498.7,2167.3,1500.8,2163.1,1500.8z"/>
	<path class="st12" d="M2174.8,1541.2c0.7,0,1.4-0.5,1.4-1.3c0.1-1.2,3.4-28.9-2-40.6c-0.4-0.7-1.2-1-2-0.7c-0.7,0.4-1,1.2-0.7,2
		c5.1,11,1.8,38.8,1.7,39.1c-0.1,0.8,0.5,1.5,1.2,1.6C2174.6,1541.2,2174.7,1541.2,2174.8,1541.2z"/>
	<path class="st18" d="M2172.9,1504.6c-4.2,0-7.5-2.1-7.5-4.7s3.4-4.7,7.5-4.7c4.2,0,7.5,2.1,7.5,4.7S2177,1504.6,2172.9,1504.6z"/>
	<path class="st17" d="M2023.6,1520.3c0-3.5-2.8-6.3-6.3-6.3h-6.5c-3.5,0-6.3,2.8-6.3,6.3c0.4,4.3-0.2,8.5-2,12.8
		c0,0.1-0.1,0.1-0.1,0.1c-0.2,0.4-0.4,0.8-0.6,1.3c-0.9,2.7,0.8,5.1,1,5.3c1.1,1.3,2.9,2.2,4.8,2.2h9.7c3.5,0,6.3-2.8,6.3-6.3
		C2022.2,1528.7,2022.6,1524.1,2023.6,1520.3z"/>
	<path class="st12" d="M2042.7,1509c0,7.9-12.8,18.8-27.1,14.3c-18.2-5.9-28.1-8.4-27.1-14.3c1.5-7.8,12.1-14.3,27.1-14.3
		C2030.7,1494.7,2042.7,1501.2,2042.7,1509z"/>
	<path class="st18" d="M2034.5,1516.6c-0.4,2.4-4.5,4.8-8.6,5.7c-4.6,1.1-8.7-2.5-8.6-5.7c0.1-4.1,3.9-7.4,8.6-5.7
		C2030.3,1512.4,2035,1513.4,2034.5,1516.6z"/>
	<path class="st18" d="M1993.7,1502.6c0,0-1.3,1.9,1.3,2.5c2.5,0.6,5.1-4.5,7-4.5c1.4,0,5.7-3.2,5-5.2c-5.7,1.1-10.3,3.2-13.6,6
		C1993.5,1501.9,1993.5,1502.3,1993.7,1502.6z"/>
	<path class="st18" d="M2020.5,1509.2c-0.9,1-2.7,1.9-3.2,2.2c-1.5,1-3.2-1-3.2-2.2s1.4-2.2,3.2-2.2S2021.3,1508.3,2020.5,1509.2z"
		/>
	<path class="st18" d="M2040.8,1509.6c-0.4,0.8-1.3,1.7-2.2,1.9c-1.2,0.3-2.7-1-2.2-1.9c0.6-1,1.5-1.9,2.2-1.9
		C2039.8,1507.6,2041.3,1508.6,2040.8,1509.6z"/>
	<path class="st17" d="M2189,1529c0-2.1,1.7-3.8,3.8-3.8h3.9c2.1,0,3.8,1.7,3.8,3.8c-0.3,2.6,0.1,5.1,1.2,7.7v0.1
		c0.1,0.3,0.2,0.5,0.3,0.8c0.5,1.6-0.5,3-0.6,3.2c-0.7,0.8-1.7,1.3-2.9,1.3h-5.8c-2.1,0-3.8-1.7-3.8-3.8
		C2189.9,1534,2189.6,1531.3,2189,1529z"/>
	<path class="st12" d="M2177.6,1522.3c0,4.7,7.7,11.3,16.2,8.6c10.9-3.5,16.8-5,16.2-8.6c-0.9-4.6-7.2-8.6-16.2-8.6
		C2184.8,1513.7,2177.6,1517.6,2177.6,1522.3z"/>
</g>
<g>
	<path class="st1" d="M2099.9,827.8h-25c7.2,0,13-5.8,13-13s-5.8-13-13-13h-111c-7.2,0-13,5.8-13,13s5.8,13,13,13h40
		c-7.2,0-13,5.8-13,13s5.8,13,13,13h-40c-7.2,0-13,5.8-13,13s5.8,13,13,13h111c7.2,0,13-5.8,13-13s-5.8-13-13-13h25
		c7.2,0,13-5.8,13-13S2107.1,827.8,2099.9,827.8z"/>
	<path class="st1" d="M2120.9,879.8h25c-7.2,0-13-5.8-13-13s5.8-13,13-13h111c7.2,0,13,5.8,13,13s-5.8,13-13,13h-40
		c7.2,0,13,5.8,13,13s-5.8,13-13,13h40c7.2,0,13,5.8,13,13s-5.8,13-13,13h-111c-7.2,0-13-5.8-13-13s5.8-13,13-13h-25
		c-7.2,0-13-5.8-13-13S2113.7,879.8,2120.9,879.8z"/>
	<path class="st1" d="M2028.9,879.8h25c-7.2,0-13-5.8-13-13s5.8-13,13-13h111c7.2,0,13,5.8,13,13s-5.8,13-13,13h-40
		c7.2,0,13,5.8,13,13s-5.8,13-13,13h40c7.2,0,13,5.8,13,13s-5.8,13-13,13h-111c-7.2,0-13-5.8-13-13s5.8-13,13-13h-25
		c-7.2,0-13-5.8-13-13S2021.7,879.8,2028.9,879.8z"/>
	<path class="st2" d="M2183.9,775.8h-96c-7.2,0-13,5.8-13,13s5.8,13,13,13h-30c-7.2,0-13,5.8-13,13s5.8,13,13,13h96
		c7.2,0,13-5.8,13-13s-5.8-13-13-13h30c7.2,0,13-5.8,13-13S2191.1,775.8,2183.9,775.8z"/>
	<path class="st2" d="M2222.9,827.8h96c7.2,0,13,5.8,13,13s-5.8,13-13,13h30c7.2,0,13,5.8,13,13s-5.8,13-13,13h-96
		c-7.2,0-13-5.8-13-13s5.8-13,13-13h-30c-7.2,0-13-5.8-13-13S2215.7,827.8,2222.9,827.8z"/>
	<path class="st2" d="M1983.9,879.8h-96c-7.2,0-13,5.8-13,13s5.8,13,13,13h-30c-7.2,0-13,5.8-13,13s5.8,13,13,13h96
		c7.2,0,13-5.8,13-13s-5.8-13-13-13h30c7.2,0,13-5.8,13-13S1991.1,879.8,1983.9,879.8z"/>
</g>
<g>
	<path class="st19" d="M1894.3,733.9c46,0,83.4-11.4,83.4-25.6c0-14.1-37.4-25.5-83.4-25.5s-83.4,11.4-83.4,25.5
		C1810.9,722.5,1848.2,733.9,1894.3,733.9z"/>
	<path class="st20" d="M1894.3,733.9c46,0,83.4-11.4,83.4-25.6c0-14.1-37.4-25.5-83.4-25.5s-83.4,11.4-83.4,25.5
		C1810.9,722.5,1848.2,733.9,1894.3,733.9z"/>
	<g>
		<g>
			<defs>
				<path id="SVGID_1_" d="M1894.3,733.9c46,0,83.4-11.4,83.4-25.6c0-14.1-37.4-25.5-83.4-25.5s-83.4,11.4-83.4,25.5
					C1810.9,722.5,1848.2,733.9,1894.3,733.9z"/>
			</defs>
			<clipPath id="SVGID_2_">
				<use xlink:href="#SVGID_1_"  style="overflow:visible;"/>
			</clipPath>
			<g class="st21">
				<line class="st20" x1="1814.3" y1="682.8" x2="1814.3" y2="728.8"/>
				<line class="st20" x1="1818.8" y1="682.8" x2="1818.8" y2="728.8"/>
				<line class="st20" x1="1823.3" y1="682.8" x2="1823.3" y2="728.8"/>
				<line class="st20" x1="1827.8" y1="682.8" x2="1827.8" y2="728.8"/>
				<line class="st20" x1="1832.3" y1="682.8" x2="1832.3" y2="728.8"/>
				<line class="st20" x1="1836.8" y1="682.8" x2="1836.8" y2="728.8"/>
				<line class="st20" x1="1841.3" y1="682.8" x2="1841.3" y2="728.8"/>
				<line class="st20" x1="1845.8" y1="682.8" x2="1845.8" y2="728.8"/>
				<line class="st20" x1="1850.3" y1="682.8" x2="1850.3" y2="728.8"/>
				<line class="st20" x1="1854.8" y1="682.8" x2="1854.8" y2="728.8"/>
				<line class="st20" x1="1859.3" y1="682.8" x2="1859.3" y2="728.8"/>
				<line class="st20" x1="1863.8" y1="682.8" x2="1863.8" y2="728.8"/>
				<line class="st20" x1="1868.3" y1="682.8" x2="1868.3" y2="728.8"/>
				<line class="st20" x1="1872.8" y1="682.8" x2="1872.8" y2="728.8"/>
				<line class="st20" x1="1877.3" y1="682.8" x2="1877.3" y2="728.8"/>
				<line class="st20" x1="1881.8" y1="682.8" x2="1881.8" y2="728.8"/>
				<line class="st20" x1="1886.3" y1="682.8" x2="1886.3" y2="728.8"/>
				<line class="st20" x1="1890.8" y1="682.8" x2="1890.8" y2="728.8"/>
				<line class="st20" x1="1895.3" y1="682.8" x2="1895.3" y2="728.8"/>
				<line class="st20" x1="1899.8" y1="682.8" x2="1899.8" y2="728.8"/>
				<line class="st20" x1="1904.3" y1="682.8" x2="1904.3" y2="728.8"/>
				<line class="st20" x1="1908.8" y1="682.8" x2="1908.8" y2="728.8"/>
				<line class="st20" x1="1913.3" y1="682.8" x2="1913.3" y2="728.8"/>
				<line class="st20" x1="1917.8" y1="682.8" x2="1917.8" y2="728.8"/>
				<line class="st20" x1="1922.3" y1="682.8" x2="1922.3" y2="728.8"/>
				<line class="st20" x1="1926.8" y1="682.8" x2="1926.8" y2="728.8"/>
				<line class="st20" x1="1931.3" y1="682.8" x2="1931.3" y2="728.8"/>
				<line class="st20" x1="1935.8" y1="682.8" x2="1935.8" y2="728.8"/>
				<line class="st20" x1="1940.3" y1="682.8" x2="1940.3" y2="728.8"/>
				<line class="st20" x1="1944.8" y1="682.8" x2="1944.8" y2="728.8"/>
				<line class="st20" x1="1949.3" y1="682.8" x2="1949.3" y2="728.8"/>
				<line class="st20" x1="1953.8" y1="682.8" x2="1953.8" y2="728.8"/>
				<line class="st20" x1="1958.3" y1="682.8" x2="1958.3" y2="728.8"/>
				<line class="st20" x1="1962.8" y1="682.8" x2="1962.8" y2="728.8"/>
				<line class="st20" x1="1967.3" y1="682.8" x2="1967.3" y2="728.8"/>
				<line class="st20" x1="1971.8" y1="682.8" x2="1971.8" y2="728.8"/>
				<line class="st20" x1="1976.3" y1="682.8" x2="1976.3" y2="728.8"/>
			</g>
		</g>
		<g>
			<defs>
				<path id="SVGID_3_" d="M1894.3,733.9c46,0,83.4-11.4,83.4-25.6c0-14.1-37.4-25.5-83.4-25.5s-83.4,11.4-83.4,25.5
					C1810.9,722.5,1848.2,733.9,1894.3,733.9z"/>
			</defs>
			<clipPath id="SVGID_4_">
				<use xlink:href="#SVGID_3_"  style="overflow:visible;"/>
			</clipPath>
			<path class="st22" d="M1895.3,738.9c42.6,0,77-7.3,77-16.5c0-9.1-34.5-16.5-77-16.5c-42.6,0-77,7.3-77,16.5
				C1818.4,731.4,1852.8,738.9,1895.3,738.9z"/>
		</g>
	</g>
</g>
<g>
	<path class="st19" d="M891.2,733.9c46,0,83.4-11.4,83.4-25.6c0-14.1-37.4-25.5-83.4-25.5s-83.4,11.4-83.4,25.5
		C807.8,722.5,845.1,733.9,891.2,733.9z"/>
	<path class="st20" d="M891.2,733.9c46,0,83.4-11.4,83.4-25.6c0-14.1-37.4-25.5-83.4-25.5s-83.4,11.4-83.4,25.5
		C807.8,722.5,845.1,733.9,891.2,733.9z"/>
	<g>
		<g>
			<defs>
				<path id="SVGID_5_" d="M891.2,733.9c46,0,83.4-11.4,83.4-25.6c0-14.1-37.4-25.5-83.4-25.5s-83.4,11.4-83.4,25.5
					C807.8,722.5,845.1,733.9,891.2,733.9z"/>
			</defs>
			<clipPath id="SVGID_6_">
				<use xlink:href="#SVGID_5_"  style="overflow:visible;"/>
			</clipPath>
			<g class="st23">
				<line class="st20" x1="811.2" y1="682.8" x2="811.2" y2="728.8"/>
				<line class="st20" x1="815.7" y1="682.8" x2="815.7" y2="728.8"/>
				<line class="st20" x1="820.2" y1="682.8" x2="820.2" y2="728.8"/>
				<line class="st20" x1="824.7" y1="682.8" x2="824.7" y2="728.8"/>
				<line class="st20" x1="829.2" y1="682.8" x2="829.2" y2="728.8"/>
				<line class="st20" x1="833.7" y1="682.8" x2="833.7" y2="728.8"/>
				<line class="st20" x1="838.2" y1="682.8" x2="838.2" y2="728.8"/>
				<line class="st20" x1="842.7" y1="682.8" x2="842.7" y2="728.8"/>
				<line class="st20" x1="847.2" y1="682.8" x2="847.2" y2="728.8"/>
				<line class="st20" x1="851.7" y1="682.8" x2="851.7" y2="728.8"/>
				<line class="st20" x1="856.2" y1="682.8" x2="856.2" y2="728.8"/>
				<line class="st20" x1="860.7" y1="682.8" x2="860.7" y2="728.8"/>
				<line class="st20" x1="865.2" y1="682.8" x2="865.2" y2="728.8"/>
				<line class="st20" x1="869.7" y1="682.8" x2="869.7" y2="728.8"/>
				<line class="st20" x1="874.2" y1="682.8" x2="874.2" y2="728.8"/>
				<line class="st20" x1="878.7" y1="682.8" x2="878.7" y2="728.8"/>
				<line class="st20" x1="883.2" y1="682.8" x2="883.2" y2="728.8"/>
				<line class="st20" x1="887.7" y1="682.8" x2="887.7" y2="728.8"/>
				<line class="st20" x1="892.2" y1="682.8" x2="892.2" y2="728.8"/>
				<line class="st20" x1="896.7" y1="682.8" x2="896.7" y2="728.8"/>
				<line class="st20" x1="901.2" y1="682.8" x2="901.2" y2="728.8"/>
				<line class="st20" x1="905.7" y1="682.8" x2="905.7" y2="728.8"/>
				<line class="st20" x1="910.2" y1="682.8" x2="910.2" y2="728.8"/>
				<line class="st20" x1="914.7" y1="682.8" x2="914.7" y2="728.8"/>
				<line class="st20" x1="919.2" y1="682.8" x2="919.2" y2="728.8"/>
				<line class="st20" x1="923.7" y1="682.8" x2="923.7" y2="728.8"/>
				<line class="st20" x1="928.2" y1="682.8" x2="928.2" y2="728.8"/>
				<line class="st20" x1="932.7" y1="682.8" x2="932.7" y2="728.8"/>
				<line class="st20" x1="937.2" y1="682.8" x2="937.2" y2="728.8"/>
				<line class="st20" x1="941.7" y1="682.8" x2="941.7" y2="728.8"/>
				<line class="st20" x1="946.2" y1="682.8" x2="946.2" y2="728.8"/>
				<line class="st20" x1="950.7" y1="682.8" x2="950.7" y2="728.8"/>
				<line class="st20" x1="955.2" y1="682.8" x2="955.2" y2="728.8"/>
				<line class="st20" x1="959.7" y1="682.8" x2="959.7" y2="728.8"/>
				<line class="st20" x1="964.2" y1="682.8" x2="964.2" y2="728.8"/>
				<line class="st20" x1="968.7" y1="682.8" x2="968.7" y2="728.8"/>
				<line class="st20" x1="973.2" y1="682.8" x2="973.2" y2="728.8"/>
			</g>
		</g>
		<g>
			<defs>
				<path id="SVGID_7_" d="M891.2,733.9c46,0,83.4-11.4,83.4-25.6c0-14.1-37.4-25.5-83.4-25.5s-83.4,11.4-83.4,25.5
					C807.8,722.5,845.1,733.9,891.2,733.9z"/>
			</defs>
			<clipPath id="SVGID_8_">
				<use xlink:href="#SVGID_7_"  style="overflow:visible;"/>
			</clipPath>
			<path class="st24" d="M892.2,738.9c42.6,0,77-7.3,77-16.5c0-9.1-34.5-16.5-77-16.5c-42.6,0-77,7.3-77,16.5
				C815.3,731.4,849.7,738.9,892.2,738.9z"/>
		</g>
	</g>
</g>
</svg>
