<?xml version="1.0" encoding="utf-8"?>
<!-- Generator: Adobe Illustrator 23.1.0, SVG Export Plug-In . SVG Version: 6.00 Build 0)  -->
<svg version="1.1" id="Layer_1" xmlns="http://www.w3.org/2000/svg" xmlns:xlink="http://www.w3.org/1999/xlink" x="0px" y="0px"
	 viewBox="0 0 175 157" style="enable-background:new 0 0 175 157;" xml:space="preserve">
<style type="text/css">
	.st0{fill:#6D3650;}
	.st1{fill:#A93D71;}
	.st2{fill:#DF5F9C;}
	.st3{fill:#F09EC5;}
	.st4{fill:#2C5F3E;}
	.st5{fill:#264A33;}
</style>
<g>
	<path class="st0" d="M55.8,97.5c0,0,0,3.4-3.5,2.8c-3.5-0.6-2-3.2-3-6.3C48.2,91,58,86.9,55.8,97.5z"/>
	<path class="st1" d="M46.4,89.1c0,0,1.5,4.5,0.3,6.7C45.4,98,50,99.5,54,92.5c2.4-4.3,3.1-9.3,2-14L46.4,89.1z"/>
	<path class="st1" d="M71.5,71.9c0,0-2,14.9-3.6,17.6c-1.6,2.6-8.2,5.6-11.2,12.3c-1-0.8-1.7-1.8-2.2-3c-0.5-1.1-0.7-2.4-0.7-3.6
		c0.1-4.4-3.5-9.3-0.6-18C56.2,68.5,71.5,71.9,71.5,71.9z"/>
	<path class="st2" d="M76.8,52.4c0,0,6.4,6.4,5.1,14.2c-1.4,7.9-15.4,23.1-16.1,25.6c-0.7,2.5,4-6.6,3.6-9.5c-0.4-3-1.1-29.4,4-32.4
		C78.6,47.4,76.8,52.4,76.8,52.4z"/>
	<path class="st3" d="M69.3,81.4c0,0-0.6,5.3-2.3,7.9c-1.7,2.6-3,6.3,0.5,5.5C71.1,94,69.8,83.8,69.3,81.4z"/>
	<path class="st2" d="M71.8,54.9c0,0,0.4,20.5-5.6,28.2c-6,7.7-17.3,5.9-18.8,10c-1.5,4.2-5.8,0.7-5.1-1.8c0.7-2.5-13.3-10.9,9.4-38
		C51.7,53.5,68.6,40.3,71.8,54.9z"/>
	<path class="st3" d="M42.4,91.5c-0.7,2.5,3.6,6,5.1,1.8c0.1-0.2,0.2-0.5,0.3-0.7c0.2-1.2,0-2.3-0.6-3.4c-1.5-3-7.8-4.1-8.5-9.3
		C38.7,86.9,42.7,90.1,42.4,91.5z"/>
	<path class="st4" d="M45.2,58.2c-1,3.1-2,5.7-2,5.7c2-3.5,2.6-2.6,9.5-5.3c2.8-1.1,5.4-2.7,7.7-4.5c-4.8,6.1-5.3,16-4.5,18
		c0.9,2.4,2.3,12.8,2.3,12.8s2.4-2.1,9.2-5.1c6.8-3,12.2-13.4,11.1-19.2c-1.1-5.8-3.1-8.4-3.1-8.4s6.5,6.8,9.5,6.8
		c3,0,7.7,5.2,7.7,5.2s-0.2-2.2-5.1-10.6c-4.9-8.4-14.9-5.8-14.9-5.8c-1.7-0.7-3.3-1.2-5.1-1.6c0,0-2.7-4.5-7-4.5
		c-3.2,0-4-1.1-4.2-1.7c0.3,1.2,0.8,2.2,1.6,3.2c0.7,0.9,1.7,1.7,2.7,2.2C49.3,45.5,45.9,55.8,45.2,58.2z"/>
	<path class="st4" d="M67.4,43.5c-0.6,1.1-1.4,2-2.3,2.8c0.2-0.1,4.7,2.8,4.7,2.8s4.6-0.3,4.3-1.2c-0.3-0.9,0.3-2.9,0.3-2.9
		c0.3-0.9,0.2-1.8-0.2-2.6c-0.4-0.8-1.1-1.5-2-1.8l-0.3-0.1c-0.8-0.3-1.7-0.2-2.5,0.1c-0.8,0.3-1.4,0.9-1.8,1.7
		c-0.1,0.1-0.1,0.2-0.1,0.4L67.4,43.5z"/>
	<path class="st4" d="M99,23c-15.1-6-26,10.3-29.5,19.2l3.2,3.2c7.1-21.1,22.5-24.3,30.2-17.1c24.9,23.1,0,70.4-10.3,88.5
		c-8.3,14.5-12,29-12.8,34.5h7.8c0-18.1,17.4-45.5,25.3-69.3C120.7,58.2,117.8,30.5,99,23z"/>
	<path class="st4" d="M145.6,106.4c-0.6-0.7-1.2-1.3-1.8-2c-2-2.1-4.2-4.1-6.3-5.8c0.7-0.4,2.3,0.2,2.3,0.2
		c-2.9-3.2-9.4-5.6-13.4-6.7c-1.1-0.4-2.2-0.7-3.2-0.9c0,0-0.1,0-0.1,0c-2.9-0.5-5.4-0.1-7,1.4c-2.4,2.3-2.4,6.6-0.6,11.7
		c0,0,2.7,8.7,6.2,14.5c3.4,5.8,2.5,7.9,2.5,7.9s2.1-1.8,1.8-3.2c0,0,0.4,3.4,3.4,8.5c3,5.1,24,5.3,24.1,12.5
		C153.6,144.5,164.9,128,145.6,106.4z"/>
	<path class="st5" d="M117.1,93.8c0,0-4.6-2.5-6.9-2.8s-6.1,2-1.7,1.8s8.6,2,8.6,2s18.6,5.8,27.1,21.2
		C144.3,116,136.6,99.9,117.1,93.8z"/>
</g>
<g>
	<path class="st4" d="M100.5,100.6c-0.9-1.4-2.4-2.3-4.4-2.8c-4.1-2-15.5-0.4-15.5-0.4c0.5,0.7,0.3,1.2,1.9,1.5
		c-3.4,1.1-6.3,2.7-9.7,4.8c-4.7,2.7-8.1,1.5-8.1,1.5c0.3,0.8,1.5,1.4,2.8,1.8c-0.1,0-0.1,0-0.1,0h0.5c0,0-0.4,0-1,0.3
		c-0.4,0.2-0.7,0.4-1.1,0.6c-1.6,1-3.8,3.3-5.6,8.2c-3.2,8.7-11.6,13.8-11.6,13.8c-1.9,1.7-3.5,2.8-4.4,2.6c0,0,12.5,2.9,19.7,1
		c5.6-0.8,12.4-3.5,19.1-7.7C96.3,117.5,104.1,106.2,100.5,100.6z"/>
	<path class="st5" d="M98.9,105.1C90.7,124.3,45.8,132,45.8,132C85.2,123.5,99,105.1,98.9,105.1z"/>
</g>
</svg>
