<?xml version="1.0" encoding="utf-8"?>
<!-- Generator: Adobe Illustrator 23.1.0, SVG Export Plug-In . SVG Version: 6.00 Build 0)  -->
<svg version="1.1" id="Layer_1" xmlns="http://www.w3.org/2000/svg" xmlns:xlink="http://www.w3.org/1999/xlink" x="0px" y="0px"
	 viewBox="0 0 175 157" style="enable-background:new 0 0 175 157;" xml:space="preserve">
<style type="text/css">
	.st0{fill:#AF4D7C;}
	.st1{fill:#DB458D;}
	.st2{fill:#DF5F9C;}
	.st3{fill:#F09EC5;}
	.st4{fill:#CDD759;}
	.st5{fill:#2C5F3E;}
	.st6{fill:url(#SVGID_1_);}
	.st7{fill:#264A33;}
	.st8{fill:#FFFFFF;}
	.st9{fill:url(#SVGID_2_);}
</style>
<g>
	<g>
		<path class="st0" d="M66.5,54.5c-7.1-20.7,8.9-43.1,28-49.7c8.9-3,16.8-2,23.6,1.8c0.5,0.4,1.2,0.7,1.7,1c2.3,1.5,6.7,4.2,8.4,4.2
			c2.3,0.2,14.3,11.5,8.2,27.9c-2.2,19.4-27.2,41.8-43.5,47.5C73.7,94,73.7,75.2,66.5,54.5z"/>
		<path class="st0" d="M36,24.3c1.2-0.3,2.7-1.4,4.1-2.6c1.3-1.7,2.8-3.3,4.5-4.5c3.5-2.6,18.2-6.8,23.5-6.7
			c17,0.1,27,18.5,26.7,37.3c-0.3,18.9,4.4,41.5-12.6,41.3S33,66.1,33.2,47.2c0.1-1.6,0.1-3.2,0.3-4.8c0,0-0.1,0-0.2,0
			c-6.2-1.5-3.4-8.5-4.2-10.5C28.2,29.8,32.8,25.1,36,24.3z"/>
		<path class="st1" d="M85.1,49.2c-2-21.6-22.4-35.6-39.4-34c-7.9,0.7-13.7,4.7-17.4,10.9c-0.4,0.5-0.6,1.1-0.9,1.6
			c-1.3,2.3-3.6,6.5-5,7.2c-1.7,1.1-6.8,16.2,3.7,28.5C34.9,80,62.2,90.5,76.9,89.2C93.8,87.8,87.1,70.8,85.1,49.2z"/>
		<path class="st1" d="M141.6,17.5c-1.2-0.2-2.8-1.3-4.4-2.6c-1.5-1.9-3-3.5-4.9-4.9c-3.8-2.7-8.3-4.1-13.6-3.6
			C101.8,8,83,27.5,85,49.1s0.7,39.4,17.7,37.8c16.9-1.6,45.7-21.9,43.7-43.5c-0.2-1.9-0.3-3.7-0.7-5.6c0,0,0.1,0,0.2,0
			c6-2.3,2.5-10,3.2-12.3C149.9,23.2,144.8,18.2,141.6,17.5z"/>
		<path class="st2" d="M88.5,88c0,0,10.9,9.5,40.7-6.1s24.3-34.8,34.5-34.4c0,0,5.8-1-0.5-5.9c-6.4-4.9-34-6.5-39.3,5.9
			C118.5,60,110.4,87,88.5,88z"/>
		<path class="st3" d="M130.5,41.2c0,0,7.5-3,13.1-1.2c5.7,1.8,13.7,9.5,20.7,7.6c0,0,2.5-0.5,1.8-2.8
			C165.4,42.5,154.5,33,130.5,41.2z"/>
		<path class="st2" d="M81.3,10c-5.8,0.5-11,3.1-15.3,7c-0.9,0.9-1.8,1.8-2.7,2.8c-1.7,1.4-4.2,3-7.8,4.2c-7.6,2.5-6.1,9.3-4.1,10
			c0.8,0.3,1.5,3.7,2,7.2c0,0-0.5,13.7-1.2,16.5c-0.6,2.8-1.5,25.1,30,30.2c2,0.3,4.2,0.4,6.2,0.2c16.9-1.6,29.1-20.3,27.1-42
			C113.6,24.7,98.3,8.5,81.3,10z"/>
		<path class="st2" d="M88.5,88c0,0-9,11.4-41.1,1.5S17.1,59.7,7.2,62c0,0-5.9,0-0.5-5.9c5.4-6,32.3-12.6,39.7-1.3
			C53.8,66,66.7,91,88.5,88z"/>
		<path class="st3" d="M7.8,61.9c0,0,6.2-0.6,7.2,0.7c1,1.3,7.5,2,10,0s3.3-14.6,12.1-12.6l5.8,1.5c0,0-7.4-7.2-29.1,0.4
			C-7.8,59.3,4.8,62.7,7.8,61.9z"/>
		<path d="M64.8,37.7c0,0,1.2-5.2,6.2-3.6c5,1.7,8.8,4.2,8.8,4.2s-1,0.9-2.2,0.7C76.2,38.6,68.4,31,64.8,37.7z"/>
		<path d="M102.5,34.2c0,0-2.2-4.9-6.7-2.4s-7.9,5.7-7.9,5.7s1.2,0.7,2.3,0.3C91.5,37.2,97.8,28.3,102.5,34.2z"/>
		<path d="M76.2,41.3c-0.9-0.3-1.9,0.8-1.9,0.8l-0.1,0c-0.9,0.6-2.3-0.3-2.3-0.3s1.2,1.2,2.8,0.7c-0.1,0.4-0.1,0.8-0.1,1.3
			c0.1,1.4,0.9,2.4,1.8,2.3c0.9-0.1,1.5-1.2,1.4-2.6C77.6,42.4,76.9,41.5,76.2,41.3z"/>
		<path d="M92,39.9c0.9-0.5,2,0.4,2,0.4l0.1,0c0.9,0.4,2.2-0.7,2.2-0.7s-1,1.4-2.6,1.2c0.1,0.4,0.3,0.8,0.3,1.3
			c0.1,1.4-0.5,2.6-1.4,2.6c-0.9,0.1-1.7-0.9-1.8-2.3C90.8,41.2,91.2,40.2,92,39.9z"/>
		<path class="st4" d="M87.5,49.3c0,0-0.5,0.5-1.4,0.1c-0.9-0.4-1.5-0.8-1.8,0.2c-0.6-0.9-0.9-0.4-1.8,0.2c-0.9,0.6-1.4,0.1-1.4,0.1
			c0.1,0.2,0.3,0.4,0.6,0.4c0,0,2.7,0.9,5.2-0.5C87.2,49.8,87.5,49.6,87.5,49.3z"/>
		<path class="st4" d="M82.9,50.9C82.8,50.8,82.8,50.8,82.9,50.9C82.8,50.8,82.8,50.9,82.9,50.9z"/>
		<path class="st4" d="M84.5,51.3c0,0-1,0.3-1.6-0.5c0.1,0.2,0.5,0.6,0.6,0.9c0.2,0.5,1.2,0.6,1.2,0.6s0.8-0.3,1-0.8
			c0.1-0.4,0.4-0.8,0.4-1C85.4,51.4,84.5,51.3,84.5,51.3z"/>
		<path class="st4" d="M86.1,50.6C86,50.5,86,50.5,86.1,50.6C86,50.5,86,50.5,86.1,50.6z"/>
		<path class="st5" d="M53.5,84.8C53.4,84.8,53.4,84.8,53.5,84.8C53.4,84.8,53.4,84.8,53.5,84.8z"/>
		<path class="st5" d="M53.7,85.1c-0.1-0.2-0.2-0.3-0.3-0.3C53.5,84.9,53.6,85,53.7,85.1z"/>
		<path class="st5" d="M109.1,85.5c6.5-4.3,19.2-1.3,19.2-1.3s-1.9-0.7-13.7-4.7c-5.2-1.7-12,0.7-18.6,3.6c1-2.9-0.8-5.5-0.8-5.5
			c0.4,2.4-1.9,5.4-4.4,7.8c-1.9,0.9-3.9,1.7-5.6,2.3c-3.3,0-8.9-1.4-10.6-10.6c0,0-0.9,5.4,1.4,8.8c-2.9-0.2-5.1,0.4-6.1,0.7
			c0,0-12.5,1.5-16-1.6c1.2,1.2,5.7,5.3,11.4,7.6c-2.4,0.7-6,2.2-9.6,5.1c0,0,10.3-3.6,19.3-1.9c0,0.4,0.1,0.8,0.5,1.2
			c0,0.3,0.1,0.6,0.1,1c1,10.6,14.5,8.1,14.5,8.1s13.8-0.1,12.8-10.6c0-0.4-0.1-0.8-0.2-1.2c0-0.1,0.1-0.1,0.1-0.2
			c6.7-5.6,15.8-2.6,15.8-2.6c-4.7-2.9-9-3.4-12.2-3.4C107,87.1,107.9,86.2,109.1,85.5z"/>
		
			<linearGradient id="SVGID_1_" gradientUnits="userSpaceOnUse" x1="-453.8804" y1="-832.5057" x2="-453.8804" y2="-879.4637" gradientTransform="matrix(0.9958 -9.163942e-02 9.163942e-02 0.9958 620.1335 939.3677)">
			<stop  offset="0" style="stop-color:#264A33"/>
			<stop  offset="1" style="stop-color:#2C5F3E"/>
		</linearGradient>
		<path class="st6" d="M82.2,105.7c0,0,3.8,5.5,3.5,11.9c-0.3,6.5-3.8,34.3-3.8,34.3l7,0.3l3.5-32c0,0,0.8-14.1,5.1-15.9"/>
		<path class="st5" d="M64.6,107.6c-7.1-3.6-14.1-5.6-19.7-5.9c-7.3-1.2-19.5,2.8-19.5,2.8c0.9-0.3,2.6,0.7,4.6,2.2
			c0,0,8.8,4.3,12.8,12.7c2.2,4.7,4.6,6.8,6.3,7.7c0.4,0.2,0.7,0.3,1.2,0.5c0.6,0.2,1,0.2,1,0.2l-0.5,0c0,0,0,0,0.1,0
			c-1.3,0.5-2.4,1.2-2.6,2c0,0,3.3-1.5,8.2,0.8c3.6,1.8,6.6,3.1,10.1,3.9c-1.6,0.4-1.3,0.9-1.8,1.7c0,0,11.5,0.5,15.4-1.8
			c1.9-0.7,3.4-1.7,4.1-3.2C87.4,125.2,78.6,114.6,64.6,107.6z"/>
		<path class="st5" d="M84.7,126.4c0,0,1.8,5,1.7,8.7c-0.2,3.7-2.7,2.5-2.7,2.5s-1.3-0.7,0.4-2.7c1.6-2-0.1-6.4-0.1-6.4"/>
		<path class="st7" d="M27,104.8c0,0,45.4,3.6,55.3,21.9C82.4,126.7,67,109.7,27,104.8z"/>
		<path class="st5" d="M118.7,117.2c-0.9,0.3-1.8,0.6-2.6,0.7c-2.8,1-5.5,2.1-8,3.3c-0.1-0.8,1.2-2,1.2-2c-4.2,1.3-9.2,6.3-11.9,9.3
			c-0.8,0.9-1.5,1.7-2.2,2.5l0,0c-1.8,2.5-2.5,4.9-1.8,7c1,3.2,5,5.1,10.6,5.6c0,0,9.2,1.3,16,0.6c6.9-0.6,8.3,1,8.3,1
			s-0.7-2.6-2.1-3c0,0,3.3,1.1,9.2,0.6s15.2-19.8,21.9-16.7C157.1,126.2,146.7,108.8,118.7,117.2z"/>
		<path class="st7" d="M94.9,137.9c0,0-4.3,3.1-5.5,5.1c-1.2,1.9-0.8,6.5,0.9,2.3c1.7-4.2,5.5-7,5.5-7s13.3-14.5,31.1-15.7
			C126.9,122.6,108.9,122.7,94.9,137.9z"/>
		<path class="st8" d="M74.6,44.6c0.3,0,0.5-0.2,0.5-0.5c0-0.3-0.2-0.5-0.5-0.5c-0.3,0-0.5,0.2-0.5,0.5
			C74.1,44.4,74.4,44.6,74.6,44.6z"/>
		<path class="st8" d="M91,43.1c0.3,0,0.5-0.2,0.5-0.5c0-0.3-0.2-0.5-0.5-0.5c-0.3,0-0.5,0.2-0.5,0.5S90.7,43.1,91,43.1z"/>
	</g>
</g>
</svg>
