<?xml version="1.0" encoding="utf-8"?>
<!-- Generator: Adobe Illustrator 23.1.0, SVG Export Plug-In . SVG Version: 6.00 Build 0)  -->
<svg version="1.1" id="Layer_1" xmlns="http://www.w3.org/2000/svg" xmlns:xlink="http://www.w3.org/1999/xlink" x="0px" y="0px"
	 viewBox="0 0 175 157" style="enable-background:new 0 0 175 157;" xml:space="preserve">
<style type="text/css">
	.st0{fill:#AF4D7C;}
	.st1{fill:#DB458D;}
	.st2{fill:#DF5F9C;}
	.st3{fill:#F09EC5;}
	.st4{fill:#CDD759;}
	.st5{fill:#2C5F3E;}
	.st6{fill:url(#SVGID_1_);}
	.st7{fill:#264A33;}
	.st8{fill:#FFFFFF;}
	.st9{fill:url(#SVGID_2_);}
</style>
<g>
	<g>
		<path class="st0" d="M73.8,52.8c-5.2-21.3,12.8-42.1,32.4-46.9c9.1-2.2,16.9-0.5,23.3,4c0.5,0.4,1.1,0.8,1.6,1.2
			c2.2,1.7,6.3,4.8,8,5c2.3,0.4,13.2,12.8,5.6,28.5c-4,19.1-30.9,39.1-47.7,43.3C77.3,92.8,79,74.1,73.8,52.8z"/>
		<path class="st0" d="M46.2,20c1.2-0.2,2.8-1.1,4.3-2.2c1.5-1.6,3.1-3,4.9-4.1c3.7-2.3,18.7-5.1,24-4.5
			c16.9,1.7,25.2,20.9,23.2,39.6c-2,18.8,0.6,41.7-16.3,40s-47-27.5-45-46.3c0.2-1.6,0.4-3.2,0.7-4.8c0,0-0.1,0-0.2,0
			c-6-2.1-2.6-8.8-3.2-10.8C37.9,24.7,42.9,20.5,46.2,20z"/>
		<path class="st1" d="M92.8,49.2c0-21.7-19-37.5-36.1-37.5c-7.9,0-14.1,3.4-18.3,9.3c-0.4,0.5-0.7,1-1,1.5
			c-1.5,2.2-4.2,6.1-5.6,6.7c-1.8,0.9-8.3,15.5,1.1,28.7c7.1,17.4,33.3,30.4,48,30.4C97.9,88.5,92.8,70.9,92.8,49.2z"/>
		<path class="st1" d="M151.9,22.9c-1.2-0.3-2.7-1.6-4.1-3c-1.3-2-2.7-3.8-4.4-5.3c-3.5-3-7.9-4.8-13.2-4.8
			c-17,0-37.5,17.6-37.5,39.3s-2.9,39.3,14.2,39.3c17,0,47.5-17.6,47.5-39.3c0-1.9,0-3.7-0.2-5.6c0,0,0.1,0,0.2,0
			c6.2-1.7,3.4-9.7,4.3-12C159.7,29.3,155.1,23.8,151.9,22.9z"/>
		<path class="st2" d="M92.6,88.2c0,0,10,10.5,41.1-2.3s27.4-32.4,37.5-31.1c0,0,5.9-0.5,0-5.9c-5.9-5.5-33.3-9.6-39.7,2.3
			C125,63.1,114.5,89.2,92.6,88.2z"/>
		<path class="st3" d="M138.7,45.4c0,0,7.7-2.3,13.2,0s12.8,10.7,19.9,9.5c0,0,2.5-0.3,2-2.6C173.4,49.9,163.4,39.5,138.7,45.4z"/>
		<path class="st2" d="M92.6,9.9c-5.8,0-11.2,2.1-15.9,5.6c-1,0.8-2,1.6-2.9,2.5c-1.8,1.2-4.5,2.6-8.2,3.5c-7.8,1.8-6.9,8.7-5,9.6
			c0.8,0.4,1.2,3.8,1.3,7.4c0,0-1.8,13.6-2.7,16.3c-0.9,2.7-3.8,24.9,27.1,32.8c2,0.5,4.1,0.8,6.2,0.8c17,0,30.8-17.6,30.8-39.3
			C123.4,27.5,109.6,9.9,92.6,9.9z"/>
		<path class="st2" d="M92.6,88.2c0,0-10,10.5-41.1-2.3S24.1,53.5,14,54.8c0,0-5.9-0.5,0-5.9c5.9-5.5,33.3-9.6,39.7,2.3
			C60.1,63.1,70.6,89.2,92.6,88.2z"/>
		<path class="st3" d="M14.6,54.8c0,0,6.2,0,7.1,1.4s7.3,2.7,10,0.9s4.6-14.2,13.2-11.4l5.6,2c0,0-6.7-7.8-29-2.3
			C-0.7,50.8,11.6,55.3,14.6,54.8z"/>
		<path d="M73.6,35.9c0,0,1.7-5.1,6.5-3s8.4,5,8.4,5s-1.1,0.8-2.3,0.5C84.9,37.9,77.8,29.6,73.6,35.9z"/>
		<path d="M111.5,35.9c0,0-1.7-5.1-6.5-3s-8.4,5-8.4,5s1.1,0.8,2.3,0.5C100.2,37.9,107.3,29.6,111.5,35.9z"/>
		<path d="M84.6,40.6c-0.9-0.4-2,0.6-2,0.6h-0.1c-0.9,0.5-2.3-0.5-2.3-0.5s1.1,1.3,2.7,1c-0.1,0.4-0.2,0.8-0.2,1.3
			c0,1.4,0.7,2.5,1.6,2.5s1.6-1.1,1.6-2.5C85.9,41.8,85.3,40.8,84.6,40.6z"/>
		<path d="M100.5,40.6c0.9-0.4,2,0.6,2,0.6h0.1c0.9,0.5,2.3-0.5,2.3-0.5s-1.1,1.3-2.7,1c0.1,0.4,0.2,0.8,0.2,1.3
			c0,1.4-0.7,2.5-1.6,2.5s-1.6-1.1-1.6-2.5C99.2,41.8,99.7,40.8,100.5,40.6z"/>
		<path class="st4" d="M95.2,49.6c0,0-0.5,0.5-1.4,0s-1.4-0.9-1.8,0c-0.5-0.9-0.9-0.5-1.8,0s-1.4,0-1.4,0c0.1,0.2,0.3,0.4,0.6,0.5
			c0,0,2.6,1.1,5.2,0C94.8,50,95.1,49.9,95.2,49.6z"/>
		<path class="st4" d="M90.4,50.7C90.3,50.6,90.3,50.6,90.4,50.7C90.3,50.6,90.3,50.7,90.4,50.7z"/>
		<path class="st4" d="M92,51.3c0,0-1,0.2-1.6-0.6c0.1,0.2,0.4,0.6,0.5,1c0.2,0.5,1.1,0.7,1.1,0.7s0.8-0.2,1.1-0.7
			c0.1-0.4,0.5-0.8,0.5-1C92.9,51.5,92,51.3,92,51.3z"/>
		<path class="st5" d="M58.2,82.1c-0.1-0.2-0.2-0.3-0.3-0.3C58,81.9,58.1,82,58.2,82.1z"/>
		<path class="st5" d="M113.3,87.6c6.9-3.7,19.2,0.5,19.2,0.5s-1.8-0.9-13.2-5.9c-5-2.2-12-0.4-18.9,1.9c1.3-2.8-0.3-5.6-0.3-5.6
			c0.2,2.4-2.4,5.2-5.1,7.4c-2,0.7-4,1.3-5.8,1.8c-3.3-0.3-8.7-2.2-9.6-11.5c0,0-1.4,5.3,0.6,8.9c-2.9-0.5-5.1-0.1-6.1,0.1
			c0,0-12.6,0.3-15.8-3.1c1.1,1.3,5.2,5.8,10.7,8.6c-2.5,0.5-6.2,1.6-10,4.2c0,0,10.6-2.6,19.4-0.1c0,0.4,0,0.8,0.4,1.2
			c0,0.3,0,0.6,0,1c0,10.6,13.7,9.4,13.7,9.4s13.7,1.2,13.7-9.4c0-0.4,0-0.8-0.1-1.2c0-0.1,0.1-0.1,0.1-0.2c7.2-5,16-1.1,16-1.1
			c-4.4-3.3-8.7-4.2-11.8-4.5C111.1,89,112.1,88.2,113.3,87.6z"/>
		
			<linearGradient id="SVGID_1_" gradientUnits="userSpaceOnUse" x1="-448.893" y1="-832.2308" x2="-448.893" y2="-879.1888" gradientTransform="matrix(1 0 0 1 539.01 984.3999)">
			<stop  offset="0" style="stop-color:#264A33"/>
			<stop  offset="1" style="stop-color:#2C5F3E"/>
		</linearGradient>
		<path class="st6" d="M84.7,105.2c0,0,3.3,5.8,2.4,12.2s-6.9,33.8-6.9,33.8l6.9,0.9l6.4-31.5c0,0,2.1-14,6.5-15.4"/>
		<path class="st5" d="M67,105.5c-6.7-4.2-13.5-6.9-19.1-7.7c-7.2-1.9-19.7,1-19.7,1c0.9-0.2,2.5,0.9,4.4,2.6c0,0,8.4,5.1,11.6,13.8
			c1.8,4.9,4,7.2,5.6,8.2c0.4,0.2,0.7,0.4,1.1,0.6c0.6,0.3,1,0.3,1,0.3h-0.5c0,0,0,0,0.1,0c-1.3,0.4-2.5,1-2.8,1.8
			c0,0,3.4-1.2,8.1,1.5c3.4,2.1,6.3,3.7,9.7,4.8c-1.6,0.3-1.4,0.8-1.9,1.5c0,0,11.4,1.6,15.5-0.4c2-0.5,3.5-1.4,4.4-2.8
			C88.1,125.1,80.3,113.8,67,105.5z"/>
		<path class="st5" d="M85.3,126.1c0,0,1.3,5.1,0.9,8.8c-0.5,3.7-2.9,2.2-2.9,2.2s-1.2-0.8,0.6-2.7c1.8-1.8,0.5-6.4,0.5-6.4"/>
		<path class="st7" d="M29.8,99.3c0,0,44.9,7.7,53.1,26.9C83,126.2,69.2,107.8,29.8,99.3z"/>
		<path class="st5" d="M120,120c-0.9,0.2-1.8,0.4-2.7,0.5c-2.9,0.7-5.7,1.6-8.3,2.5c0-0.8,1.4-1.9,1.4-1.9
			c-4.3,0.9-9.7,5.4-12.7,8.2c-0.9,0.8-1.7,1.6-2.4,2.3l0,0c-2,2.3-2.9,4.7-2.4,6.8c0.7,3.3,4.5,5.5,10,6.5c0,0,9,2.1,15.9,2.1
			s8.2,1.8,8.2,1.8s-0.5-2.7-1.8-3.2c0,0,3.2,1.4,9.1,1.4s16.9-18.3,23.3-14.6C157.4,132.5,148.7,114.2,120,120z"/>
		<path class="st7" d="M94.4,138.5c0,0-4.6,2.7-5.9,4.6c-1.4,1.8-1.4,6.4,0.7,2.4s6.1-6.5,6.1-6.5s14.6-13.2,32.4-12.8
			C127.7,126.2,109.7,124.6,94.4,138.5z"/>
		<path class="st8" d="M82.7,43.7c0.3,0,0.5-0.2,0.5-0.5s-0.2-0.5-0.5-0.5s-0.5,0.2-0.5,0.5C82.3,43.5,82.5,43.7,82.7,43.7z"/>
		<path class="st8" d="M99.2,43.7c0.3,0,0.5-0.2,0.5-0.5s-0.2-0.5-0.5-0.5s-0.5,0.2-0.5,0.5S98.9,43.7,99.2,43.7z"/>
	</g>
</g>
</svg>
