<?xml version="1.0" encoding="utf-8"?>
<!-- Generator: Adobe Illustrator 23.1.0, SVG Export Plug-In . SVG Version: 6.00 Build 0)  -->
<svg version="1.1" id="Layer_1" xmlns="http://www.w3.org/2000/svg" xmlns:xlink="http://www.w3.org/1999/xlink" x="0px" y="0px"
	 viewBox="0 0 90.9 90.9" style="enable-background:new 0 0 90.9 90.9;" xml:space="preserve">
<style type="text/css">
	.st0{fill:url(#SVGID_1_);}
	.st1{fill:url(#SVGID_2_);}
	.st2{fill:#F5EEB3;}
	.st3{fill:#2E2145;}
</style>
<g>
	<g>
		
			<linearGradient id="SVGID_1_" gradientUnits="userSpaceOnUse" x1="-493.5786" y1="336.1726" x2="-493.5786" y2="246.5836" gradientTransform="matrix(1 0 0 -1 539.01 336.8097)">
			<stop  offset="0" style="stop-color:#53BDBC"/>
			<stop  offset="1" style="stop-color:#2D8281"/>
		</linearGradient>
		<path class="st0" d="M45.4,90.2c24.7,0,44.8-20.1,44.8-44.8S70.2,0.6,45.4,0.6C20.7,0.6,0.6,20.7,0.6,45.4S20.7,90.2,45.4,90.2z"
			/>
		
			<linearGradient id="SVGID_2_" gradientUnits="userSpaceOnUse" x1="-493.5785" y1="336.3782" x2="-493.5785" y2="246.3782" gradientTransform="matrix(1 0 0 -1 539.01 336.8097)">
			<stop  offset="0" style="stop-color:#53BDBC"/>
			<stop  offset="1" style="stop-color:#2D8281"/>
		</linearGradient>
		<path class="st1" d="M45.4,0.8c11.9,0,23.1,4.6,31.5,13.1C85.4,22.3,90,33.5,90,45.4S85.4,68.5,77,77C68.5,85.4,57.3,90,45.4,90
			S22.3,85.4,13.9,77C5.5,68.5,0.8,57.3,0.8,45.4s4.6-23.1,13.1-31.5C22.3,5.5,33.5,0.8,45.4,0.8z M45.4,0.4c-24.9,0-45,20.1-45,45
			s20.1,45,45,45s45-20.1,45-45S70.3,0.4,45.4,0.4z"/>
	</g>
	<path class="st2" d="M45.2,57.3c11,0,19.9-8.9,19.9-19.9c0-11-8.9-19.9-19.9-19.9c-11,0-19.9,8.9-19.9,19.9
		C25.3,48.4,34.2,57.3,45.2,57.3z"/>
	<path class="st3" d="M61.6,33.9c-3.7-3.3-9.6-5.4-16.4-5.4s-12.7,2.1-16.4,5.4c0,0,2.2-10.1,16.2-10.1
		C59.4,23.9,61.6,33.9,61.6,33.9z"/>
	<path class="st3" d="M33.9,29.4c0,0-2.5-6.2-13.2-5.3C20.8,24.1,20.4,33.1,33.9,29.4z"/>
	<path class="st3" d="M34.3,29c0,0,5.8-2.5,7-5.8c1.2-3.3-0.8-8.6-0.8-8.6s-2.6,2.8-7.4,6.2C30.2,22.8,34.3,29,34.3,29z"/>
	<path class="st3" d="M34.7,30.2c0,0,1.6-2.9-0.4-3.3c-2.1-0.4-1.9,0.4-1.9,0.4s1.4,1.6,0,2.4S34.7,30.2,34.7,30.2z"/>
</g>
</svg>
