<?xml version="1.0" encoding="utf-8"?>
<!-- Generator: Adobe Illustrator 23.1.0, SVG Export Plug-In . SVG Version: 6.00 Build 0)  -->
<svg version="1.1" id="Layer_1" xmlns="http://www.w3.org/2000/svg" xmlns:xlink="http://www.w3.org/1999/xlink" x="0px" y="0px"
	 viewBox="0 0 90.9 90.9" style="enable-background:new 0 0 90.9 90.9;" xml:space="preserve">
<style type="text/css">
	.st0{fill:url(#SVGID_1_);}
	.st1{fill:#F5EEB3;}
	.st2{fill:#2E2145;}
</style>
<linearGradient id="SVGID_1_" gradientUnits="userSpaceOnUse" x1="45.45" y1="0" x2="45.45" y2="90.9">
	<stop  offset="0" style="stop-color:#53BDBC"/>
	<stop  offset="1" style="stop-color:#2D8281"/>
</linearGradient>
<rect class="st0" width="90.9" height="90.9"/>
<g>
	<path class="st1" d="M45.2,57.3c11,0,19.9-8.9,19.9-19.9s-8.9-19.9-19.9-19.9s-19.9,8.9-19.9,19.9C25.3,48.4,34.2,57.3,45.2,57.3z"
		/>
	<path class="st2" d="M61.6,33.9c-3.7-3.3-9.6-5.4-16.4-5.4s-12.7,2.1-16.4,5.4c0,0,2.2-10.1,16.2-10.1
		C59.4,23.9,61.6,33.9,61.6,33.9z"/>
	<path class="st2" d="M33.9,29.4c0,0-2.5-6.2-13.2-5.3C20.8,24.1,20.4,33.1,33.9,29.4z"/>
	<path class="st2" d="M34.3,29c0,0,5.8-2.5,7-5.8s-0.8-8.6-0.8-8.6s-2.6,2.8-7.4,6.2C30.2,22.8,34.3,29,34.3,29z"/>
	<path class="st2" d="M34.7,30.2c0,0,1.6-2.9-0.4-3.3c-2.1-0.4-1.9,0.4-1.9,0.4s1.4,1.6,0,2.4S34.7,30.2,34.7,30.2z"/>
</g>
</svg>
