<?xml version="1.0" encoding="utf-8"?>
<!-- Generator: Adobe Illustrator 23.1.0, SVG Export Plug-In . SVG Version: 6.00 Build 0)  -->
<svg version="1.1" id="Layer_1" xmlns="http://www.w3.org/2000/svg" xmlns:xlink="http://www.w3.org/1999/xlink" x="0px" y="0px"
	 viewBox="0 0 1125 2436" style="enable-background:new 0 0 1125 2436;" xml:space="preserve">
<style type="text/css">
	.st0{clip-path:url(#SVGID_2_);}
	.st1{fill:url(#SVGID_3_);}
	.st2{fill:#7A58C3;}
	.st3{opacity:0.5;fill:#D098EA;enable-background:new    ;}
	.st4{fill:#F1A7CA;}
	.st5{fill:#D098EA;}
	.st6{fill:#FFFFFF;stroke:#7A58C3;stroke-width:5;stroke-linecap:round;stroke-linejoin:round;}
	.st7{fill:none;stroke:#7A58C3;stroke-width:5;stroke-linecap:round;stroke-linejoin:round;}
	.st8{fill:#FFFFFF;}
</style>
<g>
	<defs>
		<rect id="SVGID_1_" width="1125" height="2436"/>
	</defs>
	<clipPath id="SVGID_2_">
		<use xlink:href="#SVGID_1_"  style="overflow:visible;"/>
	</clipPath>
	<g class="st0">
		<g>
			<g>
				
					<linearGradient id="SVGID_3_" gradientUnits="userSpaceOnUse" x1="2547.6001" y1="3235.0098" x2="2547.6001" y2="-8944.9902" gradientTransform="matrix(1 0 0 -1 264.9 -6508.9902)">
					<stop  offset="0" style="stop-color:#D1DDEC"/>
					<stop  offset="1" style="stop-color:#F5F0DD"/>
				</linearGradient>
				<rect y="-9744" class="st1" width="5625" height="12180"/>
			</g>
		</g>
		<path class="st2" d="M115.8,11c0-3.7-0.2-7.4-0.5-11H0v2436h74.3c-0.4-0.3-0.8-0.7-1.2-1c26.1-21.2,42.7-53.6,42.7-89.8
			s-16.7-68.5-42.7-89.8c26.1-21.2,42.7-53.6,42.7-89.8s-16.7-68.5-42.7-89.8c26.1-21.2,42.7-53.6,42.7-89.8s-16.7-68.5-42.7-89.8
			c26.1-21.2,42.7-53.6,42.7-89.8c0-36.2-16.7-68.5-42.7-89.8c26.1-21.2,42.7-53.6,42.7-89.8c0-36.2-16.7-68.5-42.7-89.8
			c26.1-21.2,42.7-53.6,42.7-89.8c0-36.2-16.7-68.5-42.7-89.8c26.1-21.2,42.7-53.6,42.7-89.8c0-36.2-16.7-68.5-42.7-89.8
			c26.1-21.2,42.7-53.6,42.7-89.8s-16.7-68.5-42.7-89.8c26.1-21.2,42.7-53.6,42.7-89.8s-16.7-68.5-42.7-89.8
			c26.1-21.2,42.7-53.6,42.7-89.8S99.1,660.3,73.1,639c26.1-21.2,42.7-53.6,42.7-89.8s-16.7-68.5-42.7-89.8
			c26.1-21.2,42.7-53.6,42.7-89.8s-16.7-68.5-42.7-89.8c26.1-21.2,42.7-53.6,42.7-89.8s-16.7-68-42.7-89.2
			C99.1,79.5,115.8,47.2,115.8,11z"/>
		<path class="st2" d="M1125,0H48v74.3c0.3-0.4,0.7-0.8,1-1.2c21.2,26.1,53.6,42.7,89.8,42.7s68.5-16.7,89.8-42.7
			c21.2,26.1,53.6,42.7,89.8,42.7s68.5-16.7,89.8-42.7c21.2,26.1,53.6,42.7,89.8,42.7s68.5-16.7,89.8-42.7
			c21.2,26.1,53.6,42.7,89.8,42.7s68.5-16.7,89.8-42.7c21.2,26.1,53.6,42.7,89.8,42.7s68.5-16.7,89.8-42.7
			c21.2,26.1,53.6,42.7,89.8,42.7c35.5,0,67.2-16,88.4-41.1V0H1125z"/>
		<circle class="st2" cx="1155" cy="30" r="86"/>
		<path class="st2" d="M1154.5,2436c0-0.2,0-0.3,0-0.5c0-63.8-51.7-115.5-115.5-115.5s-115.5,51.7-115.5,115.5c0,0.2,0,0.3,0,0.5
			H1154.5z"/>
		<g>
			<ellipse class="st3" cx="883.9" cy="754.2" rx="142.4" ry="21.8"/>
			<path class="st4" d="M897.1,521c18-38.2,48.5-30.5,49-30.5c37.2,21.8,67,63.4,62.1,145.5c-5.9-13.6-28.2-40-69.3-35.9
				c-10.5,1-21.6,3.8-33.6,7.2C877.6,606.2,879.1,559.5,897.1,521z"/>
			<path class="st5" d="M843.2,474.8c19-8.5,41.3-5.4,48.5-3.8c18,3.6,37,9.5,54.2,19.8c-0.3,0-31.1-7.7-49,30.5
				c-18,38.5-19.5,85.2,8.2,86.2c-30.5,8.5-67,19.5-111.9,11.5c-6.9-8.2-13.1-21.8-14.1-43.9C776.5,523.5,820.1,485,843.2,474.8z"/>
			<path class="st2" d="M665.1,440.9c15.4-40.8,51.1-69,90.3-56.5l80.8,30.8c-9.5,6.9-24.1,20.8-24.6,32.6
				C794.9,437.6,741.8,412.4,665.1,440.9z"/>
			<path class="st5" d="M665.1,440.9c76.7-28.5,129.9-3.3,146.8,6.9c-0.3,3.8,1.3,7.7,4.9,10.8c-9.2,0.3-19.5,1.3-30,3.3
				c-30.8,6.2-100.6,44.9-102.9,98.3C653.3,524.3,651,477.6,665.1,440.9z"/>
			<path class="st2" d="M786.7,461.9c10.5-2.1,20.8-3.1,30-3.3l0.3,0.3c7.4,5.9,39.3,4.6,74.7,12.1c-7.2-1.3-29.5-4.6-48.5,3.8
				c-23.1,10.3-66.7,48.8-64.2,100.1c1,22.1,7.4,35.4,14.1,43.9c-24.4-4.4-51.6-14.6-81.4-34.1c-11.3-7.2-20.5-15.4-28-24.4
				C686.1,506.9,755.9,468.1,786.7,461.9z"/>
			<path class="st4" d="M890.1,328.7c19.3-10.3,47.2-40.1,42.8-80.2c-5.5-50.5,64.3-46.9,95.7,15.6c31.3,62.4-8.5,137.3-80.2,175.1
				c-0.1,0-0.2,0.1-0.3,0.1c-0.1,0.1-0.2,0.1-0.3,0.2c-66.8,34.8-156.1,27.6-189.7-33.6c-33.6-61.3,3.1-120.8,41.5-87.6
				C830.3,344.8,871.8,338.1,890.1,328.7z"/>
			<path class="st6" d="M904.8,356.7c38-19.9,57.4-61.1,51.8-101.5c8.2,7.6,15.3,16.7,20.9,27.2c25.5,48.7,7.1,108.8-41.2,134.2
				c-48.3,25.3-108.3,6.3-133.8-42.3c-5.5-10.6-9-21.6-10.5-32.6C821.9,369.3,866.8,376.7,904.8,356.7z"/>
			<path class="st6" d="M956.3,289.2l24.1,0.4 M951.5,312.4l34.3,12.6 M931.6,339l46.7,31 M909.5,355.9l39.1,49.5 M881.9,367.1
				l18.2,59.2 M853,368l-2.9,49.2 M821.1,362l-9.7,24.9"/>
			<path class="st5" d="M906.9,298c-7.4-6.2-21.5,4.2-27.6,10.2l14.2,27C908.2,338.6,916.2,305.8,906.9,298z"/>
			<path class="st5" d="M855.6,325c-0.9-9.6,15.7-15.3,24-16.9l14.2,27C888.3,349.1,856.7,337,855.6,325z"/>
			<path class="st2" d="M884.6,333c2.2,1.2,3.1,3.5,2.3,4.5c-6.4,1.9-9.7-3.8-9.7-5.4C877.3,329.6,881.9,331.5,884.6,333z"/>
			<path class="st2" d="M896,327c-0.3,2.5,1.1,4.6,2.3,4.5c5.2-4.3,2.4-10.2,1.1-11C897.5,319,896.4,323.9,896,327z"/>
			<path class="st7" d="M772,339.5c0,0,19.7,10,31.5-12"/>
		</g>
		<rect x="923.5" y="2431" class="st2" width="231" height="124.4"/>
		<rect x="-119.4" class="st2" width="124.4" height="2436"/>
		<rect x="-124.4" y="-119.4" class="st2" width="1249.4" height="124.4"/>
		<path class="st8" d="M246.3,1856.2L246.3,1856.2c0,0,1.6,32.1-3.4,42.9c-0.2,0.5,0.3,1,0.8,0.7c10.5-5.6,42.6-5.9,42.6-5.9l0,0
			c5.3,0.2,10.9-2,15.1-6.4c7.2-7.7,7.5-19.1,0.7-25.5c-6.5-6.1-17.1-5.5-24.3,1.1v-0.1h-0.1c6.2-7.6,6.2-18.2-0.3-24.3
			c-6.8-6.4-18.2-5.5-25.4,2.2C247.7,1845.2,245.8,1850.9,246.3,1856.2z"/>
		<path class="st8" d="M1019.8,968.9L1019.8,968.9c0,0-0.1,33.1-5.8,44c-0.3,0.5,0.2,1,0.7,0.8c11.1-5.2,44.2-3.9,44.2-3.9l0,0
			c5.4,0.5,11.3-1.5,15.8-5.8c7.8-7.5,8.7-19.3,2.1-26.2c-6.4-6.6-17.3-6.6-25.1-0.1v-0.1h-0.1c6.8-7.5,7.3-18.4,0.9-25.1
			c-6.7-7-18.5-6.6-26.3,0.9C1021.7,957.7,1019.5,963.4,1019.8,968.9z"/>
		<path class="st8" d="M1060,176.6L1060,176.6c0,0-12.2-19.7-12.5-27.8c0-0.4-0.5-0.6-0.8-0.3c-5.1,6.3-26.7,14.9-26.7,14.9l0,0
			c-3.6,1.3-6.6,4.1-7.9,8c-2.2,6.7,1.5,14,8.4,16.2c4.4,1.5,9.1,0.5,12.4-2.3c-1.1,3.3-3.5,9.3-7.1,10.9l2.2,0.7l2.8,0.9l2.8,0.9
			l2.2,0.7c-1.9-3.4-0.3-9.7,0.8-13c1,4.2,4.2,7.7,8.6,9.2c6.8,2.3,14.2-1.3,16.4-8C1062.9,183.9,1062.2,179.8,1060,176.6z"/>
		<path class="st8" d="M222.6,1746.6L222.6,1746.6c0,0-16.1-4.8-20.3-8.9c-0.2-0.2-0.5-0.1-0.5,0.2c0.3,5.9-7.2,20.9-7.2,20.9l0,0
			c-1.3,2.4-1.6,5.4-0.4,8.2c2.1,4.7,7.6,6.8,12.4,4.7c3.1-1.4,5.1-4.2,5.6-7.2c1,2.3,2.6,6.7,1.5,9.3l1.6-0.7l1.9-0.8l1.9-0.8
			l1.6-0.7c-2.7-0.9-4.8-5.1-5.9-7.4c2.6,1.7,6,2.2,9.1,0.8c4.8-2.1,7-7.6,4.9-12.3C227.7,1749.1,225.3,1747.3,222.6,1746.6z"/>
		<path class="st8" d="M580,1460.7c-0.6,0-1.2,0-1.8,0c1.6-2.5,2.6-5.3,2.8-8.5c0.5-9.4-6.8-17.4-16.2-17.9s-17.4,6.8-17.9,16.2
			c-0.2,3.2,0.6,6.2,2,8.9c-1-0.2-1.9-0.4-3-0.4c-9.4-0.5-17.4,6.8-17.9,16.2c-0.5,9.4,6.8,17.4,16.2,17.9
			c6.1,0.3,11.6-2.7,14.9-7.4c-0.2,4.5-1.2,13.1-5.2,16.4l3.1,0.2l3.8,0.2l3.8,0.2l3.1,0.2c-3.6-3.7-3.7-12.3-3.5-16.8
			c2.8,5,8,8.5,14.1,8.8c9.4,0.5,17.4-6.8,17.9-16.2C596.7,1469.2,589.4,1461.2,580,1460.7z M562.3,1474.9
			C562.3,1474.9,562.3,1475,562.3,1474.9l-0.2,0.1v-0.1C562.1,1474.9,562.2,1474.9,562.3,1474.9z"/>
		<path class="st8" d="M259,359.4c-0.3-0.3-0.6-0.5-0.9-0.8c1.9-0.6,3.6-1.6,5-3.1c4.3-4.6,4-11.8-0.5-16.1
			c-4.6-4.3-11.8-4-16.1,0.5c-1.5,1.6-2.4,3.4-2.8,5.4c-0.4-0.5-0.8-1-1.3-1.5c-4.6-4.3-11.8-4-16.1,0.5s-4,11.8,0.5,16.1
			c3,2.8,7.1,3.7,10.7,2.7c-2.1,2.2-6.2,6.1-9.7,6.1l1.5,1.4l1.9,1.7l1.9,1.7l1.5,1.4c-0.3-3.4,3.4-7.9,5.4-10.1
			c-0.7,3.7,0.4,7.7,3.4,10.5c4.6,4.3,11.8,4,16.1-0.5C263.8,370.9,263.6,363.7,259,359.4z M243.9,359L243.9,359l-0.1-0.1l0,0
			C243.8,358.9,243.9,359,243.9,359z"/>
		<path class="st8" d="M124.7,622.7c-0.6-0.4-1-1-1.1-1.8c-0.5-17.5-7.1-30.3-7.3-30.5c-0.4-0.6-0.4-1.4,0-2.1
			c0.4-0.7,1.1-1.1,1.8-1.1c0.2,0,14.5-0.8,29.9-9.5c0.6-0.4,1.4-0.4,2.1,0c0.6,0.4,1,1,1.1,1.8c0.5,17.6,7.2,30.3,7.3,30.5
			c0.4,0.6,0.4,1.4,0.1,2.1c-0.4,0.7-1,1.1-1.8,1.1l0,0c-0.2,0-14.5,0.9-29.9,9.5C126.1,623.1,125.3,623.1,124.7,622.7z"/>
		<path class="st8" d="M1019.2,2205.5c-1,0.3-2.1,0-2.9-0.7c-18.7-17.1-38.5-23.1-38.9-23.2c-1-0.2-1.9-1-2.2-2.1s0-2.2,0.7-3
			c0.2-0.2,13.7-15.9,20.3-40.5c0.3-1,1.1-1.8,2.1-2.1s2.1,0,2.9,0.7c18.7,17.1,38.6,23.1,38.9,23.2c1,0.2,1.9,1,2.2,2
			c0.3,1,0.1,2.2-0.7,3c0,0,0,0,0,0.1c-0.2,0.2-13.8,15.9-20.3,40.5C1021,2204.4,1020.2,2205.2,1019.2,2205.5z"/>
	</g>
</g>
</svg>
