<?xml version="1.0" encoding="utf-8"?>
<!-- Generator: Adobe Illustrator 23.1.0, SVG Export Plug-In . SVG Version: 6.00 Build 0)  -->
<svg version="1.1" id="Layer_1" xmlns="http://www.w3.org/2000/svg" xmlns:xlink="http://www.w3.org/1999/xlink" x="0px" y="0px"
	 viewBox="0 0 1125 2436" style="enable-background:new 0 0 1125 2436;" xml:space="preserve">
<style type="text/css">
	.st0{clip-path:url(#SVGID_2_);}
	.st1{fill:url(#SVGID_3_);}
	.st2{fill:#7A58C3;}
	.st3{fill:#F1A7CA;}
	.st4{fill:#FFDD66;}
	.st5{fill:#53BDBC;}
	.st6{fill:#CF8EEA;}
	.st7{fill:#FFFFFF;}
</style>
<g>
	<defs>
		<rect id="SVGID_1_" width="1125" height="2436"/>
	</defs>
	<clipPath id="SVGID_2_">
		<use xlink:href="#SVGID_1_"  style="overflow:visible;"/>
	</clipPath>
	<g class="st0">
		<g>
			<g>
				
					<linearGradient id="SVGID_3_" gradientUnits="userSpaceOnUse" x1="1422.6" y1="10543.0098" x2="1422.6" y2="-1636.9902" gradientTransform="matrix(1 0 0 -1 264.9 8107.0098)">
					<stop  offset="0" style="stop-color:#D1DDEC"/>
					<stop  offset="1" style="stop-color:#F5F0DD"/>
				</linearGradient>
				<rect x="-1125" y="-2436" class="st1" width="5625" height="12180"/>
			</g>
		</g>
		<path class="st2" d="M115.8,11c0-3.7-0.2-7.4-0.5-11H0v2436h74.3c-0.4-0.3-0.8-0.7-1.2-1c26.1-21.2,42.7-53.6,42.7-89.8
			s-16.7-68.5-42.7-89.8c26.1-21.2,42.7-53.6,42.7-89.8s-16.7-68.5-42.7-89.8c26.1-21.2,42.7-53.6,42.7-89.8s-16.7-68.5-42.7-89.8
			c26.1-21.2,42.7-53.6,42.7-89.8c0-36.2-16.7-68.5-42.7-89.8c26.1-21.2,42.7-53.6,42.7-89.8c0-36.2-16.7-68.5-42.7-89.8
			c26.1-21.2,42.7-53.6,42.7-89.8c0-36.2-16.7-68.5-42.7-89.8c26.1-21.2,42.7-53.6,42.7-89.8c0-36.2-16.7-68.5-42.7-89.8
			c26.1-21.2,42.7-53.6,42.7-89.8s-16.7-68.5-42.7-89.8c26.1-21.2,42.7-53.6,42.7-89.8s-16.7-68.5-42.7-89.8
			c26.1-21.2,42.7-53.6,42.7-89.8S99.1,660.3,73.1,639c26.1-21.2,42.7-53.6,42.7-89.8s-16.7-68.5-42.7-89.8
			c26.1-21.2,42.7-53.6,42.7-89.8s-16.7-68.5-42.7-89.8c26.1-21.2,42.7-53.6,42.7-89.8s-16.7-68-42.7-89.2
			C99.1,79.5,115.8,47.2,115.8,11z"/>
		<path class="st2" d="M1125,0H0v74.3c0.3-0.4,0.7-0.8,1-1.2c21.2,26.1,53.6,42.7,89.8,42.7s68.5-16.7,89.8-42.7
			c21.2,26.1,53.6,42.7,89.8,42.7s68.5-16.7,89.8-42.7c21.2,26.1,53.6,42.7,89.8,42.7s68.5-16.7,89.8-42.7
			c21.2,26.1,53.6,42.7,89.8,42.7s68.5-16.7,89.8-42.7c21.2,26.1,53.6,42.7,89.8,42.7s68.5-16.7,89.8-42.7
			c21.2,26.1,53.6,42.7,89.8,42.7c36.2,0,68.5-16.7,89.8-42.7c12.3,15.1,28.3,27,46.7,34.4V0H1125z"/>
		<g>
			<path class="st2" d="M1125,2328.5c-18.3,7.4-34.4,19.3-46.7,34.4c-21.2-26.1-53.6-42.7-89.8-42.7s-68.5,16.7-89.8,42.7
				c-21.2-26.1-53.6-42.7-89.8-42.7s-68.5,16.7-89.8,42.7c-21.2-26.1-53.6-42.7-89.8-42.7s-68.5,16.7-89.8,42.7
				c-21.2-26.1-53.6-42.7-89.8-42.7s-68.5,16.7-89.8,42.7c-21.2-26.1-53.6-42.7-89.8-42.7s-68.5,16.7-89.8,42.7
				c-21.2-26.1-53.6-42.7-89.8-42.7s-68.5,16.7-89.8,42.7c-0.3-0.4-0.7-0.8-1-1.2v74.3h1125v-107.5H1125z"/>
		</g>
		<circle class="st2" cx="1155" cy="2406.2" r="86"/>
		<circle class="st2" cx="1155" cy="29.8" r="86"/>
		<rect x="-119.4" class="st2" width="124.4" height="2436"/>
		<rect x="-124.4" y="2431" class="st2" width="1249.4" height="124.4"/>
		<rect x="-124.4" y="-119.4" class="st2" width="1249.4" height="124.4"/>
		<path class="st3" d="M403.4,472.3h-78.2c22.5,0,40.7-18.1,40.7-40.7c0-22.5-18.1-40.7-40.7-40.7H-21.9
			c-22.5,0-40.7,18.1-40.7,40.7c0,22.5,18.1,40.7,40.7,40.7h125.1c-22.5,0-40.7,18.1-40.7,40.7c0,22.5,18.1,40.7,40.7,40.7H-21.9
			c-22.5,0-40.7,18.1-40.7,40.7s18.1,40.7,40.7,40.7h347.1c22.5,0,40.7-18.1,40.7-40.7s-18.1-40.7-40.7-40.7h78.2
			c22.5,0,40.7-18.1,40.7-40.7C444.1,490.4,425.9,472.3,403.4,472.3z"/>
		<path class="st4" d="M377.5,376.9c-80.3,0-148.3-50.8-174.1-122.1c-6.9,19.5-10.9,40.6-10.9,62.7c0,102,82.9,184.8,185,184.8
			s185-82.8,185-184.8c0-22.1-4-43.2-10.9-62.7C525.8,326.1,457.8,376.9,377.5,376.9z"/>
		<g>
			<path class="st5" d="M913.8,478.4c-2.7,0-5.6-1.3-7.4-3.8L762,273.2c-2.9-4-2-9.6,2-12.5s9.6-2,12.5,2l144.6,201.6
				c2.9,4,2,9.6-2,12.5C917.3,477.9,915.5,478.4,913.8,478.4z"/>
			<path class="st5" d="M1108.8,543.4c-2.7,0-5.6-1.3-7.4-3.8L957.1,338c-2.9-4-2-9.6,2-12.5s9.6-2,12.5,2l144.6,201.6
				c2.9,4,2,9.6-2,12.5C1112.6,542.7,1110.6,543.4,1108.8,543.4z"/>
			<path class="st5" d="M1107.9,749c-2.7,0-5.6-1.3-7.4-3.8L956,543.6c-2.9-4-2-9.6,2-12.5s9.6-2,12.5,2l144.6,201.6
				c2.9,4,2,9.6-2,12.5C1111.5,748.3,1109.7,749,1107.9,749z"/>
			<path class="st5" d="M1121.1,663.8c-2.7,0-5.6-1.3-7.4-3.8l-267-372c-2.9-4-2-9.6,2-12.5s9.6-2,12.5,2l267,372.1
				c2.9,4,2,9.6-2,12.5C1124.7,663.2,1122.9,663.8,1121.1,663.8z"/>
			<path class="st5" d="M1255,643.3c-2.7,0-5.6-1.3-7.4-3.8l-338.5-472c-2.9-4-2-9.6,2-12.5s9.6-2,12.5,2l338.8,472
				c2.9,4,2,9.6-2,12.5C1258.6,642.8,1256.8,643.3,1255,643.3z"/>
			<path class="st5" d="M1023,734.2c-2.7,0-5.6-1.3-7.4-3.8L748.8,358.1c-2.9-4-2-9.6,2-12.5c4-2.7,9.6-1.8,12.5,2.2l267,372.3
				c2.9,4,2,9.6-2,12.5C1026.6,733.6,1024.8,734.2,1023,734.2z"/>
		</g>
		<path class="st6" d="M1114.8,134.7h-78.2c22.5,0,40.7-18.1,40.7-40.7s-18.1-40.7-40.7-40.7H689.5c-22.5,0-40.7,18.1-40.7,40.7
			s18.1,40.7,40.7,40.7h125.1c-22.5,0-40.7,18.1-40.7,40.7S792,216,814.6,216H689.5c-22.5,0-40.7,18.1-40.7,40.7
			c0,22.5,18.1,40.7,40.7,40.7h347.1c22.5,0,40.7-18.1,40.7-40.7c0-22.5-18.1-40.7-40.7-40.7h78.2c22.5,0,40.7-18.1,40.7-40.7
			S1137.3,134.7,1114.8,134.7z"/>
		<path class="st3" d="M1280.5,216H980.3c-22.5,0-40.7,18.1-40.7,40.7c0,22.5,18.1,40.7,40.7,40.7h-93.8
			c-22.5,0-40.7,18.1-40.7,40.7c0,22.5,18.1,40.7,40.7,40.7h300.2c22.5,0,40.7-18.1,40.7-40.7c0-22.5-18.1-40.7-40.7-40.7h93.8
			c22.5,0,40.7-18.1,40.7-40.7S1303,216,1280.5,216z"/>
		<path class="st7" d="M246.3,1856.2L246.3,1856.2c0,0,1.6,32.1-3.4,42.9c-0.2,0.5,0.3,1,0.8,0.7c10.5-5.6,42.6-5.9,42.6-5.9l0,0
			c5.3,0.2,10.9-2,15.1-6.4c7.2-7.7,7.5-19.1,0.7-25.5c-6.5-6.1-17.1-5.5-24.3,1.1v-0.1h-0.1c6.2-7.6,6.2-18.2-0.3-24.3
			c-6.8-6.4-18.2-5.5-25.4,2.2C247.7,1845.2,245.8,1850.9,246.3,1856.2z"/>
		<path class="st7" d="M1019.8,968.9L1019.8,968.9c0,0-0.1,33.1-5.8,44c-0.3,0.5,0.2,1,0.7,0.8c11.1-5.2,44.2-3.9,44.2-3.9l0,0
			c5.4,0.5,11.3-1.5,15.8-5.8c7.8-7.5,8.7-19.3,2.1-26.2c-6.4-6.6-17.3-6.6-25.1-0.1v-0.1h-0.1c6.8-7.5,7.3-18.4,0.9-25.1
			c-6.7-7-18.5-6.6-26.3,0.9C1021.7,957.7,1019.5,963.4,1019.8,968.9z"/>
		<path class="st7" d="M1060,176.6L1060,176.6c0,0-12.2-19.7-12.5-27.8c0-0.4-0.5-0.6-0.8-0.3c-5.1,6.3-26.7,14.9-26.7,14.9l0,0
			c-3.6,1.3-6.6,4.1-7.9,8c-2.2,6.7,1.5,14,8.4,16.2c4.4,1.5,9.1,0.5,12.4-2.3c-1.1,3.3-3.5,9.3-7.1,10.9l2.2,0.7l2.8,0.9l2.8,0.9
			l2.2,0.7c-1.9-3.4-0.3-9.7,0.8-13c1,4.2,4.2,7.7,8.6,9.2c6.8,2.3,14.2-1.3,16.4-8C1062.9,183.9,1062.2,179.8,1060,176.6z"/>
		<path class="st7" d="M222.6,1746.6L222.6,1746.6c0,0-16.1-4.8-20.3-8.9c-0.2-0.2-0.5-0.1-0.5,0.2c0.3,5.9-7.2,20.9-7.2,20.9l0,0
			c-1.3,2.4-1.6,5.4-0.4,8.2c2.1,4.7,7.6,6.8,12.4,4.7c3.1-1.4,5.1-4.2,5.6-7.2c1,2.3,2.6,6.7,1.5,9.3l1.6-0.7l1.9-0.8l1.9-0.8
			l1.6-0.7c-2.7-0.9-4.8-5.1-5.9-7.4c2.6,1.7,6,2.2,9.1,0.8c4.8-2.1,7-7.6,4.9-12.3C227.7,1749.1,225.3,1747.3,222.6,1746.6z"/>
		<path class="st7" d="M580,1460.7c-0.6,0-1.2,0-1.8,0c1.6-2.5,2.6-5.3,2.8-8.5c0.5-9.4-6.8-17.4-16.2-17.9s-17.4,6.8-17.9,16.2
			c-0.2,3.2,0.6,6.2,2,8.9c-1-0.2-1.9-0.4-3-0.4c-9.4-0.5-17.4,6.8-17.9,16.2c-0.5,9.4,6.8,17.4,16.2,17.9
			c6.1,0.3,11.6-2.7,14.9-7.4c-0.2,4.5-1.2,13.1-5.2,16.4l3.1,0.2l3.8,0.2l3.8,0.2l3.1,0.2c-3.6-3.7-3.7-12.3-3.5-16.8
			c2.8,5,8,8.5,14.1,8.8c9.4,0.5,17.4-6.8,17.9-16.2C596.7,1469.2,589.4,1461.2,580,1460.7z M562.3,1474.9
			C562.3,1474.9,562.3,1475,562.3,1474.9l-0.2,0.1v-0.1C562.1,1474.9,562.2,1474.9,562.3,1474.9z"/>
		<path class="st7" d="M259,359.4c-0.3-0.3-0.6-0.5-0.9-0.8c1.9-0.6,3.6-1.6,5-3.1c4.3-4.6,4-11.8-0.5-16.1
			c-4.6-4.3-11.8-4-16.1,0.5c-1.5,1.6-2.4,3.4-2.8,5.4c-0.4-0.5-0.8-1-1.3-1.5c-4.6-4.3-11.8-4-16.1,0.5s-4,11.8,0.5,16.1
			c3,2.8,7.1,3.7,10.7,2.7c-2.1,2.2-6.2,6.1-9.7,6.1l1.5,1.4l1.9,1.7l1.9,1.7l1.5,1.4c-0.3-3.4,3.4-7.9,5.4-10.1
			c-0.7,3.7,0.4,7.7,3.4,10.5c4.6,4.3,11.8,4,16.1-0.5C263.8,370.9,263.6,363.7,259,359.4z M243.9,359L243.9,359l-0.1-0.1l0,0
			C243.8,358.9,243.9,359,243.9,359z"/>
		<path class="st7" d="M124.7,622.7c-0.6-0.4-1-1-1.1-1.8c-0.5-17.5-7.1-30.3-7.3-30.5c-0.4-0.6-0.4-1.4,0-2.1
			c0.4-0.7,1.1-1.1,1.8-1.1c0.2,0,14.5-0.8,29.9-9.5c0.6-0.4,1.4-0.4,2.1,0c0.6,0.4,1,1,1.1,1.8c0.5,17.6,7.2,30.3,7.3,30.5
			c0.4,0.6,0.4,1.4,0.1,2.1c-0.4,0.7-1,1.1-1.8,1.1l0,0c-0.2,0-14.5,0.9-29.9,9.5C126.1,623.1,125.3,623.1,124.7,622.7z"/>
		<path class="st7" d="M1019.2,2205.5c-1,0.3-2.1,0-2.9-0.7c-18.7-17.1-38.5-23.1-38.9-23.2c-1-0.2-1.9-1-2.2-2.1s0-2.2,0.7-3
			c0.2-0.2,13.7-15.9,20.3-40.5c0.3-1,1.1-1.8,2.1-2.1s2.1,0,2.9,0.7c18.7,17.1,38.6,23.1,38.9,23.2c1,0.2,1.9,1,2.2,2
			c0.3,1,0.1,2.2-0.7,3c0,0,0,0,0,0.1c-0.2,0.2-13.8,15.9-20.3,40.5C1021,2204.4,1020.2,2205.2,1019.2,2205.5z"/>
	</g>
</g>
</svg>
