<?xml version="1.0" encoding="utf-8"?>
<!-- Generator: Adobe Illustrator 23.1.0, SVG Export Plug-In . SVG Version: 6.00 Build 0)  -->
<svg version="1.1" id="Layer_1" xmlns="http://www.w3.org/2000/svg" xmlns:xlink="http://www.w3.org/1999/xlink" x="0px" y="0px"
	 viewBox="0 0 1125 2436" style="enable-background:new 0 0 1125 2436;" xml:space="preserve">
<style type="text/css">
	.st0{clip-path:url(#SVGID_2_);}
	.st1{fill:url(#SVGID_3_);}
	.st2{fill:#7A58C3;}
	.st3{opacity:0.5;}
	.st4{fill:#D098EA;}
	.st5{fill:#F1A7CA;}
	.st6{fill:#CF8EEA;}
	.st7{fill:#FFFFFF;}
</style>
<g>
	<defs>
		<rect id="SVGID_1_" width="1125" height="2436"/>
	</defs>
	<clipPath id="SVGID_2_">
		<use xlink:href="#SVGID_1_"  style="overflow:visible;"/>
	</clipPath>
	<g class="st0">
		<g>
			<g>
				
					<linearGradient id="SVGID_3_" gradientUnits="userSpaceOnUse" x1="1422.6" y1="5671.0098" x2="1422.6" y2="-6508.9902" gradientTransform="matrix(1 0 0 -1 264.9 -1636.99)">
					<stop  offset="0" style="stop-color:#D1DDEC"/>
					<stop  offset="1" style="stop-color:#F5F0DD"/>
				</linearGradient>
				<rect x="-1125" y="-7308" class="st1" width="5625" height="12180"/>
			</g>
		</g>
		<path class="st2" d="M115.8,11c0-3.7-0.2-7.4-0.5-11H0v2436h74.3c-0.4-0.3-0.8-0.7-1.2-1c26.1-21.2,42.7-53.6,42.7-89.8
			s-16.7-68.5-42.7-89.8c26.1-21.2,42.7-53.6,42.7-89.8s-16.7-68.5-42.7-89.8c26.1-21.2,42.7-53.6,42.7-89.8s-16.7-68.5-42.7-89.8
			c26.1-21.2,42.7-53.6,42.7-89.8c0-36.2-16.7-68.5-42.7-89.8c26.1-21.2,42.7-53.6,42.7-89.8c0-36.2-16.7-68.5-42.7-89.8
			c26.1-21.2,42.7-53.6,42.7-89.8c0-36.2-16.7-68.5-42.7-89.8c26.1-21.2,42.7-53.6,42.7-89.8c0-36.2-16.7-68.5-42.7-89.8
			c26.1-21.2,42.7-53.6,42.7-89.8s-16.7-68.5-42.7-89.8c26.1-21.2,42.7-53.6,42.7-89.8s-16.7-68.5-42.7-89.8
			c26.1-21.2,42.7-53.6,42.7-89.8S99.1,660.3,73.1,639c26.1-21.2,42.7-53.6,42.7-89.8s-16.7-68.5-42.7-89.8
			c26.1-21.2,42.7-53.6,42.7-89.8s-16.7-68.5-42.7-89.8c26.1-21.2,42.7-53.6,42.7-89.8s-16.7-68-42.7-89.2
			C99.1,79.5,115.8,47.2,115.8,11z"/>
		<circle class="st2" cx="30" cy="2466" r="86"/>
		<circle class="st2" cx="1095" cy="2406" r="86"/>
		<circle class="st2" cx="1155" cy="30" r="86"/>
		<path class="st2" d="M227,0H101H0v107.9c18.8-7.3,35.2-19.4,47.7-34.8C68,98,98.5,114.3,132.8,115.7c0.1,0,0.1,0,0.2,0
			c1.5,0.1,3,0.1,4.5,0.1h0.1h0.1c36.2,0,68.5-16.7,89.8-42.7c21.2,26.1,53.6,42.7,89.8,42.7s68.5-16.7,89.8-42.7
			c21.2,26.1,53.6,42.7,89.8,42.7s68.5-16.7,89.8-42.7c21.2,26.1,53.6,42.7,89.8,42.7s68.5-16.7,89.8-42.7
			c21.2,26.1,53.6,42.7,89.8,42.7s68.5-16.7,89.8-42.7c21.2,26.1,53.6,42.7,89.8,42.7c36.1,0,68.3-16.6,89.5-42.4V0H227z"/>
		<rect x="-119.4" y="-124.4" class="st2" width="124.4" height="2560.4"/>
		<rect x="-124.4" y="-119.4" class="st2" width="1249.4" height="124.4"/>
		<g>
			<g class="st3">
				<ellipse class="st4" cx="913.2" cy="2178.1" rx="151.1" ry="30.6"/>
				<ellipse class="st4" cx="1029.6" cy="2273.5" rx="151.1" ry="30.6"/>
				<ellipse class="st4" cx="1184.3" cy="2273.5" rx="151.1" ry="30.6"/>
			</g>
			<path class="st2" d="M1184.3,1951c0,0-184.2,195.2-112,249.4c41.3,30.9,79.6,8,98.9-13.5c-4.6,37-15.9,74.3-31.2,86.6h44.4h44.4
				c-15.3-12.2-26.6-49.6-31.2-86.6c19.3,21.4,57.8,44.4,98.9,13.5C1368.5,2146.2,1184.3,1951,1184.3,1951z"/>
			<path class="st2" d="M913.2,1922.3c0,0-146.1,154.8-88.8,197.8c32.8,24.5,63.1,6.3,78.4-10.7c-3.6,29.4-12.6,59-24.8,68.7h35.2
				h35.2c-12.1-9.7-21.1-39.3-24.8-68.7c15.3,17,45.9,35.2,78.4,10.7C1059.3,2077.2,913.2,1922.3,913.2,1922.3z"/>
			<path class="st5" d="M1029.6,1981.6c0,0-166.5,176.7-101.2,225.7c37.3,28,71.9,7.2,89.3-12.2c-4.1,33.5-14.4,67.3-28.2,78.4h40.1
				h40.1c-13.8-11.1-24.1-44.9-28.2-78.4c17.4,19.4,52.3,40.2,89.3,12.2C1196.1,2158.3,1029.6,1981.6,1029.6,1981.6z"/>
			<path class="st2" d="M1184.3,1951c0,0-184.2,195.2-112,249.4c41.3,30.9,79.6,8,98.9-13.5c-4.6,37-15.9,74.3-31.2,86.6h44.4h44.4
				c-15.3-12.2-26.6-49.6-31.2-86.6c19.3,21.4,57.8,44.4,98.9,13.5C1368.5,2146.2,1184.3,1951,1184.3,1951z"/>
		</g>
		<path class="st5" d="M1066.9,482.3h-78.2c22.5,0,40.7-18.1,40.7-40.7c0-22.5-18.1-40.7-40.7-40.7H641.6
			c-22.5,0-40.7,18.1-40.7,40.7c0,22.5,18.1,40.7,40.7,40.7h125.1c-22.5,0-40.7,18.1-40.7,40.7c0,22.5,18.1,40.7,40.7,40.7H641.6
			c-22.5,0-40.7,18.1-40.7,40.7s18.1,40.7,40.7,40.7h347.1c22.5,0,40.7-18.1,40.7-40.7s-18.1-40.7-40.7-40.7h78.2
			c22.5,0,40.7-18.1,40.7-40.7C1107.5,500.4,1089.4,482.3,1066.9,482.3z"/>
		<path class="st6" d="M1347.4,316.3h-300.2c-22.5,0-40.7,18.1-40.7,40.7s18.1,40.7,40.7,40.7h-93.8c-22.5,0-40.7,18.1-40.7,40.7
			c0,22.5,18.1,40.7,40.7,40.7h300.2c22.5,0,40.7-18.1,40.7-40.7c0-22.5-18.1-40.7-40.7-40.7h93.8c22.5,0,40.7-18.1,40.7-40.7
			S1369.9,316.3,1347.4,316.3z"/>
		<path class="st6" d="M321.3,238.4h-78.2c22.5,0,40.7-18.1,40.7-40.7S265.7,157,243.1,157H-104c-22.5,0-40.7,18.1-40.7,40.7
			s18.1,40.7,40.7,40.7H21.1c-22.5,0-40.7,18.1-40.7,40.7s18.1,40.7,40.7,40.7H-104c-22.5,0-40.7,18.1-40.7,40.7
			c0,22.5,18.1,40.7,40.7,40.7h347.1c22.5,0,40.7-18.1,40.7-40.7c0-22.5-18.1-40.7-40.7-40.7h78.2c22.5,0,40.7-18.1,40.7-40.7
			S343.8,238.4,321.3,238.4z"/>
		<path class="st5" d="M487.1,319.7H186.8c-22.5,0-40.7,18.1-40.7,40.7c0,22.5,18.1,40.7,40.7,40.7H93c-22.5,0-40.7,18.1-40.7,40.7
			c0,22.5,18.1,40.7,40.7,40.7h300.2c22.5,0,40.7-18.1,40.7-40.7c0-22.5-18.1-40.7-40.7-40.7H487c22.5,0,40.7-18.1,40.7-40.7
			C527.7,337.8,509.6,319.7,487.1,319.7z"/>
		<path class="st7" d="M246.3,1856.2L246.3,1856.2c0,0,1.6,32.1-3.4,42.9c-0.2,0.5,0.3,1,0.8,0.7c10.5-5.6,42.6-5.9,42.6-5.9l0,0
			c5.3,0.2,10.9-2,15.1-6.4c7.2-7.7,7.5-19.1,0.7-25.5c-6.5-6.1-17.1-5.5-24.3,1.1v-0.1h-0.1c6.2-7.6,6.2-18.2-0.3-24.3
			c-6.8-6.4-18.2-5.5-25.4,2.2C247.7,1845.2,245.8,1850.9,246.3,1856.2z"/>
		<path class="st7" d="M1019.8,968.9L1019.8,968.9c0,0-0.1,33.1-5.8,44c-0.3,0.5,0.2,1,0.7,0.8c11.1-5.2,44.2-3.9,44.2-3.9l0,0
			c5.4,0.5,11.3-1.5,15.8-5.8c7.8-7.5,8.7-19.3,2.1-26.2c-6.4-6.6-17.3-6.6-25.1-0.1v-0.1h-0.1c6.8-7.5,7.3-18.4,0.9-25.1
			c-6.7-7-18.5-6.6-26.3,0.9C1021.7,957.7,1019.5,963.4,1019.8,968.9z"/>
		<path class="st7" d="M1060,176.6L1060,176.6c0,0-12.2-19.7-12.5-27.8c0-0.4-0.5-0.6-0.8-0.3c-5.1,6.3-26.7,14.9-26.7,14.9l0,0
			c-3.6,1.3-6.6,4.1-7.9,8c-2.2,6.7,1.5,14,8.4,16.2c4.4,1.5,9.1,0.5,12.4-2.3c-1.1,3.3-3.5,9.3-7.1,10.9l2.2,0.7l2.8,0.9l2.8,0.9
			l2.2,0.7c-1.9-3.4-0.3-9.7,0.8-13c1,4.2,4.2,7.7,8.6,9.2c6.8,2.3,14.2-1.3,16.4-8C1062.9,183.9,1062.2,179.8,1060,176.6z"/>
		<path class="st7" d="M222.6,1746.6L222.6,1746.6c0,0-16.1-4.8-20.3-8.9c-0.2-0.2-0.5-0.1-0.5,0.2c0.3,5.9-7.2,20.9-7.2,20.9l0,0
			c-1.3,2.4-1.6,5.4-0.4,8.2c2.1,4.7,7.6,6.8,12.4,4.7c3.1-1.4,5.1-4.2,5.6-7.2c1,2.3,2.6,6.7,1.5,9.3l1.6-0.7l1.9-0.8l1.9-0.8
			l1.6-0.7c-2.7-0.9-4.8-5.1-5.9-7.4c2.6,1.7,6,2.2,9.1,0.8c4.8-2.1,7-7.6,4.9-12.3C227.7,1749.1,225.3,1747.3,222.6,1746.6z"/>
		<path class="st7" d="M580,1460.7c-0.6,0-1.2,0-1.8,0c1.6-2.5,2.6-5.3,2.8-8.5c0.5-9.4-6.8-17.4-16.2-17.9s-17.4,6.8-17.9,16.2
			c-0.2,3.2,0.6,6.2,2,8.9c-1-0.2-1.9-0.4-3-0.4c-9.4-0.5-17.4,6.8-17.9,16.2c-0.5,9.4,6.8,17.4,16.2,17.9
			c6.1,0.3,11.6-2.7,14.9-7.4c-0.2,4.5-1.2,13.1-5.2,16.4l3.1,0.2l3.8,0.2l3.8,0.2l3.1,0.2c-3.6-3.7-3.7-12.3-3.5-16.8
			c2.8,5,8,8.5,14.1,8.8c9.4,0.5,17.4-6.8,17.9-16.2C596.7,1469.2,589.4,1461.2,580,1460.7z M562.3,1474.9
			C562.3,1474.9,562.3,1475,562.3,1474.9l-0.2,0.1v-0.1C562.1,1474.9,562.2,1474.9,562.3,1474.9z"/>
		<path class="st7" d="M259,359.4c-0.3-0.3-0.6-0.5-0.9-0.8c1.9-0.6,3.6-1.6,5-3.1c4.3-4.6,4-11.8-0.5-16.1
			c-4.6-4.3-11.8-4-16.1,0.5c-1.5,1.6-2.4,3.4-2.8,5.4c-0.4-0.5-0.8-1-1.3-1.5c-4.6-4.3-11.8-4-16.1,0.5s-4,11.8,0.5,16.1
			c3,2.8,7.1,3.7,10.7,2.7c-2.1,2.2-6.2,6.1-9.7,6.1l1.5,1.4l1.9,1.7l1.9,1.7l1.5,1.4c-0.3-3.4,3.4-7.9,5.4-10.1
			c-0.7,3.7,0.4,7.7,3.4,10.5c4.6,4.3,11.8,4,16.1-0.5C263.8,370.9,263.6,363.7,259,359.4z M243.9,359L243.9,359l-0.1-0.1l0,0
			C243.8,358.9,243.9,359,243.9,359z"/>
		<path class="st7" d="M124.7,622.7c-0.6-0.4-1-1-1.1-1.8c-0.5-17.5-7.1-30.3-7.3-30.5c-0.4-0.6-0.4-1.4,0-2.1
			c0.4-0.7,1.1-1.1,1.8-1.1c0.2,0,14.5-0.8,29.9-9.5c0.6-0.4,1.4-0.4,2.1,0c0.6,0.4,1,1,1.1,1.8c0.5,17.6,7.2,30.3,7.3,30.5
			c0.4,0.6,0.4,1.4,0.1,2.1c-0.4,0.7-1,1.1-1.8,1.1l0,0c-0.2,0-14.5,0.9-29.9,9.5C126.1,623.1,125.3,623.1,124.7,622.7z"/>
		<path class="st7" d="M1019.2,2205.5c-1,0.3-2.1,0-2.9-0.7c-18.7-17.1-38.5-23.1-38.9-23.2c-1-0.2-1.9-1-2.2-2.1s0-2.2,0.7-3
			c0.2-0.2,13.7-15.9,20.3-40.5c0.3-1,1.1-1.8,2.1-2.1s2.1,0,2.9,0.7c18.7,17.1,38.6,23.1,38.9,23.2c1,0.2,1.9,1,2.2,2
			c0.3,1,0.1,2.2-0.7,3c0,0,0,0,0,0.1c-0.2,0.2-13.8,15.9-20.3,40.5C1021,2204.4,1020.2,2205.2,1019.2,2205.5z"/>
	</g>
</g>
</svg>
