<?xml version="1.0" encoding="utf-8"?>
<!-- Generator: Adobe Illustrator 23.1.0, SVG Export Plug-In . SVG Version: 6.00 Build 0)  -->
<svg version="1.1" id="Layer_1" xmlns="http://www.w3.org/2000/svg" xmlns:xlink="http://www.w3.org/1999/xlink" x="0px" y="0px"
	 viewBox="0 0 1125 2436" style="enable-background:new 0 0 1125 2436;" xml:space="preserve">
<style type="text/css">
	.st0{clip-path:url(#SVGID_2_);}
	.st1{fill:url(#SVGID_3_);}
	.st2{fill:#7A58C3;}
	.st3{fill:#FFDD66;}
	.st4{fill:#FFFFFF;}
	.st5{fill:#F1A7CA;}
</style>
<g>
	<defs>
		<rect id="SVGID_1_" width="1125" height="2436"/>
	</defs>
	<clipPath id="SVGID_2_">
		<use xlink:href="#SVGID_1_"  style="overflow:visible;"/>
	</clipPath>
	<g class="st0">
		<g>
			<g>
				
					<linearGradient id="SVGID_3_" gradientUnits="userSpaceOnUse" x1="1422.6" y1="3235.0098" x2="1422.6" y2="-8944.9902" gradientTransform="matrix(1 0 0 -1 264.9 -6508.9902)">
					<stop  offset="0" style="stop-color:#D1DDEC"/>
					<stop  offset="1" style="stop-color:#F5F0DD"/>
				</linearGradient>
				<rect x="-1125" y="-9744" class="st1" width="5625" height="12180"/>
			</g>
		</g>
		<path class="st2" d="M1125,2328.5c-18.3,7.4-34.4,19.3-46.7,34.4c-21.2-26.1-53.6-42.7-89.8-42.7s-68.5,16.7-89.8,42.7
			c-21.2-26.1-53.6-42.7-89.8-42.7s-68.5,16.7-89.8,42.7c-21.2-26.1-53.6-42.7-89.8-42.7s-68.5,16.7-89.8,42.7
			c-21.2-26.1-53.6-42.7-89.8-42.7s-68.5,16.7-89.8,42.7c-21.2-26.1-53.6-42.7-89.8-42.7s-68.5,16.7-89.8,42.7
			c-21.2-26.1-53.6-42.7-89.8-42.7s-68.5,16.7-89.8,42.7c-0.3-0.4-0.7-0.8-1-1.2v74.3h1125v-107.5H1125z"/>
		<circle class="st2" cx="30" cy="30" r="86"/>
		<circle class="st2" cx="1095" cy="-30" r="86"/>
		<path class="st2" d="M1009.2,2430.5c0,1.8,0.1,3.7,0.1,5.5H1125v-196h-115.3c-0.3,3.6-0.5,7.3-0.5,11c0,36.2,16.7,68.5,42.7,89.8
			C1025.9,2362,1009.2,2394.3,1009.2,2430.5z"/>
		<path class="st2" d="M1044.3,0c2.4,2.4,4.9,4.6,7.6,6.8c-26.1,21.2-42.7,53.6-42.7,89.8s16.7,68.5,42.7,89.8
			c-26.1,21.2-42.7,53.6-42.7,89.8s16.7,68.5,42.7,89.8c-26.1,21.2-42.7,53.6-42.7,89.8s16.7,68.5,42.7,89.8
			c-26.1,21.2-42.7,53.6-42.7,89.8s16.7,68.5,42.7,89.8c-26.1,21.2-42.7,53.6-42.7,89.8s16.7,68.5,42.7,89.8
			c-26.1,21.2-42.7,53.6-42.7,89.8s16.7,68.5,42.7,89.8c-26.1,21.2-42.7,53.6-42.7,89.8c0,36.2,16.7,68.5,42.7,89.8
			c-26.1,21.2-42.7,53.6-42.7,89.8c0,36.2,16.7,68.5,42.7,89.8c-26.1,21.2-42.7,53.6-42.7,89.8c0,36.2,16.7,68.5,42.7,89.8
			c-26.1,21.2-42.7,53.6-42.7,89.8c0,36.2,16.7,68.5,42.7,89.8c-26.1,21.2-42.7,53.6-42.7,89.8c0,36.2,16.7,68.5,42.7,89.8
			c-26.1,21.2-42.7,53.6-42.7,89.8c0,36.2,16.7,68.5,42.7,89.8c-26.1,21.2-42.7,53.6-42.7,89.8s16.7,68.5,42.7,89.8
			c-0.4,0.3-0.8,0.7-1.2,1h74.3V0H1044.3z"/>
		<path class="st2" d="M29.5,2436c0-0.2,0-0.3,0-0.5c0-63.8-51.7-115.5-115.5-115.5s-115.5,51.7-115.5,115.5c0,0.2,0,0.3,0,0.5H29.5
			z"/>
		<rect x="-201.5" y="2431" class="st2" width="1326.5" height="124.4"/>
		<rect x="1120" class="st2" width="124.4" height="2560.4"/>
		<g>
			<path class="st2" d="M187.6,232.9c-1-0.8-1.2-2.2-0.4-3.2s2.3-1.2,3.3-0.4s1.2,2.2,0.4,3.2c-0.5,0.5-1.1,0.9-1.9,0.9
				C188.5,233.4,187.9,233.2,187.6,232.9z M193.1,225.5c-1.1-0.6-1.4-2.1-0.8-3.2c0.7-1.1,2.2-1.4,3.3-0.7c1.1,0.6,1.4,2.1,0.8,3.2
				c-0.5,0.7-1.2,1.1-2,1.1C193.9,225.8,193.5,225.7,193.1,225.5z M189,222.3c-1.3-0.2-2.2-1.4-2-2.6c0.2-1.3,1.4-2.1,2.6-1.9
				c1.3,0.2,2.2,1.4,2,2.6c-0.2,1.1-1.2,1.9-2.3,1.9C189.2,222.4,189.1,222.3,189,222.3z M198,217.7c-1.1-0.5-1.6-2-0.9-3.1
				c0.7-1.1,2.1-1.6,3.2-0.9c1.1,0.6,1.6,2,0.9,3.1c-0.5,0.7-1.2,1.2-2.1,1.2C198.7,217.9,198.3,217.9,198,217.7z M186.9,211.4
				c-0.2-1.3,0.7-2.4,2-2.7c1.3-0.2,2.4,0.6,2.7,1.9c0.2,1.3-0.7,2.4-2,2.7c-0.1,0-0.3,0-0.4,0C188.1,213.3,187.1,212.5,186.9,211.4
				z M202.2,209.5c-1.2-0.5-1.7-1.8-1.2-3s1.9-1.7,3.1-1.2c1.2,0.5,1.7,1.8,1.2,3c-0.4,0.8-1.2,1.4-2.2,1.4
				C202.8,209.7,202.6,209.6,202.2,209.5z M184.4,203.2c-0.6-1.2,0-2.5,1.1-3c1.2-0.5,2.5,0,3.1,1.1c0.6,1.2,0.1,2.5-1.1,3
				c-0.3,0.2-0.7,0.2-1,0.2C185.6,204.6,184.7,204,184.4,203.2z M205.8,201c-1.2-0.4-1.9-1.6-1.5-2.8s1.7-1.9,2.9-1.5s2,1.6,1.5,2.8
				c-0.3,1-1.2,1.6-2.3,1.6C206.2,201.1,205.9,201.1,205.8,201z M179.7,196c-0.8-1-0.7-2.5,0.4-3.2c1-0.8,2.4-0.6,3.3,0.4
				c0.8,1,0.7,2.4-0.4,3.2c-0.5,0.4-0.9,0.5-1.5,0.5C180.8,196.8,180.1,196.5,179.7,196z M208.3,192.2c-1.3-0.2-2.2-1.4-2-2.7
				s1.4-2.1,2.7-1.8c1.3,0.2,2.2,1.4,1.9,2.7c-0.2,1.1-1.2,1.9-2.3,1.9C208.6,192.2,208.5,192.2,208.3,192.2z M173.5,189.7
				c-0.9-0.8-1.1-2.3-0.3-3.2s2.3-1.1,3.3-0.3c0.9,0.8,1.1,2.3,0.3,3.2c-0.5,0.5-1.1,0.8-1.8,0.8
				C174.4,190.3,173.9,190.1,173.5,189.7z M166.2,184.5c-1.1-0.7-1.4-2.1-0.8-3.2c0.7-1.1,2.2-1.4,3.3-0.7s1.4,2.1,0.8,3.1
				c-0.5,0.7-1.2,1.1-2,1.1C167,184.9,166.5,184.8,166.2,184.5z M207.2,180.8c0-1.3,1-2.3,2.3-2.3s2.3,1,2.3,2.3s-1,2.3-2.3,2.3
				C208.2,183,207.2,182,207.2,180.8z M158.2,180.1c-1.1-0.5-1.6-1.9-1-3.1c0.6-1.1,2-1.6,3.2-1c1.1,0.5,1.6,1.9,1,3.1
				c-0.4,0.8-1.2,1.3-2.1,1.3C158.9,180.4,158.6,180.3,158.2,180.1z M149.8,176.4c-1.2-0.5-1.8-1.8-1.3-3s1.9-1.7,3.1-1.3
				c1.2,0.5,1.8,1.8,1.3,3c-0.4,0.9-1.2,1.5-2.2,1.5C150.5,176.5,150.1,176.5,149.8,176.4z M206.1,172.2c-0.3-1.2,0.5-2.5,1.7-2.7
				c1.2-0.3,2.5,0.5,2.8,1.6c0.3,1.2-0.5,2.5-1.7,2.7c-0.2,0.1-0.4,0.1-0.6,0.1C207.4,174,206.4,173.3,206.1,172.2z M141.2,173.2
				c-1.2-0.4-1.9-1.7-1.5-2.9s1.8-1.8,3-1.5c1.2,0.4,1.9,1.7,1.5,2.9c-0.3,0.9-1.2,1.6-2.3,1.6C141.7,173.4,141.5,173.3,141.2,173.2
				z M132.4,170.6c-1.2-0.4-2-1.6-1.6-2.8s1.7-1.9,2.9-1.6c1.2,0.4,2,1.6,1.6,2.8c-0.3,1-1.2,1.6-2.3,1.6
				C132.8,170.7,132.6,170.7,132.4,170.6z M123.4,168.4c-1.2-0.3-2.1-1.6-1.8-2.7c0.3-1.2,1.6-2,2.8-1.7c1.2,0.3,2.1,1.6,1.8,2.7
				c-0.3,1-1.2,1.7-2.3,1.7C123.8,168.4,123.6,168.4,123.4,168.4z M114.3,166.4c-1.2-0.3-2.1-1.5-1.8-2.7c0.3-1.3,1.5-2,2.8-1.7
				c1.2,0.3,2.1,1.5,1.8,2.7c-0.3,1.1-1.2,1.8-2.3,1.8C114.6,166.5,114.5,166.5,114.3,166.4z M202.9,164.4c-0.7-1.1-0.2-2.5,0.9-3.1
				c1.1-0.6,2.5-0.2,3.2,0.9c0.7,1.1,0.3,2.5-0.9,3.1c-0.4,0.2-0.8,0.3-1.1,0.3C204.2,165.6,203.3,165.1,202.9,164.4z M105,164.2
				c-1.2-0.4-2-1.6-1.7-2.8c0.4-1.2,1.7-1.9,2.9-1.6c1.2,0.4,2,1.6,1.6,2.8c-0.3,1-1.2,1.6-2.3,1.6
				C105.5,164.3,105.3,164.3,105,164.2z M95.9,161.4c-1.2-0.5-1.9-1.7-1.4-2.9s1.8-1.8,3-1.4c1.2,0.5,1.9,1.7,1.4,2.9
				c-0.4,0.9-1.2,1.6-2.3,1.6C96.5,161.6,96.2,161.5,95.9,161.4z M197.7,157.6c-0.9-0.9-0.9-2.4,0-3.2c0.9-0.9,2.4-0.9,3.3,0
				c0.9,0.9,0.9,2.4,0,3.2c-0.5,0.5-1,0.6-1.7,0.6C198.7,158.2,198.2,158,197.7,157.6z M87.1,158c-1.2-0.5-1.7-1.8-1.2-3
				c0.6-1.2,1.9-1.6,3.1-1.2c1.2,0.5,1.7,1.8,1.2,3c-0.4,0.8-1.2,1.4-2.2,1.4C87.6,158.2,87.4,158.1,87.1,158z M78.4,153.8
				c-1.1-0.6-1.5-2-0.9-3.1c0.7-1.1,2.1-1.5,3.2-0.8c1.1,0.6,1.5,2,0.8,3.1c-0.5,0.7-1.2,1.2-2.1,1.2
				C79.2,154.1,78.8,154,78.4,153.8z M190.7,152.1c-1-0.7-1.4-2.1-0.7-3.2c0.8-1,2.2-1.4,3.3-0.6c1.1,0.7,1.4,2.1,0.7,3.2
				c-0.5,0.6-1.2,1-2,1C191.7,152.5,191.2,152.4,190.7,152.1z M70.3,148.7c-1-0.7-1.2-2.2-0.5-3.2c0.8-1,2.3-1.2,3.3-0.5
				s1.2,2.2,0.5,3.2c-0.5,0.6-1.2,0.9-1.9,0.9C71.2,149.2,70.7,149.1,70.3,148.7z M182.9,147.7c-1.1-0.5-1.7-1.9-1-3.1
				c0.6-1.1,2-1.6,3.1-1c1.1,0.5,1.6,1.9,1,3.1c-0.4,0.8-1.2,1.3-2.2,1.3C183.6,148,183.2,147.9,182.9,147.7z M174.5,144.1
				c-1.2-0.5-1.8-1.8-1.3-3s1.9-1.7,3.1-1.3c1.2,0.5,1.8,1.8,1.3,3c-0.4,0.9-1.2,1.5-2.2,1.5C175.1,144.3,174.8,144.2,174.5,144.1z
				 M63,142.6c-0.9-0.9-0.9-2.4,0-3.2c0.9-0.9,2.4-0.9,3.3,0s0.9,2.4,0,3.2c-0.5,0.5-1,0.6-1.7,0.6C64,143.2,63.4,143,63,142.6z
				 M165.8,141c-1.2-0.5-1.9-1.7-1.4-2.9s1.8-1.8,3-1.4c1.2,0.5,1.9,1.7,1.4,2.9c-0.4,0.9-1.2,1.6-2.3,1.6
				C166.3,141.1,166.1,141.1,165.8,141z M156.9,138.1c-1.2-0.4-1.9-1.6-1.5-2.8s1.7-1.8,2.9-1.5c1.2,0.4,1.9,1.6,1.5,2.8
				c-0.3,1-1.2,1.6-2.3,1.6C157.3,138.2,157.2,138.2,156.9,138.1z M56.7,135.1c-0.8-1-0.5-2.5,0.7-3.2c1-0.7,2.5-0.5,3.3,0.6
				c0.8,1,0.5,2.5-0.7,3.2c-0.4,0.3-0.8,0.4-1.3,0.4C57.9,136.1,57.1,135.8,56.7,135.1z M148,135.3c-1.2-0.4-1.9-1.6-1.5-2.8
				s1.7-1.8,2.9-1.5c1.2,0.4,1.9,1.6,1.5,2.8c-0.3,1-1.2,1.6-2.3,1.6C148.4,135.4,148.2,135.4,148,135.3z M139.1,132.5
				c-1.2-0.4-1.9-1.7-1.5-2.9s1.7-1.8,3-1.5c1.2,0.4,1.9,1.7,1.5,2.9c-0.4,0.9-1.2,1.6-2.3,1.6C139.5,132.6,139.2,132.6,139.1,132.5
				z M130,129.5c-1.2-0.5-1.9-1.7-1.4-2.9c0.5-1.2,1.8-1.8,3-1.4c1.2,0.5,1.9,1.7,1.4,2.9c-0.4,0.9-1.2,1.5-2.3,1.5
				C130.6,129.5,130.3,129.5,130,129.5z M52.1,126.6c-0.5-1.2,0.1-2.5,1.3-2.9c1.2-0.5,2.5,0.1,3,1.3c0.5,1.2-0.1,2.5-1.3,2.9
				c-0.2,0.1-0.5,0.2-0.8,0.2C53.4,128.1,52.5,127.5,52.1,126.6z M121.2,126c-1.2-0.5-1.8-1.8-1.2-3c0.5-1.2,1.9-1.6,3.1-1.2
				c1.2,0.5,1.7,1.8,1.2,3c-0.4,0.9-1.2,1.4-2.2,1.4C121.9,126.2,121.5,126.1,121.2,126z M112.6,122c-1.1-0.5-1.6-1.9-1-3.1
				c0.6-1.1,2.1-1.6,3.2-1c1.1,0.5,1.6,2,1,3.1c-0.5,0.8-1.2,1.2-2.1,1.2C113.3,122.2,113,122.1,112.6,122z M49.6,117.3
				c-0.2-1.3,0.8-2.4,2.1-2.6s2.4,0.7,2.6,1.9c0.2,1.3-0.8,2.4-2.1,2.6c-0.1,0-0.2,0-0.3,0C50.8,119.2,49.8,118.4,49.6,117.3z
				 M104.3,117.2c-1.1-0.7-1.4-2.1-0.7-3.2c0.8-1,2.2-1.4,3.3-0.6c1,0.7,1.4,2.1,0.7,3.2c-0.5,0.6-1.2,1-2,1
				C105.2,117.6,104.7,117.5,104.3,117.2z M96.6,111.4c-0.9-0.8-1-2.3-0.2-3.2c0.8-0.9,2.3-1,3.3-0.2c0.9,0.8,1,2.3,0.2,3.2
				c-0.5,0.5-1.1,0.7-1.8,0.7C97.6,112.1,97,111.9,96.6,111.4z M51.6,110c-1.3-0.2-2.3-1.3-2.1-2.6c0.2-1.3,1.3-2.2,2.6-2
				s2.2,1.3,2.1,2.6c-0.1,1.2-1.1,2-2.3,2C51.8,110.1,51.7,110.1,51.6,110z M90,104.4c-0.8-1-0.6-2.5,0.5-3.2c1-0.7,2.5-0.5,3.3,0.4
				c0.8,1,0.6,2.5-0.4,3.2c-0.5,0.4-0.9,0.5-1.4,0.5C91.1,105.4,90.4,105.1,90,104.4z M53.3,101.1c-1.2-0.5-1.8-1.7-1.3-2.9
				c0.4-1.2,1.8-1.8,3-1.4c1.2,0.5,1.8,1.7,1.3,2.9c-0.4,0.9-1.2,1.5-2.2,1.5C53.9,101.2,53.6,101.2,53.3,101.1z M84.7,96.3
				c-0.6-1.1-0.1-2.5,1.1-3c1.1-0.5,2.5-0.1,3.1,1s0.1,2.5-1.1,3c-0.3,0.2-0.7,0.3-1,0.3C85.9,97.6,85.2,97.1,84.7,96.3z M57.2,92.7
				c-1-0.7-1.3-2.2-0.5-3.2S59,88.3,60,89s1.2,2.2,0.5,3.2c-0.5,0.6-1.1,0.9-1.9,0.9C58.2,93.2,57.6,93.1,57.2,92.7z M80.5,88.9
				c-0.8-0.9-0.8-2.4,0.3-3.2c1-0.8,2.4-0.7,3.3,0.3c0.8,1,0.8,2.4-0.3,3.2c-0.5,0.4-0.9,0.5-1.5,0.5C81.6,89.7,81,89.3,80.5,88.9z
				 M63.4,85.9c-0.7-1.1-0.3-2.5,0.8-3.1c1.1-0.6,2.5-0.3,3.2,0.8c0.7,1.1,0.3,2.5-0.8,3.1c-0.4,0.2-0.8,0.4-1.2,0.4
				C64.6,87,63.9,86.7,63.4,85.9z M74,85c-1.3-0.2-2.2-1.4-2-2.7c0.2-1.3,1.4-2.1,2.6-1.9c1.3,0.2,2.2,1.4,2,2.7
				c-0.1,1.1-1.1,1.9-2.3,1.9C74.3,85,74.2,85,74,85z"/>
			<path class="st3" d="M132.3,328.8c39.5,0,71.6-31.3,71.6-69.9S171.8,189,132.3,189s-71.6,31.3-71.6,69.9
				C60.7,297.5,92.8,328.8,132.3,328.8z"/>
			<path class="st4" d="M132.4,310.5c29.2,0,52.8-23.1,52.8-51.6s-23.6-51.6-52.8-51.6s-52.8,23.1-52.8,51.6
				S103.2,310.5,132.4,310.5z"/>
			<path class="st3" d="M206.5,268.2c4.8-0.4,8.1-7.3,7.4-15.5c-0.7-8.2-5.1-14.6-9.8-14.2c-4.8,0.4-8.1,7.3-7.4,15.5
				C197.4,262.2,201.7,268.6,206.5,268.2z"/>
			<path class="st2" d="M132.4,258.9l1.6-9.4l34.9-25.6l-26.8,33.6L132.4,258.9z"/>
			<path class="st2" d="M132.6,258.3l5.5,1.9l11.8,22.6L132.4,264L132.6,258.3z"/>
			<path class="st3" d="M132.4,261.9c1.7,0,3.1-1.4,3.1-3c0-1.7-1.4-3-3.1-3s-3.1,1.4-3.1,3C129.3,260.6,130.7,261.9,132.4,261.9z"
				/>
		</g>
		<g>
			<path class="st4" d="M1163.8,1424.5c0,0-11.9-119.3-74.6-166.6s-121.6-59.3-132.8-41.3s6.7,50.3,70.2,87.1
				c63.4,36.8,120.9,127.6,120.9,127.6L1163.8,1424.5z"/>
			<path class="st4" d="M1133.7,1446.3c0,0-149.3-51.4-224.3-26.1s-95.3,49.9-92.3,61.1s13.5,40.2,109.5,6
				c96-34.3,162.1-24.6,207.1-17.1V1446.3z"/>
			<path class="st5" d="M1157.8,1427c0,0-36.5-143.8-90.5-160.3c-54-16.4-63.7,4.5-39,20.2c24.7,15.7,111.7,118.1,119.2,144.3
				L1157.8,1427z"/>
			<path class="st5" d="M903.1,1495.4c0,0-17.5-25.1,20.7-38.3c38.2-13.2,167.2-9,209.9,6.3v9.1
				C1133.8,1472.6,1015.1,1453.1,903.1,1495.4z"/>
		</g>
		<path class="st4" d="M246.3,1856.2L246.3,1856.2c0,0,1.6,32.1-3.4,42.9c-0.2,0.5,0.3,1,0.8,0.7c10.5-5.6,42.6-5.9,42.6-5.9l0,0
			c5.3,0.2,10.9-2,15.1-6.4c7.2-7.7,7.5-19.1,0.7-25.5c-6.5-6.1-17.1-5.5-24.3,1.1v-0.1h-0.1c6.2-7.6,6.2-18.2-0.3-24.3
			c-6.8-6.4-18.2-5.5-25.4,2.2C247.7,1845.2,245.8,1850.9,246.3,1856.2z"/>
		<path class="st4" d="M1019.8,968.9L1019.8,968.9c0,0-0.1,33.1-5.8,44c-0.3,0.5,0.2,1,0.7,0.8c11.1-5.2,44.2-3.9,44.2-3.9l0,0
			c5.4,0.5,11.3-1.5,15.8-5.8c7.8-7.5,8.7-19.3,2.1-26.2c-6.4-6.6-17.3-6.6-25.1-0.1v-0.1h-0.1c6.8-7.5,7.3-18.4,0.9-25.1
			c-6.7-7-18.5-6.6-26.3,0.9C1021.7,957.7,1019.5,963.4,1019.8,968.9z"/>
		<path class="st4" d="M1060,176.6L1060,176.6c0,0-12.2-19.7-12.5-27.8c0-0.4-0.5-0.6-0.8-0.3c-5.1,6.3-26.7,14.9-26.7,14.9l0,0
			c-3.6,1.3-6.6,4.1-7.9,8c-2.2,6.7,1.5,14,8.4,16.2c4.4,1.5,9.1,0.5,12.4-2.3c-1.1,3.3-3.5,9.3-7.1,10.9l2.2,0.7l2.8,0.9l2.8,0.9
			l2.2,0.7c-1.9-3.4-0.3-9.7,0.8-13c1,4.2,4.2,7.7,8.6,9.2c6.8,2.3,14.2-1.3,16.4-8C1062.9,183.9,1062.2,179.8,1060,176.6z"/>
		<path class="st4" d="M222.6,1746.6L222.6,1746.6c0,0-16.1-4.8-20.3-8.9c-0.2-0.2-0.5-0.1-0.5,0.2c0.3,5.9-7.2,20.9-7.2,20.9l0,0
			c-1.3,2.4-1.6,5.4-0.4,8.2c2.1,4.7,7.6,6.8,12.4,4.7c3.1-1.4,5.1-4.2,5.6-7.2c1,2.3,2.6,6.7,1.5,9.3l1.6-0.7l1.9-0.8l1.9-0.8
			l1.6-0.7c-2.7-0.9-4.8-5.1-5.9-7.4c2.6,1.7,6,2.2,9.1,0.8c4.8-2.1,7-7.6,4.9-12.3C227.7,1749.1,225.3,1747.3,222.6,1746.6z"/>
		<path class="st4" d="M580,1460.7c-0.6,0-1.2,0-1.8,0c1.6-2.5,2.6-5.3,2.8-8.5c0.5-9.4-6.8-17.4-16.2-17.9s-17.4,6.8-17.9,16.2
			c-0.2,3.2,0.6,6.2,2,8.9c-1-0.2-1.9-0.4-3-0.4c-9.4-0.5-17.4,6.8-17.9,16.2c-0.5,9.4,6.8,17.4,16.2,17.9
			c6.1,0.3,11.6-2.7,14.9-7.4c-0.2,4.5-1.2,13.1-5.2,16.4l3.1,0.2l3.8,0.2l3.8,0.2l3.1,0.2c-3.6-3.7-3.7-12.3-3.5-16.8
			c2.8,5,8,8.5,14.1,8.8c9.4,0.5,17.4-6.8,17.9-16.2C596.7,1469.2,589.4,1461.2,580,1460.7z M562.3,1474.9
			C562.3,1474.9,562.3,1475,562.3,1474.9l-0.2,0.1v-0.1C562.1,1474.9,562.2,1474.9,562.3,1474.9z"/>
		<path class="st4" d="M259,359.4c-0.3-0.3-0.6-0.5-0.9-0.8c1.9-0.6,3.6-1.6,5-3.1c4.3-4.6,4-11.8-0.5-16.1
			c-4.6-4.3-11.8-4-16.1,0.5c-1.5,1.6-2.4,3.4-2.8,5.4c-0.4-0.5-0.8-1-1.3-1.5c-4.6-4.3-11.8-4-16.1,0.5s-4,11.8,0.5,16.1
			c3,2.8,7.1,3.7,10.7,2.7c-2.1,2.2-6.2,6.1-9.7,6.1l1.5,1.4l1.9,1.7l1.9,1.7l1.5,1.4c-0.3-3.4,3.4-7.9,5.4-10.1
			c-0.7,3.7,0.4,7.7,3.4,10.5c4.6,4.3,11.8,4,16.1-0.5C263.8,370.9,263.6,363.7,259,359.4z M243.9,359L243.9,359l-0.1-0.1l0,0
			C243.8,358.9,243.9,359,243.9,359z"/>
		<path class="st4" d="M124.7,622.7c-0.6-0.4-1-1-1.1-1.8c-0.5-17.5-7.1-30.3-7.3-30.5c-0.4-0.6-0.4-1.4,0-2.1
			c0.4-0.7,1.1-1.1,1.8-1.1c0.2,0,14.5-0.8,29.9-9.5c0.6-0.4,1.4-0.4,2.1,0c0.6,0.4,1,1,1.1,1.8c0.5,17.6,7.2,30.3,7.3,30.5
			c0.4,0.6,0.4,1.4,0.1,2.1c-0.4,0.7-1,1.1-1.8,1.1l0,0c-0.2,0-14.5,0.9-29.9,9.5C126.1,623.1,125.3,623.1,124.7,622.7z"/>
		<path class="st4" d="M1019.2,2205.5c-1,0.3-2.1,0-2.9-0.7c-18.7-17.1-38.5-23.1-38.9-23.2c-1-0.2-1.9-1-2.2-2.1s0-2.2,0.7-3
			c0.2-0.2,13.7-15.9,20.3-40.5c0.3-1,1.1-1.8,2.1-2.1s2.1,0,2.9,0.7c18.7,17.1,38.6,23.1,38.9,23.2c1,0.2,1.9,1,2.2,2
			c0.3,1,0.1,2.2-0.7,3c0,0,0,0,0,0.1c-0.2,0.2-13.8,15.9-20.3,40.5C1021,2204.4,1020.2,2205.2,1019.2,2205.5z"/>
	</g>
</g>
</svg>
