<?xml version="1.0" encoding="utf-8"?>
<!-- Generator: Adobe Illustrator 23.1.0, SVG Export Plug-In . SVG Version: 6.00 Build 0)  -->
<svg version="1.1" id="Layer_1" xmlns="http://www.w3.org/2000/svg" xmlns:xlink="http://www.w3.org/1999/xlink" x="0px" y="0px"
	 viewBox="0 0 1125 2436" style="enable-background:new 0 0 1125 2436;" xml:space="preserve">
<style type="text/css">
	.st0{clip-path:url(#SVGID_2_);}
	.st1{fill:url(#SVGID_3_);}
	.st2{opacity:0.5;fill:#D098EA;enable-background:new    ;}
	.st3{fill:#7A58C3;}
	.st4{fill:#CF8EEA;}
	.st5{fill:#F1A7CA;}
	.st6{fill:#53BDBC;}
	.st7{fill:#FFEEBD;}
	.st8{fill:#FFDD66;}
	.st9{fill:#FFD03B;}
	.st10{fill:#F1A7CA;stroke:#FFFFFF;stroke-linejoin:round;}
	.st11{fill:#FFFFFF;}
</style>
<g>
	<defs>
		<rect id="SVGID_1_" width="1125" height="2436"/>
	</defs>
	<clipPath id="SVGID_2_">
		<use xlink:href="#SVGID_1_"  style="overflow:visible;"/>
	</clipPath>
	<g class="st0">
		<g>
			<g>
				<g>
					
						<linearGradient id="SVGID_3_" gradientUnits="userSpaceOnUse" x1="297.6" y1="-10543.0098" x2="297.6" y2="1636.9902" gradientTransform="matrix(1 0 0 1 264.9 10543.0098)">
						<stop  offset="0" style="stop-color:#D1DDEC"/>
						<stop  offset="1" style="stop-color:#F5F0DD"/>
					</linearGradient>
					<rect x="-2250" class="st1" width="5625" height="12180"/>
				</g>
			</g>
		</g>
		<ellipse class="st2" cx="562.5" cy="987" rx="262.7" ry="54.8"/>
		<path class="st3" d="M115.8,11c0-3.7-0.2-7.4-0.5-11H0v2436h74.3c-0.4-0.3-0.8-0.7-1.2-1c26.1-21.2,42.7-53.6,42.7-89.8
			s-16.7-68.5-42.7-89.8c26.1-21.2,42.7-53.6,42.7-89.8s-16.7-68.5-42.7-89.8c26.1-21.2,42.7-53.6,42.7-89.8s-16.7-68.5-42.7-89.8
			c26.1-21.2,42.7-53.6,42.7-89.8c0-36.2-16.7-68.5-42.7-89.8c26.1-21.2,42.7-53.6,42.7-89.8c0-36.2-16.7-68.5-42.7-89.8
			c26.1-21.2,42.7-53.6,42.7-89.8c0-36.2-16.7-68.5-42.7-89.8c26.1-21.2,42.7-53.6,42.7-89.8c0-36.2-16.7-68.5-42.7-89.8
			c26.1-21.2,42.7-53.6,42.7-89.8s-16.7-68.5-42.7-89.8c26.1-21.2,42.7-53.6,42.7-89.8s-16.7-68.5-42.7-89.8
			c26.1-21.2,42.7-53.6,42.7-89.8S99.1,660.3,73.1,639c26.1-21.2,42.7-53.6,42.7-89.8s-16.7-68.5-42.7-89.8
			c26.1-21.2,42.7-53.6,42.7-89.8s-16.7-68.5-42.7-89.8c26.1-21.2,42.7-53.6,42.7-89.8s-16.7-68-42.7-89.2
			C99.1,79.5,115.8,47.2,115.8,11z"/>
		<path class="st3" d="M1051.9,100.8c-26.1,21.2-42.7,53.6-42.7,89.8s16.7,68.5,42.7,89.8c-26.1,21.2-42.7,53.6-42.7,89.8
			s16.7,68.5,42.7,89.8c-26.1,21.2-42.7,53.6-42.7,89.8s16.7,68.5,42.7,89.8c-26.1,21.2-42.7,53.6-42.7,89.8s16.7,68.5,42.7,89.8
			c-26.1,21.2-42.7,53.6-42.7,89.8s16.7,68.5,42.7,89.8c-26.1,21.2-42.7,53.6-42.7,89.8s16.7,68.5,42.7,89.8
			c-26.1,21.2-42.7,53.6-42.7,89.8c0,36.2,16.7,68.5,42.7,89.8c-26.1,21.2-42.7,53.6-42.7,89.8c0,36.2,16.7,68.5,42.7,89.8
			c-26.1,21.2-42.7,53.6-42.7,89.8c0,36.2,16.7,68.5,42.7,89.8c-26.1,21.2-42.7,53.6-42.7,89.8c0,36.2,16.7,68.5,42.7,89.8
			c-26.1,21.2-42.7,53.6-42.7,89.8s16.7,68.5,42.7,89.8c-26.1,21.2-42.7,53.6-42.7,89.8s16.7,68.5,42.7,89.8
			c-26.1,21.2-42.7,53.6-42.7,89.8s16.7,68.5,42.7,89.8c-0.4,0.3-0.8,0.7-1.2,1h74.3V0h-115.3c-0.3,3.6-0.5,7.3-0.5,11
			C1009.2,47.2,1025.9,79.5,1051.9,100.8z"/>
		<path class="st3" d="M1125,0H0v74.3c0.3-0.4,0.7-0.8,1-1.2c21.2,26.1,53.6,42.7,89.8,42.7s68.5-16.7,89.8-42.7
			c21.2,26.1,53.6,42.7,89.8,42.7s68.5-16.7,89.8-42.7c21.2,26.1,53.6,42.7,89.8,42.7s68.5-16.7,89.8-42.7
			c21.2,26.1,53.6,42.7,89.8,42.7s68.5-16.7,89.8-42.7c21.2,26.1,53.6,42.7,89.8,42.7s68.5-16.7,89.8-42.7
			c21.2,26.1,53.6,42.7,89.8,42.7c36.2,0,68.5-16.7,89.8-42.7c12.3,15.1,28.3,27,46.7,34.4V0H1125z"/>
		<circle class="st3" cx="30" cy="2465.8" r="86"/>
		<rect x="-119.4" class="st3" width="124.4" height="2436"/>
		<rect x="1120" y="-124.4" class="st3" width="124.4" height="2622"/>
		<rect x="-124.4" y="-119.4" class="st3" width="1373.8" height="124.4"/>
		<g>
			<path class="st4" d="M711.7,785.3H413.3c-17.8,0-32.3-14.5-32.3-32.3v-73.1c0-17.8,14.5-32.3,32.3-32.3h298.3
				c17.8,0,32.3,14.5,32.3,32.3V753C744,770.7,729.4,785.3,711.7,785.3z"/>
			<path class="st4" d="M482.8,946.9c0-0.4,0-0.7,0-1c0.1-2,0-4-0.1-6c-0.2-3.9-0.6-7.9-1.2-11.7c-1.2-7.7-2.9-15.4-5-22.8
				c-2-7.5-4.4-14.9-7-22.2s-5.3-14.6-8.3-21.8c-0.7-1.8-1.5-3.6-2.3-5.4c-0.8-1.8-1.6-3.6-2.6-5.5l-0.2-0.4l-0.1-0.2l-0.1-0.1
				c0.1,0,0.1,0,0.2,0s0.1,0,0.1,0.1h0.1l0.1-0.1l0.1-0.1c0-0.1,0.1,0,0.1-0.1c0.1-0.1,0.1-0.2,0.1-0.3s0.1-0.2,0.1-0.2l0.1-0.3
				l0.1-0.6l0.2-1.4c0-0.2,0.1-0.5,0.1-0.8l0.1-0.9c0.1-0.6,0.2-1.2,0.3-1.9l0.2-1l0.2-1c0.1-0.6,0.3-1.4,0.4-2.1
				c0.6-2.8,1.3-5.8,2.2-8.9c0.9-3,1.9-6.1,2.9-9.2c0.5-1.5,1.1-3.1,1.7-4.6c0.3-0.7,0.6-1.5,0.9-2.2l0.4-1.1l0.2-0.5
				c0.1-0.1,0.1-0.2,0.1-0.2c0.1-0.1,0.1-0.2,0.1-0.1c3.5-14.3-5.3-28.8-19.6-32.2c-14.3-3.5-28.8,5.3-32.2,19.6
				c-0.1,0.3-0.1,0.4-0.1,0.6l-0.1,0.5l-0.1,0.9l-0.2,1.7c-0.1,1.1-0.2,2.1-0.2,3.2c-0.1,2.1-0.2,4.2-0.3,6.4
				c-0.2,4.2-0.2,8.5-0.1,12.8s0.4,8.7,0.9,13.3c0.2,1.2,0.3,2.3,0.5,3.5l0.3,1.8l0.3,1.8c0.2,1.2,0.5,2.5,0.7,3.7
				c0.2,0.6,0.3,1.3,0.5,1.9c0.2,0.6,0.3,1.3,0.5,1.9l0.6,2c0.2,0.7,0.5,1.4,0.7,2.1l0.4,1l0.4,1.1l0.4,1.1c0.2,0.4,0.3,0.7,0.5,1.1
				c0.4,0.7,0.7,1.5,1.1,2.2c0.2,0.4,0.4,0.8,0.6,1.2l0.7,1.2l0.3,0.6l0.2,0.3l0.2,0.3l0.9,1.2l0.9,1.2l0.1,0.2l0.1,0.1l0.1,0.1
				l0.2,0.2c1.1,1.2,2.3,2.5,3.4,3.8c1.2,1.3,2.3,2.7,3.5,4.1c4.6,5.5,9,11.2,13.3,17s8.4,11.7,12.3,17.8
				c3.8,6.1,7.5,12.3,10.6,18.7c1.5,3.2,3,6.5,4.2,9.8c0.5,1.4,1,2.8,1.4,4.2c0,0.3,0,0.6,0,0.9c0,11.7-3.7,11.7-13.3,13.3
				c-9.6,1.6-8.5,10.7-8.5,10.7h17.6C487.6,970.9,482.8,946.9,482.8,946.9z"/>
			<path class="st4" d="M711.3,812.7c-0.1-2.1-0.2-4.2-0.3-6.4c-0.1-1.1-0.2-2.1-0.2-3.2l-0.2-1.7l-0.1-0.9l-0.1-0.5
				c0-0.2-0.1-0.3-0.1-0.6c-3.5-14.3-17.9-23.1-32.2-19.6S655,797.7,658.5,812c0-0.1,0.1,0.1,0.1,0.1c0.1,0.1,0.1,0.2,0.1,0.2
				l0.2,0.5l0.4,1.1c0.3,0.7,0.6,1.5,0.9,2.2c0.6,1.5,1.1,3,1.7,4.6c1.1,3.1,2.1,6.2,2.9,9.2s1.6,6,2.2,8.9c0.1,0.7,0.3,1.4,0.4,2.1
				l0.2,1l0.2,1c0.1,0.7,0.2,1.2,0.3,1.9l0.1,0.9c0.1,0.3,0.1,0.6,0.1,0.8l0.2,1.4l0.1,0.6l0.1,0.3c0,0.1,0.1,0.2,0.1,0.2
				c0,0.1,0.1,0.2,0.1,0.3s0.1,0.1,0.1,0.1l0.1,0.1l0.1,0.1h0.1c0.1,0,0.1,0,0.1-0.1c0.1,0,0.1,0,0.2,0l-0.1,0.1l-0.1,0.2l-0.2,0.4
				c-0.9,1.9-1.8,3.7-2.6,5.5s-1.5,3.6-2.3,5.4c-3,7.2-5.8,14.5-8.3,21.8c-2.6,7.3-4.9,14.7-7,22.2c-2,7.5-3.8,15.1-5,22.8
				c-0.6,3.9-1,7.8-1.2,11.7c-0.1,2-0.2,3.9-0.1,6c0,0.3,0,0.6,0.1,1c-0.1,0.1-0.1,0.1-0.1,0.1s-4.8,24,12.8,24h17.6
				c0,0,1.1-9.1-8.5-10.7c-9.6-1.6-13.3-1.6-13.3-13.3c0-0.3,0-0.5,0-0.8c0.4-1.4,0.9-2.9,1.4-4.3c1.2-3.3,2.6-6.6,4.2-9.8
				c3.1-6.4,6.7-12.6,10.6-18.7c3.8-6.1,8-12,12.3-17.8s8.8-11.5,13.3-17c1.1-1.4,2.3-2.7,3.5-4.1c1.2-1.3,2.3-2.7,3.4-3.8l0.2-0.2
				l0.1-0.1l0.1-0.1l0.1-0.2l0.9-1.2l0.9-1.2l0.2-0.3l0.2-0.3l0.3-0.6l0.7-1.2c0.2-0.4,0.5-0.8,0.6-1.2c0.4-0.7,0.7-1.5,1.1-2.2
				c0.2-0.4,0.3-0.7,0.5-1.1l0.4-1.1l0.4-1.1l0.4-1c0.2-0.7,0.5-1.4,0.7-2.1l0.6-2c0.2-0.7,0.4-1.3,0.5-1.9c0.2-0.6,0.3-1.3,0.5-1.9
				c0.3-1.2,0.5-2.5,0.7-3.7l0.3-1.8l0.3-1.8c0.2-1.2,0.3-2.3,0.5-3.5c0.5-4.6,0.8-9,0.9-13.3C711.4,821.2,711.4,817,711.3,812.7z"
				/>
			<path class="st4" d="M562.8,842.4c-12.6,0-24.8-4.4-34.4-12.5c-9.2-7-20.5-19.3-35.5-38.3c-39.7-50.3-72.2-98.7-96.6-143.9
				c-20-36.9-30.2-63.6-35.3-79.6c-1.3-3.8-2.5-7.8-3.4-11.8c-0.3-1.4-0.5-2.3-0.6-2.6c-0.1-0.2-0.1-0.3-0.1-0.5
				c-1.6-7.8-2.4-15.7-2.4-23.6c0-31.4,12.2-61.1,34.3-83.3c22.2-22.3,51.7-34.5,83-34.5c31.2,0,60.6,12.2,82.7,34.2
				c2.8,2.8,5.5,5.8,8,8.8c2.5-3,5.2-6,8-8.8c22.1-22,51.5-34.2,82.7-34.2c31.4,0,60.8,12.3,83,34.6c22.1,22.3,34.3,51.8,34.3,83.3
				c0,7.9-0.8,15.9-2.4,23.6c-0.1,0.2-0.1,0.3-0.1,0.5c-0.1,0.3-0.3,1.2-0.6,2.6c-0.9,4-2.1,8-3.4,11.8c-5.1,16-15.4,42.6-35.3,79.6
				c-24.4,45.2-56.9,93.6-96.6,143.9c-12.4,15.8-22.5,27.1-30.8,34.4C591.3,836.4,577.3,842.4,562.8,842.4z"/>
			<path class="st3" d="M743.9,529.6c0-50.4-40.6-91.2-90.7-91.2c-49.8,0-90.2,40.4-90.6,90.4v0.1v-0.1c-0.5-50-40.9-90.4-90.7-90.4
				c-50.1,0-90.7,40.8-90.7,91.2c0,6.5,0.7,12.8,1.9,18.8c0,0,0.1,0.6,0.4,1.8c0.7,3.3,1.7,6.5,2.7,9.6
				c8.6,27.1,38.1,101.8,127.6,215.4c14.1,18,24.3,28.8,31.3,33.9c4.7,4.1,10.9,6.6,17.7,6.6c8,0,15.1-3.5,20.1-9
				c6.8-5.8,16.1-16,28.4-31.6c89.4-113.6,119-188.3,127.6-215.4c1.1-3.1,2-6.3,2.7-9.6c0.3-1.2,0.4-1.8,0.4-1.8
				C743.2,542.3,743.9,536,743.9,529.6z"/>
			<path class="st5" d="M711.7,824.8H413.3c-17.8,0-32.3-14.5-32.3-32.3s14.5-32.3,32.3-32.3h298.3c17.8,0,32.3,14.5,32.3,32.3
				C744,810.2,729.4,824.8,711.7,824.8z"/>
			<path class="st3" d="M399.7,832.2c-9,0-16.9-6.5-18.4-15.7c-0.1-0.3-4.1-25-10.9-51.8c-12.2-48.3-21.4-57.4-22.4-58.3
				c-7.8-6.8-8.6-18.6-1.9-26.4c6.8-7.8,18.6-8.6,26.4-1.8c8.1,7,20.4,22.7,34.2,77.6c7.1,28.2,11.3,53.6,11.5,54.6
				c1.7,10.2-5.2,19.8-15.4,21.5C401.7,832.2,400.7,832.2,399.7,832.2z"/>
			<path class="st3" d="M725.3,832.2c-1,0-2-0.1-3-0.3c-10.2-1.7-17.1-11.3-15.4-21.5c0.2-1.1,4.3-26.4,11.5-54.6
				c13.8-54.9,26.2-70.6,34.2-77.6c7.8-6.8,19.6-5.9,26.4,1.8c6.8,7.8,5.9,19.6-1.8,26.4c-1,0.9-10.2,10-22.4,58.3
				c-6.7,26.7-10.8,51.5-10.9,51.8C742.2,825.7,734.2,832.2,725.3,832.2z"/>
			<path class="st3" d="M744,813H381.1v32.6H744V813z"/>
			<path class="st3" d="M432.8,976.9c0-0.4,0-0.7,0-1c0.1-2,0-4-0.1-6c-0.2-3.9-0.6-7.9-1.2-11.7c-1.2-7.7-2.9-15.4-5-22.8
				c-2-7.5-4.4-14.9-7-22.2s-5.3-14.6-8.3-21.8c-0.7-1.8-1.5-3.6-2.3-5.4c-0.8-1.8-1.6-3.6-2.6-5.5l-0.2-0.4l-0.1-0.2l-0.1-0.1
				c0.1,0,0.1,0,0.2,0s0.1,0,0.1,0.1h0.1l0.1-0.1l0.1-0.1c0-0.1,0.1,0,0.1-0.1c0.1-0.1,0.1-0.2,0.1-0.3s0.1-0.2,0.1-0.2l0.1-0.3
				l0.1-0.6l0.2-1.4c0-0.2,0.1-0.5,0.1-0.8l0.1-0.9c0.1-0.6,0.2-1.2,0.3-1.9l0.2-1l0.2-1c0.1-0.6,0.3-1.4,0.4-2.1
				c0.6-2.8,1.3-5.8,2.2-8.9c0.9-3,1.9-6.1,2.9-9.2c0.5-1.5,1.1-3.1,1.7-4.6c0.3-0.7,0.6-1.5,0.9-2.2l0.4-1.1l0.2-0.5
				c0.1-0.1,0.1-0.2,0.1-0.2c0.1-0.1,0.1-0.2,0.1-0.1c3.5-14.3-5.3-28.8-19.6-32.2c-14.3-3.5-28.8,5.3-32.2,19.6
				c-0.1,0.3-0.1,0.4-0.1,0.6l-0.1,0.5l-0.1,0.9l-0.2,1.7c-0.1,1.1-0.2,2.1-0.2,3.2c-0.1,2.1-0.2,4.2-0.3,6.4
				c-0.2,4.2-0.2,8.5-0.1,12.8s0.4,8.7,0.9,13.3c0.2,1.2,0.3,2.3,0.5,3.5l0.3,1.8l0.3,1.8c0.2,1.2,0.5,2.5,0.7,3.7
				c0.2,0.6,0.3,1.3,0.5,1.9c0.2,0.6,0.3,1.3,0.5,1.9l0.6,2c0.2,0.7,0.5,1.4,0.7,2.1l0.4,1l0.4,1.1l0.4,1.1c0.2,0.4,0.3,0.7,0.5,1.1
				c0.4,0.7,0.7,1.5,1.1,2.2c0.2,0.4,0.4,0.8,0.6,1.2l0.7,1.2l0.3,0.6l0.2,0.3l0.2,0.3l0.9,1.2l0.9,1.2l0.1,0.2l0.1,0.1l0.1,0.1
				l0.2,0.2c1.1,1.2,2.3,2.5,3.4,3.8c1.2,1.3,2.3,2.7,3.5,4.1c4.6,5.5,9,11.2,13.3,17s8.4,11.7,12.3,17.8
				c3.8,6.1,7.5,12.3,10.6,18.7c1.5,3.2,3,6.5,4.2,9.8c0.5,1.4,1,2.8,1.4,4.2c0,0.3,0,0.6,0,0.9c0,11.7-3.7,11.7-13.3,13.3
				c-9.6,1.6-8.5,10.7-8.5,10.7h17.6C437.6,1000.9,432.8,976.9,432.8,976.9z"/>
			<path class="st3" d="M761.3,842.7c-0.1-2.1-0.2-4.2-0.3-6.4c-0.1-1.1-0.2-2.1-0.2-3.2l-0.2-1.7l-0.1-0.9l-0.1-0.5
				c0-0.2-0.1-0.3-0.1-0.6c-3.5-14.3-17.9-23.1-32.2-19.6S705,827.7,708.5,842c0-0.1,0.1,0.1,0.1,0.1c0.1,0.1,0.1,0.2,0.1,0.2
				l0.2,0.5l0.4,1.1c0.3,0.7,0.6,1.5,0.9,2.2c0.6,1.5,1.1,3,1.7,4.6c1.1,3.1,2.1,6.2,2.9,9.2s1.6,6,2.2,8.9c0.1,0.7,0.3,1.4,0.4,2.1
				l0.2,1l0.2,1c0.1,0.7,0.2,1.2,0.3,1.9l0.1,0.9c0.1,0.3,0.1,0.6,0.1,0.8l0.2,1.4l0.1,0.6l0.1,0.3c0,0.1,0.1,0.2,0.1,0.2
				c0,0.1,0.1,0.2,0.1,0.3s0.1,0.1,0.1,0.1l0.1,0.1l0.1,0.1h0.1c0.1,0,0.1,0,0.1-0.1c0.1,0,0.1,0,0.2,0l-0.1,0.1l-0.1,0.2l-0.2,0.4
				c-0.9,1.9-1.8,3.7-2.6,5.5s-1.5,3.6-2.3,5.4c-3,7.2-5.8,14.5-8.3,21.8c-2.6,7.3-4.9,14.7-7,22.2c-2,7.5-3.8,15.1-5,22.8
				c-0.6,3.9-1,7.8-1.2,11.7c-0.1,2-0.2,3.9-0.1,6c0,0.3,0,0.6,0.1,1c-0.1,0.1-0.1,0.1-0.1,0.1s-4.8,24,12.8,24h17.6
				c0,0,1.1-9.1-8.5-10.7c-9.6-1.6-13.3-1.6-13.3-13.3c0-0.3,0-0.5,0-0.8c0.4-1.4,0.9-2.9,1.4-4.3c1.2-3.3,2.6-6.6,4.2-9.8
				c3.1-6.4,6.7-12.6,10.6-18.7c3.8-6.1,8-12,12.3-17.8s8.8-11.5,13.3-17c1.1-1.4,2.3-2.7,3.5-4.1c1.2-1.3,2.3-2.7,3.4-3.8l0.2-0.2
				l0.1-0.1l0.1-0.1l0.1-0.2l0.9-1.2l0.9-1.2l0.2-0.3l0.2-0.3l0.3-0.6l0.7-1.2c0.2-0.4,0.5-0.8,0.6-1.2c0.4-0.7,0.7-1.5,1.1-2.2
				c0.2-0.4,0.3-0.7,0.5-1.1l0.4-1.1l0.4-1.1l0.4-1c0.2-0.7,0.5-1.4,0.7-2.1l0.6-2c0.2-0.7,0.4-1.3,0.5-1.9c0.2-0.6,0.3-1.3,0.5-1.9
				c0.3-1.2,0.5-2.5,0.7-3.7l0.3-1.8l0.3-1.8c0.2-1.2,0.3-2.3,0.5-3.5c0.5-4.6,0.8-9,0.9-13.3C761.4,851.2,761.4,847,761.3,842.7z"
				/>
			<path class="st6" d="M620.5,459.4l-25.8,25.4l25.8,25.4l25.8-25.4L620.5,459.4z"/>
			<path class="st6" d="M472.9,604.4l-25.8,25.4l25.8,25.4l25.8-25.4L472.9,604.4z"/>
			<path class="st6" d="M565.3,513.9c0-0.1,0.1-0.2,0.1-0.3l25.6-25.1l25.8,25.4L591,539.2L565.3,513.9z"/>
			<path class="st6" d="M532,662.4l-25.8,25.4l25.8,25.4l25.8-25.4L532,662.4z"/>
			<path class="st6" d="M502.5,633.4l-25.8,25.4l25.8,25.4l25.8-25.4L502.5,633.4z"/>
			<path class="st6" d="M443.4,575.4l-25.8,25.4l25.8,25.4l25.8-25.4L443.4,575.4z"/>
			<path class="st6" d="M506.2,513.8l25.8-25.4l24.7,24.2c0.2,0.7,0.3,1.3,0.4,2l-25,24.6L506.2,513.8z"/>
			<path class="st6" d="M443.4,517.4l-25.8,25.4l25.8,25.4l25.8-25.4L443.4,517.4z"/>
			<path class="st6" d="M472.9,546.4l-25.8,25.4l25.8,25.4l25.8-25.4L472.9,546.4z"/>
			<path class="st6" d="M472.9,488.4l-25.8,25.4l25.8,25.4l25.8-25.4L472.9,488.4z"/>
			<path class="st6" d="M502.5,459.4l-25.8,25.4l25.8,25.4l25.8-25.4L502.5,459.4z"/>
			<path class="st6" d="M712.8,542.8l22.7-22.3c0.4,3.2,0.6,6.5,0.6,9.8c0,5.9-0.6,11.8-1.8,17.6c0,0.1,0,0.1-0.1,0.2
				c-0.1,0.2-0.2,0.7-0.4,1.5c-0.7,3.1-1.6,6.1-2.6,8.9v0.1c-0.2,0.6-0.4,1.2-0.6,1.7L712.8,542.8z"/>
			<path class="st6" d="M502.5,517.4l-25.8,25.4l25.8,25.4l25.8-25.4L502.5,517.4z"/>
			<path class="st6" d="M620.5,517.4l-25.8,25.4l25.8,25.4l25.8-25.4L620.5,517.4z"/>
			<path class="st6" d="M561.5,575.4l-25.8,25.4l25.8,25.4l25.8-25.4L561.5,575.4z"/>
			<path class="st6" d="M591,546.4l-25.8,25.4l25.8,25.4l25.8-25.4L591,546.4z"/>
			<path class="st6" d="M561.5,691.4l-25.8,25.4l25.8,25.4l25.8-25.4L561.5,691.4z"/>
			<path class="st6" d="M391.8,560.8c-0.3-0.8-0.5-1.6-0.8-2.4v-0.1c-1-2.9-1.9-5.9-2.6-8.9c-0.2-0.8-0.3-1.3-0.4-1.5
				c0-0.1,0-0.1-0.1-0.2c-1.2-5.7-1.8-11.6-1.8-17.5c0-3.5,0.2-7,0.6-10.5l23.4,23L391.8,560.8z"/>
			<path class="st6" d="M443.4,459.4l-25.8,25.4l25.8,25.4l25.8-25.4L443.4,459.4z"/>
			<path class="st6" d="M535.7,542.8l22.3-21.9c0.3,2.9,0.5,5.7,0.5,8.6c0,0.3,0.1,0.6,0.2,0.8c0.4,1,1.4,1.7,2.5,1.7
				s2.1-0.7,2.5-1.7c0.1-0.3,0.2-0.6,0.2-0.8c0.1-3.1,0.2-6.2,0.6-9.3l23,22.6l-25.8,25.4L535.7,542.8z"/>
			<path class="st6" d="M679.6,459.4l-25.8,25.4l25.8,25.4l25.8-25.4L679.6,459.4z"/>
			<path class="st6" d="M679.6,517.4l-25.8,25.4l25.8,25.4l25.8-25.4L679.6,517.4z"/>
			<path class="st6" d="M620.5,575.4l-25.8,25.4l25.8,25.4l25.8-25.4L620.5,575.4z"/>
			<path class="st6" d="M650.1,546.4l-25.8,25.4l25.8,25.4l25.8-25.4L650.1,546.4z"/>
			<path class="st6" d="M650.1,488.4l-25.8,25.4l25.8,25.4l25.8-25.4L650.1,488.4z"/>
			<path class="st6" d="M532,546.4l-25.8,25.4l25.8,25.4l25.8-25.4L532,546.4z"/>
			<path class="st6" d="M591,604.4l-25.8,25.4l25.8,25.4l25.8-25.4L591,604.4z"/>
			<path class="st6" d="M561.5,633.4l-25.8,25.4l25.8,25.4l25.8-25.4L561.5,633.4z"/>
			<path class="st6" d="M502.5,575.4l-25.8,25.4l25.8,25.4l25.8-25.4L502.5,575.4z"/>
			<path class="st6" d="M532,604.4l-25.8,25.4l25.8,25.4l25.8-25.4L532,604.4z"/>
			<path class="st6" d="M594.7,716.8l25.8-25.4l24,23.6c-6.9,9.6-14.3,19.5-21.8,29.3L594.7,716.8z"/>
			<path class="st6" d="M499.8,744.8c-7.6-9.9-14.9-19.7-21.8-29.3l24.5-24.1l25.8,25.4L499.8,744.8z"/>
			<path class="st6" d="M451.2,676.5c-6.9-10.7-13.5-21.3-19.5-31.6l11.6-11.4l25.8,25.4L451.2,676.5z"/>
			<path class="st6" d="M474.9,711.2c-7.3-10.2-14.2-20.4-20.7-30.3l18.8-18.5l25.8,25.4L474.9,711.2z"/>
			<path class="st6" d="M429.1,640.2c-6.5-11.4-12.5-22.6-17.8-33.3l2.6-2.5l25.8,25.4L429.1,640.2z"/>
			<path class="st6" d="M390.3,504.4c3-9.3,7.6-18,13.6-25.8l6.3,6.2L390.3,504.4z"/>
			<path class="st6" d="M400.9,584.4c-2.7-6.4-5.1-12.5-7.2-18.2l20.2-19.9l25.8,25.4l-25.8,25.4L400.9,584.4z"/>
			<path class="st6" d="M413.9,488.4l-25.8,25.4l25.8,25.4l25.8-25.4L413.9,488.4z"/>
			<path class="st6" d="M565.2,745.8l25.8-25.4l28.6,28.1c-4.3,5.5-8.6,11-12.9,16.3c-3.5,4.4-6.8,8.4-9.9,12L565.2,745.8z"/>
			<path class="st6" d="M683.3,629.8l25.8-25.4l2,2c-5.3,10.7-11.2,21.9-17.8,33.3L683.3,629.8z"/>
			<path class="st6" d="M653.7,658.8l25.8-25.4l11.1,10.9c-6,10.3-12.5,20.9-19.4,31.6L653.7,658.8z"/>
			<path class="st6" d="M407.2,474.6c8.1-9.2,18.2-16.7,29.5-21.8l3.1,3l-25.9,25.4L407.2,474.6z"/>
			<path class="st6" d="M525.8,777.2c-3.2-3.7-6.6-7.9-10.3-12.4c-4.2-5.2-8.4-10.5-12.5-15.9l29-28.5l25.8,25.4L525.8,777.2z"/>
			<path class="st6" d="M624.2,687.8l25.8-25.4l18.3,18c-6.5,10-13.5,20.1-20.7,30.4L624.2,687.8z"/>
			<path class="st6" d="M712.8,484.8l5.9-5.8c5.6,7.3,10,15.5,12.9,24.2L712.8,484.8z"/>
			<path class="st6" d="M591,662.4l-25.8,25.4l25.8,25.4l25.8-25.4L591,662.4z"/>
			<path class="st6" d="M683.3,513.8l25.8-25.4l25.2,24.7c0.1,0.4,0.2,0.7,0.2,1.1l-25.4,24.9L683.3,513.8z"/>
			<path class="st6" d="M683.3,455.8l2.8-2.8c11.2,5.1,21.2,12.7,29.3,22l-6.3,6.2L683.3,455.8z"/>
			<path class="st6" d="M683.3,571.8l25.8-25.4l19.6,19.2c-2.2,6.3-5,13-8,20.1l-11.6,11.4L683.3,571.8z"/>
			<path class="st6" d="M620.5,633.4l-25.8,25.4l25.8,25.4l25.8-25.4L620.5,633.4z"/>
			<path class="st6" d="M679.6,575.4l-25.8,25.4l25.8,25.4l25.8-25.4L679.6,575.4z"/>
			<path class="st6" d="M650.1,604.4l-25.8,25.4l25.8,25.4l25.8-25.4L650.1,604.4z"/>
			<path class="st6" d="M584.5,474.8c8.1-9.3,18.2-16.8,29.4-21.9l2.9,2.9L591,481.2L584.5,474.8z"/>
			<path class="st6" d="M506.2,455.8l2.7-2.7c11.2,5.2,21.2,12.7,29.2,22.1l-6.1,6L506.2,455.8z"/>
			<path class="st6" d="M624.2,455.8l9.3-9.1c5.4-1,10.9-1.5,16.4-1.5c5.6,0,11.3,0.6,16.8,1.6l9.2,9L650,481.2L624.2,455.8z"/>
			<path class="st6" d="M535.7,484.8l5.6-5.5c5.4,7.1,9.6,15,12.5,23.4L535.7,484.8z"/>
			<path class="st6" d="M568,503.8c3-8.9,7.5-17.4,13.2-24.9l6.1,6L568,503.8z"/>
			<path class="st6" d="M447.1,455.8l9.4-9.2c5.2-1,10.6-1.5,15.9-1.5c5.8,0,11.7,0.6,17.3,1.7l9.1,8.9l-25.9,25.4L447.1,455.8z"/>
			<path class="st7" d="M490.1,672.5l-21.9,48h21.9H512L490.1,672.5z"/>
			<path class="st7" d="M533.9,672.5l-21.9,48h21.9h21.9L533.9,672.5z"/>
			<path class="st7" d="M631.2,672.5l21.9,48h-21.9h-21.9L631.2,672.5z"/>
			<path class="st7" d="M587.4,672.5l21.9,48h-21.9h-21.9L587.4,672.5z"/>
			<path class="st8" d="M635.1,719.3h-0.2l-21.3-46.8l-21.3,46.8H582l-21.3-46.8l-21.3,46.8h-10.2l-21.3-46.8l-21.3,46.8h-0.2
				l-21.3-46.8v46.8v1.2V753h191.6v-32.5v-1.2v-46.8L635.1,719.3z"/>
			<path class="st8" d="M593.5,644.3c0-9.8-7.4-17.8-16.4-17.8s-16.3,7.9-16.4,17.6c-0.1-9.8-7.4-17.6-16.4-17.6
				c-9.1,0-16.4,8-16.4,17.8c0,1.2,0.1,2.5,0.4,3.7c0,0,0,0.1,0.1,0.3c0.1,0.6,0.3,1.2,0.5,1.9c1.6,5.3,6.9,19.9,23.1,42
				c8.5,11.7,9,7.8,6.7-0.7l2.2,0.7l2.2-0.7c-2.4,8.5-1.9,12.4,6.7,0.7c16.2-22.1,21.5-36.7,23.1-42c0.2-0.6,0.4-1.2,0.5-1.9
				c0.1-0.2,0.1-0.3,0.1-0.3C593.3,646.8,593.5,645.6,593.5,644.3z"/>
			<path class="st9" d="M656.4,745.4H464.8v7.6h191.6V745.4z"/>
			<path class="st8" d="M659.9,776.5H461.3c-1.4,0-2.6-1.2-2.6-2.6v-22.2c0-1.4,1.2-2.6,2.6-2.6h198.6c1.4,0,2.6,1.2,2.6,2.6v22.2
				C662.5,775.3,661.3,776.5,659.9,776.5z"/>
			<path class="st10" d="M567,649.9c-5.2,0.6-6.4,6.7-6.4,6.7s-1.2-6.1-6.4-6.7c-11.8-1.4-11.9,15.8,6.4,34.1
				C578.9,665.8,578.8,648.5,567,649.9z"/>
			<path class="st11" d="M507.7,695.9l-7.1,15.7l7.1,15.7l7.1-15.7L507.7,695.9z"/>
			<path class="st11" d="M464.8,695.9l-4.3,15.7l4.3,15.7l7.1-15.7L464.8,695.9z"/>
			<path class="st11" d="M656.4,695.9l4.3,15.7l-4.3,15.7l-7.1-15.7L656.4,695.9z"/>
			<path class="st11" d="M560.6,695.9l-7.1,15.7l7.1,15.7l7.1-15.7L560.6,695.9z"/>
			<path class="st11" d="M613.5,695.9l-7.1,15.7l7.1,15.7l7.1-15.7L613.5,695.9z"/>
		</g>
		<path class="st4" d="M351.7,844.1h-78.2c22.5,0,40.7-18.1,40.7-40.7c0-22.5-18.1-40.7-40.7-40.7H-73.6
			c-22.5,0-40.7,18.1-40.7,40.7c0,22.5,18.1,40.7,40.7,40.7H51.5c-22.5,0-40.7,18.1-40.7,40.7c0,22.5,18.1,40.7,40.7,40.7H-73.6
			c-22.5,0-40.7,18.1-40.7,40.7s18.1,40.7,40.7,40.7h347.1c22.5,0,40.7-18.1,40.7-40.7s-18.1-40.7-40.7-40.7h78.2
			c22.5,0,40.7-18.1,40.7-40.7C392.4,862.2,374.2,844.1,351.7,844.1z"/>
		<path class="st5" d="M157.7,681.4h-300.2c-22.5,0-40.7,18.1-40.7,40.7s18.1,40.7,40.7,40.7h-93.8c-22.5,0-40.7,18.1-40.7,40.7
			c0,22.5,18.1,40.7,40.7,40.7H63.9c22.5,0,40.7-18.1,40.7-40.7c0-22.5-18.1-40.7-40.7-40.7h93.8c22.5,0,40.7-18.1,40.7-40.7
			S180.2,681.4,157.7,681.4z"/>
		<path class="st4" d="M587.5,1061.4c0,22.5,18.1,40.7,40.7,40.7H722c-22.5,0-40.7,18.1-40.7,40.7s18.1,40.7,40.7,40.7h300.2
			c22.5,0,40.7-18.1,40.7-40.7s-18.1-40.7-40.7-40.7h-93.8c22.5,0,40.7-18.1,40.7-40.7c0-22.5-18.1-40.7-40.7-40.7H628.2
			C605.7,1020.8,587.5,1038.9,587.5,1061.4z"/>
		<path class="st5" d="M1291.2,939.5H1213c22.5,0,40.7-18.1,40.7-40.7c0-22.5-18.1-40.7-40.7-40.7H865.9
			c-22.5,0-40.7,18.1-40.7,40.7c0,22.5,18.1,40.7,40.7,40.7H991c-22.5,0-40.7,18.1-40.7,40.7c0,22.5,18.1,40.7,40.7,40.7H865.9
			c-22.5,0-40.7,18.1-40.7,40.7c0,22.5,18.1,40.7,40.7,40.7H1213c22.5,0,40.7-18.1,40.7-40.7c0-22.5-18.1-40.7-40.7-40.7h78.2
			c22.5,0,40.7-18.1,40.7-40.7C1331.8,957.6,1313.7,939.5,1291.2,939.5z"/>
		<path class="st11" d="M246.3,1856.2L246.3,1856.2c0,0,1.6,32.1-3.4,42.9c-0.2,0.5,0.3,1,0.8,0.7c10.5-5.6,42.6-5.9,42.6-5.9l0,0
			c5.3,0.2,10.9-2,15.1-6.4c7.2-7.7,7.5-19.1,0.7-25.5c-6.5-6.1-17.1-5.5-24.3,1.1v-0.1h-0.1c6.2-7.6,6.2-18.2-0.3-24.3
			c-6.8-6.4-18.2-5.5-25.4,2.2C247.7,1845.2,245.8,1850.9,246.3,1856.2z"/>
		<path class="st11" d="M1019.8,968.9L1019.8,968.9c0,0-0.1,33.1-5.8,44c-0.3,0.5,0.2,1,0.7,0.8c11.1-5.2,44.2-3.9,44.2-3.9l0,0
			c5.4,0.5,11.3-1.5,15.8-5.8c7.8-7.5,8.7-19.3,2.1-26.2c-6.4-6.6-17.3-6.6-25.1-0.1v-0.1h-0.1c6.8-7.5,7.3-18.4,0.9-25.1
			c-6.7-7-18.5-6.6-26.3,0.9C1021.7,957.7,1019.5,963.4,1019.8,968.9z"/>
		<path class="st11" d="M1060,176.6L1060,176.6c0,0-12.2-19.7-12.5-27.8c0-0.4-0.5-0.6-0.8-0.3c-5.1,6.3-26.7,14.9-26.7,14.9l0,0
			c-3.6,1.3-6.6,4.1-7.9,8c-2.2,6.7,1.5,14,8.4,16.2c4.4,1.5,9.1,0.5,12.4-2.3c-1.1,3.3-3.5,9.3-7.1,10.9l2.2,0.7l2.8,0.9l2.8,0.9
			l2.2,0.7c-1.9-3.4-0.3-9.7,0.8-13c1,4.2,4.2,7.7,8.6,9.2c6.8,2.3,14.2-1.3,16.4-8C1062.9,183.9,1062.2,179.8,1060,176.6z"/>
		<path class="st11" d="M222.6,1746.6L222.6,1746.6c0,0-16.1-4.8-20.3-8.9c-0.2-0.2-0.5-0.1-0.5,0.2c0.3,5.9-7.2,20.9-7.2,20.9l0,0
			c-1.3,2.4-1.6,5.4-0.4,8.2c2.1,4.7,7.6,6.8,12.4,4.7c3.1-1.4,5.1-4.2,5.6-7.2c1,2.3,2.6,6.7,1.5,9.3l1.6-0.7l1.9-0.8l1.9-0.8
			l1.6-0.7c-2.7-0.9-4.8-5.1-5.9-7.4c2.6,1.7,6,2.2,9.1,0.8c4.8-2.1,7-7.6,4.9-12.3C227.7,1749.1,225.3,1747.3,222.6,1746.6z"/>
		<path class="st11" d="M580,1460.7c-0.6,0-1.2,0-1.8,0c1.6-2.5,2.6-5.3,2.8-8.5c0.5-9.4-6.8-17.4-16.2-17.9s-17.4,6.8-17.9,16.2
			c-0.2,3.2,0.6,6.2,2,8.9c-1-0.2-1.9-0.4-3-0.4c-9.4-0.5-17.4,6.8-17.9,16.2c-0.5,9.4,6.8,17.4,16.2,17.9
			c6.1,0.3,11.6-2.7,14.9-7.4c-0.2,4.5-1.2,13.1-5.2,16.4l3.1,0.2l3.8,0.2l3.8,0.2l3.1,0.2c-3.6-3.7-3.7-12.3-3.5-16.8
			c2.8,5,8,8.5,14.1,8.8c9.4,0.5,17.4-6.8,17.9-16.2C596.7,1469.2,589.4,1461.2,580,1460.7z M562.3,1474.9
			C562.3,1474.9,562.3,1475,562.3,1474.9l-0.2,0.1v-0.1C562.1,1474.9,562.2,1474.9,562.3,1474.9z"/>
		<path class="st11" d="M259,359.4c-0.3-0.3-0.6-0.5-0.9-0.8c1.9-0.6,3.6-1.6,5-3.1c4.3-4.6,4-11.8-0.5-16.1
			c-4.6-4.3-11.8-4-16.1,0.5c-1.5,1.6-2.4,3.4-2.8,5.4c-0.4-0.5-0.8-1-1.3-1.5c-4.6-4.3-11.8-4-16.1,0.5s-4,11.8,0.5,16.1
			c3,2.8,7.1,3.7,10.7,2.7c-2.1,2.2-6.2,6.1-9.7,6.1l1.5,1.4l1.9,1.7l1.9,1.7l1.5,1.4c-0.3-3.4,3.4-7.9,5.4-10.1
			c-0.7,3.7,0.4,7.7,3.4,10.5c4.6,4.3,11.8,4,16.1-0.5C263.8,370.9,263.6,363.7,259,359.4z M243.9,359L243.9,359l-0.1-0.1l0,0
			C243.8,358.9,243.9,359,243.9,359z"/>
		<path class="st11" d="M124.7,622.7c-0.6-0.4-1-1-1.1-1.8c-0.5-17.5-7.1-30.3-7.3-30.5c-0.4-0.6-0.4-1.4,0-2.1
			c0.4-0.7,1.1-1.1,1.8-1.1c0.2,0,14.5-0.8,29.9-9.5c0.6-0.4,1.4-0.4,2.1,0c0.6,0.4,1,1,1.1,1.8c0.5,17.6,7.2,30.3,7.3,30.5
			c0.4,0.6,0.4,1.4,0.1,2.1c-0.4,0.7-1,1.1-1.8,1.1l0,0c-0.2,0-14.5,0.9-29.9,9.5C126.1,623.1,125.3,623.1,124.7,622.7z"/>
		<path class="st11" d="M1019.2,2205.5c-1,0.3-2.1,0-2.9-0.7c-18.7-17.1-38.5-23.1-38.9-23.2c-1-0.2-1.9-1-2.2-2.1s0-2.2,0.7-3
			c0.2-0.2,13.7-15.9,20.3-40.5c0.3-1,1.1-1.8,2.1-2.1s2.1,0,2.9,0.7c18.7,17.1,38.6,23.1,38.9,23.2c1,0.2,1.9,1,2.2,2
			c0.3,1,0.1,2.2-0.7,3c0,0,0,0,0,0.1c-0.2,0.2-13.8,15.9-20.3,40.5C1021,2204.4,1020.2,2205.2,1019.2,2205.5z"/>
		<g>
			<path class="st3" d="M1051.9,2434.8c-20.4,16.6-35,40.1-40.4,66.8H1125V2334h-115.3c-0.3,3.6-0.5,7.3-0.5,11
				C1009.2,2381.2,1025.9,2413.5,1051.9,2434.8z"/>
		</g>
	</g>
</g>
</svg>
