<?xml version="1.0" encoding="utf-8"?>
<!-- Generator: Adobe Illustrator 23.1.0, SVG Export Plug-In . SVG Version: 6.00 Build 0)  -->
<svg version="1.1" id="Layer_1" xmlns="http://www.w3.org/2000/svg" xmlns:xlink="http://www.w3.org/1999/xlink" x="0px" y="0px"
	 viewBox="0 0 1125 2436" style="enable-background:new 0 0 1125 2436;" xml:space="preserve">
<style type="text/css">
	.st0{clip-path:url(#SVGID_2_);}
	.st1{fill:url(#SVGID_3_);}
	.st2{fill:#7A58C3;}
	.st3{fill:#CF8EEA;}
	.st4{fill:#F1A7CA;}
	.st5{opacity:0.5;fill:#D098EA;enable-background:new    ;}
	.st6{fill:#FFFFFF;}
	.st7{fill:#53BDBC;}
</style>
<g>
	<defs>
		<rect id="SVGID_1_" width="1125" height="2436"/>
	</defs>
	<clipPath id="SVGID_2_">
		<use xlink:href="#SVGID_1_"  style="overflow:visible;"/>
	</clipPath>
	<g class="st0">
		<g>
			<g>
				
					<linearGradient id="SVGID_3_" gradientUnits="userSpaceOnUse" x1="297.6" y1="8107.0098" x2="297.6" y2="-4072.99" gradientTransform="matrix(1 0 0 -1 264.9 3235.01)">
					<stop  offset="0" style="stop-color:#D1DDEC"/>
					<stop  offset="1" style="stop-color:#F5F0DD"/>
				</linearGradient>
				<rect x="-2250" y="-4872" class="st1" width="5625" height="12180"/>
			</g>
		</g>
		<circle class="st2" cx="30" cy="2466" r="86"/>
		<circle class="st2" cx="30" cy="-29.8" r="86"/>
		<circle class="st2" cx="1095.2" cy="29.8" r="86"/>
		<circle class="st2" cx="1095" cy="2406.2" r="86"/>
		<path class="st2" d="M115.8,269.1c0-36.2-16.7-68.5-42.7-89.8c26.1-21.2,42.7-53.6,42.7-89.8c0-36.1-16.5-68.3-42.4-89.5H0v2277
			v58v180h74.3c-0.4-0.3-0.8-0.7-1.2-1c26.1-21.2,42.7-53.6,42.7-89.8c0-35.9-16.4-68-42.1-89.2h0.5c-0.3-0.2-0.6-0.5-0.9-0.8
			c17.8-14.6,31.3-34.5,37.9-57.2h-0.1c3.1-10.4,4.7-21.4,4.7-32.8c0-36.2-16.7-68.5-42.7-89.8c26.1-21.2,42.7-53.6,42.7-89.8
			s-16.7-68.5-42.7-89.8c26.1-21.2,42.7-53.6,42.7-89.8s-16.7-68.5-42.7-89.8c26.1-21.2,42.7-53.6,42.7-89.8
			c0-36.2-16.7-68.5-42.7-89.8c26.1-21.2,42.7-53.6,42.7-89.8c0-36.2-16.7-68.5-42.7-89.8c26.1-21.2,42.7-53.6,42.7-89.8
			c0-36.2-16.7-68.5-42.7-89.8c26.1-21.2,42.7-53.6,42.7-89.8s-16.7-68.5-42.7-89.8c26.1-21.2,42.7-53.6,42.7-89.8
			s-16.7-68.5-42.7-89.8c26.1-21.2,42.7-53.6,42.7-89.8s-16.7-68.5-42.7-89.8c26.1-21.2,42.7-53.6,42.7-89.8S99.1,559.3,73.1,538
			c26.1-21.2,42.7-53.6,42.7-89.8s-16.7-68.5-42.7-89.8C99.1,337.6,115.8,305.3,115.8,269.1z"/>
		<rect x="-119.4" class="st2" width="124.4" height="2436"/>
		<path class="st3" d="M1008.5,2217.4h-78.2c22.5,0,40.7-18.1,40.7-40.7s-18.1-40.7-40.7-40.7H583.2c-22.5,0-40.7,18.1-40.7,40.7
			s18.1,40.7,40.7,40.7h125.1c-22.5,0-40.7,18.1-40.7,40.7c0,22.5,18.1,40.7,40.7,40.7H583.2c-22.5,0-40.7,18.1-40.7,40.7
			s18.1,40.7,40.7,40.7h347.1c22.5,0,40.7-18.1,40.7-40.7s-18.1-40.7-40.7-40.7h78.2c22.5,0,40.7-18.1,40.7-40.7
			C1049.2,2235.5,1031.1,2217.4,1008.5,2217.4z"/>
		<path class="st3" d="M1008.5,122.7h-78.2c22.5,0,40.7-18.1,40.7-40.7s-18.1-40.7-40.7-40.7H583.2c-22.5,0-40.7,18.1-40.7,40.7
			s18.1,40.7,40.7,40.7h125.1c-22.5,0-40.7,18.1-40.7,40.7s18.1,40.7,40.7,40.7H583.2c-22.5,0-40.7,18.1-40.7,40.7
			s18.1,40.7,40.7,40.7h347.1c22.5,0,40.7-18.1,40.7-40.7S952.9,204,930.4,204h78.2c22.5,0,40.7-18.1,40.7-40.7
			S1031.1,122.7,1008.5,122.7z"/>
		<path class="st4" d="M1292.2,2054.8H992c-22.5,0-40.7,18.1-40.7,40.7s18.1,40.7,40.7,40.7h-93.8c-22.5,0-40.7,18.1-40.7,40.7
			s18.1,40.7,40.7,40.7h300.2c22.5,0,40.7-18.1,40.7-40.7s-18.1-40.7-40.7-40.7h93.8c22.5,0,40.7-18.1,40.7-40.7
			S1314.7,2054.8,1292.2,2054.8z"/>
		<path class="st4" d="M1192.4,204H892.2c-22.5,0-40.7,18.1-40.7,40.7s18.1,40.7,40.7,40.7h-93.8c-22.5,0-40.7,18.1-40.7,40.7
			c0,22.5,18.1,40.7,40.7,40.7h300.2c22.5,0,40.7-18.1,40.7-40.7c0-22.5-18.1-40.7-40.7-40.7h93.8c22.5,0,40.7-18.1,40.7-40.7
			S1214.9,204,1192.4,204z"/>
		<path class="st4" d="M393.2,619.1H93c-22.5,0-40.7,18.1-40.7,40.7c0,22.5,18.1,40.7,40.7,40.7H-0.8c-22.5,0-40.7,18.1-40.7,40.7
			s18.1,40.7,40.7,40.7h300.2c22.5,0,40.7-18.1,40.7-40.7s-18.1-40.7-40.7-40.7h93.8c22.5,0,40.7-18.1,40.7-40.7
			C433.8,637.2,415.7,619.1,393.2,619.1z"/>
		<g>
			<ellipse class="st5" cx="1123.5" cy="711.4" rx="168.3" ry="35.1"/>
			<path class="st6" d="M1074.1,682.1c-6.2,0-11.7-4.2-13.2-10.4c-14.4-60.3-0.3-104.3,0.3-106.1c2.3-7.1,10.1-11.1,17.2-8.7
				c7.1,2.3,11,10,8.7,17.1c-0.3,0.7-12.1,39.2,0.3,91.4c1.7,7.3-2.8,14.7-10.1,16.4C1076.2,682,1075.2,682.1,1074.1,682.1z"/>
			<path class="st2" d="M1004.6,476.8c-1.8,0-3.7-0.6-5.2-1.9c-0.9-0.8-22.3-19.2-30.9-69.6c-9-52.5,52.5-96.8,55.1-98.6
				c3.7-2.6,8.8-1.7,11.4,1.9c2.6,3.7,1.7,8.8-1.9,11.4c-0.5,0.4-55.7,40.2-48.5,82.5c7.5,43.9,25.1,59.7,25.3,59.9
				c3.5,2.9,3.9,8.1,1,11.6C1009.2,475.8,1007,476.8,1004.6,476.8z"/>
			<path class="st6" d="M1226.5,608.2h-205.3c-9.1,0-16.5-7.4-16.5-16.5V286c0-9.1,7.4-16.5,16.5-16.5h205.3
				c9.1,0,16.5,7.4,16.5,16.5v305.7C1243,600.8,1235.6,608.2,1226.5,608.2z"/>
			<path class="st6" d="M1123.6,280.3c23,0,41.6-21.2,41.6-47.4s-18.6-47.4-41.6-47.4s-41.6,21.2-41.6,47.4
				S1100.6,280.3,1123.6,280.3z"/>
			<path class="st2" d="M1165.2,265.1c9.2-9.9,24.5-31.1,16.7-55.1c-11-33.2-48.5-57.2-58.4-78.5c-9.8,21.3-47.4,45.2-58.4,78.6
				c-7.8,23.9,7.5,45.1,16.7,55.1c-41.8-3.9-98.8-5.9-90.3,13.7c0,0,7.1,30.5,47.4,41.4c29.1,7.9,60.4-21.8,75.4-39
				c0,8.7-1.3,31-11.7,67.3h20.8h20.8c-10.3-36.4-11.6-58.6-11.7-67.3c15.1,17.1,46.2,46.8,75.4,39c40.4-10.9,47.4-41.4,47.4-41.4
				C1264,259.1,1207,261.1,1165.2,265.1z M1103.5,267.4c-3.5-5.7-7-15.3-9.9-31.8c-8.2-46.4,30-41.4,30-41.4s38.2-4.9,30,41.4
				c-2.9,16.4-6.5,26.1-9.9,31.8c-12.1,1.5-20,7-20,7S1115.6,268.9,1103.5,267.4z"/>
			<path class="st2" d="M1146.4,227.1c-0.2-0.7-0.9-1.2-1.7-1c-0.7,0.2-1.2,0.9-1,1.7c0,0,0.4,2-0.9,3.9c-1.2,1.7-3.6,2.9-7,3.4
				c-3.9,0.5-7.5-0.3-10.1-2.4c0.2-0.2,0.3-0.4,0.5-0.7c2-2.9,2.6-6.1,1.5-8.2c-0.7-1.4-2.1-2.2-3.8-2.2c0,0,0,0-0.1,0
				c0,0,0,0-0.1,0c-1.7,0-3,0.8-3.8,2.2c-1.1,2.1-0.5,5.3,1.5,8.2c0.2,0.3,0.3,0.4,0.5,0.7c-2.6,2.1-6.3,3-10.1,2.4
				c-3.4-0.4-5.7-1.6-6.9-3.3c-1.3-1.8-1-3.8-1-3.9c0.2-0.7-0.3-1.5-1-1.7c-0.8-0.2-1.5,0.3-1.7,1c0,0.1-0.7,3.1,1.3,6
				c1.7,2.4,4.6,3.9,8.8,4.5c0.9,0.1,1.7,0.2,2.6,0.2c3.7,0,7.2-1.2,9.8-3.4c2.6,2.2,6.1,3.4,9.8,3.4c0.9,0,1.7-0.1,2.6-0.2
				c4.2-0.6,7.1-2.1,8.8-4.5C1147.1,230.2,1146.4,227.2,1146.4,227.1z M1122.3,224.9c0.2-0.3,0.5-0.7,1.4-0.7c0,0,0,0,0.1,0
				c1,0,1.3,0.4,1.5,0.7c0.5,1,0.3,3.1-1.3,5.3c-0.1,0.1-0.1,0.2-0.2,0.3c-0.1-0.1-0.1-0.2-0.2-0.3
				C1122.1,228,1121.8,225.9,1122.3,224.9z"/>
			<path class="st7" d="M1116,260.1c4.1,6.4,8.3-5.2,7.7-2.8c-0.7-2.4,3.5,9.2,7.7,2.8c4.7-7.3-7.7-16-7.7-16
				S1111.3,252.8,1116,260.1z"/>
			<path class="st2" d="M1028.6,467.6c2.2-4.4,0.3-10.6-4.6-14.5c-4-3.1-9-4-12.7-2.5l-17.9-41.4c-0.3-0.8-1.2-1-1.9-0.6l-33.1,20.3
				c-0.7,0.4-0.9,1.4-0.3,2l26.6,33.1c-4.5,9.5-0.6,22.4,9.9,30.7c11.8,9.3,27.5,9.1,35-0.3C1035.2,486.9,1034.5,476.3,1028.6,467.6
				z"/>
			<path class="st2" d="M1099.4,677.4c-3-5.6-7-11.2-11.8-12c0,0-14.7,20.7-27,7.9c0,0-16.6,5.2-23.1,12.3s-36.5,12-39.2,1.7
				c0,0,1.1,18,16.9,24c15.7,6,17.5,9.8,46.9,1.7c28.3-7.8,41.5-0.6,42.5-20.9C1103.6,685.5,1099.4,677.4,1099.4,677.4z"/>
			<path class="st4" d="M1125.3,408.8c0,0-52.4,55.5-31.8,70.9c11.7,8.8,22.6,2.3,28.1-3.8c-1.3,10.5-4.5,21.1-8.9,24.6h12.6h12.6
				c-4.4-3.5-7.6-14.1-8.9-24.6c5.5,6.1,16.4,12.6,28.1,3.8C1177.7,464.4,1125.3,408.8,1125.3,408.8z"/>
		</g>
		<path class="st6" d="M246.3,1856.2L246.3,1856.2c0,0,1.6,32.1-3.4,42.9c-0.2,0.5,0.3,1,0.8,0.7c10.5-5.6,42.6-5.9,42.6-5.9l0,0
			c5.3,0.2,10.9-2,15.1-6.4c7.2-7.7,7.5-19.1,0.7-25.5c-6.5-6.1-17.1-5.5-24.3,1.1v-0.1h-0.1c6.2-7.6,6.2-18.2-0.3-24.3
			c-6.8-6.4-18.2-5.5-25.4,2.2C247.7,1845.2,245.8,1850.9,246.3,1856.2z"/>
		<path class="st6" d="M1019.8,968.9L1019.8,968.9c0,0-0.1,33.1-5.8,44c-0.3,0.5,0.2,1,0.7,0.8c11.1-5.2,44.2-3.9,44.2-3.9l0,0
			c5.4,0.5,11.3-1.5,15.8-5.8c7.8-7.5,8.7-19.3,2.1-26.2c-6.4-6.6-17.3-6.6-25.1-0.1v-0.1h-0.1c6.8-7.5,7.3-18.4,0.9-25.1
			c-6.7-7-18.5-6.6-26.3,0.9C1021.7,957.7,1019.5,963.4,1019.8,968.9z"/>
		<path class="st6" d="M1060,176.6L1060,176.6c0,0-12.2-19.7-12.5-27.8c0-0.4-0.5-0.6-0.8-0.3c-5.1,6.3-26.7,14.9-26.7,14.9l0,0
			c-3.6,1.3-6.6,4.1-7.9,8c-2.2,6.7,1.5,14,8.4,16.2c4.4,1.5,9.1,0.5,12.4-2.3c-1.1,3.3-3.5,9.3-7.1,10.9l2.2,0.7l2.8,0.9l2.8,0.9
			l2.2,0.7c-1.9-3.4-0.3-9.7,0.8-13c1,4.2,4.2,7.7,8.6,9.2c6.8,2.3,14.2-1.3,16.4-8C1062.9,183.9,1062.2,179.8,1060,176.6z"/>
		<path class="st6" d="M222.6,1746.6L222.6,1746.6c0,0-16.1-4.8-20.3-8.9c-0.2-0.2-0.5-0.1-0.5,0.2c0.3,5.9-7.2,20.9-7.2,20.9l0,0
			c-1.3,2.4-1.6,5.4-0.4,8.2c2.1,4.7,7.6,6.8,12.4,4.7c3.1-1.4,5.1-4.2,5.6-7.2c1,2.3,2.6,6.7,1.5,9.3l1.6-0.7l1.9-0.8l1.9-0.8
			l1.6-0.7c-2.7-0.9-4.8-5.1-5.9-7.4c2.6,1.7,6,2.2,9.1,0.8c4.8-2.1,7-7.6,4.9-12.3C227.7,1749.1,225.3,1747.3,222.6,1746.6z"/>
		<path class="st6" d="M580,1460.7c-0.6,0-1.2,0-1.8,0c1.6-2.5,2.6-5.3,2.8-8.5c0.5-9.4-6.8-17.4-16.2-17.9s-17.4,6.8-17.9,16.2
			c-0.2,3.2,0.6,6.2,2,8.9c-1-0.2-1.9-0.4-3-0.4c-9.4-0.5-17.4,6.8-17.9,16.2c-0.5,9.4,6.8,17.4,16.2,17.9
			c6.1,0.3,11.6-2.7,14.9-7.4c-0.2,4.5-1.2,13.1-5.2,16.4l3.1,0.2l3.8,0.2l3.8,0.2l3.1,0.2c-3.6-3.7-3.7-12.3-3.5-16.8
			c2.8,5,8,8.5,14.1,8.8c9.4,0.5,17.4-6.8,17.9-16.2C596.7,1469.2,589.4,1461.2,580,1460.7z M562.3,1474.9
			C562.3,1474.9,562.3,1475,562.3,1474.9l-0.2,0.1v-0.1C562.1,1474.9,562.2,1474.9,562.3,1474.9z"/>
		<path class="st6" d="M259,359.4c-0.3-0.3-0.6-0.5-0.9-0.8c1.9-0.6,3.6-1.6,5-3.1c4.3-4.6,4-11.8-0.5-16.1
			c-4.6-4.3-11.8-4-16.1,0.5c-1.5,1.6-2.4,3.4-2.8,5.4c-0.4-0.5-0.8-1-1.3-1.5c-4.6-4.3-11.8-4-16.1,0.5s-4,11.8,0.5,16.1
			c3,2.8,7.1,3.7,10.7,2.7c-2.1,2.2-6.2,6.1-9.7,6.1l1.5,1.4l1.9,1.7l1.9,1.7l1.5,1.4c-0.3-3.4,3.4-7.9,5.4-10.1
			c-0.7,3.7,0.4,7.7,3.4,10.5c4.6,4.3,11.8,4,16.1-0.5C263.8,370.9,263.6,363.7,259,359.4z M243.9,359L243.9,359l-0.1-0.1l0,0
			C243.8,358.9,243.9,359,243.9,359z"/>
		<path class="st6" d="M124.7,622.7c-0.6-0.4-1-1-1.1-1.8c-0.5-17.5-7.1-30.3-7.3-30.5c-0.4-0.6-0.4-1.4,0-2.1
			c0.4-0.7,1.1-1.1,1.8-1.1c0.2,0,14.5-0.8,29.9-9.5c0.6-0.4,1.4-0.4,2.1,0c0.6,0.4,1,1,1.1,1.8c0.5,17.6,7.2,30.3,7.3,30.5
			c0.4,0.6,0.4,1.4,0.1,2.1c-0.4,0.7-1,1.1-1.8,1.1l0,0c-0.2,0-14.5,0.9-29.9,9.5C126.1,623.1,125.3,623.1,124.7,622.7z"/>
		<path class="st6" d="M1019.2,2205.5c-1,0.3-2.1,0-2.9-0.7c-18.7-17.1-38.5-23.1-38.9-23.2c-1-0.2-1.9-1-2.2-2.1s0-2.2,0.7-3
			c0.2-0.2,13.7-15.9,20.3-40.5c0.3-1,1.1-1.8,2.1-2.1s2.1,0,2.9,0.7c18.7,17.1,38.6,23.1,38.9,23.2c1,0.2,1.9,1,2.2,2
			c0.3,1,0.1,2.2-0.7,3c0,0,0,0,0,0.1c-0.2,0.2-13.8,15.9-20.3,40.5C1021,2204.4,1020.2,2205.2,1019.2,2205.5z"/>
	</g>
</g>
</svg>
