<?xml version="1.0" encoding="utf-8"?>
<!-- Generator: Adobe Illustrator 23.1.0, SVG Export Plug-In . SVG Version: 6.00 Build 0)  -->
<svg version="1.1" id="Layer_1" xmlns="http://www.w3.org/2000/svg" xmlns:xlink="http://www.w3.org/1999/xlink" x="0px" y="0px"
	 viewBox="0 0 1125 2436" style="enable-background:new 0 0 1125 2436;" xml:space="preserve">
<style type="text/css">
	.st0{clip-path:url(#SVGID_2_);}
	.st1{fill:url(#SVGID_3_);}
	.st2{fill:#7A58C3;}
	.st3{opacity:0.5;}
	.st4{fill:#D098EA;}
	.st5{fill:#F1A7CA;}
	.st6{fill:#53BDBC;}
	.st7{opacity:0.5;fill:#D098EA;enable-background:new    ;}
	.st8{fill:#CF8EEA;}
	.st9{fill:none;stroke:#53BDBC;stroke-width:5;stroke-linecap:round;}
	.st10{fill:#FFFFFF;}
</style>
<g>
	<defs>
		<rect id="SVGID_1_" width="1125" height="2436"/>
	</defs>
	<clipPath id="SVGID_2_">
		<use xlink:href="#SVGID_1_"  style="overflow:visible;"/>
	</clipPath>
	<g class="st0">
		<g>
			<g>
				
					<linearGradient id="SVGID_3_" gradientUnits="userSpaceOnUse" x1="297.6" y1="5671.0098" x2="297.6" y2="-6508.9902" gradientTransform="matrix(1 0 0 -1 264.9 -1636.99)">
					<stop  offset="0" style="stop-color:#D1DDEC"/>
					<stop  offset="1" style="stop-color:#F5F0DD"/>
				</linearGradient>
				<rect x="-2250" y="-7308" class="st1" width="5625" height="12180"/>
			</g>
		</g>
		<path class="st2" d="M1125,2328.5c-18.3,7.4-34.4,19.3-46.7,34.4c-21.2-26.1-53.6-42.7-89.8-42.7s-68.5,16.7-89.8,42.7
			c-21.2-26.1-53.6-42.7-89.8-42.7s-68.5,16.7-89.8,42.7c-21.2-26.1-53.6-42.7-89.8-42.7s-68.5,16.7-89.8,42.7
			c-21.2-26.1-53.6-42.7-89.8-42.7s-68.5,16.7-89.8,42.7c-21.2-26.1-53.6-42.7-89.8-42.7s-68.5,16.7-89.8,42.7
			c-21.2-26.1-53.6-42.7-89.8-42.7s-68.5,16.7-89.8,42.7c-0.3-0.4-0.7-0.8-1-1.2v74.3h1125v-107.5H1125z"/>
		<circle class="st2" cx="-30" cy="2406" r="86"/>
		<circle class="st2" cx="1095.2" cy="2360.1" r="86"/>
		<circle class="st2" cx="30" cy="30" r="86"/>
		<circle class="st2" cx="1095" cy="-29.8" r="86"/>
		<path class="st2" d="M1051,0c0.3,0.2,0.6,0.5,0.9,0.8c-26.1,21.2-42.7,53.6-42.7,89.8s16.7,68.5,42.7,89.8
			c-26.1,21.2-42.7,53.6-42.7,89.8s16.7,68.5,42.7,89.8c-26.1,21.2-42.7,53.6-42.7,89.8s16.7,68.5,42.7,89.8
			c-26.1,21.2-42.7,53.6-42.7,89.8s16.7,68.5,42.7,89.8c-26.1,21.2-42.7,53.6-42.7,89.8s16.7,68.5,42.7,89.8
			c-26.1,21.2-42.7,53.6-42.7,89.8s16.7,68.5,42.7,89.8c-26.1,21.2-42.7,53.6-42.7,89.8s16.7,68.5,42.7,89.8
			c-26.1,21.2-42.7,53.6-42.7,89.8c0,36.2,16.7,68.5,42.7,89.8c-26.1,21.2-42.7,53.6-42.7,89.8s16.7,68.5,42.7,89.8
			c-26.1,21.2-42.7,53.6-42.7,89.8c0,36.2,16.7,68.5,42.7,89.8c-26.1,21.2-42.7,53.6-42.7,89.8c0,36.2,16.7,68.5,42.7,89.8
			c-26.1,21.2-42.7,53.6-42.7,89.8c0,36.2,16.7,68.5,42.7,89.8c-26.1,21.2-42.7,53.6-42.7,89.8s16.7,68.5,42.7,89.8
			c-0.4,0.3-0.8,0.7-1.2,1h74.3V0H1051z"/>
		<rect x="1120" class="st2" width="124.4" height="2560.4"/>
		<rect y="2431" class="st2" width="1249.1" height="124.4"/>
		<g>
			<g class="st3">
				<ellipse class="st4" cx="-95.4" cy="2273.5" rx="151.1" ry="30.6"/>
				<ellipse class="st4" cx="59.3" cy="2273.5" rx="151.1" ry="30.6"/>
				<ellipse class="st4" cx="205.2" cy="2273.5" rx="151.1" ry="30.6"/>
				<ellipse class="st4" cx="439.9" cy="2273.5" rx="151.1" ry="30.6"/>
				<ellipse class="st4" cx="290.1" cy="2181.5" rx="151.1" ry="30.6"/>
				<ellipse class="st4" cx="229.1" cy="2201.5" rx="151.1" ry="30.6"/>
			</g>
			<path class="st5" d="M229.1,1855.6c0,0-184.2,195.2-112,249.4c41.3,30.9,79.6,8,98.9-13.5c-4.6,37-15.9,74.3-31.2,86.6h44.4h44.4
				c-15.3-12.2-26.6-49.6-31.2-86.6c19.3,21.4,57.8,44.4,98.9,13.5C413.3,2050.8,229.1,1855.6,229.1,1855.6z"/>
			<path class="st2" d="M59.3,1951c0,0-184.2,195.2-112,249.4c41.3,30.9,79.6,8,98.9-13.5c-4.6,37-15.9,74.3-31.2,86.6h44.4h44.4
				c-15.3-12.2-26.6-49.6-31.2-86.6c19.3,21.4,57.8,44.4,98.9,13.5C243.5,2146.2,59.3,1951,59.3,1951z"/>
			<path class="st6" d="M205.2,2063.6c0,0-120.1,127.1-73,162.3c26.9,20.1,51.9,5.2,64.4-8.8c-3,24.1-10.4,48.4-20.3,56.4h28.9h28.9
				c-10-8-17.4-32.3-20.3-56.4c12.6,13.9,37.7,28.9,64.4,8.8C325.3,2190.7,205.2,2063.6,205.2,2063.6z"/>
			<path class="st5" d="M229.1,1855.6c0,0-184.2,195.2-112,249.4c41.3,30.9,79.6,8,98.9-13.5c-4.6,37-15.9,74.3-31.2,86.6h44.4h44.4
				c-15.3-12.2-26.6-49.6-31.2-86.6c19.3,21.4,57.8,44.4,98.9,13.5C413.3,2050.8,229.1,1855.6,229.1,1855.6z"/>
			<path class="st2" d="M290.1,1968.2c0,0-126.9,135.1-77.2,172.6c28.5,21.4,54.8,5.5,68.1-9.3c-3.2,25.6-11,51.5-21.5,59.9h30.6
				h30.6c-10.5-8.5-18.3-34.3-21.5-59.9c13.3,14.8,39.8,30.7,68.1,9.3C417.1,2103.3,290.1,1968.2,290.1,1968.2z"/>
			<path class="st5" d="M439.9,1981.6c0,0-166.5,176.7-101.2,225.7c37.3,28,71.9,7.2,89.3-12.2c-4.1,33.5-14.4,67.3-28.2,78.4h40.1
				H480c-13.8-11.1-24.1-44.9-28.2-78.4c17.4,19.4,52.3,40.2,89.3,12.2C606.4,2158.3,439.9,1981.6,439.9,1981.6z"/>
			<path class="st5" d="M-95.4,1981.6c0,0-166.5,176.7-101.2,225.7c37.3,28,71.9,7.2,89.3-12.2c-4.1,33.5-14.4,67.3-28.2,78.4h40.1
				h40.1c-13.8-11.1-24.1-44.9-28.2-78.4c17.4,19.4,52.3,40.2,89.3,12.2C71.1,2158.3-95.4,1981.6-95.4,1981.6z"/>
			<path class="st6" d="M205.2,2063.6c0,0-120.1,127.1-73,162.3c26.9,20.1,51.9,5.2,64.4-8.8c-3,24.1-10.4,48.4-20.3,56.4h28.9h28.9
				c-10-8-17.4-32.3-20.3-56.4c12.6,13.9,37.7,28.9,64.4,8.8C325.3,2190.7,205.2,2063.6,205.2,2063.6z"/>
			<path class="st2" d="M59.3,1951c0,0-184.2,195.2-112,249.4c41.3,30.9,79.6,8,98.9-13.5c-4.6,37-15.9,74.3-31.2,86.6h44.4h44.4
				c-15.3-12.2-26.6-49.6-31.2-86.6c19.3,21.4,57.8,44.4,98.9,13.5C243.5,2146.2,59.3,1951,59.3,1951z"/>
		</g>
		<g>
			<ellipse class="st7" cx="732.7" cy="1003.4" rx="108.2" ry="26.6"/>
			<ellipse class="st7" cx="957.2" cy="953.4" rx="49" ry="12"/>
			<path class="st5" d="M1046,302.1c-2,2.7-5.8,3.2-8.4,1.2c-2.7-2-3.2-5.7-1.2-8.4c4.1-5.6,5.6-10.5,4.3-15.1
				c-3.3-12.6-25.9-22.5-35.6-26.8c-9.1-4-20.2-14.1-32-24.7c-6.9-6.2-14-12.7-20-17.1c-6.9-5.1-9.8-5.7-10.7-5.8
				c0,0.1-0.1,0.2-0.2,0.3c-6.3,15.5,6.5,30.3,6.7,30.5c2.2,2.5,2,6.3-0.5,8.5s-6.3,2-8.5-0.5c-0.7-0.8-17.9-20.6-8.8-43
				c2.1-5.2,5.7-7,8.4-7.6c10.1-2.3,22.4,8.3,41.7,25.7c10.6,9.5,21.4,19.4,28.8,22.6c7.9,3.5,17,7.7,24.8,13.1
				c9.8,6.7,15.6,13.8,17.6,21.6C1054.5,285,1052.3,293.5,1046,302.1z"/>
			<path class="st5" d="M896,207.8c0,0-13.8-7.7-43.9,32.9c-30.1,40.6-18.8,51.6-18.8,51.6C870,284,989.4,398.6,989.4,398.6
				c45.9,48,77.1,4.9,77.1,4.9s35.8-47.2-23.5-77.2C1043,326.4,898.6,245.3,896,207.8z"/>
			<path class="st5" d="M1051.3,417c0,0-39.4,38.9-87.5,0.6c-50.9-40.4-96.3-107.4-151-101.1c0,0-6.6-11.9,19.1-25.8
				c0,0,13.2-3.7,62.5,22.9C939.5,338,980.3,410.9,1051.3,417z"/>
			<path class="st8" d="M959.7,402.1c0,0-11.3,7.3-44.6-6.6c-40.1-16.7-93.8-36.6-113.7-9.9l8.4,6.2c0,0,23.5-17.5,54.5,5.4
				c34.2,25.4,101,66,128.3,29.2c4-5.4-0.2-15.1-9.3-21.9C974.3,397.9,963.7,396.8,959.7,402.1z"/>
			<path class="st5" d="M910.9,184.3c0,0-13.3-2.9-19.1,25.8c0,0,0.3,13.7,40,53.2c36.4,36.1,117.9,54,144.3,120.2
				c0,0,25.8-49-24.7-84C997.9,262.6,920.6,238.6,910.9,184.3z"/>
			<path class="st5" d="M841.6,140.9c32.7,11.5,61.6,14.4,64.4,6.3c2.8-8.1-21.4-23.9-54.1-35.5c-32.7-11.5-61.6-14.4-64.4-6.3
				C784.7,113.5,808.9,129.4,841.6,140.9z"/>
			<path class="st8" d="M906,147.2c-2.8,8.1-31.7,5.2-64.4-6.3s-57-27.4-54.1-35.5l-1.6,4.5c-2.8,8.1,21.4,23.9,54.1,35.5
				c32.7,11.5,61.6,14.4,64.4,6.3L906,147.2z"/>
			<path class="st2" d="M847.4,123.8c6.3,2.2,13.2-1.1,15.4-7.4s-1.1-13.2-7.4-15.4c-6.3-2.2-13.2,1.1-15.4,7.4
				C837.9,114.7,841.2,121.6,847.4,123.8z"/>
			<path class="st9" d="M800.8,391.1c-18.3,13.8-63.2,40.9-66.2,125.3v283.4"/>
			<path class="st2" d="M793.3,923.3c-20.1-3-33.9-21.7-30.9-41.8s21.7-33.9,41.8-30.9s33.9,21.7,30.9,41.8
				C832.1,912.4,813.3,926.3,793.3,923.3z M802.8,859.7c-15-2.2-29.1,8.2-31.3,23.2s8.2,29.1,23.2,31.3S823.8,906,826,891
				S817.8,861.9,802.8,859.7z"/>
			<path class="st5" d="M684.6,852.9c14.7,2.2,28-5.1,29.7-16.3s-8.9-22.1-23.6-24.3c-14.7-2.2-28,5.1-29.7,16.3
				C659.2,839.9,669.8,850.7,684.6,852.9z"/>
			<path class="st5" d="M766,865.1c14.7,2.2,28-5.1,29.7-16.3s-8.9-22.1-23.6-24.3c-14.7-2.2-28,5.1-29.7,16.3
				S751.3,862.9,766,865.1z"/>
			<path class="st2" d="M751.5,936.3l-73.8-11c-2.6-0.4-4.4-2.8-4-5.4l0.6-3.9c0.4-2.6,2.8-4.4,5.4-4l73.8,11c2.6,0.4,4.4,2.8,4,5.4
				l-0.6,3.9C756.6,934.9,754.1,936.7,751.5,936.3z"/>
			<path class="st2" d="M731.2,818.4c-44.5-6.6-44.6,21.2-44.6,21.2l5.2,81.3l20.3,3l7.1,1.1l20.3,3l28.6-76.2
				C768,851.7,776,825,731.2,818.4z"/>
			<path class="st2" d="M660.1,905.2c0,0,4.2,11.6,17.7,13.6l14,2.1l-5.2-81.3c0.7-30.2-45.5-34.6-45.5-34.6l2.5,28.2L660.1,905.2z"
				/>
			<path class="st2" d="M774.3,922.2c0,0-7.4,9.9-20.9,7.8l-14-2.1l28.6-76.2c8.1-29.1,53.6-19.9,53.6-19.9L811,858.1L774.3,922.2z"
				/>
		</g>
		<path class="st8" d="M222.4,316.3H-77.8c-22.5,0-40.7,18.1-40.7,40.7s18.1,40.7,40.7,40.7h-93.8c-22.5,0-40.7,18.1-40.7,40.7
			c0,22.5,18.1,40.7,40.7,40.7h300.2c22.5,0,40.7-18.1,40.7-40.7c0-22.5-18.1-40.7-40.7-40.7h93.8c22.5,0,40.7-18.1,40.7-40.7
			S244.9,316.3,222.4,316.3z"/>
		<path class="st10" d="M246.3,1856.2L246.3,1856.2c0,0,1.6,32.1-3.4,42.9c-0.2,0.5,0.3,1,0.8,0.7c10.5-5.6,42.6-5.9,42.6-5.9l0,0
			c5.3,0.2,10.9-2,15.1-6.4c7.2-7.7,7.5-19.1,0.7-25.5c-6.5-6.1-17.1-5.5-24.3,1.1v-0.1h-0.1c6.2-7.6,6.2-18.2-0.3-24.3
			c-6.8-6.4-18.2-5.5-25.4,2.2C247.7,1845.2,245.8,1850.9,246.3,1856.2z"/>
		<path class="st10" d="M1019.8,968.9L1019.8,968.9c0,0-0.1,33.1-5.8,44c-0.3,0.5,0.2,1,0.7,0.8c11.1-5.2,44.2-3.9,44.2-3.9l0,0
			c5.4,0.5,11.3-1.5,15.8-5.8c7.8-7.5,8.7-19.3,2.1-26.2c-6.4-6.6-17.3-6.6-25.1-0.1v-0.1h-0.1c6.8-7.5,7.3-18.4,0.9-25.1
			c-6.7-7-18.5-6.6-26.3,0.9C1021.7,957.7,1019.5,963.4,1019.8,968.9z"/>
		<path class="st10" d="M1060,176.6L1060,176.6c0,0-12.2-19.7-12.5-27.8c0-0.4-0.5-0.6-0.8-0.3c-5.1,6.3-26.7,14.9-26.7,14.9l0,0
			c-3.6,1.3-6.6,4.1-7.9,8c-2.2,6.7,1.5,14,8.4,16.2c4.4,1.5,9.1,0.5,12.4-2.3c-1.1,3.3-3.5,9.3-7.1,10.9l2.2,0.7l2.8,0.9l2.8,0.9
			l2.2,0.7c-1.9-3.4-0.3-9.7,0.8-13c1,4.2,4.2,7.7,8.6,9.2c6.8,2.3,14.2-1.3,16.4-8C1062.9,183.9,1062.2,179.8,1060,176.6z"/>
		<path class="st10" d="M222.6,1746.6L222.6,1746.6c0,0-16.1-4.8-20.3-8.9c-0.2-0.2-0.5-0.1-0.5,0.2c0.3,5.9-7.2,20.9-7.2,20.9l0,0
			c-1.3,2.4-1.6,5.4-0.4,8.2c2.1,4.7,7.6,6.8,12.4,4.7c3.1-1.4,5.1-4.2,5.6-7.2c1,2.3,2.6,6.7,1.5,9.3l1.6-0.7l1.9-0.8l1.9-0.8
			l1.6-0.7c-2.7-0.9-4.8-5.1-5.9-7.4c2.6,1.7,6,2.2,9.1,0.8c4.8-2.1,7-7.6,4.9-12.3C227.7,1749.1,225.3,1747.3,222.6,1746.6z"/>
		<path class="st10" d="M580,1460.7c-0.6,0-1.2,0-1.8,0c1.6-2.5,2.6-5.3,2.8-8.5c0.5-9.4-6.8-17.4-16.2-17.9s-17.4,6.8-17.9,16.2
			c-0.2,3.2,0.6,6.2,2,8.9c-1-0.2-1.9-0.4-3-0.4c-9.4-0.5-17.4,6.8-17.9,16.2c-0.5,9.4,6.8,17.4,16.2,17.9
			c6.1,0.3,11.6-2.7,14.9-7.4c-0.2,4.5-1.2,13.1-5.2,16.4l3.1,0.2l3.8,0.2l3.8,0.2l3.1,0.2c-3.6-3.7-3.7-12.3-3.5-16.8
			c2.8,5,8,8.5,14.1,8.8c9.4,0.5,17.4-6.8,17.9-16.2C596.7,1469.2,589.4,1461.2,580,1460.7z M562.3,1474.9
			C562.3,1474.9,562.3,1475,562.3,1474.9l-0.2,0.1v-0.1C562.1,1474.9,562.2,1474.9,562.3,1474.9z"/>
		<path class="st10" d="M259,359.4c-0.3-0.3-0.6-0.5-0.9-0.8c1.9-0.6,3.6-1.6,5-3.1c4.3-4.6,4-11.8-0.5-16.1
			c-4.6-4.3-11.8-4-16.1,0.5c-1.5,1.6-2.4,3.4-2.8,5.4c-0.4-0.5-0.8-1-1.3-1.5c-4.6-4.3-11.8-4-16.1,0.5s-4,11.8,0.5,16.1
			c3,2.8,7.1,3.7,10.7,2.7c-2.1,2.2-6.2,6.1-9.7,6.1l1.5,1.4l1.9,1.7l1.9,1.7l1.5,1.4c-0.3-3.4,3.4-7.9,5.4-10.1
			c-0.7,3.7,0.4,7.7,3.4,10.5c4.6,4.3,11.8,4,16.1-0.5C263.8,370.9,263.6,363.7,259,359.4z M243.9,359L243.9,359l-0.1-0.1l0,0
			C243.8,358.9,243.9,359,243.9,359z"/>
		<path class="st10" d="M124.7,622.7c-0.6-0.4-1-1-1.1-1.8c-0.5-17.5-7.1-30.3-7.3-30.5c-0.4-0.6-0.4-1.4,0-2.1
			c0.4-0.7,1.1-1.1,1.8-1.1c0.2,0,14.5-0.8,29.9-9.5c0.6-0.4,1.4-0.4,2.1,0c0.6,0.4,1,1,1.1,1.8c0.5,17.6,7.2,30.3,7.3,30.5
			c0.4,0.6,0.4,1.4,0.1,2.1c-0.4,0.7-1,1.1-1.8,1.1l0,0c-0.2,0-14.5,0.9-29.9,9.5C126.1,623.1,125.3,623.1,124.7,622.7z"/>
		<path class="st10" d="M1019.2,2205.5c-1,0.3-2.1,0-2.9-0.7c-18.7-17.1-38.5-23.1-38.9-23.2c-1-0.2-1.9-1-2.2-2.1s0-2.2,0.7-3
			c0.2-0.2,13.7-15.9,20.3-40.5c0.3-1,1.1-1.8,2.1-2.1s2.1,0,2.9,0.7c18.7,17.1,38.6,23.1,38.9,23.2c1,0.2,1.9,1,2.2,2
			c0.3,1,0.1,2.2-0.7,3c0,0,0,0,0,0.1c-0.2,0.2-13.8,15.9-20.3,40.5C1021,2204.4,1020.2,2205.2,1019.2,2205.5z"/>
		<path class="st2" d="M0-56V79h74.3c-0.4-0.3-0.8-0.7-1.2-1c26.1-21.2,42.7-53.6,42.7-89.8c0-15.7-3.1-30.6-8.8-44.2
			C107-56,0-56,0-56z"/>
	</g>
</g>
</svg>
