<?xml version="1.0" encoding="utf-8"?>
<!-- Generator: Adobe Illustrator 23.1.0, SVG Export Plug-In . SVG Version: 6.00 Build 0)  -->
<svg version="1.1" id="Layer_1" xmlns="http://www.w3.org/2000/svg" xmlns:xlink="http://www.w3.org/1999/xlink" x="0px" y="0px"
	 viewBox="0 0 1125 2436" style="enable-background:new 0 0 1125 2436;" xml:space="preserve">
<style type="text/css">
	.st0{clip-path:url(#SVGID_2_);}
	.st1{fill:url(#SVGID_3_);}
	.st2{clip-path:url(#SVGID_2_);fill:url(#SVGID_4_);}
	.st3{clip-path:url(#SVGID_2_);fill:#7A58C3;}
	.st4{fill:#7A58C3;}
	.st5{fill:#FFDD66;}
	.st6{fill:#FFFFFF;}
	.st7{fill:#7A58C3;stroke:#F1A7CA;stroke-width:5;stroke-miterlimit:10;}
	.st8{clip-path:url(#SVGID_6_);fill:none;stroke:#F1A7CA;stroke-width:5;stroke-miterlimit:10;}
	.st9{clip-path:url(#SVGID_8_);fill:none;stroke:#F1A7CA;stroke-width:5;stroke-miterlimit:10;}
	.st10{clip-path:url(#SVGID_10_);fill:none;stroke:#F1A7CA;stroke-width:5;stroke-miterlimit:10;}
	.st11{clip-path:url(#SVGID_12_);fill:none;stroke:#F1A7CA;stroke-width:5;stroke-miterlimit:10;}
	.st12{clip-path:url(#SVGID_14_);fill:none;stroke:#F1A7CA;stroke-width:5;stroke-miterlimit:10;}
	.st13{clip-path:url(#SVGID_16_);fill:none;stroke:#F1A7CA;stroke-width:5;stroke-miterlimit:10;}
	.st14{clip-path:url(#SVGID_18_);fill:none;stroke:#F1A7CA;stroke-width:5;stroke-miterlimit:10;}
	.st15{clip-path:url(#SVGID_20_);fill:none;stroke:#F1A7CA;stroke-width:5;stroke-miterlimit:10;}
	.st16{clip-path:url(#SVGID_22_);fill:none;stroke:#F1A7CA;stroke-width:5;stroke-miterlimit:10;}
	.st17{clip-path:url(#SVGID_24_);fill:none;stroke:#F1A7CA;stroke-width:5;stroke-miterlimit:10;}
	.st18{clip-path:url(#SVGID_26_);fill:none;stroke:#F1A7CA;stroke-width:5;stroke-miterlimit:10;}
	.st19{clip-path:url(#SVGID_28_);fill:none;stroke:#F1A7CA;stroke-width:5;stroke-miterlimit:10;}
	.st20{clip-path:url(#SVGID_30_);fill:none;stroke:#F1A7CA;stroke-width:5;stroke-miterlimit:10;}
	.st21{fill:#F1A7CA;}
	.st22{clip-path:url(#SVGID_2_);fill:#FFFFFF;}
</style>
<g>
	<defs>
		<rect id="SVGID_1_" width="1125" height="2436"/>
	</defs>
	<clipPath id="SVGID_2_">
		<use xlink:href="#SVGID_1_"  style="overflow:visible;"/>
	</clipPath>
	<g class="st0">
		<g>
			
				<linearGradient id="SVGID_3_" gradientUnits="userSpaceOnUse" x1="-1952.4" y1="10543.0098" x2="-1952.4" y2="-1636.9902" gradientTransform="matrix(1 0 0 -1 264.9 8107.0098)">
				<stop  offset="0" style="stop-color:#D1DDEC"/>
				<stop  offset="1" style="stop-color:#F5F0DD"/>
			</linearGradient>
			<rect x="-4500" y="-2436" class="st1" width="5625" height="12180"/>
		</g>
	</g>
	<linearGradient id="SVGID_4_" gradientUnits="userSpaceOnUse" x1="562.5" y1="865.9" x2="562.5" y2="483.9">
		<stop  offset="0" style="stop-color:#53BDBC"/>
		<stop  offset="1" style="stop-color:#53BDBC;stop-opacity:0"/>
	</linearGradient>
	<polygon class="st2" points="745.4,865.9 379.6,865.9 289.6,483.9 835.4,483.9 	"/>
	<path class="st3" d="M115.8,11c0-3.7-0.2-7.4-0.5-11H0v2436h74.3c-0.4-0.3-0.8-0.7-1.2-1c26.1-21.2,42.7-53.6,42.7-89.8
		s-16.7-68.5-42.7-89.8c26.1-21.2,42.7-53.6,42.7-89.8s-16.7-68.5-42.7-89.8c26.1-21.2,42.7-53.6,42.7-89.8s-16.7-68.5-42.7-89.8
		c26.1-21.2,42.7-53.6,42.7-89.8c0-36.2-16.7-68.5-42.7-89.8c26.1-21.2,42.7-53.6,42.7-89.8c0-36.2-16.7-68.5-42.7-89.8
		c26.1-21.2,42.7-53.6,42.7-89.8c0-36.2-16.7-68.5-42.7-89.8c26.1-21.2,42.7-53.6,42.7-89.8c0-36.2-16.7-68.5-42.7-89.8
		c26.1-21.2,42.7-53.6,42.7-89.8s-16.7-68.5-42.7-89.8c26.1-21.2,42.7-53.6,42.7-89.8s-16.7-68.5-42.7-89.8
		c26.1-21.2,42.7-53.6,42.7-89.8S99.1,660.3,73.1,639c26.1-21.2,42.7-53.6,42.7-89.8s-16.7-68.5-42.7-89.8
		c26.1-21.2,42.7-53.6,42.7-89.8s-16.7-68.5-42.7-89.8c26.1-21.2,42.7-53.6,42.7-89.8s-16.7-68-42.7-89.2
		C99.1,79.5,115.8,47.2,115.8,11z"/>
	<path class="st3" d="M1051.9,100.8c-26.1,21.2-42.7,53.6-42.7,89.8s16.7,68.5,42.7,89.8c-26.1,21.2-42.7,53.6-42.7,89.8
		s16.7,68.5,42.7,89.8c-26.1,21.2-42.7,53.6-42.7,89.8s16.7,68.5,42.7,89.8c-26.1,21.2-42.7,53.6-42.7,89.8s16.7,68.5,42.7,89.8
		c-26.1,21.2-42.7,53.6-42.7,89.8s16.7,68.5,42.7,89.8c-26.1,21.2-42.7,53.6-42.7,89.8s16.7,68.5,42.7,89.8
		c-26.1,21.2-42.7,53.6-42.7,89.8c0,36.2,16.7,68.5,42.7,89.8c-26.1,21.2-42.7,53.6-42.7,89.8c0,36.2,16.7,68.5,42.7,89.8
		c-26.1,21.2-42.7,53.6-42.7,89.8c0,36.2,16.7,68.5,42.7,89.8c-26.1,21.2-42.7,53.6-42.7,89.8c0,36.2,16.7,68.5,42.7,89.8
		c-26.1,21.2-42.7,53.6-42.7,89.8s16.7,68.5,42.7,89.8c-26.1,21.2-42.7,53.6-42.7,89.8s16.7,68.5,42.7,89.8
		c-26.1,21.2-42.7,53.6-42.7,89.8s16.7,68.5,42.7,89.8c-0.4,0.3-0.8,0.7-1.2,1h74.3V0h-115.3c-0.3,3.6-0.5,7.3-0.5,11
		C1009.2,47.2,1025.9,79.5,1051.9,100.8z"/>
	<path class="st3" d="M1125,0H0v74.3c0.3-0.4,0.7-0.8,1-1.2c21.2,26.1,53.6,42.7,89.8,42.7s68.5-16.7,89.8-42.7
		c21.2,26.1,53.6,42.7,89.8,42.7s68.5-16.7,89.8-42.7c21.2,26.1,53.6,42.7,89.8,42.7s68.5-16.7,89.8-42.7
		c21.2,26.1,53.6,42.7,89.8,42.7s68.5-16.7,89.8-42.7c21.2,26.1,53.6,42.7,89.8,42.7s68.5-16.7,89.8-42.7
		c21.2,26.1,53.6,42.7,89.8,42.7c36.2,0,68.5-16.7,89.8-42.7c12.3,15.1,28.3,27,46.7,34.4V0H1125z"/>
	<rect x="1118.9" y="2436" class="st3" width="124.4" height="4996.4"/>
	<rect x="-119.4" class="st3" width="124.4" height="2436"/>
	<rect x="-124.4" y="-119.4" class="st3" width="1373.8" height="124.4"/>
	<path class="st3" d="M1051.9,2434.8c-26.1,21.2-42.7,53.6-42.7,89.8s16.7,68.5,42.7,89.8c-26.1,21.2-42.7,53.6-42.7,89.8
		s16.7,68.5,42.7,89.8c-26.1,21.2-42.7,53.6-42.7,89.8s16.7,68.5,42.7,89.8c-26.1,21.2-42.7,53.6-42.7,89.8s16.7,68.5,42.7,89.8
		c-26.1,21.2-42.7,53.6-42.7,89.8s16.7,68.5,42.7,89.8c-26.1,21.2-42.7,53.6-42.7,89.8s16.7,68.5,42.7,89.8
		c-26.1,21.2-42.7,53.6-42.7,89.8s16.7,68.5,42.7,89.8c-26.1,21.2-42.7,53.6-42.7,89.8s16.7,68.5,42.7,89.8
		c-26.1,21.2-42.7,53.6-42.7,89.8s16.7,68.5,42.7,89.8c-26.1,21.2-42.7,53.6-42.7,89.8s16.7,68.5,42.7,89.8
		c-26.1,21.2-42.7,53.6-42.7,89.8c0,36.2,16.7,68.5,42.7,89.8c-26.1,21.2-42.7,53.6-42.7,89.8c0,36.2,16.7,68.5,42.7,89.8
		c-26.1,21.2-42.7,53.6-42.7,89.8c0,36.2,16.7,68.5,42.7,89.8c-0.4,0.3-0.8,0.7-1.2,1h74.3V2334h-115.3c-0.3,3.6-0.5,7.3-0.5,11
		C1009.2,2381.2,1025.9,2413.5,1051.9,2434.8z"/>
	<circle class="st3" cx="29.8" cy="2465.8" r="86"/>
	<rect x="1118.9" class="st3" width="124.4" height="4996.4"/>
	<g class="st0">
		<path class="st4" d="M849.6,570.8c-0.6-1.2-0.2-2.5,1-3.1s2.5-0.2,3.1,1s0.2,2.5-1,3.1c-0.7,0.3-1.4,0.4-2.1,0.1
			C850.2,571.7,849.8,571.3,849.6,570.8z M857.7,566.4c-0.8-1-0.4-2.5,0.6-3.2c1.1-0.7,2.5-0.4,3.3,0.7c0.8,1,0.4,2.5-0.6,3.2
			c-0.7,0.5-1.6,0.5-2.2,0.2C858.3,567,857.9,566.8,857.7,566.4z M855.2,561.8c-1.1-0.7-1.4-2.1-0.7-3.1c0.7-1.1,2.2-1.3,3.2-0.7
			c1.1,0.7,1.4,2.1,0.7,3.1c-0.6,0.9-1.9,1.2-2.9,0.8C855.3,562,855.3,561.9,855.2,561.8z M865.3,561.3c-0.8-1-0.6-2.5,0.4-3.2
			c1.1-0.7,2.5-0.6,3.3,0.5c0.8,1,0.6,2.5-0.4,3.2c-0.7,0.5-1.6,0.6-2.4,0.2C865.9,561.8,865.6,561.6,865.3,561.3z M857.9,551
			c0.4-1.2,1.6-1.9,2.9-1.6c1.3,0.4,2,1.6,1.7,2.9c-0.4,1.2-1.6,1.9-2.9,1.6c-0.1,0-0.3-0.1-0.3-0.2
			C858.2,553.2,857.6,552,857.9,551z M872.5,555.6c-0.9-1-0.8-2.4,0.1-3.3c0.9-0.9,2.4-0.8,3.3,0.2c0.9,1,0.8,2.4-0.1,3.3
			c-0.7,0.6-1.7,0.7-2.5,0.4C873.1,556,872.8,555.8,872.5,555.6z M858.9,542.5c0-1.3,1-2.3,2.3-2.3s2.3,1,2.4,2.3
			c0,1.3-0.9,2.3-2.3,2.3c-0.3,0.1-0.7-0.1-1-0.3C859.5,544.2,858.9,543.4,858.9,542.5z M879.3,549.3c-1-0.8-1-2.3-0.2-3.2
			s2.3-1.1,3.3-0.1c1,0.8,1.1,2.3,0.2,3.2c-0.7,0.8-1.8,1-2.7,0.6C879.7,549.6,879.4,549.5,879.3,549.3z M857.6,534
			c-0.4-1.3,0.4-2.5,1.7-2.8s2.5,0.4,2.8,1.7c0.4,1.3-0.4,2.4-1.7,2.8c-0.6,0.1-1,0-1.6-0.2C858.3,535.2,857.8,534.7,857.6,534z
			 M885.2,542.3c-1.1-0.7-1.4-2.1-0.7-3.2c0.7-1.1,2.2-1.3,3.2-0.5c1.1,0.7,1.4,2.1,0.6,3.2c-0.6,0.9-1.9,1.2-2.9,0.8
			C885.5,542.5,885.4,542.4,885.2,542.3z M854.6,525.7c-0.5-1.1-0.1-2.6,1.1-3c1.1-0.5,2.6,0,3.1,1.1s0.1,2.6-1.1,3
			c-0.7,0.3-1.4,0.3-2,0C855.2,526.6,854.8,526.2,854.6,525.7z M850.1,517.9c-0.7-1.1-0.4-2.5,0.6-3.2c1.1-0.7,2.5-0.4,3.3,0.7
			c0.7,1.1,0.4,2.5-0.6,3.1c-0.7,0.5-1.6,0.5-2.2,0.2C850.7,518.6,850.3,518.4,850.1,517.9z M888.9,531.5c0.5-1.2,1.9-1.7,3.1-1.1
			c1.2,0.5,1.7,1.9,1.2,3.1c-0.5,1.2-1.9,1.7-3.1,1.1C888.9,534,888.4,532.6,888.9,531.5z M844.6,510.7c-0.8-1-0.7-2.4,0.3-3.3
			c1-0.8,2.4-0.6,3.3,0.4c0.8,1,0.7,2.4-0.3,3.3c-0.7,0.6-1.6,0.7-2.4,0.3C845.2,511.2,844.9,511,844.6,510.7z M838.6,503.8
			c-0.9-0.9-0.9-2.4,0.1-3.3c0.9-0.9,2.4-0.8,3.3,0.1c0.9,0.9,0.9,2.4-0.1,3.3c-0.7,0.7-1.7,0.8-2.6,0.4
			C839.1,504.2,838.7,504.1,838.6,503.8z M891.5,523.3c0.2-1.2,1.4-2.1,2.7-1.8c1.2,0.3,2.1,1.5,1.9,2.7c-0.2,1.2-1.4,2.1-2.7,1.8
			c-0.2,0-0.4-0.1-0.6-0.1C891.9,525.4,891.3,524.4,891.5,523.3z M832,497.4c-1-0.8-1-2.4-0.2-3.3s2.4-0.9,3.3-0.1
			c1,0.8,1,2.4,0.2,3.3c-0.6,0.7-1.8,0.9-2.7,0.5C832.3,497.7,832.2,497.6,832,497.4z M825,491.3c-1-0.8-1.1-2.3-0.3-3.2
			c0.8-0.9,2.3-1.1,3.3-0.2c1,0.8,1.1,2.3,0.3,3.2c-0.7,0.8-1.8,1-2.7,0.6C825.3,491.6,825.2,491.5,825,491.3z M817.7,485.6
			c-1-0.8-1.2-2.3-0.5-3.2c0.7-1,2.3-1.2,3.3-0.4c1,0.8,1.2,2.3,0.5,3.2c-0.7,0.8-1.8,1.1-2.8,0.7
			C818.1,485.8,817.9,485.7,817.7,485.6z M810.3,480c-1-0.8-1.3-2.2-0.5-3.2c0.8-1.1,2.2-1.2,3.3-0.4c1,0.8,1.3,2.2,0.5,3.2
			c-0.7,0.9-1.9,1.2-2.8,0.7C810.5,480.2,810.4,480.2,810.3,480z M891.9,514.8c-0.1-1.3,0.9-2.3,2.1-2.4c1.3-0.1,2.4,0.9,2.5,2.2
			s-0.8,2.4-2.1,2.4c-0.4,0-0.8-0.1-1.1-0.2C892.5,516.4,891.9,515.6,891.9,514.8z M802.7,474.2c-1-0.8-1.2-2.2-0.4-3.3
			c0.8-0.9,2.3-1.1,3.3-0.2c1,0.8,1.2,2.2,0.3,3.2c-0.7,0.8-1.8,1-2.7,0.6C803.1,474.4,803,474.4,802.7,474.2z M795.6,467.9
			c-0.9-0.9-1-2.4-0.1-3.3s2.4-0.9,3.3,0c0.9,0.9,1,2.4,0.1,3.3c-0.7,0.7-1.8,0.9-2.7,0.5C796,468.3,795.8,468.1,795.6,467.9z
			 M889.9,506.4c-0.5-1.2,0.1-2.6,1.3-2.9c1.2-0.4,2.6,0.2,3,1.4c0.5,1.2-0.1,2.6-1.3,2.9c-0.6,0.2-1.2,0.2-1.8-0.1
			C890.6,507.4,890.1,507,889.9,506.4z M789,461.2c-0.9-0.9-0.8-2.4,0.1-3.3c1-0.9,2.4-0.7,3.3,0.2c0.9,1,0.8,2.4-0.1,3.3
			c-0.7,0.6-1.7,0.7-2.5,0.4C789.4,461.6,789.2,461.4,789,461.2z M782.8,453.8c-0.8-1-0.5-2.5,0.4-3.2c1.1-0.7,2.5-0.5,3.2,0.6
			c0.8,1,0.5,2.5-0.5,3.2c-0.7,0.5-1.6,0.6-2.4,0.2C783.4,454.3,783.1,454.1,782.8,453.8z M885.8,498.6c-0.6-1.1-0.4-2.5,0.7-3.2
			c1.1-0.6,2.5-0.4,3.3,0.8c0.7,1.1,0.4,2.5-0.7,3.2c-0.7,0.4-1.5,0.4-2.2,0.1C886.5,499.3,886.1,499,885.8,498.6z M777.5,445.7
			c-0.6-1.1-0.2-2.5,0.9-3.1c1.1-0.6,2.5-0.2,3.2,0.9c0.6,1.1,0.2,2.5-0.9,3.1c-0.7,0.4-1.5,0.3-2.1,0.1
			C778.2,446.5,777.8,446.3,777.5,445.7z M880.5,491.3c-0.8-1-0.7-2.4,0.3-3.3c1-0.8,2.5-0.7,3.2,0.4c0.8,1,0.7,2.4-0.3,3.3
			c-0.7,0.6-1.6,0.7-2.5,0.3C881,491.9,880.7,491.6,880.5,491.3z M874.3,484.6c-0.9-0.9-0.9-2.4,0.1-3.3s2.4-0.8,3.3,0.1
			c0.9,0.9,0.9,2.4-0.1,3.3c-0.7,0.7-1.7,0.8-2.6,0.4C874.8,485,874.6,484.8,874.3,484.6z M773.4,437.1c-0.5-1.2,0.1-2.6,1.3-2.9
			c1.2-0.4,2.6,0.2,3,1.4c0.5,1.2-0.1,2.6-1.3,2.9c-0.6,0.2-1.2,0.2-1.8-0.1C774.1,438.1,773.6,437.7,773.4,437.1z M867.7,478.2
			c-0.9-0.9-1-2.4-0.1-3.3s2.4-0.9,3.3,0c0.9,0.9,1,2.4,0.1,3.3c-0.7,0.7-1.8,0.9-2.7,0.5C868.1,478.4,867.9,478.4,867.7,478.2z
			 M860.8,471.8c-1-0.8-1-2.3-0.2-3.2c0.8-0.9,2.3-1,3.3-0.1c1,0.8,1,2.3,0.2,3.2c-0.7,0.8-1.8,0.9-2.7,0.5
			C861.2,472.1,861,472,860.8,471.8z M770.7,427.8c-0.3-1.2,0.6-2.4,1.9-2.6c1.2-0.2,2.5,0.6,2.7,1.9c0.3,1.2-0.6,2.4-1.9,2.6
			c-0.5,0.1-0.9,0-1.3-0.2C771.4,429.2,770.9,428.5,770.7,427.8z M853.8,465.6c-1-0.8-1-2.3-0.2-3.2c0.8-0.9,2.3-1,3.3-0.1
			c1,0.8,1,2.3,0.2,3.2c-0.7,0.8-1.8,0.9-2.7,0.5C854.2,465.9,854,465.8,853.8,465.6z M846.8,459.4c-1-0.8-1-2.4-0.2-3.3
			s2.3-1,3.3-0.1c1,0.8,1,2.4,0.2,3.3c-0.7,0.7-1.8,0.9-2.7,0.5C847.2,459.6,847,459.5,846.8,459.4z M839.9,452.9
			c-0.9-0.9-1-2.4-0.1-3.3s2.4-0.9,3.3,0c0.9,0.9,1,2.4,0.1,3.3c-0.7,0.7-1.7,0.8-2.7,0.4C840.4,453.2,840.1,453.1,839.9,452.9z
			 M770.1,418.1c0.1-1.3,1.1-2.2,2.4-2.1c1.3,0.1,2.3,1.1,2.2,2.4s-1.1,2.2-2.4,2.1c-0.2,0-0.5,0-0.8-0.1
			C770.6,420,770,419.1,770.1,418.1z M833.3,446.1c-0.9-0.9-0.9-2.4,0.1-3.3c0.9-0.9,2.4-0.7,3.3,0.2c0.9,0.9,0.8,2.4-0.1,3.3
			c-0.7,0.7-1.7,0.7-2.5,0.4C833.8,446.5,833.5,446.3,833.3,446.1z M827.1,438.9c-0.8-1-0.7-2.4,0.3-3.3c1-0.8,2.5-0.6,3.3,0.4
			s0.6,2.5-0.3,3.3c-0.8,0.6-1.6,0.6-2.4,0.2C827.7,439.4,827.4,439.2,827.1,438.9z M771.7,408.6c0.4-1.2,1.7-1.9,2.9-1.5
			c1.3,0.4,1.9,1.7,1.6,2.8c-0.4,1.2-1.7,1.9-2.9,1.5c-0.1,0-0.2-0.1-0.3-0.1C771.9,410.8,771.4,409.7,771.7,408.6z M821.5,431.1
			c-0.7-1.1-0.4-2.5,0.7-3.2c1.1-0.6,2.5-0.4,3.3,0.8c0.6,1.1,0.4,2.5-0.7,3.2c-0.7,0.4-1.5,0.4-2.2,0.1
			C822.1,431.9,821.8,431.5,821.5,431.1z M816.9,422.7c-0.5-1.1,0-2.5,1.2-3c1.1-0.5,2.6,0.1,3.1,1.2s0,2.5-1.2,3
			c-0.6,0.2-1.3,0.2-1.9-0.1C817.5,423.6,817.1,423.2,816.9,422.7z M776.5,402.8c-1.1-0.7-1.5-2.1-0.8-3.2s2.1-1.5,3.2-0.8
			c1.1,0.7,1.4,2.1,0.8,3.2c-0.6,1-1.9,1.4-3,0.9C776.6,403,776.5,402.9,776.5,402.8z M813.7,413.6c-0.4-1.3,0.5-2.5,1.8-2.7
			c1.2-0.2,2.5,0.5,2.8,1.7s-0.5,2.5-1.7,2.8c-0.6,0.1-1,0-1.5-0.2C814.4,414.9,813.8,414.3,813.7,413.6z M781.7,395.3
			c-0.9-0.9-0.9-2.3,0-3.2c0.8-0.9,2.4-0.9,3.3,0c0.9,0.9,0.9,2.3,0,3.2c-0.7,0.7-1.7,0.8-2.6,0.4
			C782.2,395.7,781.9,395.5,781.7,395.3z M812.3,404c-0.1-1.2,0.9-2.3,2.3-2.3c1.3,0,2.3,1,2.4,2.2s-0.9,2.3-2.3,2.3
			c-0.3,0.1-0.7,0-1.1-0.2C812.9,405.7,812.4,404.9,812.3,404z M788.7,389.4c-0.6-1.1-0.3-2.5,0.9-3.1c1.1-0.6,2.5-0.2,3.2,0.9
			s0.2,2.5-0.9,3.1c-0.7,0.4-1.4,0.4-2.1,0.1C789.4,390.2,788.9,389.9,788.7,389.4z M811.5,395.5c-0.4-1.2,0.3-2.5,1.6-2.8
			s2.5,0.3,2.9,1.6s-0.3,2.5-1.6,2.8c-0.6,0.1-1.1,0.1-1.6-0.1C812.2,396.7,811.8,396.1,811.5,395.5z M797.2,385.8
			c-0.1-1.3,0.8-2.4,2.1-2.5s2.4,0.8,2.6,2.1c0.1,1.3-0.8,2.4-2.1,2.5c-0.4,0-0.8,0-1.3-0.2C797.8,387.3,797.3,386.6,797.2,385.8z
			 M807.2,389.3c-1.1-0.7-1.4-2.1-0.7-3.2s2.2-1.3,3.2-0.7c1.1,0.7,1.4,2.1,0.7,3.2c-0.5,1-1.8,1.3-2.8,0.8
			C807.5,389.4,807.4,389.4,807.2,389.3z"/>
		<path class="st5" d="M759.6,635.4c36,16.3,78.1,1.1,94.1-34.1c15.9-35.2-0.3-76.9-36.3-93.2s-78.1-1.1-94.1,34.1
			C707.4,577.3,723.6,619.1,759.6,635.4z"/>
		<path class="st6" d="M767.3,618.7c26.6,12,57.6,0.8,69.4-25.2c11.8-25.9-0.2-56.7-26.8-68.8c-26.6-12-57.6-0.8-69.4,25.2
			C728.7,575.9,740.7,606.7,767.3,618.7z"/>
		<path class="st5" d="M852.2,610.8c4.5,1.6,10.4-3.3,13.2-11.1s1.4-15.4-3.1-17s-10.4,3.3-13.2,11.1
			C846.4,601.6,847.8,609.2,852.2,610.8z"/>
		<path class="st4" d="M788.6,571.8l5.3-7.9l42.4-9L798,574.4L788.6,571.8z"/>
		<path class="st4" d="M789,571.3l4.2,4l1.4,25.5l-8.1-24.3L789,571.3z"/>
		<path class="st5" d="M787.3,574.5c1.6,0.7,3.4,0,4.1-1.5c0.7-1.5,0-3.3-1.6-4s-3.4,0-4.1,1.5C785.1,572,785.8,573.8,787.3,574.5z"
			/>
	</g>
	<g class="st0">
		<ellipse class="st7" cx="562.5" cy="864.3" rx="182.9" ry="53.3"/>
		<g>
			<g>
				<g>
					<defs>
						<ellipse id="SVGID_5_" cx="562.5" cy="864.3" rx="182.9" ry="53.3"/>
					</defs>
					<clipPath id="SVGID_6_">
						<use xlink:href="#SVGID_5_"  style="overflow:visible;"/>
					</clipPath>
					<line class="st8" x1="388.6" y1="791.6" x2="388.6" y2="944.6"/>
				</g>
			</g>
			<g>
				<g>
					<defs>
						<ellipse id="SVGID_7_" cx="562.5" cy="864.3" rx="182.9" ry="53.3"/>
					</defs>
					<clipPath id="SVGID_8_">
						<use xlink:href="#SVGID_7_"  style="overflow:visible;"/>
					</clipPath>
					<line class="st9" x1="417.5" y1="791.6" x2="417.5" y2="944.6"/>
				</g>
			</g>
			<g>
				<g>
					<defs>
						<ellipse id="SVGID_9_" cx="562.5" cy="864.3" rx="182.9" ry="53.3"/>
					</defs>
					<clipPath id="SVGID_10_">
						<use xlink:href="#SVGID_9_"  style="overflow:visible;"/>
					</clipPath>
					<line class="st10" x1="446.5" y1="791.6" x2="446.5" y2="944.6"/>
				</g>
			</g>
			<g>
				<g>
					<defs>
						<ellipse id="SVGID_11_" cx="562.5" cy="864.3" rx="182.9" ry="53.3"/>
					</defs>
					<clipPath id="SVGID_12_">
						<use xlink:href="#SVGID_11_"  style="overflow:visible;"/>
					</clipPath>
					<line class="st11" x1="475.5" y1="791.6" x2="475.5" y2="944.6"/>
				</g>
			</g>
			<g>
				<g>
					<defs>
						<ellipse id="SVGID_13_" cx="562.5" cy="864.3" rx="182.9" ry="53.3"/>
					</defs>
					<clipPath id="SVGID_14_">
						<use xlink:href="#SVGID_13_"  style="overflow:visible;"/>
					</clipPath>
					<line class="st12" x1="504.5" y1="791.6" x2="504.5" y2="944.6"/>
				</g>
			</g>
			<g>
				<g>
					<defs>
						<ellipse id="SVGID_15_" cx="562.5" cy="864.3" rx="182.9" ry="53.3"/>
					</defs>
					<clipPath id="SVGID_16_">
						<use xlink:href="#SVGID_15_"  style="overflow:visible;"/>
					</clipPath>
					<line class="st13" x1="533.5" y1="791.6" x2="533.5" y2="944.6"/>
				</g>
			</g>
			<g>
				<g>
					<defs>
						<ellipse id="SVGID_17_" cx="562.5" cy="864.3" rx="182.9" ry="53.3"/>
					</defs>
					<clipPath id="SVGID_18_">
						<use xlink:href="#SVGID_17_"  style="overflow:visible;"/>
					</clipPath>
					<line class="st14" x1="562.5" y1="791.6" x2="562.5" y2="944.6"/>
				</g>
			</g>
			<g>
				<g>
					<defs>
						<ellipse id="SVGID_19_" cx="562.5" cy="864.3" rx="182.9" ry="53.3"/>
					</defs>
					<clipPath id="SVGID_20_">
						<use xlink:href="#SVGID_19_"  style="overflow:visible;"/>
					</clipPath>
					<line class="st15" x1="591.5" y1="791.6" x2="591.5" y2="944.6"/>
				</g>
			</g>
			<g>
				<g>
					<defs>
						<ellipse id="SVGID_21_" cx="562.5" cy="864.3" rx="182.9" ry="53.3"/>
					</defs>
					<clipPath id="SVGID_22_">
						<use xlink:href="#SVGID_21_"  style="overflow:visible;"/>
					</clipPath>
					<line class="st16" x1="620.5" y1="791.6" x2="620.5" y2="944.6"/>
				</g>
			</g>
			<g>
				<g>
					<defs>
						<ellipse id="SVGID_23_" cx="562.5" cy="864.3" rx="182.9" ry="53.3"/>
					</defs>
					<clipPath id="SVGID_24_">
						<use xlink:href="#SVGID_23_"  style="overflow:visible;"/>
					</clipPath>
					<line class="st17" x1="649.5" y1="791.6" x2="649.5" y2="944.6"/>
				</g>
			</g>
			<g>
				<g>
					<defs>
						<ellipse id="SVGID_25_" cx="562.5" cy="864.3" rx="182.9" ry="53.3"/>
					</defs>
					<clipPath id="SVGID_26_">
						<use xlink:href="#SVGID_25_"  style="overflow:visible;"/>
					</clipPath>
					<line class="st18" x1="678.5" y1="791.6" x2="678.5" y2="944.6"/>
				</g>
			</g>
			<g>
				<g>
					<defs>
						<ellipse id="SVGID_27_" cx="562.5" cy="864.3" rx="182.9" ry="53.3"/>
					</defs>
					<clipPath id="SVGID_28_">
						<use xlink:href="#SVGID_27_"  style="overflow:visible;"/>
					</clipPath>
					<line class="st19" x1="707.5" y1="791.6" x2="707.5" y2="944.6"/>
				</g>
			</g>
			<g>
				<g>
					<defs>
						<ellipse id="SVGID_29_" cx="562.5" cy="864.3" rx="182.9" ry="53.3"/>
					</defs>
					<clipPath id="SVGID_30_">
						<use xlink:href="#SVGID_29_"  style="overflow:visible;"/>
					</clipPath>
					<line class="st20" x1="736.4" y1="791.6" x2="736.4" y2="944.6"/>
				</g>
			</g>
		</g>
		<ellipse class="st21" cx="562.5" cy="888.7" rx="145.9" ry="28.9"/>
	</g>
	<g class="st0">
		<path class="st6" d="M526.8,882.2c0,0,67.8-89.3,55-161.6s-45.5-118.1-64.7-112.9c-19.1,5.2-27.4,38.7-7.4,104.3
			c20,65.6,1.5,164.4,1.5,164.4L526.8,882.2z"/>
		<path class="st6" d="M492.3,877.9c0,0-69.5-130.3-137-160.7s-97-26.5-102.1-16.9s-16.4,36.1,71.2,73.8S451,860.5,477.1,894.2
			L492.3,877.9z"/>
		<path class="st21" d="M521,880.1c0,0,66.6-121.7,40.1-167.4c-26.5-45.6-46.5-37.5-39.6-11s1.3,152-10.3,174.7L521,880.1z"/>
		<path class="st21" d="M303.1,764.7c0,0,4-28.4,38.5-13c34.6,15.3,120.2,100.3,139.7,138l-5.8,6.3
			C475.6,896,406.7,807.1,303.1,764.7z"/>
	</g>
	<path class="st22" d="M246.3,1856.2L246.3,1856.2c0,0,1.6,32.1-3.4,42.9c-0.2,0.5,0.3,1,0.8,0.7c10.5-5.6,42.6-5.9,42.6-5.9l0,0
		c5.3,0.2,10.9-2,15.1-6.4c7.2-7.7,7.5-19.1,0.7-25.5c-6.5-6.1-17.1-5.5-24.3,1.1v-0.1h-0.1c6.2-7.6,6.2-18.2-0.3-24.3
		c-6.8-6.4-18.2-5.5-25.4,2.2C247.7,1845.2,245.8,1850.9,246.3,1856.2z"/>
	<path class="st22" d="M1019.8,968.9L1019.8,968.9c0,0-0.1,33.1-5.8,44c-0.3,0.5,0.2,1,0.7,0.8c11.1-5.2,44.2-3.9,44.2-3.9l0,0
		c5.4,0.5,11.3-1.5,15.8-5.8c7.8-7.5,8.7-19.3,2.1-26.2c-6.4-6.6-17.3-6.6-25.1-0.1v-0.1h-0.1c6.8-7.5,7.3-18.4,0.9-25.1
		c-6.7-7-18.5-6.6-26.3,0.9C1021.7,957.7,1019.5,963.4,1019.8,968.9z"/>
	<path class="st22" d="M1060,176.6L1060,176.6c0,0-12.2-19.7-12.5-27.8c0-0.4-0.5-0.6-0.8-0.3c-5.1,6.3-26.7,14.9-26.7,14.9l0,0
		c-3.6,1.3-6.6,4.1-7.9,8c-2.2,6.7,1.5,14,8.4,16.2c4.4,1.5,9.1,0.5,12.4-2.3c-1.1,3.3-3.5,9.3-7.1,10.9l2.2,0.7l2.8,0.9l2.8,0.9
		l2.2,0.7c-1.9-3.4-0.3-9.7,0.8-13c1,4.2,4.2,7.7,8.6,9.2c6.8,2.3,14.2-1.3,16.4-8C1062.9,183.9,1062.2,179.8,1060,176.6z"/>
	<path class="st22" d="M222.6,1746.6L222.6,1746.6c0,0-16.1-4.8-20.3-8.9c-0.2-0.2-0.5-0.1-0.5,0.2c0.3,5.9-7.2,20.9-7.2,20.9l0,0
		c-1.3,2.4-1.6,5.4-0.4,8.2c2.1,4.7,7.6,6.8,12.4,4.7c3.1-1.4,5.1-4.2,5.6-7.2c1,2.3,2.6,6.7,1.5,9.3l1.6-0.7l1.9-0.8l1.9-0.8
		l1.6-0.7c-2.7-0.9-4.8-5.1-5.9-7.4c2.6,1.7,6,2.2,9.1,0.8c4.8-2.1,7-7.6,4.9-12.3C227.7,1749.1,225.3,1747.3,222.6,1746.6z"/>
	<path class="st22" d="M580,1460.7c-0.6,0-1.2,0-1.8,0c1.6-2.5,2.6-5.3,2.8-8.5c0.5-9.4-6.8-17.4-16.2-17.9s-17.4,6.8-17.9,16.2
		c-0.2,3.2,0.6,6.2,2,8.9c-1-0.2-1.9-0.4-3-0.4c-9.4-0.5-17.4,6.8-17.9,16.2c-0.5,9.4,6.8,17.4,16.2,17.9c6.1,0.3,11.6-2.7,14.9-7.4
		c-0.2,4.5-1.2,13.1-5.2,16.4l3.1,0.2l3.8,0.2l3.8,0.2l3.1,0.2c-3.6-3.7-3.7-12.3-3.5-16.8c2.8,5,8,8.5,14.1,8.8
		c9.4,0.5,17.4-6.8,17.9-16.2C596.7,1469.2,589.4,1461.2,580,1460.7z M562.3,1474.9C562.3,1474.9,562.3,1475,562.3,1474.9l-0.2,0.1
		v-0.1C562.1,1474.9,562.2,1474.9,562.3,1474.9z"/>
	<path class="st22" d="M259,359.4c-0.3-0.3-0.6-0.5-0.9-0.8c1.9-0.6,3.6-1.6,5-3.1c4.3-4.6,4-11.8-0.5-16.1
		c-4.6-4.3-11.8-4-16.1,0.5c-1.5,1.6-2.4,3.4-2.8,5.4c-0.4-0.5-0.8-1-1.3-1.5c-4.6-4.3-11.8-4-16.1,0.5s-4,11.8,0.5,16.1
		c3,2.8,7.1,3.7,10.7,2.7c-2.1,2.2-6.2,6.1-9.7,6.1l1.5,1.4l1.9,1.7l1.9,1.7l1.5,1.4c-0.3-3.4,3.4-7.9,5.4-10.1
		c-0.7,3.7,0.4,7.7,3.4,10.5c4.6,4.3,11.8,4,16.1-0.5C263.8,370.9,263.6,363.7,259,359.4z M243.9,359L243.9,359l-0.1-0.1l0,0
		C243.8,358.9,243.9,359,243.9,359z"/>
	<path class="st22" d="M124.7,622.7c-0.6-0.4-1-1-1.1-1.8c-0.5-17.5-7.1-30.3-7.3-30.5c-0.4-0.6-0.4-1.4,0-2.1
		c0.4-0.7,1.1-1.1,1.8-1.1c0.2,0,14.5-0.8,29.9-9.5c0.6-0.4,1.4-0.4,2.1,0c0.6,0.4,1,1,1.1,1.8c0.5,17.6,7.2,30.3,7.3,30.5
		c0.4,0.6,0.4,1.4,0.1,2.1c-0.4,0.7-1,1.1-1.8,1.1l0,0c-0.2,0-14.5,0.9-29.9,9.5C126.1,623.1,125.3,623.1,124.7,622.7z"/>
	<path class="st22" d="M1019.2,2205.5c-1,0.3-2.1,0-2.9-0.7c-18.7-17.1-38.5-23.1-38.9-23.2c-1-0.2-1.9-1-2.2-2.1s0-2.2,0.7-3
		c0.2-0.2,13.7-15.9,20.3-40.5c0.3-1,1.1-1.8,2.1-2.1s2.1,0,2.9,0.7c18.7,17.1,38.6,23.1,38.9,23.2c1,0.2,1.9,1,2.2,2
		c0.3,1,0.1,2.2-0.7,3c0,0,0,0,0,0.1c-0.2,0.2-13.8,15.9-20.3,40.5C1021,2204.4,1020.2,2205.2,1019.2,2205.5z"/>
</g>
</svg>
