<?xml version="1.0" encoding="utf-8"?>
<!-- Generator: Adobe Illustrator 23.1.0, SVG Export Plug-In . SVG Version: 6.00 Build 0)  -->
<svg version="1.1" id="Layer_1" xmlns="http://www.w3.org/2000/svg" xmlns:xlink="http://www.w3.org/1999/xlink" x="0px" y="0px"
	 viewBox="0 0 1125 2436" style="enable-background:new 0 0 1125 2436;" xml:space="preserve">
<style type="text/css">
	.st0{clip-path:url(#SVGID_2_);}
	.st1{fill:url(#SVGID_3_);}
	.st2{opacity:0.5;fill:#D098EA;enable-background:new    ;}
	.st3{fill:#7A58C3;}
	.st4{fill:#D098EA;}
	.st5{fill:#FFFFFF;}
	.st6{fill:#F1A7CA;}
	.st7{fill:#53BDBC;}
</style>
<g>
	<defs>
		<rect id="SVGID_1_" x="0" y="0" width="1125" height="2436"/>
	</defs>
	<clipPath id="SVGID_2_">
		<use xlink:href="#SVGID_1_"  style="overflow:visible;"/>
	</clipPath>
	<g class="st0">
		<g>
			<g>
				
					<linearGradient id="SVGID_3_" gradientUnits="userSpaceOnUse" x1="-1952.4" y1="8107.0098" x2="-1952.4" y2="-4072.99" gradientTransform="matrix(1 0 0 -1 264.9 3235.01)">
					<stop  offset="0" style="stop-color:#D1DDEC"/>
					<stop  offset="1" style="stop-color:#F5F0DD"/>
				</linearGradient>
				<rect x="-4500" y="-4872" class="st1" width="5625" height="12180"/>
			</g>
		</g>
		<path class="st2" d="M404.2,2249.9c-31.4,0-60.7,3-85.1,8.3c1.4-2.7,2.1-5.6,2.1-8.4c0-28.1-69.7-50.9-155.6-50.9
			S9.9,2221.7,9.9,2249.8s69.7,50.9,155.6,50.9c31.4,0,60.7-3,85.1-8.3c-1.4,2.7-2.1,5.6-2.1,8.4c0,28.1,69.7,50.9,155.6,50.9
			c86,0,155.6-22.8,155.6-50.9C559.9,2272.7,490.2,2249.9,404.2,2249.9z"/>
		<ellipse class="st3" cx="25.2" cy="2423.8" rx="90.6" ry="103.6"/>
		<path class="st3" d="M1051.9-1.2c-26.1,21.2-42.7,53.6-42.7,89.8s16.7,68.5,42.7,89.8c-26.1,21.2-42.7,53.6-42.7,89.8
			s16.7,68.5,42.7,89.8c-26.1,21.2-42.7,53.6-42.7,89.8s16.7,68.5,42.7,89.8c-26.1,21.2-42.7,53.6-42.7,89.8s16.7,68.5,42.7,89.8
			c-26.1,21.2-42.7,53.6-42.7,89.8s16.7,68.5,42.7,89.8c-26.1,21.2-42.7,53.6-42.7,89.8s16.7,68.5,42.7,89.8
			c-26.1,21.2-42.7,53.6-42.7,89.8c0,36.2,16.7,68.5,42.7,89.8c-26.1,21.2-42.7,53.6-42.7,89.8c0,36.2,16.7,68.5,42.7,89.8
			c-26.1,21.2-42.7,53.6-42.7,89.8c0,36.2,16.7,68.5,42.7,89.8c-26.1,21.2-42.7,53.6-42.7,89.8c0,36.2,16.7,68.5,42.7,89.8
			c-26.1,21.2-42.7,53.6-42.7,89.8s16.7,68.5,42.7,89.8c-26.1,21.2-42.7,53.6-42.7,89.8c0,36.2,16.7,68.5,42.7,89.8
			c-26.1,21.2-42.7,53.6-42.7,89.8s16.7,68.5,42.7,89.8c-0.4,0.3-0.8,0.7-1.2,1h74.3V-102h-115.3c-0.3,3.6-0.5,7.3-0.5,11
			C1009.2-54.8,1025.9-22.5,1051.9-1.2z"/>
		<g>
			<path class="st4" d="M843.1,504.4c0,0-4.5,1.1-3.7-13.9c0.8-15.1-14.9-44.1,4.7-45.8c19.2-1.7,0.5,36.5,2,45.8
				S846.5,504.4,843.1,504.4z"/>
			<path class="st4" d="M860,503.4c0,0,3.9,2.4,7.7-12.2s27.5-37.7,9.4-45.1c-17.9-7.2-11.5,34.7-15.8,43.1
				C857.1,497.7,856.8,502.4,860,503.4z"/>
			<path class="st4" d="M849.5,511.4c0,0-6.1-0.7-5.7,3.7c0.3,4.4-2.6,9.4-0.4,13.5C845.5,532.9,861,515.7,849.5,511.4z"/>
			<path class="st4" d="M847.1,545.8c0,0-2.3-3.7-1.5-7.5c0.8-3.7,1.3-6.2,6.1-5.2S855.4,547.6,847.1,545.8z"/>
		</g>
		<g>
			<path class="st4" d="M879.4,369.2c0,0-4.5,1.1-3.7-13.9c0.8-15.1-14.9-44.1,4.7-45.8c19.2-1.7,0.5,36.5,2,45.8
				S882.7,369.2,879.4,369.2z"/>
			<path class="st4" d="M896.2,368.2c0,0,3.9,2.4,7.7-12.2s27.5-37.7,9.4-45.1c-17.9-7.2-11.5,34.7-15.8,43.1
				C893.3,362.4,893,367.2,896.2,368.2z"/>
			<path class="st4" d="M885.7,376.2c0,0-6.1-0.7-5.7,3.7c0.3,4.4-2.6,9.4-0.4,13.5C881.8,397.7,897.2,380.5,885.7,376.2z"/>
			<path class="st4" d="M883.3,410.6c0,0-2.3-3.7-1.5-7.5c0.8-3.7,1.3-6.2,6.1-5.2C892.6,398.9,891.7,412.4,883.3,410.6z"/>
		</g>
		<g>
			<path class="st4" d="M904.5,233.9c0,0-4.5,1.1-3.7-13.9c0.8-15.1-14.9-44.1,4.7-45.8c19.2-1.7,0.5,36.5,2,45.8
				S907.8,234,904.5,233.9z"/>
			<path class="st4" d="M921.3,232.9c0,0,3.9,2.4,7.7-12.2c3.8-14.6,27.5-37.7,9.4-45.1c-17.9-7.2-11.5,34.7-15.8,43.1
				C918.4,227.2,918.1,232,921.3,232.9z"/>
			<path class="st4" d="M910.8,241c0,0-6.1-0.7-5.7,3.7c0.3,4.4-2.6,9.4-0.4,13.5C906.9,262.4,922.3,245.3,910.8,241z"/>
			<path class="st4" d="M908.4,275.4c0,0-2.3-3.7-1.5-7.5c0.8-3.7,1.3-6.2,6.1-5.2C917.7,263.7,916.8,277.1,908.4,275.4z"/>
		</g>
		<g>
			<path class="st4" d="M870.3,114.7c0,0-4.5,1.1-3.7-13.9c0.8-15.1-14.9-44.1,4.7-45.8c19.2-1.7,0.5,36.5,2,45.8
				S873.7,114.7,870.3,114.7z"/>
			<path class="st4" d="M887.2,113.7c0,0,3.9,2.4,7.7-12.2s27.5-37.7,9.4-45.1c-17.9-7.2-11.5,34.7-15.8,43.1
				C884.2,108,884,112.8,887.2,113.7z"/>
			<path class="st4" d="M876.7,121.8c0,0-6.1-0.7-5.7,3.7c0.3,4.4-2.6,9.4-0.4,13.5C872.7,143.2,888.1,126,876.7,121.8z"/>
			<path class="st4" d="M874.2,156.1c0,0-2.3-3.7-1.5-7.5c0.8-3.7,1.3-6.2,6.1-5.2C883.6,144.5,882.6,157.9,874.2,156.1z"/>
		</g>
		<circle class="st3" cx="29.8" cy="29.8" r="86"/>
		
			<ellipse transform="matrix(0.7071 -0.7071 0.7071 0.7071 -1383.1479 1503.968)" class="st3" cx="1123.9" cy="2421.6" rx="114.8" ry="114.8"/>
		<rect x="1118.9" y="-56.2" class="st3" width="124.4" height="2616.6"/>
		<path class="st5" d="M246.3,1856.2L246.3,1856.2c0,0,1.6,32.1-3.4,42.9c-0.2,0.5,0.3,1,0.8,0.7c10.5-5.6,42.6-5.9,42.6-5.9l0,0
			c5.3,0.2,10.9-2,15.1-6.4c7.2-7.7,7.5-19.1,0.7-25.5c-6.5-6.1-17.1-5.5-24.3,1.1v-0.1h-0.1c6.2-7.6,6.2-18.2-0.3-24.3
			c-6.8-6.4-18.2-5.5-25.4,2.2C247.7,1845.2,245.8,1850.9,246.3,1856.2z"/>
		<path class="st5" d="M1019.8,968.9L1019.8,968.9c0,0-0.1,33.1-5.8,44c-0.3,0.5,0.2,1,0.7,0.8c11.1-5.2,44.2-3.9,44.2-3.9l0,0
			c5.4,0.5,11.3-1.5,15.8-5.8c7.8-7.5,8.7-19.3,2.1-26.2c-6.4-6.6-17.3-6.6-25.1-0.1v-0.1h-0.1c6.8-7.5,7.3-18.4,0.9-25.1
			c-6.7-7-18.5-6.6-26.3,0.9C1021.7,957.7,1019.5,963.4,1019.8,968.9z"/>
		<path class="st5" d="M1060,176.6L1060,176.6c0,0-12.2-19.7-12.5-27.8c0-0.4-0.5-0.6-0.8-0.3c-5.1,6.3-26.7,14.9-26.7,14.9l0,0
			c-3.6,1.3-6.6,4.1-7.9,8c-2.2,6.7,1.5,14,8.4,16.2c4.4,1.5,9.1,0.5,12.4-2.3c-1.1,3.3-3.5,9.3-7.1,10.9l2.2,0.7l2.8,0.9l2.8,0.9
			l2.2,0.7c-1.9-3.4-0.3-9.7,0.8-13c1,4.2,4.2,7.7,8.6,9.2c6.8,2.3,14.2-1.3,16.4-8C1062.9,183.9,1062.2,179.8,1060,176.6z"/>
		<path class="st5" d="M222.6,1746.6L222.6,1746.6c0,0-16.1-4.8-20.3-8.9c-0.2-0.2-0.5-0.1-0.5,0.2c0.3,5.9-7.2,20.9-7.2,20.9l0,0
			c-1.3,2.4-1.6,5.4-0.4,8.2c2.1,4.7,7.6,6.8,12.4,4.7c3.1-1.4,5.1-4.2,5.6-7.2c1,2.3,2.6,6.7,1.5,9.3l1.6-0.7l1.9-0.8l1.9-0.8
			l1.6-0.7c-2.7-0.9-4.8-5.1-5.9-7.4c2.6,1.7,6,2.2,9.1,0.8c4.8-2.1,7-7.6,4.9-12.3C227.7,1749.1,225.3,1747.3,222.6,1746.6z"/>
		<path class="st5" d="M580,1460.7c-0.6,0-1.2,0-1.8,0c1.6-2.5,2.6-5.3,2.8-8.5c0.5-9.4-6.8-17.4-16.2-17.9s-17.4,6.8-17.9,16.2
			c-0.2,3.2,0.6,6.2,2,8.9c-1-0.2-1.9-0.4-3-0.4c-9.4-0.5-17.4,6.8-17.9,16.2c-0.5,9.4,6.8,17.4,16.2,17.9
			c6.1,0.3,11.6-2.7,14.9-7.4c-0.2,4.5-1.2,13.1-5.2,16.4l3.1,0.2l3.8,0.2l3.8,0.2l3.1,0.2c-3.6-3.7-3.7-12.3-3.5-16.8
			c2.8,5,8,8.5,14.1,8.8c9.4,0.5,17.4-6.8,17.9-16.2C596.7,1469.2,589.4,1461.2,580,1460.7z M562.3,1474.9
			C562.3,1474.9,562.3,1475,562.3,1474.9l-0.2,0.1v-0.1C562.1,1474.9,562.2,1474.9,562.3,1474.9z"/>
		<path class="st5" d="M259,359.4c-0.3-0.3-0.6-0.5-0.9-0.8c1.9-0.6,3.6-1.6,5-3.1c4.3-4.6,4-11.8-0.5-16.1
			c-4.6-4.3-11.8-4-16.1,0.5c-1.5,1.6-2.4,3.4-2.8,5.4c-0.4-0.5-0.8-1-1.3-1.5c-4.6-4.3-11.8-4-16.1,0.5s-4,11.8,0.5,16.1
			c3,2.8,7.1,3.7,10.7,2.7c-2.1,2.2-6.2,6.1-9.7,6.1l1.5,1.4l1.9,1.7l1.9,1.7l1.5,1.4c-0.3-3.4,3.4-7.9,5.4-10.1
			c-0.7,3.7,0.4,7.7,3.4,10.5c4.6,4.3,11.8,4,16.1-0.5C263.8,370.9,263.6,363.7,259,359.4z M243.9,359L243.9,359l-0.1-0.1l0,0
			C243.8,358.9,243.9,359,243.9,359z"/>
		<path class="st5" d="M124.7,622.7c-0.6-0.4-1-1-1.1-1.8c-0.5-17.5-7.1-30.3-7.3-30.5c-0.4-0.6-0.4-1.4,0-2.1
			c0.4-0.7,1.1-1.1,1.8-1.1c0.2,0,14.5-0.8,29.9-9.5c0.6-0.4,1.4-0.4,2.1,0c0.6,0.4,1,1,1.1,1.8c0.5,17.6,7.2,30.3,7.3,30.5
			c0.4,0.6,0.4,1.4,0.1,2.1c-0.4,0.7-1,1.1-1.8,1.1l0,0c-0.2,0-14.5,0.9-29.9,9.5C126.1,623.1,125.3,623.1,124.7,622.7z"/>
		<path class="st5" d="M1019.2,2205.5c-1,0.3-2.1,0-2.9-0.7c-18.7-17.1-38.5-23.1-38.9-23.2c-1-0.2-1.9-1-2.2-2.1s0-2.2,0.7-3
			c0.2-0.2,13.7-15.9,20.3-40.5c0.3-1,1.1-1.8,2.1-2.1s2.1,0,2.9,0.7c18.7,17.1,38.6,23.1,38.9,23.2c1,0.2,1.9,1,2.2,2
			c0.3,1,0.1,2.2-0.7,3c0,0,0,0,0,0.1c-0.2,0.2-13.8,15.9-20.3,40.5C1021,2204.4,1020.2,2205.2,1019.2,2205.5z"/>
		<g>
			<path class="st6" d="M55.3,2064.9v164.6c0,26.9,49.4,48.7,110.2,48.7s110.2-21.8,110.2-48.7v-164.6H55.3z"/>
			<ellipse class="st4" cx="165.6" cy="2064.9" rx="110.2" ry="48.7"/>
			<path class="st3" d="M165.6,2098.8c-27,0-53.3-4.7-72-13c-14.3-6.3-23.5-14.5-23.5-20.9s9.2-14.6,23.5-20.9
				c18.7-8.3,44.9-13,72-13s53.3,4.7,72,13c14.3,6.3,23.5,14.5,23.5,20.9s-9.2,14.6-23.5,20.9
				C218.8,2094.1,192.6,2098.8,165.6,2098.8z"/>
			<path class="st3" d="M275.8,2063.5c0,0-16.9-8.2-15.9-2.8s-45.4,19.9-45.4,19.9l-61.4,14.6c0,0,19.7,2.6,25.3,20.9
				c4.6,15.3,19.5,15.9,23.4,15.3c12.7-2.1,19.4-21,28.2-24.8c8.8-3.7,13.6-0.2,21-7.9c5.9-6.1-0.1,46.4,3.3,68.3
				c0.5,5.9,0.9,14.3-0.7,18.1c-2.5,6.2-0.4,11.5,2.8,9.9c3.2-1.6-1.5-19.4,0.9-19.6c0.6,0.5,1.2,0.8,1.9,0.8c12.2,0-4-17-2.4-26.6
				s-7-51.4,4.1-51s7.9-13.4,14.8-7.3L275.8,2063.5z"/>
			<path class="st3" d="M279.2,2066.5c1.1-9.2-0.7-28.4-21.4-28.3s-18,6.8-18,6.8l35.6,36.5l0.2,13.8l0,0c0,0-0.3,8.5-1.2,10.7
				c-0.9,2.2-1.4,6.8,1.3,6.8c1.6,0,1.3-2.8,0.8-7.1C284.8,2101.5,278.1,2075.5,279.2,2066.5z"/>
			<path class="st7" d="M185.5,2029.3h-23l2.5-73.1c0-6.6-5.4-12-12-12s-12,5.4-12,12l2.5,73.1h-23c-9.5,0-17.2,7.7-17.2,17.2l0,0
				h99.4l0,0C202.7,2037,195,2029.3,185.5,2029.3z M153.1,1950.8c3,0,5.4,2.4,5.4,5.4s-2.4,5.4-5.4,5.4s-5.4-2.4-5.4-5.4
				S150.1,1950.8,153.1,1950.8z"/>
		</g>
		<g>
			<path class="st6" d="M510.9,2095.2H346.3c-26.9,0-48.7,49.4-48.7,110.2c0,60.9,21.8,110.2,48.7,110.2h164.6V2095.2z"/>
			<ellipse class="st4" cx="510.9" cy="2205.4" rx="48.7" ry="110.2"/>
			<path class="st3" d="M476.9,2205.4c0-27,4.7-53.3,13-72c6.3-14.3,14.5-23.5,20.9-23.5c6.4,0,14.6,9.2,20.9,23.5
				c8.3,18.7,13,44.9,13,72s-4.7,53.3-13,72c-6.3,14.3-14.5,23.5-20.9,23.5s-14.6-9.2-20.9-23.5
				C481.7,2258.7,476.9,2232.4,476.9,2205.4z"/>
		</g>
		<path class="st3" d="M498.3,2291.9c0,0,8.1,9.6,9,19.9c0.9,10.3,52.8,13.5,88.8,11.7s138.6,0.5,138.6,0.5s5-0.5,4.7-3.6
			c-0.2-3.2-7.2-11.3-24.3-5.9s-140.9-1.9-142.1-18.1C571.8,2280.2,498,2287.5,498.3,2291.9z"/>
		<ellipse class="st3" cx="568" cy="2290.1" rx="54.2" ry="17.2"/>
		<ellipse class="st3" cx="662.3" cy="2255.7" rx="14.5" ry="6.4"/>
		<g>
			<path class="st3" d="M1051.9,2511.3c-11,8.9-20.3,19.9-27.4,32.2H1125v-132.4h-115.3c-0.3,3.6-0.5,7.3-0.5,11
				C1009.2,2457.7,1025.9,2490,1051.9,2511.3z"/>
		</g>
		<g>
			<path class="st3" d="M104.9,2551.4c-7.4-15.9-18.4-29.8-31.8-40.7c26-20.7,42.7-53,42.7-89.2c0-3.7-0.2-7.4-0.5-11H0v140.9H104.9
				z"/>
		</g>
	</g>
</g>
</svg>
