<?xml version="1.0" encoding="utf-8"?>
<!-- Generator: Adobe Illustrator 23.1.0, SVG Export Plug-In . SVG Version: 6.00 Build 0)  -->
<svg version="1.1" id="Layer_1" xmlns="http://www.w3.org/2000/svg" xmlns:xlink="http://www.w3.org/1999/xlink" x="0px" y="0px"
	 viewBox="0 0 1125 2436" style="enable-background:new 0 0 1125 2436;" xml:space="preserve">
<style type="text/css">
	.st0{clip-path:url(#SVGID_2_);}
	.st1{fill:url(#SVGID_3_);}
	.st2{fill:none;stroke:#F1A7CA;stroke-width:5;stroke-linecap:round;stroke-linejoin:round;stroke-miterlimit:10;}
	.st3{fill:#53BDBC;}
	.st4{fill:#D098EA;}
	.st5{fill:#7A58C3;}
	.st6{fill:#CF8EEA;}
	.st7{fill:#F1A7CA;}
	.st8{fill:#FFFFFF;}
</style>
<g>
	<defs>
		<rect id="SVGID_1_" x="0" y="0" width="1125" height="2436"/>
	</defs>
	<clipPath id="SVGID_2_">
		<use xlink:href="#SVGID_1_"  style="overflow:visible;"/>
	</clipPath>
	<g class="st0">
		<g>
			
				<linearGradient id="SVGID_3_" gradientUnits="userSpaceOnUse" x1="-1952.4" y1="5671.0098" x2="-1952.4" y2="-6508.9902" gradientTransform="matrix(1 0 0 -1 264.9 -1636.99)">
				<stop  offset="0" style="stop-color:#D1DDEC"/>
				<stop  offset="1" style="stop-color:#F5F0DD"/>
			</linearGradient>
			<rect x="-4500" y="-7308" class="st1" width="5625" height="12180"/>
		</g>
		<g>
			<g>
				<path class="st2" d="M460.9,2371.6c0,0-15.7-36.1-44.9-68"/>
				<path class="st2" d="M410.4,2293.8c0,0,26.9,17.7,50.5,77.7"/>
				<path class="st2" d="M427.5,2273.5c0,0,29.8,74.1,33.3,98"/>
				<path class="st2" d="M437.3,2275.6c0,0,14.4,20,23.6,95.9"/>
				<path class="st2" d="M435.4,2291.7c0,0,15.1,22.1,25.4,79.8"/>
				<path class="st2" d="M441,2301.7c0,0,14.2,15.3,19.9,69.8"/>
				<path class="st2" d="M455.2,2265.6c0,0,12.1,58,5.7,105.9"/>
				<path class="st2" d="M458.6,2289.3c0,0-6.1,29.3,2.2,82.2"/>
				<path class="st2" d="M466.8,2307.2c0,0-3.6,55.6-5.9,64.3"/>
				<path class="st2" d="M480.5,2297.2c0,0-6,47.7-19.6,74.3"/>
				<path class="st2" d="M498.7,2297.2c0,0-12.4,49.5-37.8,74.3"/>
				<path class="st2" d="M506.9,2307.2c0,0-3.2,22.1-46,64.3"/>
				<path class="st2" d="M490,2289.3c0,0,0,46.6-29.1,82.2"/>
				<path class="st2" d="M492.1,2278c0,0-15.6,66.9-31.2,93.6"/>
				<path class="st2" d="M492.1,2269c0,0,1.8,44.9-31.2,102.5"/>
				<path class="st2" d="M511.3,2283.5c0,0-6.3,31.5-50.5,88"/>
				<path class="st2" d="M475.5,2281.4c0,0-0.1,46.9-14.6,90.1"/>
				<path class="st2" d="M468.9,2265.6c0,0,1,72.2-8,105.9"/>
			</g>
			<g>
				<ellipse class="st3" cx="410.4" cy="2293.8" rx="11.6" ry="7.9"/>
				<ellipse class="st3" cx="415.9" cy="2303.6" rx="11.6" ry="7.9"/>
				<ellipse class="st3" cx="427.5" cy="2273.5" rx="11.6" ry="7.9"/>
				<ellipse class="st3" cx="437.3" cy="2275.6" rx="11.6" ry="7.9"/>
				<ellipse class="st3" cx="441" cy="2301.7" rx="11.6" ry="7.9"/>
				<ellipse class="st3" cx="435.4" cy="2291.4" rx="11.6" ry="7.9"/>
				<ellipse class="st3" cx="458.6" cy="2289.3" rx="11.6" ry="7.9"/>
				<ellipse class="st3" cx="468.9" cy="2265.6" rx="11.6" ry="7.9"/>
				<ellipse class="st3" cx="455.2" cy="2265.6" rx="11.6" ry="7.9"/>
				<ellipse class="st3" cx="475.5" cy="2281.4" rx="11.6" ry="7.9"/>
				<ellipse class="st3" cx="480.5" cy="2297.2" rx="11.6" ry="7.9"/>
				<ellipse class="st3" cx="466.8" cy="2307.2" rx="11.6" ry="7.9"/>
				<ellipse class="st3" cx="490" cy="2289.3" rx="11.6" ry="7.9"/>
				<ellipse class="st3" cx="492.1" cy="2278" rx="11.6" ry="7.9"/>
				<ellipse class="st3" cx="492.1" cy="2269" rx="11.6" ry="7.9"/>
				<ellipse class="st3" cx="511.3" cy="2283.5" rx="11.6" ry="7.9"/>
				<ellipse class="st3" cx="498.7" cy="2297.2" rx="11.6" ry="7.9"/>
				<ellipse class="st3" cx="506.9" cy="2307.2" rx="11.6" ry="7.9"/>
			</g>
		</g>
		<g>
			<path class="st4" d="M214.8,2178.4c0,0,9.7,68.3-17.1,105.5c-13.7,19-21.5,75.3,10,75.3h44.9c0,0,34.2-12.1,17.8-59.7
				c-16.3-47.5-12.6-121.1-12.6-121.1"/>
			<g>
				<path class="st5" d="M345.1,2243.8c0,0,9.4,28.7,0,61.9s-13.9,43.1-4.5,53.5h34.2c0,0,15.4-7.2,7.4-51.5
					c-3.9-21.8-8.9-67.8-8.9-67.8L345.1,2243.8z"/>
				<path class="st4" d="M332.6,2204.9c0,0-48.2,19.4-46.7,48.1c1.5,28.7,51.5,24.8,78.7,3.5s60.6-16,62.5-36.8
					C428.3,2206.4,397.8,2179.7,332.6,2204.9z"/>
			</g>
			<path class="st5" d="M224,2127.7c0,0-62-10-83.2,24.2s55.4,69.3,127.5,60.1s79.5-35.8,72.6-47
				C333.9,2153.6,313.2,2131,224,2127.7z"/>
			<path class="st5" d="M278.9,2321c-2.2-11.9,4.8-36.4,4.8-36.4H264h-19.7c0,0,7.1,24.5,4.8,36.4c-2.2,11.9-9.9,30.5-2.2,38.1H264
				h17.1C288.8,2351.5,281.1,2332.9,278.9,2321z"/>
			<path class="st3" d="M211.6,2260.2c0,0-27,11.9-13.4,33.2s43.1,19.1,72.3,5.4c29.2-13.6,61.4-7.7,63.1-23
				C335.4,2260.5,266.3,2233.3,211.6,2260.2z"/>
		</g>
		<path class="st5" d="M1051.9,75.3c-26.1,21.2-42.7,53.6-42.7,89.8s16.7,68.5,42.7,89.8c-26.1,21.2-42.7,53.6-42.7,89.8
			s16.7,68.5,42.7,89.8c-26.1,21.2-42.7,53.6-42.7,89.8s16.7,68.5,42.7,89.8c-26.1,21.2-42.7,53.6-42.7,89.8s16.7,68.5,42.7,89.8
			c-26.1,21.2-42.7,53.6-42.7,89.8s16.7,68.5,42.7,89.8c-26.1,21.2-42.7,53.6-42.7,89.8s16.7,68.5,42.7,89.8
			c-26.1,21.2-42.7,53.6-42.7,89.8c0,36.2,16.7,68.5,42.7,89.8c-26.1,21.2-42.7,53.6-42.7,89.8c0,36.2,16.7,68.5,42.7,89.8
			c-26.1,21.2-42.7,53.6-42.7,89.8c0,36.2,16.7,68.5,42.7,89.8c-26.1,21.2-42.7,53.6-42.7,89.8c0,36.2,16.7,68.5,42.7,89.8
			c-26.1,21.2-42.7,53.6-42.7,89.8s16.7,68.5,42.7,89.8c-26.1,21.2-42.7,53.6-42.7,89.8s16.7,68.5,42.7,89.8
			c-26.1,21.2-42.7,53.6-42.7,89.8s16.7,68.5,42.7,89.8c-0.4,0.3-0.8,0.7-1.2,1h74.3v-2436h-115.3c-0.3,3.6-0.5,7.3-0.5,11
			C1009.2,21.7,1025.9,54,1051.9,75.3z"/>
		<path class="st5" d="M115.8-14.5c0-3.7-0.2-7.4-0.5-11H0v2436h74.3c-0.4-0.3-0.8-0.7-1.2-1c26.1-21.2,42.7-53.6,42.7-89.8
			s-16.7-68.5-42.7-89.8c26.1-21.2,42.7-53.6,42.7-89.8s-16.7-68.5-42.7-89.8c26.1-21.2,42.7-53.6,42.7-89.8s-16.7-68.5-42.7-89.8
			c26.1-21.2,42.7-53.6,42.7-89.8c0-36.2-16.7-68.5-42.7-89.8c26.1-21.2,42.7-53.6,42.7-89.8c0-36.2-16.7-68.5-42.7-89.8
			c26.1-21.2,42.7-53.6,42.7-89.8c0-36.2-16.7-68.5-42.7-89.8c26.1-21.2,42.7-53.6,42.7-89.8c0-36.2-16.7-68.5-42.7-89.8
			c26.1-21.2,42.7-53.6,42.7-89.8S99.1,994.3,73.1,973c26.1-21.2,42.7-53.6,42.7-89.8s-16.7-68.5-42.7-89.8
			c26.1-21.2,42.7-53.6,42.7-89.8s-16.7-68.5-42.7-89.8c26.1-21.2,42.7-53.6,42.7-89.8s-16.7-68.5-42.7-89.8
			c26.1-21.2,42.7-53.6,42.7-89.8s-16.7-68.5-42.7-89.8c26.1-21.2,42.7-53.6,42.7-89.8S99.1,96.5,73.1,75.3
			C99.1,54,115.8,21.7,115.8-14.5z"/>
		
			<ellipse transform="matrix(0.7071 -0.7071 0.7071 0.7071 -1383.1479 1503.968)" class="st5" cx="1123.9" cy="2421.6" rx="114.8" ry="114.8"/>
		<ellipse class="st5" cx="25.2" cy="-12.2" rx="90.6" ry="103.6"/>
		<rect x="1118.9" y="-12.2" class="st5" width="124.4" height="2572.6"/>
		<rect x="-119.4" y="5" class="st5" width="124.4" height="2555.4"/>
		<rect y="2431" class="st5" width="1123.9" height="124.4"/>
		
			<ellipse transform="matrix(0.7071 -0.7071 0.7071 0.7071 339.3574 790.4966)" class="st5" cx="1123.9" cy="-14.4" rx="114.8" ry="114.8"/>
		<path class="st5" d="M1120.5,2320.2c-36.2,0-68.5,16.7-89.8,42.7c-21.2-26.1-53.6-42.7-89.8-42.7s-68.5,16.7-89.8,42.7
			c-21.2-26.1-53.6-42.7-89.8-42.7s-68.5,16.7-89.8,42.7c-21.2-26.1-53.6-42.7-89.8-42.7s-68.5,16.7-89.8,42.7
			c-21.2-26.1-53.6-42.7-89.8-42.7s-68.5,16.7-89.8,42.7c-21.2-26.1-53.6-42.7-89.8-42.7s-68.5,16.7-89.8,42.7
			c-21.2-26.1-53.6-42.7-89.8-42.7c-15.2,0-29.8,3-43.1,8.3V2436h1125v-115.7C1123.5,2320.2,1122,2320.2,1120.5,2320.2z"/>
		<g>
			<path class="st3" d="M221.6,655.4c-2.7,0-5.6-1.3-7.4-3.8L69.8,450.3c-2.9-4-2-9.6,2-12.5s9.6-2,12.5,2l144.6,201.6
				c2.9,4,2,9.6-2,12.5C225.1,655,223.3,655.4,221.6,655.4z"/>
			<path class="st3" d="M416.6,720.4c-2.7,0-5.6-1.3-7.4-3.8L264.9,515.1c-2.9-4-2-9.6,2-12.5s9.6-2,12.5,2L424,706.1
				c2.9,4,2,9.6-2,12.5C420.4,719.8,418.4,720.4,416.6,720.4z"/>
			<path class="st3" d="M415.7,926c-2.7,0-5.6-1.3-7.4-3.8L263.8,720.7c-2.9-4-2-9.6,2-12.5s9.6-2,12.5,2l144.6,201.6
				c2.9,4,2,9.6-2,12.5C419.3,925.3,417.5,926,415.7,926z"/>
			<path class="st3" d="M428.9,840.9c-2.7,0-5.6-1.3-7.4-3.8L154.5,465c-2.9-4-2-9.6,2-12.5s9.6-2,12.5,2l267,372.1
				c2.9,4,2,9.6-2,12.5C432.5,840.2,430.7,840.9,428.9,840.9z"/>
			<path class="st3" d="M562.8,820.3c-2.7,0-5.6-1.3-7.4-3.8L216.9,344.6c-2.9-4-2-9.6,2-12.5s9.6-2,12.5,2L570.1,806
				c2.9,4,2,9.6-2,12.5C566.3,819.9,564.6,820.3,562.8,820.3z"/>
			<path class="st3" d="M330.8,911.3c-2.7,0-5.6-1.3-7.4-3.8L56.6,535.2c-2.9-4-2-9.6,2-12.5c4-2.7,9.6-1.8,12.5,2.2l267,372.3
				c2.9,4,2,9.6-2,12.5C334.4,910.6,332.6,911.3,330.8,911.3z"/>
		</g>
		<path class="st6" d="M422.6,311.7h-78.2c22.5,0,40.7-18.1,40.7-40.7s-18.1-40.7-40.7-40.7H-2.7c-22.5,0-40.7,18.1-40.7,40.7
			s18.1,40.7,40.7,40.7h125.1c-22.5,0-40.7,18.1-40.7,40.7c0,22.5,18.1,40.7,40.7,40.7H-2.7c-22.5,0-40.7,18.1-40.7,40.7
			c0,22.5,18.1,40.7,40.7,40.7h347.1c22.5,0,40.7-18.1,40.7-40.7c0-22.5-18.1-40.7-40.7-40.7h78.2c22.5,0,40.7-18.1,40.7-40.7
			C463.2,329.8,445.1,311.7,422.6,311.7z"/>
		<path class="st7" d="M588.3,393H288.1c-22.5,0-40.7,18.1-40.7,40.7c0,22.5,18.1,40.7,40.7,40.7h-93.8c-22.5,0-40.7,18.1-40.7,40.7
			c0,22.5,18.1,40.7,40.7,40.7h300.2c22.5,0,40.7-18.1,40.7-40.7c0-22.5-18.1-40.7-40.7-40.7h93.8c22.5,0,40.7-18.1,40.7-40.7
			C629,411.2,610.8,393,588.3,393z"/>
		<path class="st8" d="M246.3,1856.2L246.3,1856.2c0,0,1.6,32.1-3.4,42.9c-0.2,0.5,0.3,1,0.8,0.7c10.5-5.6,42.6-5.9,42.6-5.9l0,0
			c5.3,0.2,10.9-2,15.1-6.4c7.2-7.7,7.5-19.1,0.7-25.5c-6.5-6.1-17.1-5.5-24.3,1.1v-0.1h-0.1c6.2-7.6,6.2-18.2-0.3-24.3
			c-6.8-6.4-18.2-5.5-25.4,2.2C247.7,1845.2,245.8,1850.9,246.3,1856.2z"/>
		<path class="st8" d="M1019.8,968.9L1019.8,968.9c0,0-0.1,33.1-5.8,44c-0.3,0.5,0.2,1,0.7,0.8c11.1-5.2,44.2-3.9,44.2-3.9l0,0
			c5.4,0.5,11.3-1.5,15.8-5.8c7.8-7.5,8.7-19.3,2.1-26.2c-6.4-6.6-17.3-6.6-25.1-0.1v-0.1h-0.1c6.8-7.5,7.3-18.4,0.9-25.1
			c-6.7-7-18.5-6.6-26.3,0.9C1021.7,957.7,1019.5,963.4,1019.8,968.9z"/>
		<path class="st8" d="M1060,176.6L1060,176.6c0,0-12.2-19.7-12.5-27.8c0-0.4-0.5-0.6-0.8-0.3c-5.1,6.3-26.7,14.9-26.7,14.9l0,0
			c-3.6,1.3-6.6,4.1-7.9,8c-2.2,6.7,1.5,14,8.4,16.2c4.4,1.5,9.1,0.5,12.4-2.3c-1.1,3.3-3.5,9.3-7.1,10.9l2.2,0.7l2.8,0.9l2.8,0.9
			l2.2,0.7c-1.9-3.4-0.3-9.7,0.8-13c1,4.2,4.2,7.7,8.6,9.2c6.8,2.3,14.2-1.3,16.4-8C1062.9,183.9,1062.2,179.8,1060,176.6z"/>
		<path class="st8" d="M222.6,1746.6L222.6,1746.6c0,0-16.1-4.8-20.3-8.9c-0.2-0.2-0.5-0.1-0.5,0.2c0.3,5.9-7.2,20.9-7.2,20.9l0,0
			c-1.3,2.4-1.6,5.4-0.4,8.2c2.1,4.7,7.6,6.8,12.4,4.7c3.1-1.4,5.1-4.2,5.6-7.2c1,2.3,2.6,6.7,1.5,9.3l1.6-0.7l1.9-0.8l1.9-0.8
			l1.6-0.7c-2.7-0.9-4.8-5.1-5.9-7.4c2.6,1.7,6,2.2,9.1,0.8c4.8-2.1,7-7.6,4.9-12.3C227.7,1749.1,225.3,1747.3,222.6,1746.6z"/>
		<path class="st8" d="M580,1460.7c-0.6,0-1.2,0-1.8,0c1.6-2.5,2.6-5.3,2.8-8.5c0.5-9.4-6.8-17.4-16.2-17.9s-17.4,6.8-17.9,16.2
			c-0.2,3.2,0.6,6.2,2,8.9c-1-0.2-1.9-0.4-3-0.4c-9.4-0.5-17.4,6.8-17.9,16.2c-0.5,9.4,6.8,17.4,16.2,17.9
			c6.1,0.3,11.6-2.7,14.9-7.4c-0.2,4.5-1.2,13.1-5.2,16.4l3.1,0.2l3.8,0.2l3.8,0.2l3.1,0.2c-3.6-3.7-3.7-12.3-3.5-16.8
			c2.8,5,8,8.5,14.1,8.8c9.4,0.5,17.4-6.8,17.9-16.2C596.7,1469.2,589.4,1461.2,580,1460.7z M562.3,1474.9
			C562.3,1474.9,562.3,1475,562.3,1474.9l-0.2,0.1v-0.1C562.1,1474.9,562.2,1474.9,562.3,1474.9z"/>
		<path class="st8" d="M259,359.4c-0.3-0.3-0.6-0.5-0.9-0.8c1.9-0.6,3.6-1.6,5-3.1c4.3-4.6,4-11.8-0.5-16.1
			c-4.6-4.3-11.8-4-16.1,0.5c-1.5,1.6-2.4,3.4-2.8,5.4c-0.4-0.5-0.8-1-1.3-1.5c-4.6-4.3-11.8-4-16.1,0.5s-4,11.8,0.5,16.1
			c3,2.8,7.1,3.7,10.7,2.7c-2.1,2.2-6.2,6.1-9.7,6.1l1.5,1.4l1.9,1.7l1.9,1.7l1.5,1.4c-0.3-3.4,3.4-7.9,5.4-10.1
			c-0.7,3.7,0.4,7.7,3.4,10.5c4.6,4.3,11.8,4,16.1-0.5C263.8,370.9,263.6,363.7,259,359.4z M243.9,359L243.9,359l-0.1-0.1l0,0
			C243.8,358.9,243.9,359,243.9,359z"/>
		<path class="st8" d="M124.7,622.7c-0.6-0.4-1-1-1.1-1.8c-0.5-17.5-7.1-30.3-7.3-30.5c-0.4-0.6-0.4-1.4,0-2.1
			c0.4-0.7,1.1-1.1,1.8-1.1c0.2,0,14.5-0.8,29.9-9.5c0.6-0.4,1.4-0.4,2.1,0c0.6,0.4,1,1,1.1,1.8c0.5,17.6,7.2,30.3,7.3,30.5
			c0.4,0.6,0.4,1.4,0.1,2.1c-0.4,0.7-1,1.1-1.8,1.1l0,0c-0.2,0-14.5,0.9-29.9,9.5C126.1,623.1,125.3,623.1,124.7,622.7z"/>
		<path class="st8" d="M1019.2,2205.5c-1,0.3-2.1,0-2.9-0.7c-18.7-17.1-38.5-23.1-38.9-23.2c-1-0.2-1.9-1-2.2-2.1s0-2.2,0.7-3
			c0.2-0.2,13.7-15.9,20.3-40.5c0.3-1,1.1-1.8,2.1-2.1s2.1,0,2.9,0.7c18.7,17.1,38.6,23.1,38.9,23.2c1,0.2,1.9,1,2.2,2
			c0.3,1,0.1,2.2-0.7,3c0,0,0,0,0,0.1c-0.2,0.2-13.8,15.9-20.3,40.5C1021,2204.4,1020.2,2205.2,1019.2,2205.5z"/>
		<g>
			<path class="st5" d="M728.4,2283.2c0,0-6.6,20,0,43.2s9.7,30.1,3.1,37.3h-23.9c0,0-10.7-5-5.2-36c2.7-15.2,6.2-47.4,6.2-47.4
				L728.4,2283.2z"/>
			<path class="st4" d="M737,2256.1c0,0,33.7,13.6,32.6,33.6c-1,20-36,17.3-55,2.4s-42.3-11.2-43.6-25.7
				C670.3,2257.1,691.6,2238.5,737,2256.1z"/>
		</g>
	</g>
</g>
</svg>
